G04 #@! TF.GenerationSoftware,KiCad,Pcbnew,5.1.2*
G04 #@! TF.CreationDate,2019-05-12T19:07:36-07:00*
G04 #@! TF.ProjectId,dashboard_shield,64617368-626f-4617-9264-5f736869656c,rev?*
G04 #@! TF.SameCoordinates,Original*
G04 #@! TF.FileFunction,Legend,Top*
G04 #@! TF.FilePolarity,Positive*
%FSLAX46Y46*%
G04 Gerber Fmt 4.6, Leading zero omitted, Abs format (unit mm)*
G04 Created by KiCad (PCBNEW 5.1.2) date 2019-05-12 19:07:36*
%MOMM*%
%LPD*%
G04 APERTURE LIST*
%ADD10C,0.100000*%
%ADD11C,0.120000*%
%ADD12C,0.150000*%
%ADD13C,0.050000*%
G04 APERTURE END LIST*
D10*
G36*
X165735000Y-117475000D02*
G01*
X164465000Y-117475000D01*
X164465000Y-116205000D01*
X165735000Y-116205000D01*
X165735000Y-117475000D01*
G37*
X165735000Y-117475000D02*
X164465000Y-117475000D01*
X164465000Y-116205000D01*
X165735000Y-116205000D01*
X165735000Y-117475000D01*
G36*
X165735000Y-114935000D02*
G01*
X164465000Y-114935000D01*
X164465000Y-113665000D01*
X165735000Y-113665000D01*
X165735000Y-114935000D01*
G37*
X165735000Y-114935000D02*
X164465000Y-114935000D01*
X164465000Y-113665000D01*
X165735000Y-113665000D01*
X165735000Y-114935000D01*
D11*
X166370000Y-120650000D02*
X166370000Y-113030000D01*
X163830000Y-113030000D02*
X163830000Y-120650000D01*
X166370000Y-118110000D02*
X163830000Y-118110000D01*
X166370000Y-114935000D02*
X166370000Y-118110000D01*
X163830000Y-115570000D02*
X166370000Y-115570000D01*
X166370000Y-120650000D02*
X163830000Y-120650000D01*
X163830000Y-113030000D02*
X166370000Y-113030000D01*
X198755000Y-118745000D02*
X212090000Y-118745000D01*
D12*
X159480476Y-113752380D02*
X160051904Y-113752380D01*
X159766190Y-114752380D02*
X159766190Y-113752380D01*
X160385238Y-114228571D02*
X160718571Y-114228571D01*
X160861428Y-114752380D02*
X160385238Y-114752380D01*
X160385238Y-113752380D01*
X160861428Y-113752380D01*
X161861428Y-114752380D02*
X161528095Y-114276190D01*
X161290000Y-114752380D02*
X161290000Y-113752380D01*
X161670952Y-113752380D01*
X161766190Y-113800000D01*
X161813809Y-113847619D01*
X161861428Y-113942857D01*
X161861428Y-114085714D01*
X161813809Y-114180952D01*
X161766190Y-114228571D01*
X161670952Y-114276190D01*
X161290000Y-114276190D01*
X162290000Y-114752380D02*
X162290000Y-113752380D01*
X162623333Y-114466666D01*
X162956666Y-113752380D01*
X162956666Y-114752380D01*
D11*
X166370000Y-97790000D02*
X171450000Y-97790000D01*
X166370000Y-95250000D02*
X171450000Y-95250000D01*
X166370000Y-92710000D02*
X171450000Y-92710000D01*
X166370000Y-100330000D02*
X166370000Y-90170000D01*
X171450000Y-100330000D02*
X166370000Y-100330000D01*
X171450000Y-90170000D02*
X171450000Y-100330000D01*
X166370000Y-90170000D02*
X171450000Y-90170000D01*
X211455000Y-103632000D02*
X215265000Y-103632000D01*
X211455000Y-101981000D02*
X215265000Y-101981000D01*
X211455000Y-100330000D02*
X215265000Y-100330000D01*
D12*
X208669095Y-120213380D02*
X208192904Y-120213380D01*
X208192904Y-119213380D01*
X209002428Y-119689571D02*
X209335761Y-119689571D01*
X209478619Y-120213380D02*
X209002428Y-120213380D01*
X209002428Y-119213380D01*
X209478619Y-119213380D01*
X209907190Y-120213380D02*
X209907190Y-119213380D01*
X210145285Y-119213380D01*
X210288142Y-119261000D01*
X210383380Y-119356238D01*
X210431000Y-119451476D01*
X210478619Y-119641952D01*
X210478619Y-119784809D01*
X210431000Y-119975285D01*
X210383380Y-120070523D01*
X210288142Y-120165761D01*
X210145285Y-120213380D01*
X209907190Y-120213380D01*
X210907190Y-119832428D02*
X211669095Y-119832428D01*
D11*
X207645000Y-116840000D02*
X212090000Y-116840000D01*
X207645000Y-116840000D02*
X207645000Y-120650000D01*
X207645000Y-120650000D02*
X212090000Y-120650000D01*
D12*
X210113523Y-118181380D02*
X209780190Y-117705190D01*
X209542095Y-118181380D02*
X209542095Y-117181380D01*
X209923047Y-117181380D01*
X210018285Y-117229000D01*
X210065904Y-117276619D01*
X210113523Y-117371857D01*
X210113523Y-117514714D01*
X210065904Y-117609952D01*
X210018285Y-117657571D01*
X209923047Y-117705190D01*
X209542095Y-117705190D01*
D11*
X212090000Y-120650000D02*
X212090000Y-116840000D01*
D12*
X200390190Y-120213380D02*
X200390190Y-119213380D01*
X200866380Y-120213380D02*
X200866380Y-119213380D01*
X201437809Y-120213380D01*
X201437809Y-119213380D01*
D11*
X198755000Y-116840000D02*
X203200000Y-116840000D01*
X198755000Y-116840000D02*
X198755000Y-120650000D01*
X198755000Y-120650000D02*
X203200000Y-120650000D01*
D12*
X200985428Y-117657571D02*
X201128285Y-117705190D01*
X201175904Y-117752809D01*
X201223523Y-117848047D01*
X201223523Y-117990904D01*
X201175904Y-118086142D01*
X201128285Y-118133761D01*
X201033047Y-118181380D01*
X200652095Y-118181380D01*
X200652095Y-117181380D01*
X200985428Y-117181380D01*
X201080666Y-117229000D01*
X201128285Y-117276619D01*
X201175904Y-117371857D01*
X201175904Y-117467095D01*
X201128285Y-117562333D01*
X201080666Y-117609952D01*
X200985428Y-117657571D01*
X200652095Y-117657571D01*
D11*
X203200000Y-120650000D02*
X203200000Y-116840000D01*
X203200000Y-120650000D02*
X207645000Y-120650000D01*
X203200000Y-116840000D02*
X207645000Y-116840000D01*
X203200000Y-116840000D02*
X203200000Y-120650000D01*
X207645000Y-120650000D02*
X207645000Y-116840000D01*
D12*
X204597095Y-119261000D02*
X204501857Y-119213380D01*
X204359000Y-119213380D01*
X204216142Y-119261000D01*
X204120904Y-119356238D01*
X204073285Y-119451476D01*
X204025666Y-119641952D01*
X204025666Y-119784809D01*
X204073285Y-119975285D01*
X204120904Y-120070523D01*
X204216142Y-120165761D01*
X204359000Y-120213380D01*
X204454238Y-120213380D01*
X204597095Y-120165761D01*
X204644714Y-120118142D01*
X204644714Y-119784809D01*
X204454238Y-119784809D01*
X205073285Y-120213380D02*
X205073285Y-119213380D01*
X205644714Y-120213380D01*
X205644714Y-119213380D01*
X206120904Y-120213380D02*
X206120904Y-119213380D01*
X206359000Y-119213380D01*
X206501857Y-119261000D01*
X206597095Y-119356238D01*
X206644714Y-119451476D01*
X206692333Y-119641952D01*
X206692333Y-119784809D01*
X206644714Y-119975285D01*
X206597095Y-120070523D01*
X206501857Y-120165761D01*
X206359000Y-120213380D01*
X206120904Y-120213380D01*
X205620904Y-117229000D02*
X205525666Y-117181380D01*
X205382809Y-117181380D01*
X205239952Y-117229000D01*
X205144714Y-117324238D01*
X205097095Y-117419476D01*
X205049476Y-117609952D01*
X205049476Y-117752809D01*
X205097095Y-117943285D01*
X205144714Y-118038523D01*
X205239952Y-118133761D01*
X205382809Y-118181380D01*
X205478047Y-118181380D01*
X205620904Y-118133761D01*
X205668523Y-118086142D01*
X205668523Y-117752809D01*
X205478047Y-117752809D01*
D11*
X211455000Y-105410000D02*
X211455000Y-98425000D01*
X215265000Y-105410000D02*
X211455000Y-105410000D01*
X215265000Y-98425000D02*
X215265000Y-105410000D01*
X211455000Y-98425000D02*
X215265000Y-98425000D01*
D12*
X212725095Y-99006000D02*
X212629857Y-98958380D01*
X212487000Y-98958380D01*
X212344142Y-99006000D01*
X212248904Y-99101238D01*
X212201285Y-99196476D01*
X212153666Y-99386952D01*
X212153666Y-99529809D01*
X212201285Y-99720285D01*
X212248904Y-99815523D01*
X212344142Y-99910761D01*
X212487000Y-99958380D01*
X212582238Y-99958380D01*
X212725095Y-99910761D01*
X212772714Y-99863142D01*
X212772714Y-99529809D01*
X212582238Y-99529809D01*
X213201285Y-99958380D02*
X213201285Y-98958380D01*
X213772714Y-99958380D01*
X213772714Y-98958380D01*
X214248904Y-99958380D02*
X214248904Y-98958380D01*
X214487000Y-98958380D01*
X214629857Y-99006000D01*
X214725095Y-99101238D01*
X214772714Y-99196476D01*
X214820333Y-99386952D01*
X214820333Y-99529809D01*
X214772714Y-99720285D01*
X214725095Y-99815523D01*
X214629857Y-99910761D01*
X214487000Y-99958380D01*
X214248904Y-99958380D01*
X212463190Y-101560761D02*
X212606047Y-101608380D01*
X212844142Y-101608380D01*
X212939380Y-101560761D01*
X212987000Y-101513142D01*
X213034619Y-101417904D01*
X213034619Y-101322666D01*
X212987000Y-101227428D01*
X212939380Y-101179809D01*
X212844142Y-101132190D01*
X212653666Y-101084571D01*
X212558428Y-101036952D01*
X212510809Y-100989333D01*
X212463190Y-100894095D01*
X212463190Y-100798857D01*
X212510809Y-100703619D01*
X212558428Y-100656000D01*
X212653666Y-100608380D01*
X212891761Y-100608380D01*
X213034619Y-100656000D01*
X213463190Y-101608380D02*
X213463190Y-100608380D01*
X214463190Y-100656000D02*
X214367952Y-100608380D01*
X214225095Y-100608380D01*
X214082238Y-100656000D01*
X213987000Y-100751238D01*
X213939380Y-100846476D01*
X213891761Y-101036952D01*
X213891761Y-101179809D01*
X213939380Y-101370285D01*
X213987000Y-101465523D01*
X214082238Y-101560761D01*
X214225095Y-101608380D01*
X214320333Y-101608380D01*
X214463190Y-101560761D01*
X214510809Y-101513142D01*
X214510809Y-101179809D01*
X214320333Y-101179809D01*
X213296523Y-102258380D02*
X212820333Y-102258380D01*
X212772714Y-102734571D01*
X212820333Y-102686952D01*
X212915571Y-102639333D01*
X213153666Y-102639333D01*
X213248904Y-102686952D01*
X213296523Y-102734571D01*
X213344142Y-102829809D01*
X213344142Y-103067904D01*
X213296523Y-103163142D01*
X213248904Y-103210761D01*
X213153666Y-103258380D01*
X212915571Y-103258380D01*
X212820333Y-103210761D01*
X212772714Y-103163142D01*
X213629857Y-102258380D02*
X213963190Y-103258380D01*
X214296523Y-102258380D01*
X212725095Y-103956000D02*
X212629857Y-103908380D01*
X212487000Y-103908380D01*
X212344142Y-103956000D01*
X212248904Y-104051238D01*
X212201285Y-104146476D01*
X212153666Y-104336952D01*
X212153666Y-104479809D01*
X212201285Y-104670285D01*
X212248904Y-104765523D01*
X212344142Y-104860761D01*
X212487000Y-104908380D01*
X212582238Y-104908380D01*
X212725095Y-104860761D01*
X212772714Y-104813142D01*
X212772714Y-104479809D01*
X212582238Y-104479809D01*
X213201285Y-104908380D02*
X213201285Y-103908380D01*
X213772714Y-104908380D01*
X213772714Y-103908380D01*
X214248904Y-104908380D02*
X214248904Y-103908380D01*
X214487000Y-103908380D01*
X214629857Y-103956000D01*
X214725095Y-104051238D01*
X214772714Y-104146476D01*
X214820333Y-104336952D01*
X214820333Y-104479809D01*
X214772714Y-104670285D01*
X214725095Y-104765523D01*
X214629857Y-104860761D01*
X214487000Y-104908380D01*
X214248904Y-104908380D01*
X167844933Y-99544142D02*
X167797314Y-99591761D01*
X167654457Y-99639380D01*
X167559219Y-99639380D01*
X167416361Y-99591761D01*
X167321123Y-99496523D01*
X167273504Y-99401285D01*
X167225885Y-99210809D01*
X167225885Y-99067952D01*
X167273504Y-98877476D01*
X167321123Y-98782238D01*
X167416361Y-98687000D01*
X167559219Y-98639380D01*
X167654457Y-98639380D01*
X167797314Y-98687000D01*
X167844933Y-98734619D01*
X168225885Y-99353666D02*
X168702076Y-99353666D01*
X168130647Y-99639380D02*
X168463980Y-98639380D01*
X168797314Y-99639380D01*
X169130647Y-99639380D02*
X169130647Y-98639380D01*
X169702076Y-99639380D01*
X169702076Y-98639380D01*
X170178266Y-99639380D02*
X170178266Y-98639380D01*
X170178266Y-99115571D02*
X170749695Y-99115571D01*
X170749695Y-99639380D02*
X170749695Y-98639380D01*
X167862380Y-97080342D02*
X167814761Y-97127961D01*
X167671904Y-97175580D01*
X167576666Y-97175580D01*
X167433809Y-97127961D01*
X167338571Y-97032723D01*
X167290952Y-96937485D01*
X167243333Y-96747009D01*
X167243333Y-96604152D01*
X167290952Y-96413676D01*
X167338571Y-96318438D01*
X167433809Y-96223200D01*
X167576666Y-96175580D01*
X167671904Y-96175580D01*
X167814761Y-96223200D01*
X167862380Y-96270819D01*
X168243333Y-96889866D02*
X168719523Y-96889866D01*
X168148095Y-97175580D02*
X168481428Y-96175580D01*
X168814761Y-97175580D01*
X169148095Y-97175580D02*
X169148095Y-96175580D01*
X169719523Y-97175580D01*
X169719523Y-96175580D01*
X170671904Y-97175580D02*
X170195714Y-97175580D01*
X170195714Y-96175580D01*
X167743333Y-94464142D02*
X167695714Y-94511761D01*
X167552857Y-94559380D01*
X167457619Y-94559380D01*
X167314761Y-94511761D01*
X167219523Y-94416523D01*
X167171904Y-94321285D01*
X167124285Y-94130809D01*
X167124285Y-93987952D01*
X167171904Y-93797476D01*
X167219523Y-93702238D01*
X167314761Y-93607000D01*
X167457619Y-93559380D01*
X167552857Y-93559380D01*
X167695714Y-93607000D01*
X167743333Y-93654619D01*
X168124285Y-94273666D02*
X168600476Y-94273666D01*
X168029047Y-94559380D02*
X168362380Y-93559380D01*
X168695714Y-94559380D01*
X169029047Y-94559380D02*
X169029047Y-93559380D01*
X169600476Y-94559380D01*
X169600476Y-93559380D01*
X170076666Y-94559380D02*
X170076666Y-93559380D01*
X170076666Y-94035571D02*
X170648095Y-94035571D01*
X170648095Y-94559380D02*
X170648095Y-93559380D01*
X167862380Y-91924142D02*
X167814761Y-91971761D01*
X167671904Y-92019380D01*
X167576666Y-92019380D01*
X167433809Y-91971761D01*
X167338571Y-91876523D01*
X167290952Y-91781285D01*
X167243333Y-91590809D01*
X167243333Y-91447952D01*
X167290952Y-91257476D01*
X167338571Y-91162238D01*
X167433809Y-91067000D01*
X167576666Y-91019380D01*
X167671904Y-91019380D01*
X167814761Y-91067000D01*
X167862380Y-91114619D01*
X168243333Y-91733666D02*
X168719523Y-91733666D01*
X168148095Y-92019380D02*
X168481428Y-91019380D01*
X168814761Y-92019380D01*
X169148095Y-92019380D02*
X169148095Y-91019380D01*
X169719523Y-92019380D01*
X169719523Y-91019380D01*
X170671904Y-92019380D02*
X170195714Y-92019380D01*
X170195714Y-91019380D01*
D13*
X158115000Y-121920000D02*
X158115000Y-62230000D01*
X220980000Y-121920000D02*
X158115000Y-121920000D01*
X220980000Y-62230000D02*
X220980000Y-121920000D01*
X158115000Y-62230000D02*
X220980000Y-62230000D01*
D11*
X164829800Y-100517000D02*
X163499800Y-100517000D01*
X164829800Y-99187000D02*
X164829800Y-100517000D01*
X164829800Y-97917000D02*
X162169800Y-97917000D01*
X162169800Y-97917000D02*
X162169800Y-90237000D01*
X164829800Y-97917000D02*
X164829800Y-90237000D01*
X164829800Y-90237000D02*
X162169800Y-90237000D01*
D12*
X193802000Y-114554000D02*
X176022000Y-114554000D01*
X193802000Y-78994000D02*
X193802000Y-114554000D01*
X176022000Y-78994000D02*
X193802000Y-78994000D01*
X176022000Y-114554000D02*
X176022000Y-78994000D01*
X189992000Y-87884000D02*
X189992000Y-96774000D01*
X179832000Y-87884000D02*
X179832000Y-96774000D01*
X179832000Y-96774000D02*
X189992000Y-96774000D01*
X189992000Y-87884000D02*
X179832000Y-87884000D01*
X182372000Y-84074000D02*
X182372000Y-81534000D01*
X187452000Y-84074000D02*
X182372000Y-84074000D01*
X187452000Y-81534000D02*
X187452000Y-84074000D01*
X182372000Y-81534000D02*
X187452000Y-81534000D01*
X187452000Y-108204000D02*
X189992000Y-108204000D01*
X187452000Y-105664000D02*
X187452000Y-108204000D01*
X189992000Y-105664000D02*
X187452000Y-105664000D01*
X189992000Y-108204000D02*
X189992000Y-105664000D01*
X188722000Y-109474000D02*
X188722000Y-114554000D01*
X181102000Y-109474000D02*
X181102000Y-114554000D01*
X188722000Y-109474000D02*
X181102000Y-109474000D01*
X187452000Y-103124000D02*
X189992000Y-103124000D01*
X187452000Y-99314000D02*
X187452000Y-103124000D01*
X189992000Y-99314000D02*
X187452000Y-99314000D01*
X189992000Y-103124000D02*
X189992000Y-99314000D01*
X181102000Y-115824000D02*
X181102000Y-114554000D01*
X188722000Y-115824000D02*
X181102000Y-115824000D01*
X188722000Y-114554000D02*
X188722000Y-115824000D01*
D11*
X164829800Y-110346800D02*
X163499800Y-110346800D01*
X164829800Y-109016800D02*
X164829800Y-110346800D01*
X164829800Y-107746800D02*
X162169800Y-107746800D01*
X162169800Y-107746800D02*
X162169800Y-102606800D01*
X164829800Y-107746800D02*
X164829800Y-102606800D01*
X164829800Y-102606800D02*
X162169800Y-102606800D01*
X167607348Y-104646800D02*
X168129852Y-104646800D01*
X167607348Y-103226800D02*
X168129852Y-103226800D01*
X167607348Y-107212200D02*
X168129852Y-107212200D01*
X167607348Y-105792200D02*
X168129852Y-105792200D01*
X167337200Y-109772267D02*
X167337200Y-109429733D01*
X166317200Y-109772267D02*
X166317200Y-109429733D01*
X212274333Y-93829600D02*
X212616867Y-93829600D01*
X212274333Y-92809600D02*
X212616867Y-92809600D01*
X211177600Y-78733467D02*
X211177600Y-78390933D01*
X210157600Y-78733467D02*
X210157600Y-78390933D01*
X170686600Y-77075000D02*
X170686600Y-78815000D01*
X168946600Y-77075000D02*
X170686600Y-77075000D01*
X170446600Y-86515000D02*
X168446600Y-86515000D01*
X170446600Y-83715000D02*
X170446600Y-86515000D01*
X170446600Y-77315000D02*
X170446600Y-80115000D01*
X155846600Y-77315000D02*
X170446600Y-77315000D01*
X155846600Y-86515000D02*
X155846600Y-77315000D01*
X164846600Y-86515000D02*
X155846600Y-86515000D01*
X205527600Y-114080600D02*
X205527600Y-112750600D01*
X206857600Y-114080600D02*
X205527600Y-114080600D01*
X205527600Y-111480600D02*
X205527600Y-108880600D01*
X208127600Y-111480600D02*
X205527600Y-111480600D01*
X208127600Y-114080600D02*
X208127600Y-111480600D01*
X205527600Y-108880600D02*
X213267600Y-108880600D01*
X208127600Y-114080600D02*
X213267600Y-114080600D01*
X213267600Y-114080600D02*
X213267600Y-108880600D01*
D12*
X198537600Y-92709600D02*
X196737600Y-92709600D01*
X198537600Y-105609600D02*
X206287600Y-105609600D01*
X198537600Y-92459600D02*
X206287600Y-92459600D01*
X198537600Y-105609600D02*
X198537600Y-105274600D01*
X206287600Y-105609600D02*
X206287600Y-105274600D01*
X206287600Y-92459600D02*
X206287600Y-92794600D01*
X198537600Y-92459600D02*
X198537600Y-92709600D01*
X166918400Y-118610200D02*
X166918400Y-120010200D01*
X172018400Y-118610200D02*
X172018400Y-114460200D01*
X166868400Y-118610200D02*
X166868400Y-114460200D01*
X172018400Y-118610200D02*
X171873400Y-118610200D01*
X172018400Y-114460200D02*
X171873400Y-114460200D01*
X166868400Y-114460200D02*
X167013400Y-114460200D01*
X166868400Y-118610200D02*
X166918400Y-118610200D01*
X198537600Y-78765000D02*
X196737600Y-78765000D01*
X198537600Y-91665000D02*
X206287600Y-91665000D01*
X198537600Y-78515000D02*
X206287600Y-78515000D01*
X198537600Y-91665000D02*
X198537600Y-91330000D01*
X206287600Y-91665000D02*
X206287600Y-91330000D01*
X206287600Y-78515000D02*
X206287600Y-78850000D01*
X198537600Y-78515000D02*
X198537600Y-78765000D01*
D11*
X216170200Y-68951800D02*
X217500200Y-68951800D01*
X216170200Y-70281800D02*
X216170200Y-68951800D01*
X216170200Y-71551800D02*
X218830200Y-71551800D01*
X218830200Y-71551800D02*
X218830200Y-79231800D01*
X216170200Y-71551800D02*
X216170200Y-79231800D01*
X216170200Y-79231800D02*
X218830200Y-79231800D01*
X216119400Y-80712000D02*
X217449400Y-80712000D01*
X216119400Y-82042000D02*
X216119400Y-80712000D01*
X216119400Y-83312000D02*
X218779400Y-83312000D01*
X218779400Y-83312000D02*
X218779400Y-90992000D01*
X216119400Y-83312000D02*
X216119400Y-90992000D01*
X216119400Y-90992000D02*
X218779400Y-90992000D01*
X195697800Y-74151800D02*
X195697800Y-72821800D01*
X197027800Y-74151800D02*
X195697800Y-74151800D01*
X195697800Y-71551800D02*
X195697800Y-68951800D01*
X198297800Y-71551800D02*
X195697800Y-71551800D01*
X198297800Y-74151800D02*
X198297800Y-71551800D01*
X195697800Y-68951800D02*
X203437800Y-68951800D01*
X198297800Y-74151800D02*
X203437800Y-74151800D01*
X203437800Y-74151800D02*
X203437800Y-68951800D01*
X206721400Y-74177200D02*
X206721400Y-72847200D01*
X208051400Y-74177200D02*
X206721400Y-74177200D01*
X206721400Y-71577200D02*
X206721400Y-68977200D01*
X209321400Y-71577200D02*
X206721400Y-71577200D01*
X209321400Y-74177200D02*
X209321400Y-71577200D01*
X206721400Y-68977200D02*
X214461400Y-68977200D01*
X209321400Y-74177200D02*
X214461400Y-74177200D01*
X214461400Y-74177200D02*
X214461400Y-68977200D01*
X216119400Y-103851400D02*
X217449400Y-103851400D01*
X216119400Y-105181400D02*
X216119400Y-103851400D01*
X216119400Y-106451400D02*
X218779400Y-106451400D01*
X218779400Y-106451400D02*
X218779400Y-114131400D01*
X216119400Y-106451400D02*
X216119400Y-114131400D01*
X216119400Y-114131400D02*
X218779400Y-114131400D01*
X216144800Y-92319800D02*
X217474800Y-92319800D01*
X216144800Y-93649800D02*
X216144800Y-92319800D01*
X216144800Y-94919800D02*
X218804800Y-94919800D01*
X218804800Y-94919800D02*
X218804800Y-102599800D01*
X216144800Y-94919800D02*
X216144800Y-102599800D01*
X216144800Y-102599800D02*
X218804800Y-102599800D01*
X196358200Y-114080600D02*
X196358200Y-112750600D01*
X197688200Y-114080600D02*
X196358200Y-114080600D01*
X196358200Y-111480600D02*
X196358200Y-108880600D01*
X198958200Y-111480600D02*
X196358200Y-111480600D01*
X198958200Y-114080600D02*
X198958200Y-111480600D01*
X196358200Y-108880600D02*
X204098200Y-108880600D01*
X198958200Y-114080600D02*
X204098200Y-114080600D01*
X204098200Y-114080600D02*
X204098200Y-108880600D01*
D12*
X174204380Y-97535904D02*
X175013904Y-97535904D01*
X175109142Y-97488285D01*
X175156761Y-97440666D01*
X175204380Y-97345428D01*
X175204380Y-97154952D01*
X175156761Y-97059714D01*
X175109142Y-97012095D01*
X175013904Y-96964476D01*
X174204380Y-96964476D01*
X174299619Y-96535904D02*
X174252000Y-96488285D01*
X174204380Y-96393047D01*
X174204380Y-96154952D01*
X174252000Y-96059714D01*
X174299619Y-96012095D01*
X174394857Y-95964476D01*
X174490095Y-95964476D01*
X174632952Y-96012095D01*
X175204380Y-96583523D01*
X175204380Y-95964476D01*
X167232033Y-102560380D02*
X166898700Y-102084190D01*
X166660604Y-102560380D02*
X166660604Y-101560380D01*
X167041557Y-101560380D01*
X167136795Y-101608000D01*
X167184414Y-101655619D01*
X167232033Y-101750857D01*
X167232033Y-101893714D01*
X167184414Y-101988952D01*
X167136795Y-102036571D01*
X167041557Y-102084190D01*
X166660604Y-102084190D01*
X167612985Y-101655619D02*
X167660604Y-101608000D01*
X167755842Y-101560380D01*
X167993938Y-101560380D01*
X168089176Y-101608000D01*
X168136795Y-101655619D01*
X168184414Y-101750857D01*
X168184414Y-101846095D01*
X168136795Y-101988952D01*
X167565366Y-102560380D01*
X168184414Y-102560380D01*
X168590933Y-108694480D02*
X168257600Y-108218290D01*
X168019504Y-108694480D02*
X168019504Y-107694480D01*
X168400457Y-107694480D01*
X168495695Y-107742100D01*
X168543314Y-107789719D01*
X168590933Y-107884957D01*
X168590933Y-108027814D01*
X168543314Y-108123052D01*
X168495695Y-108170671D01*
X168400457Y-108218290D01*
X168019504Y-108218290D01*
X169543314Y-108694480D02*
X168971885Y-108694480D01*
X169257600Y-108694480D02*
X169257600Y-107694480D01*
X169162361Y-107837338D01*
X169067123Y-107932576D01*
X168971885Y-107980195D01*
X167155833Y-112409242D02*
X167108214Y-112456861D01*
X166965357Y-112504480D01*
X166870119Y-112504480D01*
X166727261Y-112456861D01*
X166632023Y-112361623D01*
X166584404Y-112266385D01*
X166536785Y-112075909D01*
X166536785Y-111933052D01*
X166584404Y-111742576D01*
X166632023Y-111647338D01*
X166727261Y-111552100D01*
X166870119Y-111504480D01*
X166965357Y-111504480D01*
X167108214Y-111552100D01*
X167155833Y-111599719D01*
X167727261Y-111933052D02*
X167632023Y-111885433D01*
X167584404Y-111837814D01*
X167536785Y-111742576D01*
X167536785Y-111694957D01*
X167584404Y-111599719D01*
X167632023Y-111552100D01*
X167727261Y-111504480D01*
X167917738Y-111504480D01*
X168012976Y-111552100D01*
X168060595Y-111599719D01*
X168108214Y-111694957D01*
X168108214Y-111742576D01*
X168060595Y-111837814D01*
X168012976Y-111885433D01*
X167917738Y-111933052D01*
X167727261Y-111933052D01*
X167632023Y-111980671D01*
X167584404Y-112028290D01*
X167536785Y-112123528D01*
X167536785Y-112314004D01*
X167584404Y-112409242D01*
X167632023Y-112456861D01*
X167727261Y-112504480D01*
X167917738Y-112504480D01*
X168012976Y-112456861D01*
X168060595Y-112409242D01*
X168108214Y-112314004D01*
X168108214Y-112123528D01*
X168060595Y-112028290D01*
X168012976Y-111980671D01*
X167917738Y-111933052D01*
X212278933Y-92246742D02*
X212231314Y-92294361D01*
X212088457Y-92341980D01*
X211993219Y-92341980D01*
X211850361Y-92294361D01*
X211755123Y-92199123D01*
X211707504Y-92103885D01*
X211659885Y-91913409D01*
X211659885Y-91770552D01*
X211707504Y-91580076D01*
X211755123Y-91484838D01*
X211850361Y-91389600D01*
X211993219Y-91341980D01*
X212088457Y-91341980D01*
X212231314Y-91389600D01*
X212278933Y-91437219D01*
X212612266Y-91341980D02*
X213278933Y-91341980D01*
X212850361Y-92341980D01*
X212751942Y-78817766D02*
X212799561Y-78865385D01*
X212847180Y-79008242D01*
X212847180Y-79103480D01*
X212799561Y-79246338D01*
X212704323Y-79341576D01*
X212609085Y-79389195D01*
X212418609Y-79436814D01*
X212275752Y-79436814D01*
X212085276Y-79389195D01*
X211990038Y-79341576D01*
X211894800Y-79246338D01*
X211847180Y-79103480D01*
X211847180Y-79008242D01*
X211894800Y-78865385D01*
X211942419Y-78817766D01*
X212180514Y-77960623D02*
X212847180Y-77960623D01*
X211799561Y-78198719D02*
X212513847Y-78436814D01*
X212513847Y-77817766D01*
X162957095Y-76169780D02*
X162385666Y-76169780D01*
X162671380Y-76169780D02*
X162671380Y-75169780D01*
X162576142Y-75312638D01*
X162480904Y-75407876D01*
X162385666Y-75455495D01*
X163338047Y-75265019D02*
X163385666Y-75217400D01*
X163480904Y-75169780D01*
X163719000Y-75169780D01*
X163814238Y-75217400D01*
X163861857Y-75265019D01*
X163909476Y-75360257D01*
X163909476Y-75455495D01*
X163861857Y-75598352D01*
X163290428Y-76169780D01*
X163909476Y-76169780D01*
X164195190Y-75169780D02*
X164528523Y-76169780D01*
X164861857Y-75169780D01*
X164957095Y-76265019D02*
X165719000Y-76265019D01*
X165957095Y-76169780D02*
X165957095Y-75169780D01*
X166433285Y-76169780D02*
X166433285Y-75169780D01*
X167004714Y-76169780D01*
X167004714Y-75169780D01*
X208113476Y-115523971D02*
X208256333Y-115571590D01*
X208303952Y-115619209D01*
X208351571Y-115714447D01*
X208351571Y-115857304D01*
X208303952Y-115952542D01*
X208256333Y-116000161D01*
X208161095Y-116047780D01*
X207780142Y-116047780D01*
X207780142Y-115047780D01*
X208113476Y-115047780D01*
X208208714Y-115095400D01*
X208256333Y-115143019D01*
X208303952Y-115238257D01*
X208303952Y-115333495D01*
X208256333Y-115428733D01*
X208208714Y-115476352D01*
X208113476Y-115523971D01*
X207780142Y-115523971D01*
X208637285Y-115047780D02*
X209208714Y-115047780D01*
X208923000Y-116047780D02*
X208923000Y-115047780D01*
X209542047Y-116047780D02*
X209542047Y-115047780D01*
X210113476Y-116047780D01*
X210113476Y-115047780D01*
X211113476Y-116047780D02*
X210542047Y-116047780D01*
X210827761Y-116047780D02*
X210827761Y-115047780D01*
X210732523Y-115190638D01*
X210637285Y-115285876D01*
X210542047Y-115333495D01*
X200555457Y-106633971D02*
X200698314Y-106681590D01*
X200745933Y-106729209D01*
X200793552Y-106824447D01*
X200793552Y-106967304D01*
X200745933Y-107062542D01*
X200698314Y-107110161D01*
X200603076Y-107157780D01*
X200222123Y-107157780D01*
X200222123Y-106157780D01*
X200555457Y-106157780D01*
X200650695Y-106205400D01*
X200698314Y-106253019D01*
X200745933Y-106348257D01*
X200745933Y-106443495D01*
X200698314Y-106538733D01*
X200650695Y-106586352D01*
X200555457Y-106633971D01*
X200222123Y-106633971D01*
X201174504Y-106872066D02*
X201650695Y-106872066D01*
X201079266Y-107157780D02*
X201412600Y-106157780D01*
X201745933Y-107157780D01*
X202079266Y-107157780D02*
X202079266Y-106157780D01*
X202650695Y-107157780D01*
X202650695Y-106157780D01*
X203126885Y-107157780D02*
X203126885Y-106157780D01*
X203698314Y-107157780D02*
X203269742Y-106586352D01*
X203698314Y-106157780D02*
X203126885Y-106729209D01*
X204317361Y-106157780D02*
X204412600Y-106157780D01*
X204507838Y-106205400D01*
X204555457Y-106253019D01*
X204603076Y-106348257D01*
X204650695Y-106538733D01*
X204650695Y-106776828D01*
X204603076Y-106967304D01*
X204555457Y-107062542D01*
X204507838Y-107110161D01*
X204412600Y-107157780D01*
X204317361Y-107157780D01*
X204222123Y-107110161D01*
X204174504Y-107062542D01*
X204126885Y-106967304D01*
X204079266Y-106776828D01*
X204079266Y-106538733D01*
X204126885Y-106348257D01*
X204174504Y-106253019D01*
X204222123Y-106205400D01*
X204317361Y-106157780D01*
X172770895Y-115987580D02*
X172770895Y-116797104D01*
X172818514Y-116892342D01*
X172866133Y-116939961D01*
X172961371Y-116987580D01*
X173151847Y-116987580D01*
X173247085Y-116939961D01*
X173294704Y-116892342D01*
X173342323Y-116797104D01*
X173342323Y-115987580D01*
X173723276Y-115987580D02*
X174342323Y-115987580D01*
X174008990Y-116368533D01*
X174151847Y-116368533D01*
X174247085Y-116416152D01*
X174294704Y-116463771D01*
X174342323Y-116559009D01*
X174342323Y-116797104D01*
X174294704Y-116892342D01*
X174247085Y-116939961D01*
X174151847Y-116987580D01*
X173866133Y-116987580D01*
X173770895Y-116939961D01*
X173723276Y-116892342D01*
X200504657Y-77347771D02*
X200647514Y-77395390D01*
X200695133Y-77443009D01*
X200742752Y-77538247D01*
X200742752Y-77681104D01*
X200695133Y-77776342D01*
X200647514Y-77823961D01*
X200552276Y-77871580D01*
X200171323Y-77871580D01*
X200171323Y-76871580D01*
X200504657Y-76871580D01*
X200599895Y-76919200D01*
X200647514Y-76966819D01*
X200695133Y-77062057D01*
X200695133Y-77157295D01*
X200647514Y-77252533D01*
X200599895Y-77300152D01*
X200504657Y-77347771D01*
X200171323Y-77347771D01*
X201123704Y-77585866D02*
X201599895Y-77585866D01*
X201028466Y-77871580D02*
X201361800Y-76871580D01*
X201695133Y-77871580D01*
X202028466Y-77871580D02*
X202028466Y-76871580D01*
X202599895Y-77871580D01*
X202599895Y-76871580D01*
X203076085Y-77871580D02*
X203076085Y-76871580D01*
X203647514Y-77871580D02*
X203218942Y-77300152D01*
X203647514Y-76871580D02*
X203076085Y-77443009D01*
X204599895Y-77871580D02*
X204028466Y-77871580D01*
X204314180Y-77871580D02*
X204314180Y-76871580D01*
X204218942Y-77014438D01*
X204123704Y-77109676D01*
X204028466Y-77157295D01*
X212885495Y-77211180D02*
X212885495Y-76211180D01*
X213456923Y-77211180D01*
X213456923Y-76211180D01*
X213933114Y-77211180D02*
X213933114Y-76211180D01*
X214314066Y-76211180D01*
X214409304Y-76258800D01*
X214456923Y-76306419D01*
X214504542Y-76401657D01*
X214504542Y-76544514D01*
X214456923Y-76639752D01*
X214409304Y-76687371D01*
X214314066Y-76734990D01*
X213933114Y-76734990D01*
X214837876Y-76211180D02*
X215456923Y-76211180D01*
X215123590Y-76592133D01*
X215266447Y-76592133D01*
X215361685Y-76639752D01*
X215409304Y-76687371D01*
X215456923Y-76782609D01*
X215456923Y-77020704D01*
X215409304Y-77115942D01*
X215361685Y-77163561D01*
X215266447Y-77211180D01*
X214980733Y-77211180D01*
X214885495Y-77163561D01*
X214837876Y-77115942D01*
X212656895Y-86380580D02*
X212656895Y-85380580D01*
X213228323Y-86380580D01*
X213228323Y-85380580D01*
X213704514Y-86380580D02*
X213704514Y-85380580D01*
X214085466Y-85380580D01*
X214180704Y-85428200D01*
X214228323Y-85475819D01*
X214275942Y-85571057D01*
X214275942Y-85713914D01*
X214228323Y-85809152D01*
X214180704Y-85856771D01*
X214085466Y-85904390D01*
X213704514Y-85904390D01*
X214656895Y-85475819D02*
X214704514Y-85428200D01*
X214799752Y-85380580D01*
X215037847Y-85380580D01*
X215133085Y-85428200D01*
X215180704Y-85475819D01*
X215228323Y-85571057D01*
X215228323Y-85666295D01*
X215180704Y-85809152D01*
X214609276Y-86380580D01*
X215228323Y-86380580D01*
X198232876Y-75493571D02*
X198375733Y-75541190D01*
X198423352Y-75588809D01*
X198470971Y-75684047D01*
X198470971Y-75826904D01*
X198423352Y-75922142D01*
X198375733Y-75969761D01*
X198280495Y-76017380D01*
X197899542Y-76017380D01*
X197899542Y-75017380D01*
X198232876Y-75017380D01*
X198328114Y-75065000D01*
X198375733Y-75112619D01*
X198423352Y-75207857D01*
X198423352Y-75303095D01*
X198375733Y-75398333D01*
X198328114Y-75445952D01*
X198232876Y-75493571D01*
X197899542Y-75493571D01*
X198756685Y-75017380D02*
X199328114Y-75017380D01*
X199042400Y-76017380D02*
X199042400Y-75017380D01*
X199661447Y-76017380D02*
X199661447Y-75017380D01*
X200232876Y-76017380D01*
X200232876Y-75017380D01*
X200613828Y-75017380D02*
X201232876Y-75017380D01*
X200899542Y-75398333D01*
X201042400Y-75398333D01*
X201137638Y-75445952D01*
X201185257Y-75493571D01*
X201232876Y-75588809D01*
X201232876Y-75826904D01*
X201185257Y-75922142D01*
X201137638Y-75969761D01*
X201042400Y-76017380D01*
X200756685Y-76017380D01*
X200661447Y-75969761D01*
X200613828Y-75922142D01*
X209281876Y-75620571D02*
X209424733Y-75668190D01*
X209472352Y-75715809D01*
X209519971Y-75811047D01*
X209519971Y-75953904D01*
X209472352Y-76049142D01*
X209424733Y-76096761D01*
X209329495Y-76144380D01*
X208948542Y-76144380D01*
X208948542Y-75144380D01*
X209281876Y-75144380D01*
X209377114Y-75192000D01*
X209424733Y-75239619D01*
X209472352Y-75334857D01*
X209472352Y-75430095D01*
X209424733Y-75525333D01*
X209377114Y-75572952D01*
X209281876Y-75620571D01*
X208948542Y-75620571D01*
X209805685Y-75144380D02*
X210377114Y-75144380D01*
X210091400Y-76144380D02*
X210091400Y-75144380D01*
X210710447Y-76144380D02*
X210710447Y-75144380D01*
X211281876Y-76144380D01*
X211281876Y-75144380D01*
X211710447Y-75239619D02*
X211758066Y-75192000D01*
X211853304Y-75144380D01*
X212091400Y-75144380D01*
X212186638Y-75192000D01*
X212234257Y-75239619D01*
X212281876Y-75334857D01*
X212281876Y-75430095D01*
X212234257Y-75572952D01*
X211662828Y-76144380D01*
X212281876Y-76144380D01*
X212656895Y-106903780D02*
X212656895Y-105903780D01*
X213228323Y-106903780D01*
X213228323Y-105903780D01*
X213704514Y-106903780D02*
X213704514Y-105903780D01*
X214085466Y-105903780D01*
X214180704Y-105951400D01*
X214228323Y-105999019D01*
X214275942Y-106094257D01*
X214275942Y-106237114D01*
X214228323Y-106332352D01*
X214180704Y-106379971D01*
X214085466Y-106427590D01*
X213704514Y-106427590D01*
X214894990Y-105903780D02*
X214990228Y-105903780D01*
X215085466Y-105951400D01*
X215133085Y-105999019D01*
X215180704Y-106094257D01*
X215228323Y-106284733D01*
X215228323Y-106522828D01*
X215180704Y-106713304D01*
X215133085Y-106808542D01*
X215085466Y-106856161D01*
X214990228Y-106903780D01*
X214894990Y-106903780D01*
X214799752Y-106856161D01*
X214752133Y-106808542D01*
X214704514Y-106713304D01*
X214656895Y-106522828D01*
X214656895Y-106284733D01*
X214704514Y-106094257D01*
X214752133Y-105999019D01*
X214799752Y-105951400D01*
X214894990Y-105903780D01*
X212733095Y-97962980D02*
X212733095Y-96962980D01*
X213304523Y-97962980D01*
X213304523Y-96962980D01*
X213780714Y-97962980D02*
X213780714Y-96962980D01*
X214161666Y-96962980D01*
X214256904Y-97010600D01*
X214304523Y-97058219D01*
X214352142Y-97153457D01*
X214352142Y-97296314D01*
X214304523Y-97391552D01*
X214256904Y-97439171D01*
X214161666Y-97486790D01*
X213780714Y-97486790D01*
X215304523Y-97962980D02*
X214733095Y-97962980D01*
X215018809Y-97962980D02*
X215018809Y-96962980D01*
X214923571Y-97105838D01*
X214828333Y-97201076D01*
X214733095Y-97248695D01*
X198944076Y-115473171D02*
X199086933Y-115520790D01*
X199134552Y-115568409D01*
X199182171Y-115663647D01*
X199182171Y-115806504D01*
X199134552Y-115901742D01*
X199086933Y-115949361D01*
X198991695Y-115996980D01*
X198610742Y-115996980D01*
X198610742Y-114996980D01*
X198944076Y-114996980D01*
X199039314Y-115044600D01*
X199086933Y-115092219D01*
X199134552Y-115187457D01*
X199134552Y-115282695D01*
X199086933Y-115377933D01*
X199039314Y-115425552D01*
X198944076Y-115473171D01*
X198610742Y-115473171D01*
X199467885Y-114996980D02*
X200039314Y-114996980D01*
X199753600Y-115996980D02*
X199753600Y-114996980D01*
X200372647Y-115996980D02*
X200372647Y-114996980D01*
X200944076Y-115996980D01*
X200944076Y-114996980D01*
X201610742Y-114996980D02*
X201705980Y-114996980D01*
X201801219Y-115044600D01*
X201848838Y-115092219D01*
X201896457Y-115187457D01*
X201944076Y-115377933D01*
X201944076Y-115616028D01*
X201896457Y-115806504D01*
X201848838Y-115901742D01*
X201801219Y-115949361D01*
X201705980Y-115996980D01*
X201610742Y-115996980D01*
X201515504Y-115949361D01*
X201467885Y-115901742D01*
X201420266Y-115806504D01*
X201372647Y-115616028D01*
X201372647Y-115377933D01*
X201420266Y-115187457D01*
X201467885Y-115092219D01*
X201515504Y-115044600D01*
X201610742Y-114996980D01*
M02*
