M48
; DRILL file {KiCad 5.1.2} date Sun 12 May 2019 07:07:33 PM PDT
; FORMAT={-:-/ absolute / inch / decimal}
; #@! TF.CreationDate,2019-05-12T19:07:33-07:00
; #@! TF.GenerationSoftware,Kicad,Pcbnew,5.1.2
; #@! TF.FileFunction,Plated,1,2,PTH
FMAT,2
INCH
T1C0.0157
T2C0.0394
T3C0.0430
T4C0.0433
T5C0.0630
%
G90
G05
T1
X6.511Y-4.406
X6.644Y-4.624
X6.697Y-4.626
X6.708Y-4.193
X7.141Y-4.68
X7.536Y-2.867
X7.536Y-3.0153
X7.579Y-3.029
X7.617Y-2.977
X7.667Y-4.641
X7.672Y-2.977
X7.689Y-3.976
X7.691Y-4.026
X7.704Y-3.376
X7.7087Y-3.672
X7.709Y-3.575
X7.711Y-3.125
X7.711Y-3.176
X7.711Y-3.224
X7.713Y-4.125
X8.231Y-3.175
X8.231Y-3.724
X8.232Y-3.058
X8.232Y-3.375
X8.232Y-3.426
X8.232Y-3.476
X8.233Y-3.975
X8.234Y-3.923
X8.235Y-3.874
X8.399Y-3.725
T2
X8.563Y-2.767
X8.563Y-2.867
X8.563Y-2.967
X8.563Y-3.067
X8.561Y-4.141
X8.561Y-4.241
X8.561Y-4.341
X8.561Y-4.441
X8.562Y-3.687
X8.562Y-3.787
X8.562Y-3.887
X8.562Y-3.987
X6.437Y-4.092
X6.437Y-4.192
X6.437Y-4.292
X7.783Y-4.339
X7.783Y-4.439
X7.883Y-4.339
X7.883Y-4.439
X7.983Y-4.339
X7.983Y-4.439
X7.757Y-2.767
X7.757Y-2.867
X7.857Y-2.767
X7.857Y-2.867
X7.957Y-2.767
X7.957Y-2.867
X6.437Y-3.605
X6.437Y-3.705
X6.437Y-3.805
X6.437Y-3.905
X8.144Y-4.339
X8.144Y-4.439
X8.244Y-4.339
X8.244Y-4.439
X8.344Y-4.339
X8.344Y-4.439
X8.191Y-2.768
X8.191Y-2.868
X8.291Y-2.768
X8.291Y-2.868
X8.391Y-2.768
X8.391Y-2.868
X8.561Y-3.23
X8.561Y-3.33
X8.561Y-3.43
X8.561Y-3.53
T3
X6.579Y-2.727
X6.679Y-2.727
X7.179Y-2.727
X7.279Y-2.727
X7.379Y-2.727
T4
X6.98Y-3.16
X6.98Y-3.26
X6.98Y-3.36
X6.98Y-3.46
X6.98Y-3.56
X6.98Y-3.66
X6.98Y-3.76
X6.98Y-3.86
X6.98Y-3.96
X6.98Y-4.06
X6.98Y-4.16
X6.98Y-4.26
X6.98Y-4.36
X6.98Y-4.46
X7.58Y-3.16
X7.58Y-3.26
X7.58Y-3.36
X7.58Y-3.46
X7.58Y-3.56
X7.58Y-3.66
X7.58Y-3.76
X7.58Y-3.86
X7.58Y-3.96
X7.58Y-4.06
X7.58Y-4.16
X7.58Y-4.26
X7.58Y-4.36
X7.58Y-4.46
T5
X6.4428Y-3.225
X6.5609Y-3.41
X6.679Y-3.225
T0
M30
