G04 #@! TF.GenerationSoftware,KiCad,Pcbnew,5.1.2*
G04 #@! TF.CreationDate,2019-05-12T19:07:36-07:00*
G04 #@! TF.ProjectId,dashboard_shield,64617368-626f-4617-9264-5f736869656c,rev?*
G04 #@! TF.SameCoordinates,Original*
G04 #@! TF.FileFunction,Legend,Bot*
G04 #@! TF.FilePolarity,Positive*
%FSLAX46Y46*%
G04 Gerber Fmt 4.6, Leading zero omitted, Abs format (unit mm)*
G04 Created by KiCad (PCBNEW 5.1.2) date 2019-05-12 19:07:36*
%MOMM*%
%LPD*%
G04 APERTURE LIST*
%ADD10C,0.050000*%
%ADD11C,0.150000*%
%ADD12C,0.100000*%
%ADD13C,0.120000*%
G04 APERTURE END LIST*
D10*
X158115000Y-121920000D02*
X158115000Y-62230000D01*
X220980000Y-121920000D02*
X158115000Y-121920000D01*
X220980000Y-62230000D02*
X220980000Y-121920000D01*
X158115000Y-62230000D02*
X220980000Y-62230000D01*
D11*
X164566600Y-71805800D02*
X189966600Y-71805800D01*
X164566600Y-49580800D02*
X164566600Y-71805800D01*
X189966600Y-49580800D02*
X164566600Y-49580800D01*
X189966600Y-71805800D02*
X189966600Y-49580800D01*
D12*
X179350600Y-67386600D02*
X178050600Y-67386600D01*
X179350600Y-67286600D02*
X178050600Y-67286600D01*
X179350600Y-67186600D02*
X178050600Y-67186600D01*
X179350600Y-67086600D02*
X178050600Y-67086600D01*
X173150600Y-67386600D02*
X174450600Y-67386600D01*
X173150600Y-67286600D02*
X174450600Y-67286600D01*
X173150600Y-67186600D02*
X174450600Y-67186600D01*
X173150600Y-67086600D02*
X174450600Y-67086600D01*
X173150600Y-74186600D02*
X173150600Y-73686600D01*
X173150600Y-74186600D02*
X173650600Y-74186600D01*
X173150600Y-66986600D02*
X173150600Y-67486600D01*
X173150600Y-66986600D02*
X174450600Y-66986600D01*
X179350600Y-66986600D02*
X179350600Y-67486600D01*
X179350600Y-66986600D02*
X178050600Y-66986600D01*
X179350600Y-74186600D02*
X178850600Y-74186600D01*
X179350600Y-74186600D02*
X179350600Y-73686600D01*
X174450600Y-66986600D02*
X174450600Y-67386600D01*
X178050600Y-66986600D02*
X178050600Y-67386600D01*
D13*
X215235200Y-116745936D02*
X215235200Y-117950064D01*
X213415200Y-116745936D02*
X213415200Y-117950064D01*
X168750064Y-75426400D02*
X167545936Y-75426400D01*
X168750064Y-72706400D02*
X167545936Y-72706400D01*
X169386067Y-116613400D02*
X169043533Y-116613400D01*
X169386067Y-115593400D02*
X169043533Y-115593400D01*
X183186800Y-74555533D02*
X183186800Y-74898067D01*
X182166800Y-74555533D02*
X182166800Y-74898067D01*
X214752600Y-88018536D02*
X214752600Y-89222664D01*
X212932600Y-88018536D02*
X212932600Y-89222664D01*
X214905000Y-99600936D02*
X214905000Y-100805064D01*
X213085000Y-99600936D02*
X213085000Y-100805064D01*
X212742864Y-67026200D02*
X211538736Y-67026200D01*
X212742864Y-65206200D02*
X211538736Y-65206200D01*
X181551948Y-112650200D02*
X182074452Y-112650200D01*
X181551948Y-114070200D02*
X182074452Y-114070200D01*
X188362000Y-74886736D02*
X188362000Y-76090864D01*
X186542000Y-74886736D02*
X186542000Y-76090864D01*
D11*
X165187380Y-63516190D02*
X165187380Y-63706666D01*
X165235000Y-63801904D01*
X165330238Y-63897142D01*
X165520714Y-63944761D01*
X165854047Y-63944761D01*
X166044523Y-63897142D01*
X166139761Y-63801904D01*
X166187380Y-63706666D01*
X166187380Y-63516190D01*
X166139761Y-63420952D01*
X166044523Y-63325714D01*
X165854047Y-63278095D01*
X165520714Y-63278095D01*
X165330238Y-63325714D01*
X165235000Y-63420952D01*
X165187380Y-63516190D01*
X166187380Y-64373333D02*
X165187380Y-64373333D01*
X166187380Y-64944761D01*
X165187380Y-64944761D01*
X165139761Y-66135238D02*
X166425476Y-65278095D01*
X165187380Y-66659047D02*
X165187380Y-66849523D01*
X165235000Y-66944761D01*
X165330238Y-67040000D01*
X165520714Y-67087619D01*
X165854047Y-67087619D01*
X166044523Y-67040000D01*
X166139761Y-66944761D01*
X166187380Y-66849523D01*
X166187380Y-66659047D01*
X166139761Y-66563809D01*
X166044523Y-66468571D01*
X165854047Y-66420952D01*
X165520714Y-66420952D01*
X165330238Y-66468571D01*
X165235000Y-66563809D01*
X165187380Y-66659047D01*
X165663571Y-67849523D02*
X165663571Y-67516190D01*
X166187380Y-67516190D02*
X165187380Y-67516190D01*
X165187380Y-67992380D01*
X165663571Y-68706666D02*
X165663571Y-68373333D01*
X166187380Y-68373333D02*
X165187380Y-68373333D01*
X165187380Y-68849523D01*
X169098980Y-64944809D02*
X170098980Y-65278142D01*
X169098980Y-65611476D01*
X170194219Y-65706714D02*
X170194219Y-66468619D01*
X170098980Y-66706714D02*
X169098980Y-66706714D01*
X170098980Y-67182904D02*
X169098980Y-67182904D01*
X170098980Y-67754333D01*
X169098980Y-67754333D01*
X181846600Y-65659095D02*
X181798980Y-65563857D01*
X181798980Y-65421000D01*
X181846600Y-65278142D01*
X181941838Y-65182904D01*
X182037076Y-65135285D01*
X182227552Y-65087666D01*
X182370409Y-65087666D01*
X182560885Y-65135285D01*
X182656123Y-65182904D01*
X182751361Y-65278142D01*
X182798980Y-65421000D01*
X182798980Y-65516238D01*
X182751361Y-65659095D01*
X182703742Y-65706714D01*
X182370409Y-65706714D01*
X182370409Y-65516238D01*
X182798980Y-66135285D02*
X181798980Y-66135285D01*
X182798980Y-66706714D01*
X181798980Y-66706714D01*
X182798980Y-67182904D02*
X181798980Y-67182904D01*
X181798980Y-67421000D01*
X181846600Y-67563857D01*
X181941838Y-67659095D01*
X182037076Y-67706714D01*
X182227552Y-67754333D01*
X182370409Y-67754333D01*
X182560885Y-67706714D01*
X182656123Y-67659095D01*
X182751361Y-67563857D01*
X182798980Y-67421000D01*
X182798980Y-67182904D01*
X184288180Y-64749561D02*
X184288180Y-65320990D01*
X185288180Y-65035276D02*
X184288180Y-65035276D01*
X185288180Y-66225752D02*
X184811990Y-65892419D01*
X185288180Y-65654323D02*
X184288180Y-65654323D01*
X184288180Y-66035276D01*
X184335800Y-66130514D01*
X184383419Y-66178133D01*
X184478657Y-66225752D01*
X184621514Y-66225752D01*
X184716752Y-66178133D01*
X184764371Y-66130514D01*
X184811990Y-66035276D01*
X184811990Y-65654323D01*
X185288180Y-66654323D02*
X184288180Y-66654323D01*
X185288180Y-67130514D02*
X184288180Y-67130514D01*
X185002466Y-67463847D01*
X184288180Y-67797180D01*
X185288180Y-67797180D01*
X188656980Y-64760742D02*
X189656980Y-65094076D01*
X188656980Y-65427409D01*
X189752219Y-65522647D02*
X189752219Y-66284552D01*
X188656980Y-66713123D02*
X188656980Y-66903600D01*
X188704600Y-66998838D01*
X188799838Y-67094076D01*
X188990314Y-67141695D01*
X189323647Y-67141695D01*
X189514123Y-67094076D01*
X189609361Y-66998838D01*
X189656980Y-66903600D01*
X189656980Y-66713123D01*
X189609361Y-66617885D01*
X189514123Y-66522647D01*
X189323647Y-66475028D01*
X188990314Y-66475028D01*
X188799838Y-66522647D01*
X188704600Y-66617885D01*
X188656980Y-66713123D01*
X188656980Y-67570266D02*
X189466504Y-67570266D01*
X189561742Y-67617885D01*
X189609361Y-67665504D01*
X189656980Y-67760742D01*
X189656980Y-67951219D01*
X189609361Y-68046457D01*
X189561742Y-68094076D01*
X189466504Y-68141695D01*
X188656980Y-68141695D01*
X188656980Y-68475028D02*
X188656980Y-69046457D01*
X189656980Y-68760742D02*
X188656980Y-68760742D01*
X172872980Y-69848504D02*
X171872980Y-69848504D01*
X171872980Y-70086600D01*
X171920600Y-70229457D01*
X172015838Y-70324695D01*
X172111076Y-70372314D01*
X172301552Y-70419933D01*
X172444409Y-70419933D01*
X172634885Y-70372314D01*
X172730123Y-70324695D01*
X172825361Y-70229457D01*
X172872980Y-70086600D01*
X172872980Y-69848504D01*
X172872980Y-71372314D02*
X172872980Y-70800885D01*
X172872980Y-71086600D02*
X171872980Y-71086600D01*
X172015838Y-70991361D01*
X172111076Y-70896123D01*
X172158695Y-70800885D01*
X212862342Y-116705142D02*
X212909961Y-116657523D01*
X212957580Y-116514666D01*
X212957580Y-116419428D01*
X212909961Y-116276571D01*
X212814723Y-116181333D01*
X212719485Y-116133714D01*
X212529009Y-116086095D01*
X212386152Y-116086095D01*
X212195676Y-116133714D01*
X212100438Y-116181333D01*
X212005200Y-116276571D01*
X211957580Y-116419428D01*
X211957580Y-116514666D01*
X212005200Y-116657523D01*
X212052819Y-116705142D01*
X212957580Y-117657523D02*
X212957580Y-117086095D01*
X212957580Y-117371809D02*
X211957580Y-117371809D01*
X212100438Y-117276571D01*
X212195676Y-117181333D01*
X212243295Y-117086095D01*
X211957580Y-118276571D02*
X211957580Y-118371809D01*
X212005200Y-118467047D01*
X212052819Y-118514666D01*
X212148057Y-118562285D01*
X212338533Y-118609904D01*
X212576628Y-118609904D01*
X212767104Y-118562285D01*
X212862342Y-118514666D01*
X212909961Y-118467047D01*
X212957580Y-118371809D01*
X212957580Y-118276571D01*
X212909961Y-118181333D01*
X212862342Y-118133714D01*
X212767104Y-118086095D01*
X212576628Y-118038476D01*
X212338533Y-118038476D01*
X212148057Y-118086095D01*
X212052819Y-118133714D01*
X212005200Y-118181333D01*
X211957580Y-118276571D01*
X168314666Y-72143542D02*
X168362285Y-72191161D01*
X168505142Y-72238780D01*
X168600380Y-72238780D01*
X168743238Y-72191161D01*
X168838476Y-72095923D01*
X168886095Y-72000685D01*
X168933714Y-71810209D01*
X168933714Y-71667352D01*
X168886095Y-71476876D01*
X168838476Y-71381638D01*
X168743238Y-71286400D01*
X168600380Y-71238780D01*
X168505142Y-71238780D01*
X168362285Y-71286400D01*
X168314666Y-71334019D01*
X167933714Y-71334019D02*
X167886095Y-71286400D01*
X167790857Y-71238780D01*
X167552761Y-71238780D01*
X167457523Y-71286400D01*
X167409904Y-71334019D01*
X167362285Y-71429257D01*
X167362285Y-71524495D01*
X167409904Y-71667352D01*
X167981333Y-72238780D01*
X167362285Y-72238780D01*
X169381466Y-115030542D02*
X169429085Y-115078161D01*
X169571942Y-115125780D01*
X169667180Y-115125780D01*
X169810038Y-115078161D01*
X169905276Y-114982923D01*
X169952895Y-114887685D01*
X170000514Y-114697209D01*
X170000514Y-114554352D01*
X169952895Y-114363876D01*
X169905276Y-114268638D01*
X169810038Y-114173400D01*
X169667180Y-114125780D01*
X169571942Y-114125780D01*
X169429085Y-114173400D01*
X169381466Y-114221019D01*
X168429085Y-115125780D02*
X169000514Y-115125780D01*
X168714800Y-115125780D02*
X168714800Y-114125780D01*
X168810038Y-114268638D01*
X168905276Y-114363876D01*
X169000514Y-114411495D01*
X181699180Y-74560133D02*
X181222990Y-74226800D01*
X181699180Y-73988704D02*
X180699180Y-73988704D01*
X180699180Y-74369657D01*
X180746800Y-74464895D01*
X180794419Y-74512514D01*
X180889657Y-74560133D01*
X181032514Y-74560133D01*
X181127752Y-74512514D01*
X181175371Y-74464895D01*
X181222990Y-74369657D01*
X181222990Y-73988704D01*
X180699180Y-74893466D02*
X180699180Y-75512514D01*
X181080133Y-75179180D01*
X181080133Y-75322038D01*
X181127752Y-75417276D01*
X181175371Y-75464895D01*
X181270609Y-75512514D01*
X181508704Y-75512514D01*
X181603942Y-75464895D01*
X181651561Y-75417276D01*
X181699180Y-75322038D01*
X181699180Y-75036323D01*
X181651561Y-74941085D01*
X181603942Y-74893466D01*
X212379742Y-87977742D02*
X212427361Y-87930123D01*
X212474980Y-87787266D01*
X212474980Y-87692028D01*
X212427361Y-87549171D01*
X212332123Y-87453933D01*
X212236885Y-87406314D01*
X212046409Y-87358695D01*
X211903552Y-87358695D01*
X211713076Y-87406314D01*
X211617838Y-87453933D01*
X211522600Y-87549171D01*
X211474980Y-87692028D01*
X211474980Y-87787266D01*
X211522600Y-87930123D01*
X211570219Y-87977742D01*
X212474980Y-88930123D02*
X212474980Y-88358695D01*
X212474980Y-88644409D02*
X211474980Y-88644409D01*
X211617838Y-88549171D01*
X211713076Y-88453933D01*
X211760695Y-88358695D01*
X212474980Y-89882504D02*
X212474980Y-89311076D01*
X212474980Y-89596790D02*
X211474980Y-89596790D01*
X211617838Y-89501552D01*
X211713076Y-89406314D01*
X211760695Y-89311076D01*
X212532142Y-100036333D02*
X212579761Y-99988714D01*
X212627380Y-99845857D01*
X212627380Y-99750619D01*
X212579761Y-99607761D01*
X212484523Y-99512523D01*
X212389285Y-99464904D01*
X212198809Y-99417285D01*
X212055952Y-99417285D01*
X211865476Y-99464904D01*
X211770238Y-99512523D01*
X211675000Y-99607761D01*
X211627380Y-99750619D01*
X211627380Y-99845857D01*
X211675000Y-99988714D01*
X211722619Y-100036333D01*
X212627380Y-100512523D02*
X212627380Y-100703000D01*
X212579761Y-100798238D01*
X212532142Y-100845857D01*
X212389285Y-100941095D01*
X212198809Y-100988714D01*
X211817857Y-100988714D01*
X211722619Y-100941095D01*
X211675000Y-100893476D01*
X211627380Y-100798238D01*
X211627380Y-100607761D01*
X211675000Y-100512523D01*
X211722619Y-100464904D01*
X211817857Y-100417285D01*
X212055952Y-100417285D01*
X212151190Y-100464904D01*
X212198809Y-100512523D01*
X212246428Y-100607761D01*
X212246428Y-100798238D01*
X212198809Y-100893476D01*
X212151190Y-100941095D01*
X212055952Y-100988714D01*
X212307466Y-64653342D02*
X212355085Y-64700961D01*
X212497942Y-64748580D01*
X212593180Y-64748580D01*
X212736038Y-64700961D01*
X212831276Y-64605723D01*
X212878895Y-64510485D01*
X212926514Y-64320009D01*
X212926514Y-64177152D01*
X212878895Y-63986676D01*
X212831276Y-63891438D01*
X212736038Y-63796200D01*
X212593180Y-63748580D01*
X212497942Y-63748580D01*
X212355085Y-63796200D01*
X212307466Y-63843819D01*
X211450323Y-63748580D02*
X211640800Y-63748580D01*
X211736038Y-63796200D01*
X211783657Y-63843819D01*
X211878895Y-63986676D01*
X211926514Y-64177152D01*
X211926514Y-64558104D01*
X211878895Y-64653342D01*
X211831276Y-64700961D01*
X211736038Y-64748580D01*
X211545561Y-64748580D01*
X211450323Y-64700961D01*
X211402704Y-64653342D01*
X211355085Y-64558104D01*
X211355085Y-64320009D01*
X211402704Y-64224771D01*
X211450323Y-64177152D01*
X211545561Y-64129533D01*
X211736038Y-64129533D01*
X211831276Y-64177152D01*
X211878895Y-64224771D01*
X211926514Y-64320009D01*
X181979866Y-115367342D02*
X182027485Y-115414961D01*
X182170342Y-115462580D01*
X182265580Y-115462580D01*
X182408438Y-115414961D01*
X182503676Y-115319723D01*
X182551295Y-115224485D01*
X182598914Y-115034009D01*
X182598914Y-114891152D01*
X182551295Y-114700676D01*
X182503676Y-114605438D01*
X182408438Y-114510200D01*
X182265580Y-114462580D01*
X182170342Y-114462580D01*
X182027485Y-114510200D01*
X181979866Y-114557819D01*
X181075104Y-114462580D02*
X181551295Y-114462580D01*
X181598914Y-114938771D01*
X181551295Y-114891152D01*
X181456057Y-114843533D01*
X181217961Y-114843533D01*
X181122723Y-114891152D01*
X181075104Y-114938771D01*
X181027485Y-115034009D01*
X181027485Y-115272104D01*
X181075104Y-115367342D01*
X181122723Y-115414961D01*
X181217961Y-115462580D01*
X181456057Y-115462580D01*
X181551295Y-115414961D01*
X181598914Y-115367342D01*
X185989142Y-75322133D02*
X186036761Y-75274514D01*
X186084380Y-75131657D01*
X186084380Y-75036419D01*
X186036761Y-74893561D01*
X185941523Y-74798323D01*
X185846285Y-74750704D01*
X185655809Y-74703085D01*
X185512952Y-74703085D01*
X185322476Y-74750704D01*
X185227238Y-74798323D01*
X185132000Y-74893561D01*
X185084380Y-75036419D01*
X185084380Y-75131657D01*
X185132000Y-75274514D01*
X185179619Y-75322133D01*
X185084380Y-75655466D02*
X185084380Y-76274514D01*
X185465333Y-75941180D01*
X185465333Y-76084038D01*
X185512952Y-76179276D01*
X185560571Y-76226895D01*
X185655809Y-76274514D01*
X185893904Y-76274514D01*
X185989142Y-76226895D01*
X186036761Y-76179276D01*
X186084380Y-76084038D01*
X186084380Y-75798323D01*
X186036761Y-75703085D01*
X185989142Y-75655466D01*
M02*
