G04 #@! TF.GenerationSoftware,KiCad,Pcbnew,5.1.2*
G04 #@! TF.CreationDate,2019-05-12T19:07:36-07:00*
G04 #@! TF.ProjectId,dashboard_shield,64617368-626f-4617-9264-5f736869656c,rev?*
G04 #@! TF.SameCoordinates,Original*
G04 #@! TF.FileFunction,Copper,L1,Top*
G04 #@! TF.FilePolarity,Positive*
%FSLAX46Y46*%
G04 Gerber Fmt 4.6, Leading zero omitted, Abs format (unit mm)*
G04 Created by KiCad (PCBNEW 5.1.2) date 2019-05-12 19:07:36*
%MOMM*%
%LPD*%
G04 APERTURE LIST*
%ADD10C,0.050000*%
%ADD11C,1.625600*%
%ADD12O,1.700000X1.700000*%
%ADD13R,1.700000X1.700000*%
%ADD14R,1.600000X1.600000*%
%ADD15C,1.600000*%
%ADD16C,0.100000*%
%ADD17C,1.150000*%
%ADD18C,0.950000*%
%ADD19C,2.600000*%
%ADD20R,2.600000X2.600000*%
%ADD21R,1.950000X0.600000*%
%ADD22R,0.600000X1.550000*%
%ADD23C,0.800000*%
%ADD24C,0.254000*%
G04 APERTURE END LIST*
D10*
X158115000Y-121920000D02*
X158115000Y-62230000D01*
X220980000Y-121920000D02*
X158115000Y-121920000D01*
X220980000Y-62230000D02*
X220980000Y-121920000D01*
X158115000Y-62230000D02*
X220980000Y-62230000D01*
D11*
X167106600Y-69265800D03*
X169646600Y-69265800D03*
X182346600Y-69265800D03*
X184886600Y-69265800D03*
X187426600Y-69265800D03*
D12*
X163499800Y-91567000D03*
X163499800Y-94107000D03*
X163499800Y-96647000D03*
D13*
X163499800Y-99187000D03*
D14*
X192532000Y-113284000D03*
D15*
X192532000Y-110744000D03*
X192532000Y-108204000D03*
X192532000Y-105664000D03*
X192532000Y-103124000D03*
X192532000Y-100584000D03*
X192532000Y-98044000D03*
X192532000Y-95504000D03*
X192532000Y-92964000D03*
X192532000Y-90424000D03*
X192532000Y-87884000D03*
X192532000Y-85344000D03*
X192532000Y-82804000D03*
X177292000Y-113284000D03*
X177292000Y-110744000D03*
X177292000Y-108204000D03*
X177292000Y-105664000D03*
X177292000Y-103124000D03*
X177292000Y-100584000D03*
X177292000Y-98044000D03*
X177292000Y-95504000D03*
X177292000Y-92964000D03*
X177292000Y-90424000D03*
X177292000Y-87884000D03*
X177292000Y-85344000D03*
X177292000Y-82804000D03*
X192532000Y-80264000D03*
X177292000Y-80264000D03*
D12*
X163499800Y-103936800D03*
X163499800Y-106476800D03*
D13*
X163499800Y-109016800D03*
D16*
G36*
X169243105Y-103238004D02*
G01*
X169267373Y-103241604D01*
X169291172Y-103247565D01*
X169314271Y-103255830D01*
X169336450Y-103266320D01*
X169357493Y-103278932D01*
X169377199Y-103293547D01*
X169395377Y-103310023D01*
X169411853Y-103328201D01*
X169426468Y-103347907D01*
X169439080Y-103368950D01*
X169449570Y-103391129D01*
X169457835Y-103414228D01*
X169463796Y-103438027D01*
X169467396Y-103462295D01*
X169468600Y-103486799D01*
X169468600Y-104386801D01*
X169467396Y-104411305D01*
X169463796Y-104435573D01*
X169457835Y-104459372D01*
X169449570Y-104482471D01*
X169439080Y-104504650D01*
X169426468Y-104525693D01*
X169411853Y-104545399D01*
X169395377Y-104563577D01*
X169377199Y-104580053D01*
X169357493Y-104594668D01*
X169336450Y-104607280D01*
X169314271Y-104617770D01*
X169291172Y-104626035D01*
X169267373Y-104631996D01*
X169243105Y-104635596D01*
X169218601Y-104636800D01*
X168568599Y-104636800D01*
X168544095Y-104635596D01*
X168519827Y-104631996D01*
X168496028Y-104626035D01*
X168472929Y-104617770D01*
X168450750Y-104607280D01*
X168429707Y-104594668D01*
X168410001Y-104580053D01*
X168391823Y-104563577D01*
X168375347Y-104545399D01*
X168360732Y-104525693D01*
X168348120Y-104504650D01*
X168337630Y-104482471D01*
X168329365Y-104459372D01*
X168323404Y-104435573D01*
X168319804Y-104411305D01*
X168318600Y-104386801D01*
X168318600Y-103486799D01*
X168319804Y-103462295D01*
X168323404Y-103438027D01*
X168329365Y-103414228D01*
X168337630Y-103391129D01*
X168348120Y-103368950D01*
X168360732Y-103347907D01*
X168375347Y-103328201D01*
X168391823Y-103310023D01*
X168410001Y-103293547D01*
X168429707Y-103278932D01*
X168450750Y-103266320D01*
X168472929Y-103255830D01*
X168496028Y-103247565D01*
X168519827Y-103241604D01*
X168544095Y-103238004D01*
X168568599Y-103236800D01*
X169218601Y-103236800D01*
X169243105Y-103238004D01*
X169243105Y-103238004D01*
G37*
D17*
X168893600Y-103936800D03*
D16*
G36*
X167193105Y-103238004D02*
G01*
X167217373Y-103241604D01*
X167241172Y-103247565D01*
X167264271Y-103255830D01*
X167286450Y-103266320D01*
X167307493Y-103278932D01*
X167327199Y-103293547D01*
X167345377Y-103310023D01*
X167361853Y-103328201D01*
X167376468Y-103347907D01*
X167389080Y-103368950D01*
X167399570Y-103391129D01*
X167407835Y-103414228D01*
X167413796Y-103438027D01*
X167417396Y-103462295D01*
X167418600Y-103486799D01*
X167418600Y-104386801D01*
X167417396Y-104411305D01*
X167413796Y-104435573D01*
X167407835Y-104459372D01*
X167399570Y-104482471D01*
X167389080Y-104504650D01*
X167376468Y-104525693D01*
X167361853Y-104545399D01*
X167345377Y-104563577D01*
X167327199Y-104580053D01*
X167307493Y-104594668D01*
X167286450Y-104607280D01*
X167264271Y-104617770D01*
X167241172Y-104626035D01*
X167217373Y-104631996D01*
X167193105Y-104635596D01*
X167168601Y-104636800D01*
X166518599Y-104636800D01*
X166494095Y-104635596D01*
X166469827Y-104631996D01*
X166446028Y-104626035D01*
X166422929Y-104617770D01*
X166400750Y-104607280D01*
X166379707Y-104594668D01*
X166360001Y-104580053D01*
X166341823Y-104563577D01*
X166325347Y-104545399D01*
X166310732Y-104525693D01*
X166298120Y-104504650D01*
X166287630Y-104482471D01*
X166279365Y-104459372D01*
X166273404Y-104435573D01*
X166269804Y-104411305D01*
X166268600Y-104386801D01*
X166268600Y-103486799D01*
X166269804Y-103462295D01*
X166273404Y-103438027D01*
X166279365Y-103414228D01*
X166287630Y-103391129D01*
X166298120Y-103368950D01*
X166310732Y-103347907D01*
X166325347Y-103328201D01*
X166341823Y-103310023D01*
X166360001Y-103293547D01*
X166379707Y-103278932D01*
X166400750Y-103266320D01*
X166422929Y-103255830D01*
X166446028Y-103247565D01*
X166469827Y-103241604D01*
X166494095Y-103238004D01*
X166518599Y-103236800D01*
X167168601Y-103236800D01*
X167193105Y-103238004D01*
X167193105Y-103238004D01*
G37*
D17*
X166843600Y-103936800D03*
D16*
G36*
X169243105Y-105803404D02*
G01*
X169267373Y-105807004D01*
X169291172Y-105812965D01*
X169314271Y-105821230D01*
X169336450Y-105831720D01*
X169357493Y-105844332D01*
X169377199Y-105858947D01*
X169395377Y-105875423D01*
X169411853Y-105893601D01*
X169426468Y-105913307D01*
X169439080Y-105934350D01*
X169449570Y-105956529D01*
X169457835Y-105979628D01*
X169463796Y-106003427D01*
X169467396Y-106027695D01*
X169468600Y-106052199D01*
X169468600Y-106952201D01*
X169467396Y-106976705D01*
X169463796Y-107000973D01*
X169457835Y-107024772D01*
X169449570Y-107047871D01*
X169439080Y-107070050D01*
X169426468Y-107091093D01*
X169411853Y-107110799D01*
X169395377Y-107128977D01*
X169377199Y-107145453D01*
X169357493Y-107160068D01*
X169336450Y-107172680D01*
X169314271Y-107183170D01*
X169291172Y-107191435D01*
X169267373Y-107197396D01*
X169243105Y-107200996D01*
X169218601Y-107202200D01*
X168568599Y-107202200D01*
X168544095Y-107200996D01*
X168519827Y-107197396D01*
X168496028Y-107191435D01*
X168472929Y-107183170D01*
X168450750Y-107172680D01*
X168429707Y-107160068D01*
X168410001Y-107145453D01*
X168391823Y-107128977D01*
X168375347Y-107110799D01*
X168360732Y-107091093D01*
X168348120Y-107070050D01*
X168337630Y-107047871D01*
X168329365Y-107024772D01*
X168323404Y-107000973D01*
X168319804Y-106976705D01*
X168318600Y-106952201D01*
X168318600Y-106052199D01*
X168319804Y-106027695D01*
X168323404Y-106003427D01*
X168329365Y-105979628D01*
X168337630Y-105956529D01*
X168348120Y-105934350D01*
X168360732Y-105913307D01*
X168375347Y-105893601D01*
X168391823Y-105875423D01*
X168410001Y-105858947D01*
X168429707Y-105844332D01*
X168450750Y-105831720D01*
X168472929Y-105821230D01*
X168496028Y-105812965D01*
X168519827Y-105807004D01*
X168544095Y-105803404D01*
X168568599Y-105802200D01*
X169218601Y-105802200D01*
X169243105Y-105803404D01*
X169243105Y-105803404D01*
G37*
D17*
X168893600Y-106502200D03*
D16*
G36*
X167193105Y-105803404D02*
G01*
X167217373Y-105807004D01*
X167241172Y-105812965D01*
X167264271Y-105821230D01*
X167286450Y-105831720D01*
X167307493Y-105844332D01*
X167327199Y-105858947D01*
X167345377Y-105875423D01*
X167361853Y-105893601D01*
X167376468Y-105913307D01*
X167389080Y-105934350D01*
X167399570Y-105956529D01*
X167407835Y-105979628D01*
X167413796Y-106003427D01*
X167417396Y-106027695D01*
X167418600Y-106052199D01*
X167418600Y-106952201D01*
X167417396Y-106976705D01*
X167413796Y-107000973D01*
X167407835Y-107024772D01*
X167399570Y-107047871D01*
X167389080Y-107070050D01*
X167376468Y-107091093D01*
X167361853Y-107110799D01*
X167345377Y-107128977D01*
X167327199Y-107145453D01*
X167307493Y-107160068D01*
X167286450Y-107172680D01*
X167264271Y-107183170D01*
X167241172Y-107191435D01*
X167217373Y-107197396D01*
X167193105Y-107200996D01*
X167168601Y-107202200D01*
X166518599Y-107202200D01*
X166494095Y-107200996D01*
X166469827Y-107197396D01*
X166446028Y-107191435D01*
X166422929Y-107183170D01*
X166400750Y-107172680D01*
X166379707Y-107160068D01*
X166360001Y-107145453D01*
X166341823Y-107128977D01*
X166325347Y-107110799D01*
X166310732Y-107091093D01*
X166298120Y-107070050D01*
X166287630Y-107047871D01*
X166279365Y-107024772D01*
X166273404Y-107000973D01*
X166269804Y-106976705D01*
X166268600Y-106952201D01*
X166268600Y-106052199D01*
X166269804Y-106027695D01*
X166273404Y-106003427D01*
X166279365Y-105979628D01*
X166287630Y-105956529D01*
X166298120Y-105934350D01*
X166310732Y-105913307D01*
X166325347Y-105893601D01*
X166341823Y-105875423D01*
X166360001Y-105858947D01*
X166379707Y-105844332D01*
X166400750Y-105831720D01*
X166422929Y-105821230D01*
X166446028Y-105812965D01*
X166469827Y-105807004D01*
X166494095Y-105803404D01*
X166518599Y-105802200D01*
X167168601Y-105802200D01*
X167193105Y-105803404D01*
X167193105Y-105803404D01*
G37*
D17*
X166843600Y-106502200D03*
D16*
G36*
X167087979Y-108202144D02*
G01*
X167111034Y-108205563D01*
X167133643Y-108211227D01*
X167155587Y-108219079D01*
X167176657Y-108229044D01*
X167196648Y-108241026D01*
X167215368Y-108254910D01*
X167232638Y-108270562D01*
X167248290Y-108287832D01*
X167262174Y-108306552D01*
X167274156Y-108326543D01*
X167284121Y-108347613D01*
X167291973Y-108369557D01*
X167297637Y-108392166D01*
X167301056Y-108415221D01*
X167302200Y-108438500D01*
X167302200Y-109013500D01*
X167301056Y-109036779D01*
X167297637Y-109059834D01*
X167291973Y-109082443D01*
X167284121Y-109104387D01*
X167274156Y-109125457D01*
X167262174Y-109145448D01*
X167248290Y-109164168D01*
X167232638Y-109181438D01*
X167215368Y-109197090D01*
X167196648Y-109210974D01*
X167176657Y-109222956D01*
X167155587Y-109232921D01*
X167133643Y-109240773D01*
X167111034Y-109246437D01*
X167087979Y-109249856D01*
X167064700Y-109251000D01*
X166589700Y-109251000D01*
X166566421Y-109249856D01*
X166543366Y-109246437D01*
X166520757Y-109240773D01*
X166498813Y-109232921D01*
X166477743Y-109222956D01*
X166457752Y-109210974D01*
X166439032Y-109197090D01*
X166421762Y-109181438D01*
X166406110Y-109164168D01*
X166392226Y-109145448D01*
X166380244Y-109125457D01*
X166370279Y-109104387D01*
X166362427Y-109082443D01*
X166356763Y-109059834D01*
X166353344Y-109036779D01*
X166352200Y-109013500D01*
X166352200Y-108438500D01*
X166353344Y-108415221D01*
X166356763Y-108392166D01*
X166362427Y-108369557D01*
X166370279Y-108347613D01*
X166380244Y-108326543D01*
X166392226Y-108306552D01*
X166406110Y-108287832D01*
X166421762Y-108270562D01*
X166439032Y-108254910D01*
X166457752Y-108241026D01*
X166477743Y-108229044D01*
X166498813Y-108219079D01*
X166520757Y-108211227D01*
X166543366Y-108205563D01*
X166566421Y-108202144D01*
X166589700Y-108201000D01*
X167064700Y-108201000D01*
X167087979Y-108202144D01*
X167087979Y-108202144D01*
G37*
D18*
X166827200Y-108726000D03*
D16*
G36*
X167087979Y-109952144D02*
G01*
X167111034Y-109955563D01*
X167133643Y-109961227D01*
X167155587Y-109969079D01*
X167176657Y-109979044D01*
X167196648Y-109991026D01*
X167215368Y-110004910D01*
X167232638Y-110020562D01*
X167248290Y-110037832D01*
X167262174Y-110056552D01*
X167274156Y-110076543D01*
X167284121Y-110097613D01*
X167291973Y-110119557D01*
X167297637Y-110142166D01*
X167301056Y-110165221D01*
X167302200Y-110188500D01*
X167302200Y-110763500D01*
X167301056Y-110786779D01*
X167297637Y-110809834D01*
X167291973Y-110832443D01*
X167284121Y-110854387D01*
X167274156Y-110875457D01*
X167262174Y-110895448D01*
X167248290Y-110914168D01*
X167232638Y-110931438D01*
X167215368Y-110947090D01*
X167196648Y-110960974D01*
X167176657Y-110972956D01*
X167155587Y-110982921D01*
X167133643Y-110990773D01*
X167111034Y-110996437D01*
X167087979Y-110999856D01*
X167064700Y-111001000D01*
X166589700Y-111001000D01*
X166566421Y-110999856D01*
X166543366Y-110996437D01*
X166520757Y-110990773D01*
X166498813Y-110982921D01*
X166477743Y-110972956D01*
X166457752Y-110960974D01*
X166439032Y-110947090D01*
X166421762Y-110931438D01*
X166406110Y-110914168D01*
X166392226Y-110895448D01*
X166380244Y-110875457D01*
X166370279Y-110854387D01*
X166362427Y-110832443D01*
X166356763Y-110809834D01*
X166353344Y-110786779D01*
X166352200Y-110763500D01*
X166352200Y-110188500D01*
X166353344Y-110165221D01*
X166356763Y-110142166D01*
X166362427Y-110119557D01*
X166370279Y-110097613D01*
X166380244Y-110076543D01*
X166392226Y-110056552D01*
X166406110Y-110037832D01*
X166421762Y-110020562D01*
X166439032Y-110004910D01*
X166457752Y-109991026D01*
X166477743Y-109979044D01*
X166498813Y-109969079D01*
X166520757Y-109961227D01*
X166543366Y-109955563D01*
X166566421Y-109952144D01*
X166589700Y-109951000D01*
X167064700Y-109951000D01*
X167087979Y-109952144D01*
X167087979Y-109952144D01*
G37*
D18*
X166827200Y-110476000D03*
D16*
G36*
X213631379Y-92845744D02*
G01*
X213654434Y-92849163D01*
X213677043Y-92854827D01*
X213698987Y-92862679D01*
X213720057Y-92872644D01*
X213740048Y-92884626D01*
X213758768Y-92898510D01*
X213776038Y-92914162D01*
X213791690Y-92931432D01*
X213805574Y-92950152D01*
X213817556Y-92970143D01*
X213827521Y-92991213D01*
X213835373Y-93013157D01*
X213841037Y-93035766D01*
X213844456Y-93058821D01*
X213845600Y-93082100D01*
X213845600Y-93557100D01*
X213844456Y-93580379D01*
X213841037Y-93603434D01*
X213835373Y-93626043D01*
X213827521Y-93647987D01*
X213817556Y-93669057D01*
X213805574Y-93689048D01*
X213791690Y-93707768D01*
X213776038Y-93725038D01*
X213758768Y-93740690D01*
X213740048Y-93754574D01*
X213720057Y-93766556D01*
X213698987Y-93776521D01*
X213677043Y-93784373D01*
X213654434Y-93790037D01*
X213631379Y-93793456D01*
X213608100Y-93794600D01*
X213033100Y-93794600D01*
X213009821Y-93793456D01*
X212986766Y-93790037D01*
X212964157Y-93784373D01*
X212942213Y-93776521D01*
X212921143Y-93766556D01*
X212901152Y-93754574D01*
X212882432Y-93740690D01*
X212865162Y-93725038D01*
X212849510Y-93707768D01*
X212835626Y-93689048D01*
X212823644Y-93669057D01*
X212813679Y-93647987D01*
X212805827Y-93626043D01*
X212800163Y-93603434D01*
X212796744Y-93580379D01*
X212795600Y-93557100D01*
X212795600Y-93082100D01*
X212796744Y-93058821D01*
X212800163Y-93035766D01*
X212805827Y-93013157D01*
X212813679Y-92991213D01*
X212823644Y-92970143D01*
X212835626Y-92950152D01*
X212849510Y-92931432D01*
X212865162Y-92914162D01*
X212882432Y-92898510D01*
X212901152Y-92884626D01*
X212921143Y-92872644D01*
X212942213Y-92862679D01*
X212964157Y-92854827D01*
X212986766Y-92849163D01*
X213009821Y-92845744D01*
X213033100Y-92844600D01*
X213608100Y-92844600D01*
X213631379Y-92845744D01*
X213631379Y-92845744D01*
G37*
D18*
X213320600Y-93319600D03*
D16*
G36*
X211881379Y-92845744D02*
G01*
X211904434Y-92849163D01*
X211927043Y-92854827D01*
X211948987Y-92862679D01*
X211970057Y-92872644D01*
X211990048Y-92884626D01*
X212008768Y-92898510D01*
X212026038Y-92914162D01*
X212041690Y-92931432D01*
X212055574Y-92950152D01*
X212067556Y-92970143D01*
X212077521Y-92991213D01*
X212085373Y-93013157D01*
X212091037Y-93035766D01*
X212094456Y-93058821D01*
X212095600Y-93082100D01*
X212095600Y-93557100D01*
X212094456Y-93580379D01*
X212091037Y-93603434D01*
X212085373Y-93626043D01*
X212077521Y-93647987D01*
X212067556Y-93669057D01*
X212055574Y-93689048D01*
X212041690Y-93707768D01*
X212026038Y-93725038D01*
X212008768Y-93740690D01*
X211990048Y-93754574D01*
X211970057Y-93766556D01*
X211948987Y-93776521D01*
X211927043Y-93784373D01*
X211904434Y-93790037D01*
X211881379Y-93793456D01*
X211858100Y-93794600D01*
X211283100Y-93794600D01*
X211259821Y-93793456D01*
X211236766Y-93790037D01*
X211214157Y-93784373D01*
X211192213Y-93776521D01*
X211171143Y-93766556D01*
X211151152Y-93754574D01*
X211132432Y-93740690D01*
X211115162Y-93725038D01*
X211099510Y-93707768D01*
X211085626Y-93689048D01*
X211073644Y-93669057D01*
X211063679Y-93647987D01*
X211055827Y-93626043D01*
X211050163Y-93603434D01*
X211046744Y-93580379D01*
X211045600Y-93557100D01*
X211045600Y-93082100D01*
X211046744Y-93058821D01*
X211050163Y-93035766D01*
X211055827Y-93013157D01*
X211063679Y-92991213D01*
X211073644Y-92970143D01*
X211085626Y-92950152D01*
X211099510Y-92931432D01*
X211115162Y-92914162D01*
X211132432Y-92898510D01*
X211151152Y-92884626D01*
X211171143Y-92872644D01*
X211192213Y-92862679D01*
X211214157Y-92854827D01*
X211236766Y-92849163D01*
X211259821Y-92845744D01*
X211283100Y-92844600D01*
X211858100Y-92844600D01*
X211881379Y-92845744D01*
X211881379Y-92845744D01*
G37*
D18*
X211570600Y-93319600D03*
D16*
G36*
X210928379Y-77163344D02*
G01*
X210951434Y-77166763D01*
X210974043Y-77172427D01*
X210995987Y-77180279D01*
X211017057Y-77190244D01*
X211037048Y-77202226D01*
X211055768Y-77216110D01*
X211073038Y-77231762D01*
X211088690Y-77249032D01*
X211102574Y-77267752D01*
X211114556Y-77287743D01*
X211124521Y-77308813D01*
X211132373Y-77330757D01*
X211138037Y-77353366D01*
X211141456Y-77376421D01*
X211142600Y-77399700D01*
X211142600Y-77974700D01*
X211141456Y-77997979D01*
X211138037Y-78021034D01*
X211132373Y-78043643D01*
X211124521Y-78065587D01*
X211114556Y-78086657D01*
X211102574Y-78106648D01*
X211088690Y-78125368D01*
X211073038Y-78142638D01*
X211055768Y-78158290D01*
X211037048Y-78172174D01*
X211017057Y-78184156D01*
X210995987Y-78194121D01*
X210974043Y-78201973D01*
X210951434Y-78207637D01*
X210928379Y-78211056D01*
X210905100Y-78212200D01*
X210430100Y-78212200D01*
X210406821Y-78211056D01*
X210383766Y-78207637D01*
X210361157Y-78201973D01*
X210339213Y-78194121D01*
X210318143Y-78184156D01*
X210298152Y-78172174D01*
X210279432Y-78158290D01*
X210262162Y-78142638D01*
X210246510Y-78125368D01*
X210232626Y-78106648D01*
X210220644Y-78086657D01*
X210210679Y-78065587D01*
X210202827Y-78043643D01*
X210197163Y-78021034D01*
X210193744Y-77997979D01*
X210192600Y-77974700D01*
X210192600Y-77399700D01*
X210193744Y-77376421D01*
X210197163Y-77353366D01*
X210202827Y-77330757D01*
X210210679Y-77308813D01*
X210220644Y-77287743D01*
X210232626Y-77267752D01*
X210246510Y-77249032D01*
X210262162Y-77231762D01*
X210279432Y-77216110D01*
X210298152Y-77202226D01*
X210318143Y-77190244D01*
X210339213Y-77180279D01*
X210361157Y-77172427D01*
X210383766Y-77166763D01*
X210406821Y-77163344D01*
X210430100Y-77162200D01*
X210905100Y-77162200D01*
X210928379Y-77163344D01*
X210928379Y-77163344D01*
G37*
D18*
X210667600Y-77687200D03*
D16*
G36*
X210928379Y-78913344D02*
G01*
X210951434Y-78916763D01*
X210974043Y-78922427D01*
X210995987Y-78930279D01*
X211017057Y-78940244D01*
X211037048Y-78952226D01*
X211055768Y-78966110D01*
X211073038Y-78981762D01*
X211088690Y-78999032D01*
X211102574Y-79017752D01*
X211114556Y-79037743D01*
X211124521Y-79058813D01*
X211132373Y-79080757D01*
X211138037Y-79103366D01*
X211141456Y-79126421D01*
X211142600Y-79149700D01*
X211142600Y-79724700D01*
X211141456Y-79747979D01*
X211138037Y-79771034D01*
X211132373Y-79793643D01*
X211124521Y-79815587D01*
X211114556Y-79836657D01*
X211102574Y-79856648D01*
X211088690Y-79875368D01*
X211073038Y-79892638D01*
X211055768Y-79908290D01*
X211037048Y-79922174D01*
X211017057Y-79934156D01*
X210995987Y-79944121D01*
X210974043Y-79951973D01*
X210951434Y-79957637D01*
X210928379Y-79961056D01*
X210905100Y-79962200D01*
X210430100Y-79962200D01*
X210406821Y-79961056D01*
X210383766Y-79957637D01*
X210361157Y-79951973D01*
X210339213Y-79944121D01*
X210318143Y-79934156D01*
X210298152Y-79922174D01*
X210279432Y-79908290D01*
X210262162Y-79892638D01*
X210246510Y-79875368D01*
X210232626Y-79856648D01*
X210220644Y-79836657D01*
X210210679Y-79815587D01*
X210202827Y-79793643D01*
X210197163Y-79771034D01*
X210193744Y-79747979D01*
X210192600Y-79724700D01*
X210192600Y-79149700D01*
X210193744Y-79126421D01*
X210197163Y-79103366D01*
X210202827Y-79080757D01*
X210210679Y-79058813D01*
X210220644Y-79037743D01*
X210232626Y-79017752D01*
X210246510Y-78999032D01*
X210262162Y-78981762D01*
X210279432Y-78966110D01*
X210298152Y-78952226D01*
X210318143Y-78940244D01*
X210339213Y-78930279D01*
X210361157Y-78922427D01*
X210383766Y-78916763D01*
X210406821Y-78913344D01*
X210430100Y-78912200D01*
X210905100Y-78912200D01*
X210928379Y-78913344D01*
X210928379Y-78913344D01*
G37*
D18*
X210667600Y-79437200D03*
D19*
X166646600Y-86615000D03*
X163646600Y-81915000D03*
D20*
X169646600Y-81915000D03*
D12*
X211937600Y-110210600D03*
X211937600Y-112750600D03*
X209397600Y-110210600D03*
X209397600Y-112750600D03*
X206857600Y-110210600D03*
D13*
X206857600Y-112750600D03*
D21*
X207112600Y-93319600D03*
X207112600Y-94589600D03*
X207112600Y-95859600D03*
X207112600Y-97129600D03*
X207112600Y-98399600D03*
X207112600Y-99669600D03*
X207112600Y-100939600D03*
X207112600Y-102209600D03*
X207112600Y-103479600D03*
X207112600Y-104749600D03*
X197712600Y-104749600D03*
X197712600Y-103479600D03*
X197712600Y-102209600D03*
X197712600Y-100939600D03*
X197712600Y-99669600D03*
X197712600Y-98399600D03*
X197712600Y-97129600D03*
X197712600Y-95859600D03*
X197712600Y-94589600D03*
X197712600Y-93319600D03*
D22*
X167538400Y-113835200D03*
X168808400Y-113835200D03*
X170078400Y-113835200D03*
X171348400Y-113835200D03*
X171348400Y-119235200D03*
X170078400Y-119235200D03*
X168808400Y-119235200D03*
X167538400Y-119235200D03*
D21*
X207112600Y-79375000D03*
X207112600Y-80645000D03*
X207112600Y-81915000D03*
X207112600Y-83185000D03*
X207112600Y-84455000D03*
X207112600Y-85725000D03*
X207112600Y-86995000D03*
X207112600Y-88265000D03*
X207112600Y-89535000D03*
X207112600Y-90805000D03*
X197712600Y-90805000D03*
X197712600Y-89535000D03*
X197712600Y-88265000D03*
X197712600Y-86995000D03*
X197712600Y-85725000D03*
X197712600Y-84455000D03*
X197712600Y-83185000D03*
X197712600Y-81915000D03*
X197712600Y-80645000D03*
X197712600Y-79375000D03*
D12*
X217500200Y-77901800D03*
X217500200Y-75361800D03*
X217500200Y-72821800D03*
D13*
X217500200Y-70281800D03*
D12*
X217449400Y-89662000D03*
X217449400Y-87122000D03*
X217449400Y-84582000D03*
D13*
X217449400Y-82042000D03*
D12*
X202107800Y-70281800D03*
X202107800Y-72821800D03*
X199567800Y-70281800D03*
X199567800Y-72821800D03*
X197027800Y-70281800D03*
D13*
X197027800Y-72821800D03*
D12*
X213131400Y-70307200D03*
X213131400Y-72847200D03*
X210591400Y-70307200D03*
X210591400Y-72847200D03*
X208051400Y-70307200D03*
D13*
X208051400Y-72847200D03*
D12*
X217449400Y-112801400D03*
X217449400Y-110261400D03*
X217449400Y-107721400D03*
D13*
X217449400Y-105181400D03*
D12*
X217474800Y-101269800D03*
X217474800Y-98729800D03*
X217474800Y-96189800D03*
D13*
X217474800Y-93649800D03*
D12*
X202768200Y-110210600D03*
X202768200Y-112750600D03*
X200228200Y-110210600D03*
X200228200Y-112750600D03*
X197688200Y-110210600D03*
D13*
X197688200Y-112750600D03*
D23*
X195910200Y-104775000D03*
X195802210Y-93268800D03*
X195859400Y-79375000D03*
X195808600Y-90805000D03*
X168757600Y-117449600D03*
X209067400Y-80645000D03*
X213334600Y-94615000D03*
X209067400Y-94589600D03*
X209092800Y-77673200D03*
X165379400Y-111912400D03*
X181381400Y-118872000D03*
X170103800Y-117500400D03*
X170383200Y-106502200D03*
X192506600Y-76936600D03*
X209118200Y-100965000D03*
X209143600Y-99644200D03*
X209169000Y-98399600D03*
X191414400Y-76587400D03*
X191414400Y-72821800D03*
X209092800Y-88290400D03*
X209092800Y-87020400D03*
X209092800Y-85725000D03*
X195681600Y-85750400D03*
X195859400Y-80670400D03*
X194868800Y-75615800D03*
X195859400Y-81889600D03*
X193471800Y-75615800D03*
X195300600Y-100990400D03*
X195351400Y-102260400D03*
X194741800Y-117881400D03*
D24*
X197890400Y-104749600D02*
X195935600Y-104749600D01*
X195935600Y-104749600D02*
X195910200Y-104775000D01*
X197712600Y-93319600D02*
X195853010Y-93319600D01*
X195853010Y-93319600D02*
X195802210Y-93268800D01*
X197712600Y-79375000D02*
X195859400Y-79375000D01*
X197712600Y-90805000D02*
X195808600Y-90805000D01*
X168808400Y-119235200D02*
X168808400Y-117500400D01*
X168808400Y-117500400D02*
X168757600Y-117449600D01*
X207112600Y-80645000D02*
X209067400Y-80645000D01*
X213320600Y-93319600D02*
X213320600Y-94601000D01*
X213320600Y-94601000D02*
X213334600Y-94615000D01*
X207112600Y-94589600D02*
X209067400Y-94589600D01*
X210667600Y-77687200D02*
X209106800Y-77687200D01*
X209106800Y-77687200D02*
X209092800Y-77673200D01*
X166827200Y-110476000D02*
X166815800Y-110476000D01*
X166815800Y-110476000D02*
X165379400Y-111912400D01*
X178423370Y-108204000D02*
X178474170Y-108254800D01*
X177292000Y-108204000D02*
X178423370Y-108204000D01*
X178474170Y-108254800D02*
X180898800Y-108254800D01*
X180898800Y-108254800D02*
X181381400Y-108737400D01*
X181381400Y-108737400D02*
X181381400Y-118872000D01*
X170103800Y-117500400D02*
X170103800Y-118066085D01*
X170103800Y-118066085D02*
X170103800Y-118872000D01*
X207112600Y-93319600D02*
X211455000Y-93319600D01*
X207112600Y-79375000D02*
X210616800Y-79375000D01*
X166843600Y-106502200D02*
X166843600Y-108652200D01*
X163982400Y-106502200D02*
X163957000Y-106476800D01*
X163499800Y-106476800D02*
X166827200Y-106476800D01*
X168893600Y-103136800D02*
X168859200Y-103102400D01*
X168893600Y-103936800D02*
X168893600Y-103136800D01*
X168859200Y-103102400D02*
X168859200Y-97180400D01*
X168859200Y-97180400D02*
X168376600Y-96697800D01*
X168376600Y-96697800D02*
X164084000Y-96697800D01*
X170078400Y-113835200D02*
X170078400Y-108737400D01*
X170078400Y-108737400D02*
X171500800Y-107315000D01*
X171500800Y-107315000D02*
X171500800Y-104521000D01*
X171500800Y-104521000D02*
X170967400Y-103987600D01*
X170967400Y-103987600D02*
X168910000Y-103987600D01*
X163499800Y-96647000D02*
X162649801Y-95797001D01*
X162649801Y-95797001D02*
X162153600Y-95300800D01*
X162153600Y-95300800D02*
X162153600Y-92735400D01*
X162153600Y-92735400D02*
X162839400Y-92049600D01*
X168808400Y-113835200D02*
X168808400Y-106934000D01*
X168893600Y-106502200D02*
X170383200Y-106502200D01*
X204114400Y-106248200D02*
X198043800Y-106248200D01*
X198043800Y-106248200D02*
X197662800Y-106629200D01*
X197662800Y-106629200D02*
X197662800Y-109753400D01*
X204114400Y-106248200D02*
X208305400Y-106248200D01*
X208305400Y-106248200D02*
X208864200Y-105689400D01*
X208864200Y-105689400D02*
X208864200Y-105105200D01*
X208864200Y-105105200D02*
X208483200Y-104724200D01*
X208483200Y-104724200D02*
X207721200Y-104724200D01*
X200609190Y-106756210D02*
X200253600Y-107111800D01*
X200253600Y-107111800D02*
X200253600Y-110007400D01*
X209372210Y-105899824D02*
X209372210Y-104894776D01*
X200609190Y-106756210D02*
X208515825Y-106756209D01*
X208515825Y-106756209D02*
X209372210Y-105899824D01*
X209372210Y-104894776D02*
X209372200Y-104894766D01*
X209372200Y-104894766D02*
X209372200Y-104368600D01*
X209372200Y-104368600D02*
X208559400Y-103555800D01*
X208559400Y-103555800D02*
X207492600Y-103555800D01*
X203123780Y-107264220D02*
X202768200Y-107619800D01*
X202768200Y-107619800D02*
X202768200Y-109982000D01*
X208726248Y-107264220D02*
X208726250Y-107264218D01*
X203123780Y-107264220D02*
X208726248Y-107264220D01*
X209880220Y-106110248D02*
X209880220Y-104684352D01*
X208726250Y-107264218D02*
X209880220Y-106110248D01*
X209880210Y-104684342D02*
X209880210Y-103022410D01*
X209880220Y-104684352D02*
X209880210Y-104684342D01*
X209880210Y-103022410D02*
X209092800Y-102235000D01*
X209092800Y-102235000D02*
X207416400Y-102235000D01*
X177292000Y-87884000D02*
X176160630Y-87884000D01*
X176160630Y-87884000D02*
X175539400Y-87884000D01*
X174497990Y-86842590D02*
X174497990Y-85148024D01*
X175539400Y-87884000D02*
X174497990Y-86842590D01*
X174497990Y-85148024D02*
X174497991Y-78554975D01*
X174497991Y-78554975D02*
X175684566Y-77368400D01*
X175684566Y-77368400D02*
X192074800Y-77368400D01*
X192074800Y-77368400D02*
X192506600Y-76936600D01*
X209118200Y-100965000D02*
X208552515Y-100965000D01*
X208552515Y-100965000D02*
X207568800Y-100965000D01*
X209143600Y-99644200D02*
X208577915Y-99644200D01*
X208577915Y-99644200D02*
X207492600Y-99644200D01*
X209169000Y-98399600D02*
X207340200Y-98399600D01*
X176160630Y-90424000D02*
X176135230Y-90398600D01*
X177292000Y-90424000D02*
X176160630Y-90424000D01*
X176135230Y-90398600D02*
X175082200Y-90398600D01*
X173989980Y-89306380D02*
X173989981Y-79806819D01*
X175082200Y-90398600D02*
X173989980Y-89306380D01*
X173989982Y-78344550D02*
X175474142Y-76860390D01*
X173989981Y-79806819D02*
X173989982Y-78344550D01*
X175474142Y-76860390D02*
X191141410Y-76860390D01*
X191141410Y-76860390D02*
X191414400Y-76587400D01*
X191414400Y-72821800D02*
X196265800Y-72821800D01*
X210921600Y-106324400D02*
X210921600Y-98247200D01*
X217449400Y-107721400D02*
X212318600Y-107721400D01*
X209804000Y-97129600D02*
X207289400Y-97129600D01*
X210921600Y-98247200D02*
X209804000Y-97129600D01*
X212318600Y-107721400D02*
X210921600Y-106324400D01*
X217474800Y-96189800D02*
X215722200Y-96189800D01*
X215722200Y-96189800D02*
X215366600Y-95834200D01*
X215366600Y-95834200D02*
X207467200Y-95834200D01*
X205282820Y-70942180D02*
X205892400Y-70332600D01*
X205892400Y-70332600D02*
X207289400Y-70332600D01*
X205282820Y-75031620D02*
X205282820Y-70942180D01*
X205663780Y-75412580D02*
X205282820Y-75031620D01*
X212104448Y-75412580D02*
X208915020Y-75412580D01*
X213258418Y-76566550D02*
X212104448Y-75412580D01*
X213258419Y-81142047D02*
X213258418Y-76566550D01*
X208915020Y-75412580D02*
X205663780Y-75412580D01*
X209945468Y-84455000D02*
X213258419Y-81142047D01*
X207112600Y-84455000D02*
X209945468Y-84455000D01*
X209920048Y-75412580D02*
X208915020Y-75412580D01*
X205417024Y-75920590D02*
X204774810Y-75278376D01*
X204774810Y-69291190D02*
X205231990Y-68834010D01*
X204774810Y-75278376D02*
X204774810Y-69291190D01*
X205231990Y-68834010D02*
X209346810Y-68834010D01*
X209346810Y-68834010D02*
X210134200Y-69621400D01*
X210497034Y-83185000D02*
X212750410Y-80931624D01*
X207112600Y-83185000D02*
X210497034Y-83185000D01*
X211894024Y-75920590D02*
X209042010Y-75920590D01*
X212750409Y-76776975D02*
X211894024Y-75920590D01*
X212750410Y-80931624D02*
X212750409Y-76776975D01*
X209709624Y-75920590D02*
X209042010Y-75920590D01*
X209042010Y-75920590D02*
X205417024Y-75920590D01*
X205206600Y-76428600D02*
X204266800Y-75488800D01*
X204266800Y-75488800D02*
X204266800Y-68681600D01*
X204266800Y-68681600D02*
X204622400Y-68326000D01*
X204622400Y-68326000D02*
X211759800Y-68326000D01*
X211759800Y-68326000D02*
X212979000Y-69545200D01*
X207112600Y-81915000D02*
X211048600Y-81915000D01*
X211048600Y-81915000D02*
X212242400Y-80721200D01*
X212242400Y-80721200D02*
X212242400Y-76987400D01*
X211683600Y-76428600D02*
X209296000Y-76428600D01*
X212242400Y-76987400D02*
X211683600Y-76428600D01*
X209499200Y-76428600D02*
X209296000Y-76428600D01*
X209296000Y-76428600D02*
X205206600Y-76428600D01*
X207112600Y-88265000D02*
X209067400Y-88265000D01*
X209067400Y-88265000D02*
X209092800Y-88290400D01*
X207112600Y-86995000D02*
X209067400Y-86995000D01*
X209067400Y-86995000D02*
X209092800Y-87020400D01*
X207112600Y-85725000D02*
X209092800Y-85725000D01*
X208341600Y-90805000D02*
X208367000Y-90830400D01*
X207112600Y-90805000D02*
X208341600Y-90805000D01*
X208367000Y-90830400D02*
X214579200Y-90830400D01*
X214579200Y-90830400D02*
X214909400Y-90500200D01*
X214909400Y-90500200D02*
X215417400Y-89992200D01*
X215417400Y-89992200D02*
X215417400Y-85877400D01*
X215417400Y-85877400D02*
X215417400Y-85166200D01*
X215417400Y-85166200D02*
X215976200Y-84607400D01*
X215976200Y-84607400D02*
X216789000Y-84607400D01*
X207112600Y-89535000D02*
X208341600Y-89535000D01*
X214274400Y-89535000D02*
X214909390Y-88900010D01*
X208341600Y-89535000D02*
X214274400Y-89535000D01*
X214909390Y-88900010D02*
X214909391Y-84955775D01*
X214909391Y-84955775D02*
X215976200Y-83888966D01*
X215976200Y-83888966D02*
X215976200Y-74396600D01*
X215976200Y-74396600D02*
X217068400Y-73304400D01*
X192532000Y-80264000D02*
X192532000Y-80289400D01*
X195681600Y-85750400D02*
X196247285Y-85750400D01*
X196247285Y-85750400D02*
X197561200Y-85750400D01*
X192532000Y-82804000D02*
X194767200Y-85039200D01*
X194767200Y-85039200D02*
X194767200Y-86436200D01*
X194767200Y-86436200D02*
X195351400Y-87020400D01*
X195351400Y-87020400D02*
X197535800Y-87020400D01*
X177292000Y-79132630D02*
X177266600Y-79107230D01*
X177292000Y-80264000D02*
X177292000Y-79132630D01*
X177266600Y-79107230D02*
X177266600Y-78867000D01*
X177266600Y-78867000D02*
X177723800Y-78409800D01*
X177723800Y-78409800D02*
X193903600Y-78409800D01*
X193903600Y-78409800D02*
X194335400Y-78841600D01*
X194335400Y-78841600D02*
X194335400Y-83743800D01*
X194335400Y-83743800D02*
X195072000Y-84480400D01*
X195072000Y-84480400D02*
X197485000Y-84480400D01*
X192532000Y-85344000D02*
X195503800Y-88315800D01*
X195503800Y-88315800D02*
X198094600Y-88315800D01*
X192532000Y-87884000D02*
X193663370Y-87884000D01*
X193663370Y-87884000D02*
X193979800Y-87884000D01*
X193979800Y-87884000D02*
X195656200Y-89560400D01*
X195656200Y-89560400D02*
X197256400Y-89560400D01*
X176160630Y-85344000D02*
X176135230Y-85318600D01*
X177292000Y-85344000D02*
X176160630Y-85344000D01*
X176135230Y-85318600D02*
X175387000Y-85318600D01*
X175387000Y-85318600D02*
X175006000Y-84937600D01*
X175006000Y-84937600D02*
X175006000Y-78765400D01*
X175006000Y-78765400D02*
X175869610Y-77901790D01*
X194114025Y-77901791D02*
X194843410Y-78631176D01*
X175869610Y-77901790D02*
X194114025Y-77901791D01*
X194843410Y-78631176D02*
X194843410Y-82727810D01*
X194843410Y-82727810D02*
X195326000Y-83210400D01*
X195326000Y-83210400D02*
X197739000Y-83210400D01*
X175514000Y-105664000D02*
X176160630Y-105664000D01*
X174777390Y-104927390D02*
X175514000Y-105664000D01*
X174777390Y-91530658D02*
X174777390Y-104927390D01*
X176160630Y-105664000D02*
X177292000Y-105664000D01*
X172973962Y-89727228D02*
X174777390Y-91530658D01*
X172973964Y-77923700D02*
X172973962Y-89727228D01*
X197712600Y-80645000D02*
X195884800Y-80645000D01*
X195884800Y-80645000D02*
X195859400Y-80670400D01*
X194087799Y-74834799D02*
X194868800Y-75615800D01*
X172973964Y-77923700D02*
X176062865Y-74834799D01*
X176062865Y-74834799D02*
X194087799Y-74834799D01*
X176160630Y-103124000D02*
X177292000Y-103124000D01*
X175285400Y-102248770D02*
X176160630Y-103124000D01*
X175285400Y-91320234D02*
X175285400Y-102248770D01*
X173481973Y-78134125D02*
X173481971Y-89516803D01*
X173481971Y-89516803D02*
X175285400Y-91320234D01*
X197712600Y-81915000D02*
X195884800Y-81915000D01*
X195884800Y-81915000D02*
X195859400Y-81889600D01*
X173481973Y-78134125D02*
X176000298Y-75615800D01*
X176000298Y-75615800D02*
X193471800Y-75615800D01*
X194233790Y-105093580D02*
X194233790Y-100228410D01*
X192532000Y-105664000D02*
X193663370Y-105664000D01*
X193663370Y-105664000D02*
X194233790Y-105093580D01*
X194233790Y-100228410D02*
X194716400Y-99745800D01*
X194716400Y-99745800D02*
X197180200Y-99745800D01*
X191400630Y-103124000D02*
X190728610Y-103796020D01*
X190728610Y-103796020D02*
X190728609Y-114459625D01*
X192532000Y-103124000D02*
X191400630Y-103124000D01*
X190728609Y-114459625D02*
X190728609Y-117703591D01*
X190728609Y-117703591D02*
X190728609Y-118744991D01*
X190728609Y-119539625D02*
X189719834Y-120548400D01*
X190728609Y-118744991D02*
X190728609Y-119539625D01*
X189719834Y-120548400D02*
X168249600Y-120548400D01*
X168249600Y-120548400D02*
X167589200Y-119888000D01*
X190728600Y-100584000D02*
X190220600Y-101092000D01*
X192532000Y-100584000D02*
X190728600Y-100584000D01*
X190220600Y-101092000D02*
X190220600Y-114249200D01*
X190220600Y-114249200D02*
X190220600Y-118534566D01*
X190220600Y-118534566D02*
X190220600Y-119329200D01*
X189896799Y-119653001D02*
X171481799Y-119653001D01*
X190220600Y-119329200D02*
X189896799Y-119653001D01*
X171481799Y-119653001D02*
X171450000Y-119684800D01*
X197712600Y-98399600D02*
X194335400Y-98399600D01*
X194335400Y-98399600D02*
X194284600Y-98399600D01*
X194284600Y-98399600D02*
X193954400Y-98069400D01*
X193954400Y-98069400D02*
X192963800Y-98069400D01*
X197712600Y-97129600D02*
X196483600Y-97129600D01*
X196483600Y-97129600D02*
X194970400Y-97129600D01*
X194970400Y-97129600D02*
X194868800Y-97129600D01*
X194868800Y-97129600D02*
X194132200Y-96393000D01*
X194132200Y-96393000D02*
X194132200Y-95935800D01*
X194132200Y-95935800D02*
X193878200Y-95681800D01*
X193878200Y-95681800D02*
X193141600Y-95681800D01*
X197088400Y-95910400D02*
X197063000Y-95885000D01*
X197763400Y-95910400D02*
X197088400Y-95910400D01*
X197712600Y-95859600D02*
X196483600Y-95859600D01*
X194977634Y-95859600D02*
X194843409Y-95725375D01*
X196483600Y-95859600D02*
X194977634Y-95859600D01*
X194843409Y-95725375D02*
X194208400Y-95090366D01*
X194208400Y-95090366D02*
X194208400Y-93370400D01*
X194208400Y-93370400D02*
X193852800Y-93014800D01*
X193852800Y-93014800D02*
X192989200Y-93014800D01*
X192532000Y-90424000D02*
X192506600Y-90398600D01*
X197712600Y-94589600D02*
X196483600Y-94589600D01*
X195173600Y-94589600D02*
X194716410Y-94132410D01*
X196483600Y-94589600D02*
X195173600Y-94589600D01*
X194716410Y-94132410D02*
X194716410Y-90627210D01*
X194716410Y-90627210D02*
X194564000Y-90474800D01*
X194564000Y-90474800D02*
X192963800Y-90474800D01*
X195300600Y-100990400D02*
X195866285Y-100990400D01*
X195866285Y-100990400D02*
X197205600Y-100990400D01*
X195351400Y-102260400D02*
X195917085Y-102260400D01*
X195917085Y-102260400D02*
X197612000Y-102260400D01*
X194741800Y-117881400D02*
X194741800Y-106070400D01*
X194741800Y-106070400D02*
X194741800Y-104495600D01*
X194741800Y-104495600D02*
X195732400Y-103505000D01*
X195732400Y-103505000D02*
X197434200Y-103505000D01*
X163499800Y-103936800D02*
X166801800Y-103936800D01*
G36*
X220320001Y-121260000D02*
G01*
X189999010Y-121260000D01*
X190012849Y-121255802D01*
X190145226Y-121185045D01*
X190261256Y-121089822D01*
X190285118Y-121060746D01*
X191240960Y-120104904D01*
X191270031Y-120081047D01*
X191365254Y-119965017D01*
X191436011Y-119832640D01*
X191479583Y-119689003D01*
X191490609Y-119577051D01*
X191490609Y-119577049D01*
X191494295Y-119539626D01*
X191490609Y-119502203D01*
X191490609Y-119214042D01*
X216755000Y-119214042D01*
X216755000Y-119545958D01*
X216819754Y-119871496D01*
X216946772Y-120178147D01*
X217131175Y-120454125D01*
X217365875Y-120688825D01*
X217641853Y-120873228D01*
X217948504Y-121000246D01*
X218274042Y-121065000D01*
X218605958Y-121065000D01*
X218931496Y-121000246D01*
X219238147Y-120873228D01*
X219514125Y-120688825D01*
X219748825Y-120454125D01*
X219933228Y-120178147D01*
X220060246Y-119871496D01*
X220125000Y-119545958D01*
X220125000Y-119214042D01*
X220060246Y-118888504D01*
X219933228Y-118581853D01*
X219748825Y-118305875D01*
X219514125Y-118071175D01*
X219238147Y-117886772D01*
X218931496Y-117759754D01*
X218605958Y-117695000D01*
X218274042Y-117695000D01*
X217948504Y-117759754D01*
X217641853Y-117886772D01*
X217365875Y-118071175D01*
X217131175Y-118305875D01*
X216946772Y-118581853D01*
X216819754Y-118888504D01*
X216755000Y-119214042D01*
X191490609Y-119214042D01*
X191490609Y-114674348D01*
X191607518Y-114709812D01*
X191732000Y-114722072D01*
X193332000Y-114722072D01*
X193456482Y-114709812D01*
X193576180Y-114673502D01*
X193686494Y-114614537D01*
X193783185Y-114535185D01*
X193862537Y-114438494D01*
X193921502Y-114328180D01*
X193957812Y-114208482D01*
X193970072Y-114084000D01*
X193970072Y-112484000D01*
X193957812Y-112359518D01*
X193921502Y-112239820D01*
X193862537Y-112129506D01*
X193783185Y-112032815D01*
X193686494Y-111953463D01*
X193576180Y-111894498D01*
X193456482Y-111858188D01*
X193448039Y-111857357D01*
X193646637Y-111658759D01*
X193803680Y-111423727D01*
X193911853Y-111162574D01*
X193967000Y-110885335D01*
X193967000Y-110602665D01*
X193911853Y-110325426D01*
X193803680Y-110064273D01*
X193646637Y-109829241D01*
X193446759Y-109629363D01*
X193214241Y-109474000D01*
X193446759Y-109318637D01*
X193646637Y-109118759D01*
X193803680Y-108883727D01*
X193911853Y-108622574D01*
X193967000Y-108345335D01*
X193967000Y-108062665D01*
X193911853Y-107785426D01*
X193803680Y-107524273D01*
X193646637Y-107289241D01*
X193446759Y-107089363D01*
X193214241Y-106934000D01*
X193446759Y-106778637D01*
X193646637Y-106578759D01*
X193752082Y-106420949D01*
X193812748Y-106414974D01*
X193956385Y-106371402D01*
X193979801Y-106358886D01*
X193979800Y-117179689D01*
X193937863Y-117221626D01*
X193824595Y-117391144D01*
X193746574Y-117579502D01*
X193706800Y-117779461D01*
X193706800Y-117983339D01*
X193746574Y-118183298D01*
X193824595Y-118371656D01*
X193937863Y-118541174D01*
X194082026Y-118685337D01*
X194251544Y-118798605D01*
X194439902Y-118876626D01*
X194639861Y-118916400D01*
X194843739Y-118916400D01*
X195043698Y-118876626D01*
X195232056Y-118798605D01*
X195401574Y-118685337D01*
X195545737Y-118541174D01*
X195659005Y-118371656D01*
X195737026Y-118183298D01*
X195776800Y-117983339D01*
X195776800Y-117779461D01*
X195737026Y-117579502D01*
X195659005Y-117391144D01*
X195545737Y-117221626D01*
X195503800Y-117179689D01*
X195503800Y-105726940D01*
X195608302Y-105770226D01*
X195808261Y-105810000D01*
X196012139Y-105810000D01*
X196212098Y-105770226D01*
X196400456Y-105692205D01*
X196485926Y-105635096D01*
X196493420Y-105639102D01*
X196613118Y-105675412D01*
X196737600Y-105687672D01*
X197525659Y-105687672D01*
X197502378Y-105706778D01*
X197478516Y-105735854D01*
X197150454Y-106063916D01*
X197121378Y-106087778D01*
X197095291Y-106119566D01*
X197026155Y-106203808D01*
X197002427Y-106248201D01*
X196955398Y-106336186D01*
X196911826Y-106479823D01*
X196902082Y-106578759D01*
X196897114Y-106629200D01*
X196900800Y-106666623D01*
X196900801Y-108947650D01*
X196859186Y-108969894D01*
X196633066Y-109155466D01*
X196447494Y-109381586D01*
X196309601Y-109639566D01*
X196224687Y-109919489D01*
X196196015Y-110210600D01*
X196224687Y-110501711D01*
X196309601Y-110781634D01*
X196447494Y-111039614D01*
X196633066Y-111265734D01*
X196662887Y-111290207D01*
X196594020Y-111311098D01*
X196483706Y-111370063D01*
X196387015Y-111449415D01*
X196307663Y-111546106D01*
X196248698Y-111656420D01*
X196212388Y-111776118D01*
X196200128Y-111900600D01*
X196200128Y-113600600D01*
X196212388Y-113725082D01*
X196248698Y-113844780D01*
X196307663Y-113955094D01*
X196387015Y-114051785D01*
X196483706Y-114131137D01*
X196594020Y-114190102D01*
X196713718Y-114226412D01*
X196838200Y-114238672D01*
X198538200Y-114238672D01*
X198662682Y-114226412D01*
X198782380Y-114190102D01*
X198892694Y-114131137D01*
X198989385Y-114051785D01*
X199068737Y-113955094D01*
X199127702Y-113844780D01*
X199148593Y-113775913D01*
X199173066Y-113805734D01*
X199399186Y-113991306D01*
X199657166Y-114129199D01*
X199937089Y-114214113D01*
X200155250Y-114235600D01*
X200301150Y-114235600D01*
X200519311Y-114214113D01*
X200799234Y-114129199D01*
X201057214Y-113991306D01*
X201283334Y-113805734D01*
X201468906Y-113579614D01*
X201498200Y-113524809D01*
X201527494Y-113579614D01*
X201713066Y-113805734D01*
X201939186Y-113991306D01*
X202197166Y-114129199D01*
X202477089Y-114214113D01*
X202695250Y-114235600D01*
X202841150Y-114235600D01*
X203059311Y-114214113D01*
X203339234Y-114129199D01*
X203597214Y-113991306D01*
X203823334Y-113805734D01*
X204008906Y-113579614D01*
X204146799Y-113321634D01*
X204231713Y-113041711D01*
X204260385Y-112750600D01*
X204231713Y-112459489D01*
X204146799Y-112179566D01*
X204008906Y-111921586D01*
X203823334Y-111695466D01*
X203597214Y-111509894D01*
X203542409Y-111480600D01*
X203597214Y-111451306D01*
X203823334Y-111265734D01*
X204008906Y-111039614D01*
X204146799Y-110781634D01*
X204231713Y-110501711D01*
X204260385Y-110210600D01*
X205365415Y-110210600D01*
X205394087Y-110501711D01*
X205479001Y-110781634D01*
X205616894Y-111039614D01*
X205802466Y-111265734D01*
X205832287Y-111290207D01*
X205763420Y-111311098D01*
X205653106Y-111370063D01*
X205556415Y-111449415D01*
X205477063Y-111546106D01*
X205418098Y-111656420D01*
X205381788Y-111776118D01*
X205369528Y-111900600D01*
X205369528Y-113600600D01*
X205381788Y-113725082D01*
X205418098Y-113844780D01*
X205477063Y-113955094D01*
X205556415Y-114051785D01*
X205653106Y-114131137D01*
X205763420Y-114190102D01*
X205883118Y-114226412D01*
X206007600Y-114238672D01*
X207707600Y-114238672D01*
X207832082Y-114226412D01*
X207951780Y-114190102D01*
X208062094Y-114131137D01*
X208158785Y-114051785D01*
X208238137Y-113955094D01*
X208297102Y-113844780D01*
X208317993Y-113775913D01*
X208342466Y-113805734D01*
X208568586Y-113991306D01*
X208826566Y-114129199D01*
X209106489Y-114214113D01*
X209324650Y-114235600D01*
X209470550Y-114235600D01*
X209688711Y-114214113D01*
X209968634Y-114129199D01*
X210226614Y-113991306D01*
X210452734Y-113805734D01*
X210638306Y-113579614D01*
X210667600Y-113524809D01*
X210696894Y-113579614D01*
X210882466Y-113805734D01*
X211108586Y-113991306D01*
X211366566Y-114129199D01*
X211646489Y-114214113D01*
X211864650Y-114235600D01*
X212010550Y-114235600D01*
X212228711Y-114214113D01*
X212508634Y-114129199D01*
X212766614Y-113991306D01*
X212992734Y-113805734D01*
X213178306Y-113579614D01*
X213316199Y-113321634D01*
X213401113Y-113041711D01*
X213424781Y-112801400D01*
X215957215Y-112801400D01*
X215985887Y-113092511D01*
X216070801Y-113372434D01*
X216208694Y-113630414D01*
X216394266Y-113856534D01*
X216620386Y-114042106D01*
X216878366Y-114179999D01*
X217158289Y-114264913D01*
X217376450Y-114286400D01*
X217522350Y-114286400D01*
X217740511Y-114264913D01*
X218020434Y-114179999D01*
X218278414Y-114042106D01*
X218504534Y-113856534D01*
X218690106Y-113630414D01*
X218827999Y-113372434D01*
X218912913Y-113092511D01*
X218941585Y-112801400D01*
X218912913Y-112510289D01*
X218827999Y-112230366D01*
X218690106Y-111972386D01*
X218504534Y-111746266D01*
X218278414Y-111560694D01*
X218213877Y-111526199D01*
X218330755Y-111456578D01*
X218546988Y-111261669D01*
X218721041Y-111028320D01*
X218846225Y-110765499D01*
X218890876Y-110618290D01*
X218769555Y-110388400D01*
X217576400Y-110388400D01*
X217576400Y-110408400D01*
X217322400Y-110408400D01*
X217322400Y-110388400D01*
X216129245Y-110388400D01*
X216007924Y-110618290D01*
X216052575Y-110765499D01*
X216177759Y-111028320D01*
X216351812Y-111261669D01*
X216568045Y-111456578D01*
X216684923Y-111526199D01*
X216620386Y-111560694D01*
X216394266Y-111746266D01*
X216208694Y-111972386D01*
X216070801Y-112230366D01*
X215985887Y-112510289D01*
X215957215Y-112801400D01*
X213424781Y-112801400D01*
X213429785Y-112750600D01*
X213401113Y-112459489D01*
X213316199Y-112179566D01*
X213178306Y-111921586D01*
X212992734Y-111695466D01*
X212766614Y-111509894D01*
X212711809Y-111480600D01*
X212766614Y-111451306D01*
X212992734Y-111265734D01*
X213178306Y-111039614D01*
X213316199Y-110781634D01*
X213401113Y-110501711D01*
X213429785Y-110210600D01*
X213401113Y-109919489D01*
X213316199Y-109639566D01*
X213178306Y-109381586D01*
X212992734Y-109155466D01*
X212766614Y-108969894D01*
X212508634Y-108832001D01*
X212228711Y-108747087D01*
X212010550Y-108725600D01*
X211864650Y-108725600D01*
X211646489Y-108747087D01*
X211366566Y-108832001D01*
X211108586Y-108969894D01*
X210882466Y-109155466D01*
X210696894Y-109381586D01*
X210667600Y-109436391D01*
X210638306Y-109381586D01*
X210452734Y-109155466D01*
X210226614Y-108969894D01*
X209968634Y-108832001D01*
X209688711Y-108747087D01*
X209470550Y-108725600D01*
X209324650Y-108725600D01*
X209106489Y-108747087D01*
X208826566Y-108832001D01*
X208568586Y-108969894D01*
X208342466Y-109155466D01*
X208156894Y-109381586D01*
X208127600Y-109436391D01*
X208098306Y-109381586D01*
X207912734Y-109155466D01*
X207686614Y-108969894D01*
X207428634Y-108832001D01*
X207148711Y-108747087D01*
X206930550Y-108725600D01*
X206784650Y-108725600D01*
X206566489Y-108747087D01*
X206286566Y-108832001D01*
X206028586Y-108969894D01*
X205802466Y-109155466D01*
X205616894Y-109381586D01*
X205479001Y-109639566D01*
X205394087Y-109919489D01*
X205365415Y-110210600D01*
X204260385Y-110210600D01*
X204231713Y-109919489D01*
X204146799Y-109639566D01*
X204008906Y-109381586D01*
X203823334Y-109155466D01*
X203597214Y-108969894D01*
X203530200Y-108934074D01*
X203530200Y-108026220D01*
X208688825Y-108026220D01*
X208726248Y-108029906D01*
X208763671Y-108026220D01*
X208763674Y-108026220D01*
X208875626Y-108015194D01*
X209019263Y-107971622D01*
X209151640Y-107900865D01*
X209267670Y-107805642D01*
X209291532Y-107776566D01*
X210299989Y-106768110D01*
X210317642Y-106789621D01*
X210380178Y-106865822D01*
X210409254Y-106889684D01*
X211753321Y-108233752D01*
X211777178Y-108262822D01*
X211893208Y-108358045D01*
X212025585Y-108428802D01*
X212169222Y-108472374D01*
X212281174Y-108483400D01*
X212281176Y-108483400D01*
X212318599Y-108487086D01*
X212356022Y-108483400D01*
X216172874Y-108483400D01*
X216208694Y-108550414D01*
X216394266Y-108776534D01*
X216620386Y-108962106D01*
X216684923Y-108996601D01*
X216568045Y-109066222D01*
X216351812Y-109261131D01*
X216177759Y-109494480D01*
X216052575Y-109757301D01*
X216007924Y-109904510D01*
X216129245Y-110134400D01*
X217322400Y-110134400D01*
X217322400Y-110114400D01*
X217576400Y-110114400D01*
X217576400Y-110134400D01*
X218769555Y-110134400D01*
X218890876Y-109904510D01*
X218846225Y-109757301D01*
X218721041Y-109494480D01*
X218546988Y-109261131D01*
X218330755Y-109066222D01*
X218213877Y-108996601D01*
X218278414Y-108962106D01*
X218504534Y-108776534D01*
X218690106Y-108550414D01*
X218827999Y-108292434D01*
X218912913Y-108012511D01*
X218941585Y-107721400D01*
X218912913Y-107430289D01*
X218827999Y-107150366D01*
X218690106Y-106892386D01*
X218504534Y-106666266D01*
X218474713Y-106641793D01*
X218543580Y-106620902D01*
X218653894Y-106561937D01*
X218750585Y-106482585D01*
X218829937Y-106385894D01*
X218888902Y-106275580D01*
X218925212Y-106155882D01*
X218937472Y-106031400D01*
X218937472Y-104331400D01*
X218925212Y-104206918D01*
X218888902Y-104087220D01*
X218829937Y-103976906D01*
X218750585Y-103880215D01*
X218653894Y-103800863D01*
X218543580Y-103741898D01*
X218423882Y-103705588D01*
X218299400Y-103693328D01*
X216599400Y-103693328D01*
X216474918Y-103705588D01*
X216355220Y-103741898D01*
X216244906Y-103800863D01*
X216148215Y-103880215D01*
X216068863Y-103976906D01*
X216009898Y-104087220D01*
X215973588Y-104206918D01*
X215961328Y-104331400D01*
X215961328Y-106031400D01*
X215973588Y-106155882D01*
X216009898Y-106275580D01*
X216068863Y-106385894D01*
X216148215Y-106482585D01*
X216244906Y-106561937D01*
X216355220Y-106620902D01*
X216424087Y-106641793D01*
X216394266Y-106666266D01*
X216208694Y-106892386D01*
X216172874Y-106959400D01*
X212634231Y-106959400D01*
X211683600Y-106008770D01*
X211683600Y-101269800D01*
X215982615Y-101269800D01*
X216011287Y-101560911D01*
X216096201Y-101840834D01*
X216234094Y-102098814D01*
X216419666Y-102324934D01*
X216645786Y-102510506D01*
X216903766Y-102648399D01*
X217183689Y-102733313D01*
X217401850Y-102754800D01*
X217547750Y-102754800D01*
X217765911Y-102733313D01*
X218045834Y-102648399D01*
X218303814Y-102510506D01*
X218529934Y-102324934D01*
X218715506Y-102098814D01*
X218853399Y-101840834D01*
X218938313Y-101560911D01*
X218966985Y-101269800D01*
X218938313Y-100978689D01*
X218853399Y-100698766D01*
X218715506Y-100440786D01*
X218529934Y-100214666D01*
X218303814Y-100029094D01*
X218239277Y-99994599D01*
X218356155Y-99924978D01*
X218572388Y-99730069D01*
X218746441Y-99496720D01*
X218871625Y-99233899D01*
X218916276Y-99086690D01*
X218794955Y-98856800D01*
X217601800Y-98856800D01*
X217601800Y-98876800D01*
X217347800Y-98876800D01*
X217347800Y-98856800D01*
X216154645Y-98856800D01*
X216033324Y-99086690D01*
X216077975Y-99233899D01*
X216203159Y-99496720D01*
X216377212Y-99730069D01*
X216593445Y-99924978D01*
X216710323Y-99994599D01*
X216645786Y-100029094D01*
X216419666Y-100214666D01*
X216234094Y-100440786D01*
X216096201Y-100698766D01*
X216011287Y-100978689D01*
X215982615Y-101269800D01*
X211683600Y-101269800D01*
X211683600Y-98284622D01*
X211687286Y-98247199D01*
X211681193Y-98185335D01*
X211672574Y-98097822D01*
X211629002Y-97954185D01*
X211558245Y-97821808D01*
X211463022Y-97705778D01*
X211433952Y-97681921D01*
X210369284Y-96617254D01*
X210352005Y-96596200D01*
X215050970Y-96596200D01*
X215156916Y-96702146D01*
X215180778Y-96731222D01*
X215296808Y-96826445D01*
X215429185Y-96897202D01*
X215572822Y-96940774D01*
X215684774Y-96951800D01*
X215684776Y-96951800D01*
X215722199Y-96955486D01*
X215759622Y-96951800D01*
X216198274Y-96951800D01*
X216234094Y-97018814D01*
X216419666Y-97244934D01*
X216645786Y-97430506D01*
X216710323Y-97465001D01*
X216593445Y-97534622D01*
X216377212Y-97729531D01*
X216203159Y-97962880D01*
X216077975Y-98225701D01*
X216033324Y-98372910D01*
X216154645Y-98602800D01*
X217347800Y-98602800D01*
X217347800Y-98582800D01*
X217601800Y-98582800D01*
X217601800Y-98602800D01*
X218794955Y-98602800D01*
X218916276Y-98372910D01*
X218871625Y-98225701D01*
X218746441Y-97962880D01*
X218572388Y-97729531D01*
X218356155Y-97534622D01*
X218239277Y-97465001D01*
X218303814Y-97430506D01*
X218529934Y-97244934D01*
X218715506Y-97018814D01*
X218853399Y-96760834D01*
X218938313Y-96480911D01*
X218966985Y-96189800D01*
X218938313Y-95898689D01*
X218853399Y-95618766D01*
X218715506Y-95360786D01*
X218529934Y-95134666D01*
X218500113Y-95110193D01*
X218568980Y-95089302D01*
X218679294Y-95030337D01*
X218775985Y-94950985D01*
X218855337Y-94854294D01*
X218914302Y-94743980D01*
X218950612Y-94624282D01*
X218962872Y-94499800D01*
X218962872Y-92799800D01*
X218950612Y-92675318D01*
X218914302Y-92555620D01*
X218855337Y-92445306D01*
X218775985Y-92348615D01*
X218679294Y-92269263D01*
X218568980Y-92210298D01*
X218449282Y-92173988D01*
X218324800Y-92161728D01*
X216624800Y-92161728D01*
X216500318Y-92173988D01*
X216380620Y-92210298D01*
X216270306Y-92269263D01*
X216173615Y-92348615D01*
X216094263Y-92445306D01*
X216035298Y-92555620D01*
X215998988Y-92675318D01*
X215986728Y-92799800D01*
X215986728Y-94499800D01*
X215998988Y-94624282D01*
X216035298Y-94743980D01*
X216094263Y-94854294D01*
X216173615Y-94950985D01*
X216270306Y-95030337D01*
X216380620Y-95089302D01*
X216449487Y-95110193D01*
X216419666Y-95134666D01*
X216234094Y-95360786D01*
X216198274Y-95427800D01*
X216037830Y-95427800D01*
X215931884Y-95321854D01*
X215908022Y-95292778D01*
X215791992Y-95197555D01*
X215659615Y-95126798D01*
X215515978Y-95083226D01*
X215404026Y-95072200D01*
X215404023Y-95072200D01*
X215366600Y-95068514D01*
X215329177Y-95072200D01*
X214265497Y-95072200D01*
X214329826Y-94916898D01*
X214369600Y-94716939D01*
X214369600Y-94513061D01*
X214329826Y-94313102D01*
X214257731Y-94139050D01*
X214336112Y-94043542D01*
X214417023Y-93892167D01*
X214466848Y-93727916D01*
X214483672Y-93557100D01*
X214483672Y-93082100D01*
X214466848Y-92911284D01*
X214417023Y-92747033D01*
X214336112Y-92595658D01*
X214227223Y-92462977D01*
X214094542Y-92354088D01*
X213943167Y-92273177D01*
X213778916Y-92223352D01*
X213608100Y-92206528D01*
X213033100Y-92206528D01*
X212862284Y-92223352D01*
X212698033Y-92273177D01*
X212546658Y-92354088D01*
X212522761Y-92373699D01*
X212450094Y-92314063D01*
X212339780Y-92255098D01*
X212220082Y-92218788D01*
X212095600Y-92206528D01*
X211856350Y-92209600D01*
X211697600Y-92368350D01*
X211697600Y-93192600D01*
X211717600Y-93192600D01*
X211717600Y-93446600D01*
X211697600Y-93446600D01*
X211697600Y-94270850D01*
X211856350Y-94429600D01*
X212095600Y-94432672D01*
X212220082Y-94420412D01*
X212324318Y-94388792D01*
X212299600Y-94513061D01*
X212299600Y-94716939D01*
X212339374Y-94916898D01*
X212403703Y-95072200D01*
X209987776Y-95072200D01*
X210062626Y-94891498D01*
X210102400Y-94691539D01*
X210102400Y-94487661D01*
X210062626Y-94287702D01*
X209984605Y-94099344D01*
X209871337Y-93929826D01*
X209736111Y-93794600D01*
X210407528Y-93794600D01*
X210419788Y-93919082D01*
X210456098Y-94038780D01*
X210515063Y-94149094D01*
X210594415Y-94245785D01*
X210691106Y-94325137D01*
X210801420Y-94384102D01*
X210921118Y-94420412D01*
X211045600Y-94432672D01*
X211284850Y-94429600D01*
X211443600Y-94270850D01*
X211443600Y-93446600D01*
X210569350Y-93446600D01*
X210410600Y-93605350D01*
X210407528Y-93794600D01*
X209736111Y-93794600D01*
X209727174Y-93785663D01*
X209557656Y-93672395D01*
X209369298Y-93594374D01*
X209169339Y-93554600D01*
X208965461Y-93554600D01*
X208765502Y-93594374D01*
X208723945Y-93611588D01*
X208722600Y-93605350D01*
X208563850Y-93446600D01*
X207239600Y-93446600D01*
X207239600Y-93466600D01*
X206985600Y-93466600D01*
X206985600Y-93446600D01*
X205661350Y-93446600D01*
X205502600Y-93605350D01*
X205499528Y-93619600D01*
X205511788Y-93744082D01*
X205548098Y-93863780D01*
X205596643Y-93954600D01*
X205548098Y-94045420D01*
X205511788Y-94165118D01*
X205499528Y-94289600D01*
X205499528Y-94889600D01*
X205511788Y-95014082D01*
X205548098Y-95133780D01*
X205596643Y-95224600D01*
X205548098Y-95315420D01*
X205511788Y-95435118D01*
X205499528Y-95559600D01*
X205499528Y-96159600D01*
X205511788Y-96284082D01*
X205548098Y-96403780D01*
X205596643Y-96494600D01*
X205548098Y-96585420D01*
X205511788Y-96705118D01*
X205499528Y-96829600D01*
X205499528Y-97429600D01*
X205511788Y-97554082D01*
X205548098Y-97673780D01*
X205596643Y-97764600D01*
X205548098Y-97855420D01*
X205511788Y-97975118D01*
X205499528Y-98099600D01*
X205499528Y-98699600D01*
X205511788Y-98824082D01*
X205548098Y-98943780D01*
X205596643Y-99034600D01*
X205548098Y-99125420D01*
X205511788Y-99245118D01*
X205499528Y-99369600D01*
X205499528Y-99969600D01*
X205511788Y-100094082D01*
X205548098Y-100213780D01*
X205596643Y-100304600D01*
X205548098Y-100395420D01*
X205511788Y-100515118D01*
X205499528Y-100639600D01*
X205499528Y-101239600D01*
X205511788Y-101364082D01*
X205548098Y-101483780D01*
X205596643Y-101574600D01*
X205548098Y-101665420D01*
X205511788Y-101785118D01*
X205499528Y-101909600D01*
X205499528Y-102509600D01*
X205511788Y-102634082D01*
X205548098Y-102753780D01*
X205596643Y-102844600D01*
X205548098Y-102935420D01*
X205511788Y-103055118D01*
X205499528Y-103179600D01*
X205499528Y-103779600D01*
X205511788Y-103904082D01*
X205548098Y-104023780D01*
X205596643Y-104114600D01*
X205548098Y-104205420D01*
X205511788Y-104325118D01*
X205499528Y-104449600D01*
X205499528Y-105049600D01*
X205511788Y-105174082D01*
X205548098Y-105293780D01*
X205607063Y-105404094D01*
X205674445Y-105486200D01*
X199150755Y-105486200D01*
X199218137Y-105404094D01*
X199277102Y-105293780D01*
X199313412Y-105174082D01*
X199325672Y-105049600D01*
X199325672Y-104449600D01*
X199313412Y-104325118D01*
X199277102Y-104205420D01*
X199228557Y-104114600D01*
X199277102Y-104023780D01*
X199313412Y-103904082D01*
X199325672Y-103779600D01*
X199325672Y-103179600D01*
X199313412Y-103055118D01*
X199277102Y-102935420D01*
X199228557Y-102844600D01*
X199277102Y-102753780D01*
X199313412Y-102634082D01*
X199325672Y-102509600D01*
X199325672Y-101909600D01*
X199313412Y-101785118D01*
X199277102Y-101665420D01*
X199228557Y-101574600D01*
X199277102Y-101483780D01*
X199313412Y-101364082D01*
X199325672Y-101239600D01*
X199325672Y-100639600D01*
X199313412Y-100515118D01*
X199277102Y-100395420D01*
X199228557Y-100304600D01*
X199277102Y-100213780D01*
X199313412Y-100094082D01*
X199325672Y-99969600D01*
X199325672Y-99369600D01*
X199313412Y-99245118D01*
X199277102Y-99125420D01*
X199228557Y-99034600D01*
X199277102Y-98943780D01*
X199313412Y-98824082D01*
X199325672Y-98699600D01*
X199325672Y-98099600D01*
X199313412Y-97975118D01*
X199277102Y-97855420D01*
X199228557Y-97764600D01*
X199277102Y-97673780D01*
X199313412Y-97554082D01*
X199325672Y-97429600D01*
X199325672Y-96829600D01*
X199313412Y-96705118D01*
X199277102Y-96585420D01*
X199228557Y-96494600D01*
X199277102Y-96403780D01*
X199313412Y-96284082D01*
X199325672Y-96159600D01*
X199325672Y-95559600D01*
X199313412Y-95435118D01*
X199277102Y-95315420D01*
X199228557Y-95224600D01*
X199277102Y-95133780D01*
X199313412Y-95014082D01*
X199325672Y-94889600D01*
X199325672Y-94289600D01*
X199313412Y-94165118D01*
X199277102Y-94045420D01*
X199228557Y-93954600D01*
X199277102Y-93863780D01*
X199313412Y-93744082D01*
X199325672Y-93619600D01*
X199325672Y-93019600D01*
X205499528Y-93019600D01*
X205502600Y-93033850D01*
X205661350Y-93192600D01*
X206985600Y-93192600D01*
X206985600Y-92543350D01*
X207239600Y-92543350D01*
X207239600Y-93192600D01*
X208563850Y-93192600D01*
X208722600Y-93033850D01*
X208725672Y-93019600D01*
X208713412Y-92895118D01*
X208698088Y-92844600D01*
X210407528Y-92844600D01*
X210410600Y-93033850D01*
X210569350Y-93192600D01*
X211443600Y-93192600D01*
X211443600Y-92368350D01*
X211284850Y-92209600D01*
X211045600Y-92206528D01*
X210921118Y-92218788D01*
X210801420Y-92255098D01*
X210691106Y-92314063D01*
X210594415Y-92393415D01*
X210515063Y-92490106D01*
X210456098Y-92600420D01*
X210419788Y-92720118D01*
X210407528Y-92844600D01*
X208698088Y-92844600D01*
X208677102Y-92775420D01*
X208618137Y-92665106D01*
X208538785Y-92568415D01*
X208442094Y-92489063D01*
X208331780Y-92430098D01*
X208212082Y-92393788D01*
X208087600Y-92381528D01*
X207398350Y-92384600D01*
X207239600Y-92543350D01*
X206985600Y-92543350D01*
X206826850Y-92384600D01*
X206137600Y-92381528D01*
X206013118Y-92393788D01*
X205893420Y-92430098D01*
X205783106Y-92489063D01*
X205686415Y-92568415D01*
X205607063Y-92665106D01*
X205548098Y-92775420D01*
X205511788Y-92895118D01*
X205499528Y-93019600D01*
X199325672Y-93019600D01*
X199313412Y-92895118D01*
X199277102Y-92775420D01*
X199218137Y-92665106D01*
X199138785Y-92568415D01*
X199042094Y-92489063D01*
X198931780Y-92430098D01*
X198812082Y-92393788D01*
X198687600Y-92381528D01*
X196737600Y-92381528D01*
X196613118Y-92393788D01*
X196493420Y-92430098D01*
X196447049Y-92454884D01*
X196292466Y-92351595D01*
X196104108Y-92273574D01*
X195904149Y-92233800D01*
X195700271Y-92233800D01*
X195500312Y-92273574D01*
X195478410Y-92282646D01*
X195478410Y-91788507D01*
X195506702Y-91800226D01*
X195706661Y-91840000D01*
X195910539Y-91840000D01*
X196110498Y-91800226D01*
X196298856Y-91722205D01*
X196408361Y-91649036D01*
X196493420Y-91694502D01*
X196613118Y-91730812D01*
X196737600Y-91743072D01*
X198687600Y-91743072D01*
X198812082Y-91730812D01*
X198931780Y-91694502D01*
X199042094Y-91635537D01*
X199138785Y-91556185D01*
X199218137Y-91459494D01*
X199277102Y-91349180D01*
X199313412Y-91229482D01*
X199325672Y-91105000D01*
X199325672Y-90505000D01*
X199313412Y-90380518D01*
X199277102Y-90260820D01*
X199228557Y-90170000D01*
X199277102Y-90079180D01*
X199313412Y-89959482D01*
X199325672Y-89835000D01*
X199325672Y-89235000D01*
X199313412Y-89110518D01*
X199277102Y-88990820D01*
X199228557Y-88900000D01*
X199277102Y-88809180D01*
X199313412Y-88689482D01*
X199325672Y-88565000D01*
X199325672Y-87965000D01*
X199313412Y-87840518D01*
X199277102Y-87720820D01*
X199228557Y-87630000D01*
X199277102Y-87539180D01*
X199313412Y-87419482D01*
X199325672Y-87295000D01*
X199325672Y-86695000D01*
X199313412Y-86570518D01*
X199277102Y-86450820D01*
X199228557Y-86360000D01*
X199277102Y-86269180D01*
X199313412Y-86149482D01*
X199325672Y-86025000D01*
X199325672Y-85425000D01*
X199313412Y-85300518D01*
X199277102Y-85180820D01*
X199228557Y-85090000D01*
X199277102Y-84999180D01*
X199313412Y-84879482D01*
X199325672Y-84755000D01*
X199325672Y-84155000D01*
X199313412Y-84030518D01*
X199277102Y-83910820D01*
X199228557Y-83820000D01*
X199277102Y-83729180D01*
X199313412Y-83609482D01*
X199325672Y-83485000D01*
X199325672Y-82885000D01*
X199313412Y-82760518D01*
X199277102Y-82640820D01*
X199228557Y-82550000D01*
X199277102Y-82459180D01*
X199313412Y-82339482D01*
X199325672Y-82215000D01*
X199325672Y-81615000D01*
X199313412Y-81490518D01*
X199277102Y-81370820D01*
X199228557Y-81280000D01*
X199277102Y-81189180D01*
X199313412Y-81069482D01*
X199325672Y-80945000D01*
X199325672Y-80345000D01*
X199313412Y-80220518D01*
X199277102Y-80100820D01*
X199228557Y-80010000D01*
X199277102Y-79919180D01*
X199313412Y-79799482D01*
X199325672Y-79675000D01*
X199325672Y-79075000D01*
X205499528Y-79075000D01*
X205502600Y-79089250D01*
X205661350Y-79248000D01*
X206985600Y-79248000D01*
X206985600Y-78598750D01*
X207239600Y-78598750D01*
X207239600Y-79248000D01*
X208563850Y-79248000D01*
X208722600Y-79089250D01*
X208725672Y-79075000D01*
X208713412Y-78950518D01*
X208677102Y-78830820D01*
X208618137Y-78720506D01*
X208538785Y-78623815D01*
X208442094Y-78544463D01*
X208331780Y-78485498D01*
X208212082Y-78449188D01*
X208087600Y-78436928D01*
X207398350Y-78440000D01*
X207239600Y-78598750D01*
X206985600Y-78598750D01*
X206826850Y-78440000D01*
X206137600Y-78436928D01*
X206013118Y-78449188D01*
X205893420Y-78485498D01*
X205783106Y-78544463D01*
X205686415Y-78623815D01*
X205607063Y-78720506D01*
X205548098Y-78830820D01*
X205511788Y-78950518D01*
X205499528Y-79075000D01*
X199325672Y-79075000D01*
X199313412Y-78950518D01*
X199277102Y-78830820D01*
X199218137Y-78720506D01*
X199138785Y-78623815D01*
X199042094Y-78544463D01*
X198931780Y-78485498D01*
X198812082Y-78449188D01*
X198687600Y-78436928D01*
X196737600Y-78436928D01*
X196613118Y-78449188D01*
X196493420Y-78485498D01*
X196436584Y-78515878D01*
X196349656Y-78457795D01*
X196161298Y-78379774D01*
X195961339Y-78340000D01*
X195757461Y-78340000D01*
X195563098Y-78378661D01*
X195550812Y-78338161D01*
X195480055Y-78205784D01*
X195384832Y-78089754D01*
X195355763Y-78065898D01*
X194679304Y-77389440D01*
X194655447Y-77360370D01*
X194626375Y-77336511D01*
X194539417Y-77265146D01*
X194407040Y-77194390D01*
X194263403Y-77150818D01*
X194114025Y-77136105D01*
X194076592Y-77139792D01*
X193521460Y-77139792D01*
X193541600Y-77038539D01*
X193541600Y-76834661D01*
X193505028Y-76650800D01*
X193573739Y-76650800D01*
X193773698Y-76611026D01*
X193962056Y-76533005D01*
X194131574Y-76419737D01*
X194170300Y-76381011D01*
X194209026Y-76419737D01*
X194378544Y-76533005D01*
X194566902Y-76611026D01*
X194766861Y-76650800D01*
X194970739Y-76650800D01*
X195170698Y-76611026D01*
X195359056Y-76533005D01*
X195528574Y-76419737D01*
X195672737Y-76275574D01*
X195786005Y-76106056D01*
X195864026Y-75917698D01*
X195903800Y-75717739D01*
X195903800Y-75513861D01*
X195864026Y-75313902D01*
X195786005Y-75125544D01*
X195672737Y-74956026D01*
X195528574Y-74811863D01*
X195359056Y-74698595D01*
X195170698Y-74620574D01*
X194970739Y-74580800D01*
X194911430Y-74580800D01*
X194653083Y-74322452D01*
X194629221Y-74293377D01*
X194513191Y-74198154D01*
X194380814Y-74127397D01*
X194237177Y-74083825D01*
X194125225Y-74072799D01*
X194125222Y-74072799D01*
X194087799Y-74069113D01*
X194050376Y-74072799D01*
X176100288Y-74072799D01*
X176062865Y-74069113D01*
X176025442Y-74072799D01*
X176025439Y-74072799D01*
X175913487Y-74083825D01*
X175769850Y-74127397D01*
X175708229Y-74160334D01*
X175637472Y-74198154D01*
X175603787Y-74225799D01*
X175521443Y-74293377D01*
X175497581Y-74322453D01*
X172461613Y-77358421D01*
X172432543Y-77382278D01*
X172408686Y-77411348D01*
X172408685Y-77411349D01*
X172337319Y-77498308D01*
X172266563Y-77630685D01*
X172222991Y-77774322D01*
X172208278Y-77923700D01*
X172211965Y-77961133D01*
X172211962Y-89689805D01*
X172208276Y-89727228D01*
X172211962Y-89764651D01*
X172211962Y-89764653D01*
X172222988Y-89876605D01*
X172266560Y-90020242D01*
X172292301Y-90068400D01*
X172337317Y-90152620D01*
X172337997Y-90153448D01*
X172432540Y-90268649D01*
X172461615Y-90292510D01*
X174015390Y-91846288D01*
X174015391Y-104889957D01*
X174011704Y-104927390D01*
X174026417Y-105076768D01*
X174069989Y-105220405D01*
X174140745Y-105352782D01*
X174212111Y-105439741D01*
X174235969Y-105468812D01*
X174265039Y-105492669D01*
X174948720Y-106176351D01*
X174972578Y-106205422D01*
X175001648Y-106229279D01*
X175088607Y-106300645D01*
X175159364Y-106338465D01*
X175220985Y-106371402D01*
X175364622Y-106414974D01*
X175476574Y-106426000D01*
X175476577Y-106426000D01*
X175514000Y-106429686D01*
X175551423Y-106426000D01*
X176075293Y-106426000D01*
X176177363Y-106578759D01*
X176377241Y-106778637D01*
X176609759Y-106934000D01*
X176377241Y-107089363D01*
X176177363Y-107289241D01*
X176020320Y-107524273D01*
X175912147Y-107785426D01*
X175857000Y-108062665D01*
X175857000Y-108345335D01*
X175912147Y-108622574D01*
X176020320Y-108883727D01*
X176177363Y-109118759D01*
X176377241Y-109318637D01*
X176609759Y-109474000D01*
X176377241Y-109629363D01*
X176177363Y-109829241D01*
X176020320Y-110064273D01*
X175912147Y-110325426D01*
X175857000Y-110602665D01*
X175857000Y-110885335D01*
X175912147Y-111162574D01*
X176020320Y-111423727D01*
X176177363Y-111658759D01*
X176377241Y-111858637D01*
X176611128Y-112014915D01*
X176550486Y-112047329D01*
X176478903Y-112291298D01*
X177292000Y-113104395D01*
X178105097Y-112291298D01*
X178033514Y-112047329D01*
X177969008Y-112016806D01*
X177971727Y-112015680D01*
X178206759Y-111858637D01*
X178406637Y-111658759D01*
X178563680Y-111423727D01*
X178671853Y-111162574D01*
X178727000Y-110885335D01*
X178727000Y-110602665D01*
X178671853Y-110325426D01*
X178563680Y-110064273D01*
X178406637Y-109829241D01*
X178206759Y-109629363D01*
X177974241Y-109474000D01*
X178206759Y-109318637D01*
X178406637Y-109118759D01*
X178472416Y-109020313D01*
X178474169Y-109020486D01*
X178511592Y-109016800D01*
X180583170Y-109016800D01*
X180619400Y-109053030D01*
X180619401Y-118170288D01*
X180577463Y-118212226D01*
X180464195Y-118381744D01*
X180386174Y-118570102D01*
X180346400Y-118770061D01*
X180346400Y-118891001D01*
X172286472Y-118891001D01*
X172286472Y-118460200D01*
X172274212Y-118335718D01*
X172237902Y-118216020D01*
X172178937Y-118105706D01*
X172099585Y-118009015D01*
X172002894Y-117929663D01*
X171892580Y-117870698D01*
X171772882Y-117834388D01*
X171648400Y-117822128D01*
X171090812Y-117822128D01*
X171099026Y-117802298D01*
X171138800Y-117602339D01*
X171138800Y-117398461D01*
X171099026Y-117198502D01*
X171021005Y-117010144D01*
X170907737Y-116840626D01*
X170763574Y-116696463D01*
X170594056Y-116583195D01*
X170405698Y-116505174D01*
X170205739Y-116465400D01*
X170001861Y-116465400D01*
X169801902Y-116505174D01*
X169613544Y-116583195D01*
X169458502Y-116686791D01*
X169417374Y-116645663D01*
X169247856Y-116532395D01*
X169059498Y-116454374D01*
X168859539Y-116414600D01*
X168655661Y-116414600D01*
X168455702Y-116454374D01*
X168267344Y-116532395D01*
X168097826Y-116645663D01*
X167953663Y-116789826D01*
X167840395Y-116959344D01*
X167762374Y-117147702D01*
X167722600Y-117347661D01*
X167722600Y-117551539D01*
X167762374Y-117751498D01*
X167791630Y-117822128D01*
X167238400Y-117822128D01*
X167113918Y-117834388D01*
X166994220Y-117870698D01*
X166883906Y-117929663D01*
X166787215Y-118009015D01*
X166707863Y-118105706D01*
X166648898Y-118216020D01*
X166612588Y-118335718D01*
X166600328Y-118460200D01*
X166600328Y-120010200D01*
X166612588Y-120134682D01*
X166648898Y-120254380D01*
X166707863Y-120364694D01*
X166787215Y-120461385D01*
X166883906Y-120540737D01*
X166994220Y-120599702D01*
X167113918Y-120636012D01*
X167238400Y-120648272D01*
X167271842Y-120648272D01*
X167684316Y-121060746D01*
X167708178Y-121089822D01*
X167781819Y-121150257D01*
X167824207Y-121185045D01*
X167894964Y-121222865D01*
X167956585Y-121255802D01*
X167970424Y-121260000D01*
X158775000Y-121260000D01*
X158775000Y-119214042D01*
X158970000Y-119214042D01*
X158970000Y-119545958D01*
X159034754Y-119871496D01*
X159161772Y-120178147D01*
X159346175Y-120454125D01*
X159580875Y-120688825D01*
X159856853Y-120873228D01*
X160163504Y-121000246D01*
X160489042Y-121065000D01*
X160820958Y-121065000D01*
X161146496Y-121000246D01*
X161453147Y-120873228D01*
X161729125Y-120688825D01*
X161963825Y-120454125D01*
X162148228Y-120178147D01*
X162275246Y-119871496D01*
X162340000Y-119545958D01*
X162340000Y-119214042D01*
X162275246Y-118888504D01*
X162148228Y-118581853D01*
X161963825Y-118305875D01*
X161729125Y-118071175D01*
X161453147Y-117886772D01*
X161146496Y-117759754D01*
X160820958Y-117695000D01*
X160489042Y-117695000D01*
X160163504Y-117759754D01*
X159856853Y-117886772D01*
X159580875Y-118071175D01*
X159346175Y-118305875D01*
X159161772Y-118581853D01*
X159034754Y-118888504D01*
X158970000Y-119214042D01*
X158775000Y-119214042D01*
X158775000Y-92735400D01*
X161387914Y-92735400D01*
X161391601Y-92772833D01*
X161391600Y-95263377D01*
X161387914Y-95300800D01*
X161391600Y-95338223D01*
X161391600Y-95338225D01*
X161402626Y-95450177D01*
X161446198Y-95593814D01*
X161464104Y-95627314D01*
X161516955Y-95726192D01*
X161548318Y-95764408D01*
X161612178Y-95842222D01*
X161641254Y-95866084D01*
X162058345Y-96283175D01*
X162036287Y-96355889D01*
X162007615Y-96647000D01*
X162036287Y-96938111D01*
X162121201Y-97218034D01*
X162259094Y-97476014D01*
X162444666Y-97702134D01*
X162474487Y-97726607D01*
X162405620Y-97747498D01*
X162295306Y-97806463D01*
X162198615Y-97885815D01*
X162119263Y-97982506D01*
X162060298Y-98092820D01*
X162023988Y-98212518D01*
X162011728Y-98337000D01*
X162011728Y-100037000D01*
X162023988Y-100161482D01*
X162060298Y-100281180D01*
X162119263Y-100391494D01*
X162198615Y-100488185D01*
X162295306Y-100567537D01*
X162405620Y-100626502D01*
X162525318Y-100662812D01*
X162649800Y-100675072D01*
X164349800Y-100675072D01*
X164474282Y-100662812D01*
X164593980Y-100626502D01*
X164704294Y-100567537D01*
X164800985Y-100488185D01*
X164880337Y-100391494D01*
X164939302Y-100281180D01*
X164975612Y-100161482D01*
X164987872Y-100037000D01*
X164987872Y-98337000D01*
X164975612Y-98212518D01*
X164939302Y-98092820D01*
X164880337Y-97982506D01*
X164800985Y-97885815D01*
X164704294Y-97806463D01*
X164593980Y-97747498D01*
X164525113Y-97726607D01*
X164554934Y-97702134D01*
X164740506Y-97476014D01*
X164749173Y-97459800D01*
X168060970Y-97459800D01*
X168097201Y-97496031D01*
X168097200Y-102736643D01*
X168075213Y-102748395D01*
X167940638Y-102858838D01*
X167868600Y-102946616D01*
X167796562Y-102858838D01*
X167661987Y-102748395D01*
X167508451Y-102666328D01*
X167341855Y-102615792D01*
X167168601Y-102598728D01*
X166518599Y-102598728D01*
X166345345Y-102615792D01*
X166178749Y-102666328D01*
X166025213Y-102748395D01*
X165890638Y-102858838D01*
X165780195Y-102993413D01*
X165698128Y-103146949D01*
X165689680Y-103174800D01*
X164776326Y-103174800D01*
X164740506Y-103107786D01*
X164554934Y-102881666D01*
X164328814Y-102696094D01*
X164070834Y-102558201D01*
X163790911Y-102473287D01*
X163572750Y-102451800D01*
X163426850Y-102451800D01*
X163208689Y-102473287D01*
X162928766Y-102558201D01*
X162670786Y-102696094D01*
X162444666Y-102881666D01*
X162259094Y-103107786D01*
X162121201Y-103365766D01*
X162036287Y-103645689D01*
X162007615Y-103936800D01*
X162036287Y-104227911D01*
X162121201Y-104507834D01*
X162259094Y-104765814D01*
X162444666Y-104991934D01*
X162670786Y-105177506D01*
X162725591Y-105206800D01*
X162670786Y-105236094D01*
X162444666Y-105421666D01*
X162259094Y-105647786D01*
X162121201Y-105905766D01*
X162036287Y-106185689D01*
X162007615Y-106476800D01*
X162036287Y-106767911D01*
X162121201Y-107047834D01*
X162259094Y-107305814D01*
X162444666Y-107531934D01*
X162474487Y-107556407D01*
X162405620Y-107577298D01*
X162295306Y-107636263D01*
X162198615Y-107715615D01*
X162119263Y-107812306D01*
X162060298Y-107922620D01*
X162023988Y-108042318D01*
X162011728Y-108166800D01*
X162011728Y-109866800D01*
X162023988Y-109991282D01*
X162060298Y-110110980D01*
X162119263Y-110221294D01*
X162198615Y-110317985D01*
X162295306Y-110397337D01*
X162405620Y-110456302D01*
X162525318Y-110492612D01*
X162649800Y-110504872D01*
X164349800Y-110504872D01*
X164474282Y-110492612D01*
X164593980Y-110456302D01*
X164704294Y-110397337D01*
X164800985Y-110317985D01*
X164880337Y-110221294D01*
X164939302Y-110110980D01*
X164975612Y-109991282D01*
X164987872Y-109866800D01*
X164987872Y-108166800D01*
X164975612Y-108042318D01*
X164939302Y-107922620D01*
X164880337Y-107812306D01*
X164800985Y-107715615D01*
X164704294Y-107636263D01*
X164593980Y-107577298D01*
X164525113Y-107556407D01*
X164554934Y-107531934D01*
X164740506Y-107305814D01*
X164776326Y-107238800D01*
X165681975Y-107238800D01*
X165698128Y-107292051D01*
X165780195Y-107445587D01*
X165890638Y-107580162D01*
X166025213Y-107690605D01*
X166081601Y-107720745D01*
X166081601Y-107728262D01*
X165970577Y-107819377D01*
X165861688Y-107952058D01*
X165780777Y-108103433D01*
X165730952Y-108267684D01*
X165714128Y-108438500D01*
X165714128Y-109013500D01*
X165730952Y-109184316D01*
X165780777Y-109348567D01*
X165861688Y-109499942D01*
X165944625Y-109601000D01*
X165861688Y-109702058D01*
X165780777Y-109853433D01*
X165730952Y-110017684D01*
X165714128Y-110188500D01*
X165714128Y-110500041D01*
X165336770Y-110877400D01*
X165277461Y-110877400D01*
X165077502Y-110917174D01*
X164889144Y-110995195D01*
X164719626Y-111108463D01*
X164575463Y-111252626D01*
X164462195Y-111422144D01*
X164384174Y-111610502D01*
X164344400Y-111810461D01*
X164344400Y-112014339D01*
X164384174Y-112214298D01*
X164462195Y-112402656D01*
X164575463Y-112572174D01*
X164719626Y-112716337D01*
X164889144Y-112829605D01*
X165077502Y-112907626D01*
X165277461Y-112947400D01*
X165481339Y-112947400D01*
X165681298Y-112907626D01*
X165869656Y-112829605D01*
X166039174Y-112716337D01*
X166183337Y-112572174D01*
X166296605Y-112402656D01*
X166374626Y-112214298D01*
X166414400Y-112014339D01*
X166414400Y-111955030D01*
X166730359Y-111639072D01*
X167064700Y-111639072D01*
X167235516Y-111622248D01*
X167399767Y-111572423D01*
X167551142Y-111491512D01*
X167683823Y-111382623D01*
X167792712Y-111249942D01*
X167873623Y-111098567D01*
X167923448Y-110934316D01*
X167940272Y-110763500D01*
X167940272Y-110188500D01*
X167923448Y-110017684D01*
X167873623Y-109853433D01*
X167792712Y-109702058D01*
X167709775Y-109601000D01*
X167792712Y-109499942D01*
X167873623Y-109348567D01*
X167923448Y-109184316D01*
X167940272Y-109013500D01*
X167940272Y-108438500D01*
X167923448Y-108267684D01*
X167873623Y-108103433D01*
X167792712Y-107952058D01*
X167683823Y-107819377D01*
X167605600Y-107755181D01*
X167605600Y-107720745D01*
X167661987Y-107690605D01*
X167796562Y-107580162D01*
X167868600Y-107492384D01*
X167940638Y-107580162D01*
X168046401Y-107666959D01*
X168046400Y-112459723D01*
X167962882Y-112434388D01*
X167838400Y-112422128D01*
X167238400Y-112422128D01*
X167113918Y-112434388D01*
X166994220Y-112470698D01*
X166883906Y-112529663D01*
X166787215Y-112609015D01*
X166707863Y-112705706D01*
X166648898Y-112816020D01*
X166612588Y-112935718D01*
X166600328Y-113060200D01*
X166600328Y-114610200D01*
X166612588Y-114734682D01*
X166648898Y-114854380D01*
X166707863Y-114964694D01*
X166787215Y-115061385D01*
X166883906Y-115140737D01*
X166994220Y-115199702D01*
X167113918Y-115236012D01*
X167238400Y-115248272D01*
X167838400Y-115248272D01*
X167962882Y-115236012D01*
X168082580Y-115199702D01*
X168173400Y-115151157D01*
X168264220Y-115199702D01*
X168383918Y-115236012D01*
X168508400Y-115248272D01*
X169108400Y-115248272D01*
X169232882Y-115236012D01*
X169352580Y-115199702D01*
X169443400Y-115151157D01*
X169534220Y-115199702D01*
X169653918Y-115236012D01*
X169778400Y-115248272D01*
X170378400Y-115248272D01*
X170502882Y-115236012D01*
X170622580Y-115199702D01*
X170713400Y-115151157D01*
X170804220Y-115199702D01*
X170923918Y-115236012D01*
X171048400Y-115248272D01*
X171648400Y-115248272D01*
X171772882Y-115236012D01*
X171892580Y-115199702D01*
X172002894Y-115140737D01*
X172099585Y-115061385D01*
X172178937Y-114964694D01*
X172237902Y-114854380D01*
X172274212Y-114734682D01*
X172286472Y-114610200D01*
X172286472Y-114276702D01*
X176478903Y-114276702D01*
X176550486Y-114520671D01*
X176805996Y-114641571D01*
X177080184Y-114710300D01*
X177362512Y-114724217D01*
X177642130Y-114682787D01*
X177908292Y-114587603D01*
X178033514Y-114520671D01*
X178105097Y-114276702D01*
X177292000Y-113463605D01*
X176478903Y-114276702D01*
X172286472Y-114276702D01*
X172286472Y-113354512D01*
X175851783Y-113354512D01*
X175893213Y-113634130D01*
X175988397Y-113900292D01*
X176055329Y-114025514D01*
X176299298Y-114097097D01*
X177112395Y-113284000D01*
X177471605Y-113284000D01*
X178284702Y-114097097D01*
X178528671Y-114025514D01*
X178649571Y-113770004D01*
X178718300Y-113495816D01*
X178732217Y-113213488D01*
X178690787Y-112933870D01*
X178595603Y-112667708D01*
X178528671Y-112542486D01*
X178284702Y-112470903D01*
X177471605Y-113284000D01*
X177112395Y-113284000D01*
X176299298Y-112470903D01*
X176055329Y-112542486D01*
X175934429Y-112797996D01*
X175865700Y-113072184D01*
X175851783Y-113354512D01*
X172286472Y-113354512D01*
X172286472Y-113060200D01*
X172274212Y-112935718D01*
X172237902Y-112816020D01*
X172178937Y-112705706D01*
X172099585Y-112609015D01*
X172002894Y-112529663D01*
X171892580Y-112470698D01*
X171772882Y-112434388D01*
X171648400Y-112422128D01*
X171048400Y-112422128D01*
X170923918Y-112434388D01*
X170840400Y-112459723D01*
X170840400Y-109053030D01*
X172013153Y-107880278D01*
X172042222Y-107856422D01*
X172137445Y-107740392D01*
X172208202Y-107608015D01*
X172251774Y-107464378D01*
X172262800Y-107352426D01*
X172262800Y-107352424D01*
X172266486Y-107315001D01*
X172262800Y-107277578D01*
X172262800Y-104558423D01*
X172266486Y-104521000D01*
X172262800Y-104483574D01*
X172251774Y-104371622D01*
X172208202Y-104227985D01*
X172163205Y-104143802D01*
X172137445Y-104095607D01*
X172097079Y-104046422D01*
X172042222Y-103979578D01*
X172013146Y-103955716D01*
X171532684Y-103475254D01*
X171508822Y-103446178D01*
X171392792Y-103350955D01*
X171260415Y-103280198D01*
X171116778Y-103236626D01*
X171004826Y-103225600D01*
X171004823Y-103225600D01*
X170967400Y-103221914D01*
X170929977Y-103225600D01*
X170062930Y-103225600D01*
X170039072Y-103146949D01*
X169957005Y-102993413D01*
X169846562Y-102858838D01*
X169711987Y-102748395D01*
X169621200Y-102699868D01*
X169621200Y-97217822D01*
X169624886Y-97180399D01*
X169619847Y-97129241D01*
X169610174Y-97031022D01*
X169566602Y-96887385D01*
X169495845Y-96755008D01*
X169400622Y-96638978D01*
X169371546Y-96615116D01*
X168941884Y-96185454D01*
X168918022Y-96156378D01*
X168801992Y-96061155D01*
X168669615Y-95990398D01*
X168525978Y-95946826D01*
X168414026Y-95935800D01*
X168414023Y-95935800D01*
X168376600Y-95932114D01*
X168339177Y-95935800D01*
X164803479Y-95935800D01*
X164740506Y-95817986D01*
X164554934Y-95591866D01*
X164328814Y-95406294D01*
X164274009Y-95377000D01*
X164328814Y-95347706D01*
X164554934Y-95162134D01*
X164740506Y-94936014D01*
X164878399Y-94678034D01*
X164963313Y-94398111D01*
X164991985Y-94107000D01*
X164963313Y-93815889D01*
X164878399Y-93535966D01*
X164740506Y-93277986D01*
X164554934Y-93051866D01*
X164328814Y-92866294D01*
X164274009Y-92837000D01*
X164328814Y-92807706D01*
X164554934Y-92622134D01*
X164740506Y-92396014D01*
X164878399Y-92138034D01*
X164963313Y-91858111D01*
X164991985Y-91567000D01*
X164963313Y-91275889D01*
X164878399Y-90995966D01*
X164740506Y-90737986D01*
X164554934Y-90511866D01*
X164328814Y-90326294D01*
X164070834Y-90188401D01*
X163790911Y-90103487D01*
X163572750Y-90082000D01*
X163426850Y-90082000D01*
X163208689Y-90103487D01*
X162928766Y-90188401D01*
X162670786Y-90326294D01*
X162444666Y-90511866D01*
X162259094Y-90737986D01*
X162121201Y-90995966D01*
X162036287Y-91275889D01*
X162007615Y-91567000D01*
X162028843Y-91782527D01*
X161641249Y-92170121D01*
X161612179Y-92193978D01*
X161588322Y-92223048D01*
X161588321Y-92223049D01*
X161516955Y-92310008D01*
X161446199Y-92442385D01*
X161402627Y-92586022D01*
X161387914Y-92735400D01*
X158775000Y-92735400D01*
X158775000Y-86424419D01*
X164711600Y-86424419D01*
X164711600Y-86805581D01*
X164785961Y-87179419D01*
X164931825Y-87531566D01*
X165143587Y-87848491D01*
X165413109Y-88118013D01*
X165730034Y-88329775D01*
X166082181Y-88475639D01*
X166456019Y-88550000D01*
X166837181Y-88550000D01*
X167211019Y-88475639D01*
X167563166Y-88329775D01*
X167880091Y-88118013D01*
X168149613Y-87848491D01*
X168361375Y-87531566D01*
X168507239Y-87179419D01*
X168581600Y-86805581D01*
X168581600Y-86424419D01*
X168507239Y-86050581D01*
X168361375Y-85698434D01*
X168149613Y-85381509D01*
X167880091Y-85111987D01*
X167563166Y-84900225D01*
X167211019Y-84754361D01*
X166837181Y-84680000D01*
X166456019Y-84680000D01*
X166082181Y-84754361D01*
X165730034Y-84900225D01*
X165413109Y-85111987D01*
X165143587Y-85381509D01*
X164931825Y-85698434D01*
X164785961Y-86050581D01*
X164711600Y-86424419D01*
X158775000Y-86424419D01*
X158775000Y-81724419D01*
X161711600Y-81724419D01*
X161711600Y-82105581D01*
X161785961Y-82479419D01*
X161931825Y-82831566D01*
X162143587Y-83148491D01*
X162413109Y-83418013D01*
X162730034Y-83629775D01*
X163082181Y-83775639D01*
X163456019Y-83850000D01*
X163837181Y-83850000D01*
X164211019Y-83775639D01*
X164563166Y-83629775D01*
X164880091Y-83418013D01*
X165149613Y-83148491D01*
X165361375Y-82831566D01*
X165507239Y-82479419D01*
X165581600Y-82105581D01*
X165581600Y-81724419D01*
X165507239Y-81350581D01*
X165361375Y-80998434D01*
X165149613Y-80681509D01*
X165083104Y-80615000D01*
X167708528Y-80615000D01*
X167708528Y-83215000D01*
X167720788Y-83339482D01*
X167757098Y-83459180D01*
X167816063Y-83569494D01*
X167895415Y-83666185D01*
X167992106Y-83745537D01*
X168102420Y-83804502D01*
X168222118Y-83840812D01*
X168346600Y-83853072D01*
X170946600Y-83853072D01*
X171071082Y-83840812D01*
X171190780Y-83804502D01*
X171301094Y-83745537D01*
X171397785Y-83666185D01*
X171477137Y-83569494D01*
X171536102Y-83459180D01*
X171572412Y-83339482D01*
X171584672Y-83215000D01*
X171584672Y-80615000D01*
X171572412Y-80490518D01*
X171536102Y-80370820D01*
X171477137Y-80260506D01*
X171397785Y-80163815D01*
X171301094Y-80084463D01*
X171190780Y-80025498D01*
X171071082Y-79989188D01*
X170946600Y-79976928D01*
X168346600Y-79976928D01*
X168222118Y-79989188D01*
X168102420Y-80025498D01*
X167992106Y-80084463D01*
X167895415Y-80163815D01*
X167816063Y-80260506D01*
X167757098Y-80370820D01*
X167720788Y-80490518D01*
X167708528Y-80615000D01*
X165083104Y-80615000D01*
X164880091Y-80411987D01*
X164563166Y-80200225D01*
X164211019Y-80054361D01*
X163837181Y-79980000D01*
X163456019Y-79980000D01*
X163082181Y-80054361D01*
X162730034Y-80200225D01*
X162413109Y-80411987D01*
X162143587Y-80681509D01*
X161931825Y-80998434D01*
X161785961Y-81350581D01*
X161711600Y-81724419D01*
X158775000Y-81724419D01*
X158775000Y-72719861D01*
X190379400Y-72719861D01*
X190379400Y-72923739D01*
X190419174Y-73123698D01*
X190497195Y-73312056D01*
X190610463Y-73481574D01*
X190754626Y-73625737D01*
X190924144Y-73739005D01*
X191112502Y-73817026D01*
X191312461Y-73856800D01*
X191516339Y-73856800D01*
X191716298Y-73817026D01*
X191904656Y-73739005D01*
X192074174Y-73625737D01*
X192116111Y-73583800D01*
X195539728Y-73583800D01*
X195539728Y-73671800D01*
X195551988Y-73796282D01*
X195588298Y-73915980D01*
X195647263Y-74026294D01*
X195726615Y-74122985D01*
X195823306Y-74202337D01*
X195933620Y-74261302D01*
X196053318Y-74297612D01*
X196177800Y-74309872D01*
X197877800Y-74309872D01*
X198002282Y-74297612D01*
X198121980Y-74261302D01*
X198232294Y-74202337D01*
X198328985Y-74122985D01*
X198408337Y-74026294D01*
X198467302Y-73915980D01*
X198488193Y-73847113D01*
X198512666Y-73876934D01*
X198738786Y-74062506D01*
X198996766Y-74200399D01*
X199276689Y-74285313D01*
X199494850Y-74306800D01*
X199640750Y-74306800D01*
X199858911Y-74285313D01*
X200138834Y-74200399D01*
X200396814Y-74062506D01*
X200622934Y-73876934D01*
X200808506Y-73650814D01*
X200837800Y-73596009D01*
X200867094Y-73650814D01*
X201052666Y-73876934D01*
X201278786Y-74062506D01*
X201536766Y-74200399D01*
X201816689Y-74285313D01*
X202034850Y-74306800D01*
X202180750Y-74306800D01*
X202398911Y-74285313D01*
X202678834Y-74200399D01*
X202936814Y-74062506D01*
X203162934Y-73876934D01*
X203348506Y-73650814D01*
X203486399Y-73392834D01*
X203504800Y-73332173D01*
X203504800Y-75451377D01*
X203501114Y-75488800D01*
X203504800Y-75526223D01*
X203504800Y-75526225D01*
X203515826Y-75638177D01*
X203559398Y-75781814D01*
X203567679Y-75797306D01*
X203630155Y-75914192D01*
X203669783Y-75962478D01*
X203725378Y-76030222D01*
X203754454Y-76054084D01*
X204641321Y-76940951D01*
X204665178Y-76970022D01*
X204694248Y-76993879D01*
X204781207Y-77065245D01*
X204845764Y-77099751D01*
X204913585Y-77136002D01*
X205057222Y-77179574D01*
X205169174Y-77190600D01*
X205169177Y-77190600D01*
X205206600Y-77194286D01*
X205244023Y-77190600D01*
X208172424Y-77190600D01*
X208097574Y-77371302D01*
X208057800Y-77571261D01*
X208057800Y-77775139D01*
X208097574Y-77975098D01*
X208175595Y-78163456D01*
X208288863Y-78332974D01*
X208433026Y-78477137D01*
X208602544Y-78590405D01*
X208790902Y-78668426D01*
X208990861Y-78708200D01*
X209194739Y-78708200D01*
X209394698Y-78668426D01*
X209583056Y-78590405D01*
X209698571Y-78513220D01*
X209662063Y-78557706D01*
X209603098Y-78668020D01*
X209566788Y-78787718D01*
X209554528Y-78912200D01*
X209557600Y-79151450D01*
X209716350Y-79310200D01*
X210540600Y-79310200D01*
X210540600Y-79290200D01*
X210794600Y-79290200D01*
X210794600Y-79310200D01*
X210814600Y-79310200D01*
X210814600Y-79564200D01*
X210794600Y-79564200D01*
X210794600Y-80438450D01*
X210953350Y-80597200D01*
X211142600Y-80600272D01*
X211267082Y-80588012D01*
X211311402Y-80574568D01*
X210732970Y-81153000D01*
X209972749Y-81153000D01*
X209984605Y-81135256D01*
X210062626Y-80946898D01*
X210102400Y-80746939D01*
X210102400Y-80591388D01*
X210192600Y-80600272D01*
X210381850Y-80597200D01*
X210540600Y-80438450D01*
X210540600Y-79564200D01*
X209716350Y-79564200D01*
X209557600Y-79722950D01*
X209557538Y-79727746D01*
X209369298Y-79649774D01*
X209169339Y-79610000D01*
X208965461Y-79610000D01*
X208765502Y-79649774D01*
X208723945Y-79666988D01*
X208722600Y-79660750D01*
X208563850Y-79502000D01*
X207239600Y-79502000D01*
X207239600Y-79522000D01*
X206985600Y-79522000D01*
X206985600Y-79502000D01*
X205661350Y-79502000D01*
X205502600Y-79660750D01*
X205499528Y-79675000D01*
X205511788Y-79799482D01*
X205548098Y-79919180D01*
X205596643Y-80010000D01*
X205548098Y-80100820D01*
X205511788Y-80220518D01*
X205499528Y-80345000D01*
X205499528Y-80945000D01*
X205511788Y-81069482D01*
X205548098Y-81189180D01*
X205596643Y-81280000D01*
X205548098Y-81370820D01*
X205511788Y-81490518D01*
X205499528Y-81615000D01*
X205499528Y-82215000D01*
X205511788Y-82339482D01*
X205548098Y-82459180D01*
X205596643Y-82550000D01*
X205548098Y-82640820D01*
X205511788Y-82760518D01*
X205499528Y-82885000D01*
X205499528Y-83485000D01*
X205511788Y-83609482D01*
X205548098Y-83729180D01*
X205596643Y-83820000D01*
X205548098Y-83910820D01*
X205511788Y-84030518D01*
X205499528Y-84155000D01*
X205499528Y-84755000D01*
X205511788Y-84879482D01*
X205548098Y-84999180D01*
X205596643Y-85090000D01*
X205548098Y-85180820D01*
X205511788Y-85300518D01*
X205499528Y-85425000D01*
X205499528Y-86025000D01*
X205511788Y-86149482D01*
X205548098Y-86269180D01*
X205596643Y-86360000D01*
X205548098Y-86450820D01*
X205511788Y-86570518D01*
X205499528Y-86695000D01*
X205499528Y-87295000D01*
X205511788Y-87419482D01*
X205548098Y-87539180D01*
X205596643Y-87630000D01*
X205548098Y-87720820D01*
X205511788Y-87840518D01*
X205499528Y-87965000D01*
X205499528Y-88565000D01*
X205511788Y-88689482D01*
X205548098Y-88809180D01*
X205596643Y-88900000D01*
X205548098Y-88990820D01*
X205511788Y-89110518D01*
X205499528Y-89235000D01*
X205499528Y-89835000D01*
X205511788Y-89959482D01*
X205548098Y-90079180D01*
X205596643Y-90170000D01*
X205548098Y-90260820D01*
X205511788Y-90380518D01*
X205499528Y-90505000D01*
X205499528Y-91105000D01*
X205511788Y-91229482D01*
X205548098Y-91349180D01*
X205607063Y-91459494D01*
X205686415Y-91556185D01*
X205783106Y-91635537D01*
X205893420Y-91694502D01*
X206013118Y-91730812D01*
X206137600Y-91743072D01*
X208087600Y-91743072D01*
X208212082Y-91730812D01*
X208331780Y-91694502D01*
X208442094Y-91635537D01*
X208494657Y-91592400D01*
X214541777Y-91592400D01*
X214579200Y-91596086D01*
X214616623Y-91592400D01*
X214616626Y-91592400D01*
X214728578Y-91581374D01*
X214872215Y-91537802D01*
X215004592Y-91467045D01*
X215120622Y-91371822D01*
X215144484Y-91342746D01*
X215929747Y-90557483D01*
X215958822Y-90533622D01*
X216054045Y-90417592D01*
X216111747Y-90309639D01*
X216208694Y-90491014D01*
X216394266Y-90717134D01*
X216620386Y-90902706D01*
X216878366Y-91040599D01*
X217158289Y-91125513D01*
X217376450Y-91147000D01*
X217522350Y-91147000D01*
X217740511Y-91125513D01*
X218020434Y-91040599D01*
X218278414Y-90902706D01*
X218504534Y-90717134D01*
X218690106Y-90491014D01*
X218827999Y-90233034D01*
X218912913Y-89953111D01*
X218941585Y-89662000D01*
X218912913Y-89370889D01*
X218827999Y-89090966D01*
X218690106Y-88832986D01*
X218504534Y-88606866D01*
X218278414Y-88421294D01*
X218213877Y-88386799D01*
X218330755Y-88317178D01*
X218546988Y-88122269D01*
X218721041Y-87888920D01*
X218846225Y-87626099D01*
X218890876Y-87478890D01*
X218769555Y-87249000D01*
X217576400Y-87249000D01*
X217576400Y-87269000D01*
X217322400Y-87269000D01*
X217322400Y-87249000D01*
X217302400Y-87249000D01*
X217302400Y-86995000D01*
X217322400Y-86995000D01*
X217322400Y-86975000D01*
X217576400Y-86975000D01*
X217576400Y-86995000D01*
X218769555Y-86995000D01*
X218890876Y-86765110D01*
X218846225Y-86617901D01*
X218721041Y-86355080D01*
X218546988Y-86121731D01*
X218330755Y-85926822D01*
X218213877Y-85857201D01*
X218278414Y-85822706D01*
X218504534Y-85637134D01*
X218690106Y-85411014D01*
X218827999Y-85153034D01*
X218912913Y-84873111D01*
X218941585Y-84582000D01*
X218912913Y-84290889D01*
X218827999Y-84010966D01*
X218690106Y-83752986D01*
X218504534Y-83526866D01*
X218474713Y-83502393D01*
X218543580Y-83481502D01*
X218653894Y-83422537D01*
X218750585Y-83343185D01*
X218829937Y-83246494D01*
X218888902Y-83136180D01*
X218925212Y-83016482D01*
X218937472Y-82892000D01*
X218937472Y-81192000D01*
X218925212Y-81067518D01*
X218888902Y-80947820D01*
X218829937Y-80837506D01*
X218750585Y-80740815D01*
X218653894Y-80661463D01*
X218543580Y-80602498D01*
X218423882Y-80566188D01*
X218299400Y-80553928D01*
X216738200Y-80553928D01*
X216738200Y-79178326D01*
X216929166Y-79280399D01*
X217209089Y-79365313D01*
X217427250Y-79386800D01*
X217573150Y-79386800D01*
X217791311Y-79365313D01*
X218071234Y-79280399D01*
X218329214Y-79142506D01*
X218555334Y-78956934D01*
X218740906Y-78730814D01*
X218878799Y-78472834D01*
X218963713Y-78192911D01*
X218992385Y-77901800D01*
X218963713Y-77610689D01*
X218878799Y-77330766D01*
X218740906Y-77072786D01*
X218555334Y-76846666D01*
X218329214Y-76661094D01*
X218264677Y-76626599D01*
X218381555Y-76556978D01*
X218597788Y-76362069D01*
X218771841Y-76128720D01*
X218897025Y-75865899D01*
X218941676Y-75718690D01*
X218820355Y-75488800D01*
X217627200Y-75488800D01*
X217627200Y-75508800D01*
X217373200Y-75508800D01*
X217373200Y-75488800D01*
X217353200Y-75488800D01*
X217353200Y-75234800D01*
X217373200Y-75234800D01*
X217373200Y-75214800D01*
X217627200Y-75214800D01*
X217627200Y-75234800D01*
X218820355Y-75234800D01*
X218941676Y-75004910D01*
X218897025Y-74857701D01*
X218771841Y-74594880D01*
X218597788Y-74361531D01*
X218381555Y-74166622D01*
X218264677Y-74097001D01*
X218329214Y-74062506D01*
X218555334Y-73876934D01*
X218740906Y-73650814D01*
X218878799Y-73392834D01*
X218963713Y-73112911D01*
X218992385Y-72821800D01*
X218963713Y-72530689D01*
X218878799Y-72250766D01*
X218740906Y-71992786D01*
X218555334Y-71766666D01*
X218525513Y-71742193D01*
X218594380Y-71721302D01*
X218704694Y-71662337D01*
X218801385Y-71582985D01*
X218880737Y-71486294D01*
X218939702Y-71375980D01*
X218976012Y-71256282D01*
X218988272Y-71131800D01*
X218988272Y-69431800D01*
X218976012Y-69307318D01*
X218939702Y-69187620D01*
X218880737Y-69077306D01*
X218801385Y-68980615D01*
X218704694Y-68901263D01*
X218594380Y-68842298D01*
X218474682Y-68805988D01*
X218350200Y-68793728D01*
X216650200Y-68793728D01*
X216525718Y-68805988D01*
X216406020Y-68842298D01*
X216295706Y-68901263D01*
X216199015Y-68980615D01*
X216119663Y-69077306D01*
X216060698Y-69187620D01*
X216024388Y-69307318D01*
X216012128Y-69431800D01*
X216012128Y-71131800D01*
X216024388Y-71256282D01*
X216060698Y-71375980D01*
X216119663Y-71486294D01*
X216199015Y-71582985D01*
X216295706Y-71662337D01*
X216406020Y-71721302D01*
X216474887Y-71742193D01*
X216445066Y-71766666D01*
X216259494Y-71992786D01*
X216121601Y-72250766D01*
X216036687Y-72530689D01*
X216008015Y-72821800D01*
X216036687Y-73112911D01*
X216070568Y-73224601D01*
X215463849Y-73831321D01*
X215434779Y-73855178D01*
X215410922Y-73884248D01*
X215410921Y-73884249D01*
X215339555Y-73971208D01*
X215268799Y-74103585D01*
X215225227Y-74247222D01*
X215210514Y-74396600D01*
X215214201Y-74434033D01*
X215214200Y-83573335D01*
X214397040Y-84390496D01*
X214367970Y-84414353D01*
X214344113Y-84443423D01*
X214344112Y-84443424D01*
X214272746Y-84530383D01*
X214201990Y-84662760D01*
X214158418Y-84806397D01*
X214143705Y-84955775D01*
X214147392Y-84993208D01*
X214147390Y-88584379D01*
X213958770Y-88773000D01*
X210013176Y-88773000D01*
X210088026Y-88592298D01*
X210127800Y-88392339D01*
X210127800Y-88188461D01*
X210088026Y-87988502D01*
X210010005Y-87800144D01*
X209913290Y-87655400D01*
X210010005Y-87510656D01*
X210088026Y-87322298D01*
X210127800Y-87122339D01*
X210127800Y-86918461D01*
X210088026Y-86718502D01*
X210010005Y-86530144D01*
X209904805Y-86372700D01*
X210010005Y-86215256D01*
X210088026Y-86026898D01*
X210127800Y-85826939D01*
X210127800Y-85623061D01*
X210088026Y-85423102D01*
X210010005Y-85234744D01*
X209997207Y-85215590D01*
X210094846Y-85205974D01*
X210238483Y-85162402D01*
X210370860Y-85091645D01*
X210486890Y-84996422D01*
X210510752Y-84967346D01*
X213770771Y-81707325D01*
X213799841Y-81683468D01*
X213835329Y-81640226D01*
X213895064Y-81567440D01*
X213965820Y-81435063D01*
X213967780Y-81428602D01*
X214009393Y-81291424D01*
X214020419Y-81179472D01*
X214020419Y-81179470D01*
X214024105Y-81142047D01*
X214020419Y-81104623D01*
X214020417Y-76603982D01*
X214024104Y-76566549D01*
X214009391Y-76417171D01*
X213965819Y-76273534D01*
X213895062Y-76141157D01*
X213823697Y-76054198D01*
X213823692Y-76054193D01*
X213799839Y-76025128D01*
X213770774Y-76001275D01*
X212669732Y-74900234D01*
X212645870Y-74871158D01*
X212529840Y-74775935D01*
X212397463Y-74705178D01*
X212253826Y-74661606D01*
X212141874Y-74650580D01*
X212141871Y-74650580D01*
X212104448Y-74646894D01*
X212067025Y-74650580D01*
X206044820Y-74650580D01*
X206044820Y-71257810D01*
X206208031Y-71094600D01*
X206788451Y-71094600D01*
X206810694Y-71136214D01*
X206996266Y-71362334D01*
X207026087Y-71386807D01*
X206957220Y-71407698D01*
X206846906Y-71466663D01*
X206750215Y-71546015D01*
X206670863Y-71642706D01*
X206611898Y-71753020D01*
X206575588Y-71872718D01*
X206563328Y-71997200D01*
X206563328Y-73697200D01*
X206575588Y-73821682D01*
X206611898Y-73941380D01*
X206670863Y-74051694D01*
X206750215Y-74148385D01*
X206846906Y-74227737D01*
X206957220Y-74286702D01*
X207076918Y-74323012D01*
X207201400Y-74335272D01*
X208901400Y-74335272D01*
X209025882Y-74323012D01*
X209145580Y-74286702D01*
X209255894Y-74227737D01*
X209352585Y-74148385D01*
X209431937Y-74051694D01*
X209490902Y-73941380D01*
X209511793Y-73872513D01*
X209536266Y-73902334D01*
X209762386Y-74087906D01*
X210020366Y-74225799D01*
X210300289Y-74310713D01*
X210518450Y-74332200D01*
X210664350Y-74332200D01*
X210882511Y-74310713D01*
X211162434Y-74225799D01*
X211420414Y-74087906D01*
X211646534Y-73902334D01*
X211832106Y-73676214D01*
X211861400Y-73621409D01*
X211890694Y-73676214D01*
X212076266Y-73902334D01*
X212302386Y-74087906D01*
X212560366Y-74225799D01*
X212840289Y-74310713D01*
X213058450Y-74332200D01*
X213204350Y-74332200D01*
X213422511Y-74310713D01*
X213702434Y-74225799D01*
X213960414Y-74087906D01*
X214186534Y-73902334D01*
X214372106Y-73676214D01*
X214509999Y-73418234D01*
X214594913Y-73138311D01*
X214623585Y-72847200D01*
X214594913Y-72556089D01*
X214509999Y-72276166D01*
X214372106Y-72018186D01*
X214186534Y-71792066D01*
X213960414Y-71606494D01*
X213905609Y-71577200D01*
X213960414Y-71547906D01*
X214186534Y-71362334D01*
X214372106Y-71136214D01*
X214509999Y-70878234D01*
X214594913Y-70598311D01*
X214623585Y-70307200D01*
X214594913Y-70016089D01*
X214509999Y-69736166D01*
X214372106Y-69478186D01*
X214186534Y-69252066D01*
X213960414Y-69066494D01*
X213702434Y-68928601D01*
X213422511Y-68843687D01*
X213347755Y-68836324D01*
X212325084Y-67813654D01*
X212301222Y-67784578D01*
X212185192Y-67689355D01*
X212052815Y-67618598D01*
X211909178Y-67575026D01*
X211797226Y-67564000D01*
X211797223Y-67564000D01*
X211759800Y-67560314D01*
X211722377Y-67564000D01*
X204659822Y-67564000D01*
X204622399Y-67560314D01*
X204584976Y-67564000D01*
X204584974Y-67564000D01*
X204473022Y-67575026D01*
X204329385Y-67618598D01*
X204197008Y-67689355D01*
X204080978Y-67784578D01*
X204057116Y-67813654D01*
X203754449Y-68116321D01*
X203725379Y-68140178D01*
X203701522Y-68169248D01*
X203701521Y-68169249D01*
X203630155Y-68256208D01*
X203559399Y-68388585D01*
X203515827Y-68532222D01*
X203501114Y-68681600D01*
X203504801Y-68719033D01*
X203504801Y-69771429D01*
X203486399Y-69710766D01*
X203348506Y-69452786D01*
X203162934Y-69226666D01*
X202936814Y-69041094D01*
X202678834Y-68903201D01*
X202398911Y-68818287D01*
X202180750Y-68796800D01*
X202034850Y-68796800D01*
X201816689Y-68818287D01*
X201536766Y-68903201D01*
X201278786Y-69041094D01*
X201052666Y-69226666D01*
X200867094Y-69452786D01*
X200837800Y-69507591D01*
X200808506Y-69452786D01*
X200622934Y-69226666D01*
X200396814Y-69041094D01*
X200138834Y-68903201D01*
X199858911Y-68818287D01*
X199640750Y-68796800D01*
X199494850Y-68796800D01*
X199276689Y-68818287D01*
X198996766Y-68903201D01*
X198738786Y-69041094D01*
X198512666Y-69226666D01*
X198327094Y-69452786D01*
X198297800Y-69507591D01*
X198268506Y-69452786D01*
X198082934Y-69226666D01*
X197856814Y-69041094D01*
X197598834Y-68903201D01*
X197318911Y-68818287D01*
X197100750Y-68796800D01*
X196954850Y-68796800D01*
X196736689Y-68818287D01*
X196456766Y-68903201D01*
X196198786Y-69041094D01*
X195972666Y-69226666D01*
X195787094Y-69452786D01*
X195649201Y-69710766D01*
X195564287Y-69990689D01*
X195535615Y-70281800D01*
X195564287Y-70572911D01*
X195649201Y-70852834D01*
X195787094Y-71110814D01*
X195972666Y-71336934D01*
X196002487Y-71361407D01*
X195933620Y-71382298D01*
X195823306Y-71441263D01*
X195726615Y-71520615D01*
X195647263Y-71617306D01*
X195588298Y-71727620D01*
X195551988Y-71847318D01*
X195539728Y-71971800D01*
X195539728Y-72059800D01*
X192116111Y-72059800D01*
X192074174Y-72017863D01*
X191904656Y-71904595D01*
X191716298Y-71826574D01*
X191516339Y-71786800D01*
X191312461Y-71786800D01*
X191112502Y-71826574D01*
X190924144Y-71904595D01*
X190754626Y-72017863D01*
X190610463Y-72162026D01*
X190497195Y-72331544D01*
X190419174Y-72519902D01*
X190379400Y-72719861D01*
X158775000Y-72719861D01*
X158775000Y-69123204D01*
X165658800Y-69123204D01*
X165658800Y-69408396D01*
X165714438Y-69688108D01*
X165823577Y-69951590D01*
X165982021Y-70188719D01*
X166183681Y-70390379D01*
X166420810Y-70548823D01*
X166684292Y-70657962D01*
X166964004Y-70713600D01*
X167249196Y-70713600D01*
X167528908Y-70657962D01*
X167792390Y-70548823D01*
X168029519Y-70390379D01*
X168231179Y-70188719D01*
X168376600Y-69971080D01*
X168522021Y-70188719D01*
X168723681Y-70390379D01*
X168960810Y-70548823D01*
X169224292Y-70657962D01*
X169504004Y-70713600D01*
X169789196Y-70713600D01*
X170068908Y-70657962D01*
X170332390Y-70548823D01*
X170569519Y-70390379D01*
X170771179Y-70188719D01*
X170929623Y-69951590D01*
X171038762Y-69688108D01*
X171094400Y-69408396D01*
X171094400Y-69123204D01*
X180898800Y-69123204D01*
X180898800Y-69408396D01*
X180954438Y-69688108D01*
X181063577Y-69951590D01*
X181222021Y-70188719D01*
X181423681Y-70390379D01*
X181660810Y-70548823D01*
X181924292Y-70657962D01*
X182204004Y-70713600D01*
X182489196Y-70713600D01*
X182768908Y-70657962D01*
X183032390Y-70548823D01*
X183269519Y-70390379D01*
X183471179Y-70188719D01*
X183616600Y-69971080D01*
X183762021Y-70188719D01*
X183963681Y-70390379D01*
X184200810Y-70548823D01*
X184464292Y-70657962D01*
X184744004Y-70713600D01*
X185029196Y-70713600D01*
X185308908Y-70657962D01*
X185572390Y-70548823D01*
X185809519Y-70390379D01*
X185932256Y-70267642D01*
X186604364Y-70267642D01*
X186677497Y-70512917D01*
X186935191Y-70635097D01*
X187211770Y-70704656D01*
X187496605Y-70718920D01*
X187778750Y-70677341D01*
X188047361Y-70581519D01*
X188175703Y-70512917D01*
X188248836Y-70267642D01*
X187426600Y-69445405D01*
X186604364Y-70267642D01*
X185932256Y-70267642D01*
X186011179Y-70188719D01*
X186156299Y-69971530D01*
X186179483Y-70014903D01*
X186424758Y-70088036D01*
X187246995Y-69265800D01*
X187606205Y-69265800D01*
X188428442Y-70088036D01*
X188673717Y-70014903D01*
X188795897Y-69757209D01*
X188865456Y-69480630D01*
X188879720Y-69195795D01*
X188838141Y-68913650D01*
X188742319Y-68645039D01*
X188673717Y-68516697D01*
X188428442Y-68443564D01*
X187606205Y-69265800D01*
X187246995Y-69265800D01*
X186424758Y-68443564D01*
X186179483Y-68516697D01*
X186157832Y-68562363D01*
X186011179Y-68342881D01*
X185932256Y-68263958D01*
X186604364Y-68263958D01*
X187426600Y-69086195D01*
X188248836Y-68263958D01*
X188175703Y-68018683D01*
X187918009Y-67896503D01*
X187641430Y-67826944D01*
X187356595Y-67812680D01*
X187074450Y-67854259D01*
X186805839Y-67950081D01*
X186677497Y-68018683D01*
X186604364Y-68263958D01*
X185932256Y-68263958D01*
X185809519Y-68141221D01*
X185572390Y-67982777D01*
X185308908Y-67873638D01*
X185029196Y-67818000D01*
X184744004Y-67818000D01*
X184464292Y-67873638D01*
X184200810Y-67982777D01*
X183963681Y-68141221D01*
X183762021Y-68342881D01*
X183616600Y-68560520D01*
X183471179Y-68342881D01*
X183269519Y-68141221D01*
X183032390Y-67982777D01*
X182768908Y-67873638D01*
X182489196Y-67818000D01*
X182204004Y-67818000D01*
X181924292Y-67873638D01*
X181660810Y-67982777D01*
X181423681Y-68141221D01*
X181222021Y-68342881D01*
X181063577Y-68580010D01*
X180954438Y-68843492D01*
X180898800Y-69123204D01*
X171094400Y-69123204D01*
X171038762Y-68843492D01*
X170929623Y-68580010D01*
X170771179Y-68342881D01*
X170569519Y-68141221D01*
X170332390Y-67982777D01*
X170068908Y-67873638D01*
X169789196Y-67818000D01*
X169504004Y-67818000D01*
X169224292Y-67873638D01*
X168960810Y-67982777D01*
X168723681Y-68141221D01*
X168522021Y-68342881D01*
X168376600Y-68560520D01*
X168231179Y-68342881D01*
X168029519Y-68141221D01*
X167792390Y-67982777D01*
X167528908Y-67873638D01*
X167249196Y-67818000D01*
X166964004Y-67818000D01*
X166684292Y-67873638D01*
X166420810Y-67982777D01*
X166183681Y-68141221D01*
X165982021Y-68342881D01*
X165823577Y-68580010D01*
X165714438Y-68843492D01*
X165658800Y-69123204D01*
X158775000Y-69123204D01*
X158775000Y-64604042D01*
X158970000Y-64604042D01*
X158970000Y-64935958D01*
X159034754Y-65261496D01*
X159161772Y-65568147D01*
X159346175Y-65844125D01*
X159580875Y-66078825D01*
X159856853Y-66263228D01*
X160163504Y-66390246D01*
X160489042Y-66455000D01*
X160820958Y-66455000D01*
X161146496Y-66390246D01*
X161453147Y-66263228D01*
X161729125Y-66078825D01*
X161963825Y-65844125D01*
X162148228Y-65568147D01*
X162275246Y-65261496D01*
X162340000Y-64935958D01*
X162340000Y-64604042D01*
X216755000Y-64604042D01*
X216755000Y-64935958D01*
X216819754Y-65261496D01*
X216946772Y-65568147D01*
X217131175Y-65844125D01*
X217365875Y-66078825D01*
X217641853Y-66263228D01*
X217948504Y-66390246D01*
X218274042Y-66455000D01*
X218605958Y-66455000D01*
X218931496Y-66390246D01*
X219238147Y-66263228D01*
X219514125Y-66078825D01*
X219748825Y-65844125D01*
X219933228Y-65568147D01*
X220060246Y-65261496D01*
X220125000Y-64935958D01*
X220125000Y-64604042D01*
X220060246Y-64278504D01*
X219933228Y-63971853D01*
X219748825Y-63695875D01*
X219514125Y-63461175D01*
X219238147Y-63276772D01*
X218931496Y-63149754D01*
X218605958Y-63085000D01*
X218274042Y-63085000D01*
X217948504Y-63149754D01*
X217641853Y-63276772D01*
X217365875Y-63461175D01*
X217131175Y-63695875D01*
X216946772Y-63971853D01*
X216819754Y-64278504D01*
X216755000Y-64604042D01*
X162340000Y-64604042D01*
X162275246Y-64278504D01*
X162148228Y-63971853D01*
X161963825Y-63695875D01*
X161729125Y-63461175D01*
X161453147Y-63276772D01*
X161146496Y-63149754D01*
X160820958Y-63085000D01*
X160489042Y-63085000D01*
X160163504Y-63149754D01*
X159856853Y-63276772D01*
X159580875Y-63461175D01*
X159346175Y-63695875D01*
X159161772Y-63971853D01*
X159034754Y-64278504D01*
X158970000Y-64604042D01*
X158775000Y-64604042D01*
X158775000Y-62890000D01*
X220320000Y-62890000D01*
X220320001Y-121260000D01*
X220320001Y-121260000D01*
G37*
X220320001Y-121260000D02*
X189999010Y-121260000D01*
X190012849Y-121255802D01*
X190145226Y-121185045D01*
X190261256Y-121089822D01*
X190285118Y-121060746D01*
X191240960Y-120104904D01*
X191270031Y-120081047D01*
X191365254Y-119965017D01*
X191436011Y-119832640D01*
X191479583Y-119689003D01*
X191490609Y-119577051D01*
X191490609Y-119577049D01*
X191494295Y-119539626D01*
X191490609Y-119502203D01*
X191490609Y-119214042D01*
X216755000Y-119214042D01*
X216755000Y-119545958D01*
X216819754Y-119871496D01*
X216946772Y-120178147D01*
X217131175Y-120454125D01*
X217365875Y-120688825D01*
X217641853Y-120873228D01*
X217948504Y-121000246D01*
X218274042Y-121065000D01*
X218605958Y-121065000D01*
X218931496Y-121000246D01*
X219238147Y-120873228D01*
X219514125Y-120688825D01*
X219748825Y-120454125D01*
X219933228Y-120178147D01*
X220060246Y-119871496D01*
X220125000Y-119545958D01*
X220125000Y-119214042D01*
X220060246Y-118888504D01*
X219933228Y-118581853D01*
X219748825Y-118305875D01*
X219514125Y-118071175D01*
X219238147Y-117886772D01*
X218931496Y-117759754D01*
X218605958Y-117695000D01*
X218274042Y-117695000D01*
X217948504Y-117759754D01*
X217641853Y-117886772D01*
X217365875Y-118071175D01*
X217131175Y-118305875D01*
X216946772Y-118581853D01*
X216819754Y-118888504D01*
X216755000Y-119214042D01*
X191490609Y-119214042D01*
X191490609Y-114674348D01*
X191607518Y-114709812D01*
X191732000Y-114722072D01*
X193332000Y-114722072D01*
X193456482Y-114709812D01*
X193576180Y-114673502D01*
X193686494Y-114614537D01*
X193783185Y-114535185D01*
X193862537Y-114438494D01*
X193921502Y-114328180D01*
X193957812Y-114208482D01*
X193970072Y-114084000D01*
X193970072Y-112484000D01*
X193957812Y-112359518D01*
X193921502Y-112239820D01*
X193862537Y-112129506D01*
X193783185Y-112032815D01*
X193686494Y-111953463D01*
X193576180Y-111894498D01*
X193456482Y-111858188D01*
X193448039Y-111857357D01*
X193646637Y-111658759D01*
X193803680Y-111423727D01*
X193911853Y-111162574D01*
X193967000Y-110885335D01*
X193967000Y-110602665D01*
X193911853Y-110325426D01*
X193803680Y-110064273D01*
X193646637Y-109829241D01*
X193446759Y-109629363D01*
X193214241Y-109474000D01*
X193446759Y-109318637D01*
X193646637Y-109118759D01*
X193803680Y-108883727D01*
X193911853Y-108622574D01*
X193967000Y-108345335D01*
X193967000Y-108062665D01*
X193911853Y-107785426D01*
X193803680Y-107524273D01*
X193646637Y-107289241D01*
X193446759Y-107089363D01*
X193214241Y-106934000D01*
X193446759Y-106778637D01*
X193646637Y-106578759D01*
X193752082Y-106420949D01*
X193812748Y-106414974D01*
X193956385Y-106371402D01*
X193979801Y-106358886D01*
X193979800Y-117179689D01*
X193937863Y-117221626D01*
X193824595Y-117391144D01*
X193746574Y-117579502D01*
X193706800Y-117779461D01*
X193706800Y-117983339D01*
X193746574Y-118183298D01*
X193824595Y-118371656D01*
X193937863Y-118541174D01*
X194082026Y-118685337D01*
X194251544Y-118798605D01*
X194439902Y-118876626D01*
X194639861Y-118916400D01*
X194843739Y-118916400D01*
X195043698Y-118876626D01*
X195232056Y-118798605D01*
X195401574Y-118685337D01*
X195545737Y-118541174D01*
X195659005Y-118371656D01*
X195737026Y-118183298D01*
X195776800Y-117983339D01*
X195776800Y-117779461D01*
X195737026Y-117579502D01*
X195659005Y-117391144D01*
X195545737Y-117221626D01*
X195503800Y-117179689D01*
X195503800Y-105726940D01*
X195608302Y-105770226D01*
X195808261Y-105810000D01*
X196012139Y-105810000D01*
X196212098Y-105770226D01*
X196400456Y-105692205D01*
X196485926Y-105635096D01*
X196493420Y-105639102D01*
X196613118Y-105675412D01*
X196737600Y-105687672D01*
X197525659Y-105687672D01*
X197502378Y-105706778D01*
X197478516Y-105735854D01*
X197150454Y-106063916D01*
X197121378Y-106087778D01*
X197095291Y-106119566D01*
X197026155Y-106203808D01*
X197002427Y-106248201D01*
X196955398Y-106336186D01*
X196911826Y-106479823D01*
X196902082Y-106578759D01*
X196897114Y-106629200D01*
X196900800Y-106666623D01*
X196900801Y-108947650D01*
X196859186Y-108969894D01*
X196633066Y-109155466D01*
X196447494Y-109381586D01*
X196309601Y-109639566D01*
X196224687Y-109919489D01*
X196196015Y-110210600D01*
X196224687Y-110501711D01*
X196309601Y-110781634D01*
X196447494Y-111039614D01*
X196633066Y-111265734D01*
X196662887Y-111290207D01*
X196594020Y-111311098D01*
X196483706Y-111370063D01*
X196387015Y-111449415D01*
X196307663Y-111546106D01*
X196248698Y-111656420D01*
X196212388Y-111776118D01*
X196200128Y-111900600D01*
X196200128Y-113600600D01*
X196212388Y-113725082D01*
X196248698Y-113844780D01*
X196307663Y-113955094D01*
X196387015Y-114051785D01*
X196483706Y-114131137D01*
X196594020Y-114190102D01*
X196713718Y-114226412D01*
X196838200Y-114238672D01*
X198538200Y-114238672D01*
X198662682Y-114226412D01*
X198782380Y-114190102D01*
X198892694Y-114131137D01*
X198989385Y-114051785D01*
X199068737Y-113955094D01*
X199127702Y-113844780D01*
X199148593Y-113775913D01*
X199173066Y-113805734D01*
X199399186Y-113991306D01*
X199657166Y-114129199D01*
X199937089Y-114214113D01*
X200155250Y-114235600D01*
X200301150Y-114235600D01*
X200519311Y-114214113D01*
X200799234Y-114129199D01*
X201057214Y-113991306D01*
X201283334Y-113805734D01*
X201468906Y-113579614D01*
X201498200Y-113524809D01*
X201527494Y-113579614D01*
X201713066Y-113805734D01*
X201939186Y-113991306D01*
X202197166Y-114129199D01*
X202477089Y-114214113D01*
X202695250Y-114235600D01*
X202841150Y-114235600D01*
X203059311Y-114214113D01*
X203339234Y-114129199D01*
X203597214Y-113991306D01*
X203823334Y-113805734D01*
X204008906Y-113579614D01*
X204146799Y-113321634D01*
X204231713Y-113041711D01*
X204260385Y-112750600D01*
X204231713Y-112459489D01*
X204146799Y-112179566D01*
X204008906Y-111921586D01*
X203823334Y-111695466D01*
X203597214Y-111509894D01*
X203542409Y-111480600D01*
X203597214Y-111451306D01*
X203823334Y-111265734D01*
X204008906Y-111039614D01*
X204146799Y-110781634D01*
X204231713Y-110501711D01*
X204260385Y-110210600D01*
X205365415Y-110210600D01*
X205394087Y-110501711D01*
X205479001Y-110781634D01*
X205616894Y-111039614D01*
X205802466Y-111265734D01*
X205832287Y-111290207D01*
X205763420Y-111311098D01*
X205653106Y-111370063D01*
X205556415Y-111449415D01*
X205477063Y-111546106D01*
X205418098Y-111656420D01*
X205381788Y-111776118D01*
X205369528Y-111900600D01*
X205369528Y-113600600D01*
X205381788Y-113725082D01*
X205418098Y-113844780D01*
X205477063Y-113955094D01*
X205556415Y-114051785D01*
X205653106Y-114131137D01*
X205763420Y-114190102D01*
X205883118Y-114226412D01*
X206007600Y-114238672D01*
X207707600Y-114238672D01*
X207832082Y-114226412D01*
X207951780Y-114190102D01*
X208062094Y-114131137D01*
X208158785Y-114051785D01*
X208238137Y-113955094D01*
X208297102Y-113844780D01*
X208317993Y-113775913D01*
X208342466Y-113805734D01*
X208568586Y-113991306D01*
X208826566Y-114129199D01*
X209106489Y-114214113D01*
X209324650Y-114235600D01*
X209470550Y-114235600D01*
X209688711Y-114214113D01*
X209968634Y-114129199D01*
X210226614Y-113991306D01*
X210452734Y-113805734D01*
X210638306Y-113579614D01*
X210667600Y-113524809D01*
X210696894Y-113579614D01*
X210882466Y-113805734D01*
X211108586Y-113991306D01*
X211366566Y-114129199D01*
X211646489Y-114214113D01*
X211864650Y-114235600D01*
X212010550Y-114235600D01*
X212228711Y-114214113D01*
X212508634Y-114129199D01*
X212766614Y-113991306D01*
X212992734Y-113805734D01*
X213178306Y-113579614D01*
X213316199Y-113321634D01*
X213401113Y-113041711D01*
X213424781Y-112801400D01*
X215957215Y-112801400D01*
X215985887Y-113092511D01*
X216070801Y-113372434D01*
X216208694Y-113630414D01*
X216394266Y-113856534D01*
X216620386Y-114042106D01*
X216878366Y-114179999D01*
X217158289Y-114264913D01*
X217376450Y-114286400D01*
X217522350Y-114286400D01*
X217740511Y-114264913D01*
X218020434Y-114179999D01*
X218278414Y-114042106D01*
X218504534Y-113856534D01*
X218690106Y-113630414D01*
X218827999Y-113372434D01*
X218912913Y-113092511D01*
X218941585Y-112801400D01*
X218912913Y-112510289D01*
X218827999Y-112230366D01*
X218690106Y-111972386D01*
X218504534Y-111746266D01*
X218278414Y-111560694D01*
X218213877Y-111526199D01*
X218330755Y-111456578D01*
X218546988Y-111261669D01*
X218721041Y-111028320D01*
X218846225Y-110765499D01*
X218890876Y-110618290D01*
X218769555Y-110388400D01*
X217576400Y-110388400D01*
X217576400Y-110408400D01*
X217322400Y-110408400D01*
X217322400Y-110388400D01*
X216129245Y-110388400D01*
X216007924Y-110618290D01*
X216052575Y-110765499D01*
X216177759Y-111028320D01*
X216351812Y-111261669D01*
X216568045Y-111456578D01*
X216684923Y-111526199D01*
X216620386Y-111560694D01*
X216394266Y-111746266D01*
X216208694Y-111972386D01*
X216070801Y-112230366D01*
X215985887Y-112510289D01*
X215957215Y-112801400D01*
X213424781Y-112801400D01*
X213429785Y-112750600D01*
X213401113Y-112459489D01*
X213316199Y-112179566D01*
X213178306Y-111921586D01*
X212992734Y-111695466D01*
X212766614Y-111509894D01*
X212711809Y-111480600D01*
X212766614Y-111451306D01*
X212992734Y-111265734D01*
X213178306Y-111039614D01*
X213316199Y-110781634D01*
X213401113Y-110501711D01*
X213429785Y-110210600D01*
X213401113Y-109919489D01*
X213316199Y-109639566D01*
X213178306Y-109381586D01*
X212992734Y-109155466D01*
X212766614Y-108969894D01*
X212508634Y-108832001D01*
X212228711Y-108747087D01*
X212010550Y-108725600D01*
X211864650Y-108725600D01*
X211646489Y-108747087D01*
X211366566Y-108832001D01*
X211108586Y-108969894D01*
X210882466Y-109155466D01*
X210696894Y-109381586D01*
X210667600Y-109436391D01*
X210638306Y-109381586D01*
X210452734Y-109155466D01*
X210226614Y-108969894D01*
X209968634Y-108832001D01*
X209688711Y-108747087D01*
X209470550Y-108725600D01*
X209324650Y-108725600D01*
X209106489Y-108747087D01*
X208826566Y-108832001D01*
X208568586Y-108969894D01*
X208342466Y-109155466D01*
X208156894Y-109381586D01*
X208127600Y-109436391D01*
X208098306Y-109381586D01*
X207912734Y-109155466D01*
X207686614Y-108969894D01*
X207428634Y-108832001D01*
X207148711Y-108747087D01*
X206930550Y-108725600D01*
X206784650Y-108725600D01*
X206566489Y-108747087D01*
X206286566Y-108832001D01*
X206028586Y-108969894D01*
X205802466Y-109155466D01*
X205616894Y-109381586D01*
X205479001Y-109639566D01*
X205394087Y-109919489D01*
X205365415Y-110210600D01*
X204260385Y-110210600D01*
X204231713Y-109919489D01*
X204146799Y-109639566D01*
X204008906Y-109381586D01*
X203823334Y-109155466D01*
X203597214Y-108969894D01*
X203530200Y-108934074D01*
X203530200Y-108026220D01*
X208688825Y-108026220D01*
X208726248Y-108029906D01*
X208763671Y-108026220D01*
X208763674Y-108026220D01*
X208875626Y-108015194D01*
X209019263Y-107971622D01*
X209151640Y-107900865D01*
X209267670Y-107805642D01*
X209291532Y-107776566D01*
X210299989Y-106768110D01*
X210317642Y-106789621D01*
X210380178Y-106865822D01*
X210409254Y-106889684D01*
X211753321Y-108233752D01*
X211777178Y-108262822D01*
X211893208Y-108358045D01*
X212025585Y-108428802D01*
X212169222Y-108472374D01*
X212281174Y-108483400D01*
X212281176Y-108483400D01*
X212318599Y-108487086D01*
X212356022Y-108483400D01*
X216172874Y-108483400D01*
X216208694Y-108550414D01*
X216394266Y-108776534D01*
X216620386Y-108962106D01*
X216684923Y-108996601D01*
X216568045Y-109066222D01*
X216351812Y-109261131D01*
X216177759Y-109494480D01*
X216052575Y-109757301D01*
X216007924Y-109904510D01*
X216129245Y-110134400D01*
X217322400Y-110134400D01*
X217322400Y-110114400D01*
X217576400Y-110114400D01*
X217576400Y-110134400D01*
X218769555Y-110134400D01*
X218890876Y-109904510D01*
X218846225Y-109757301D01*
X218721041Y-109494480D01*
X218546988Y-109261131D01*
X218330755Y-109066222D01*
X218213877Y-108996601D01*
X218278414Y-108962106D01*
X218504534Y-108776534D01*
X218690106Y-108550414D01*
X218827999Y-108292434D01*
X218912913Y-108012511D01*
X218941585Y-107721400D01*
X218912913Y-107430289D01*
X218827999Y-107150366D01*
X218690106Y-106892386D01*
X218504534Y-106666266D01*
X218474713Y-106641793D01*
X218543580Y-106620902D01*
X218653894Y-106561937D01*
X218750585Y-106482585D01*
X218829937Y-106385894D01*
X218888902Y-106275580D01*
X218925212Y-106155882D01*
X218937472Y-106031400D01*
X218937472Y-104331400D01*
X218925212Y-104206918D01*
X218888902Y-104087220D01*
X218829937Y-103976906D01*
X218750585Y-103880215D01*
X218653894Y-103800863D01*
X218543580Y-103741898D01*
X218423882Y-103705588D01*
X218299400Y-103693328D01*
X216599400Y-103693328D01*
X216474918Y-103705588D01*
X216355220Y-103741898D01*
X216244906Y-103800863D01*
X216148215Y-103880215D01*
X216068863Y-103976906D01*
X216009898Y-104087220D01*
X215973588Y-104206918D01*
X215961328Y-104331400D01*
X215961328Y-106031400D01*
X215973588Y-106155882D01*
X216009898Y-106275580D01*
X216068863Y-106385894D01*
X216148215Y-106482585D01*
X216244906Y-106561937D01*
X216355220Y-106620902D01*
X216424087Y-106641793D01*
X216394266Y-106666266D01*
X216208694Y-106892386D01*
X216172874Y-106959400D01*
X212634231Y-106959400D01*
X211683600Y-106008770D01*
X211683600Y-101269800D01*
X215982615Y-101269800D01*
X216011287Y-101560911D01*
X216096201Y-101840834D01*
X216234094Y-102098814D01*
X216419666Y-102324934D01*
X216645786Y-102510506D01*
X216903766Y-102648399D01*
X217183689Y-102733313D01*
X217401850Y-102754800D01*
X217547750Y-102754800D01*
X217765911Y-102733313D01*
X218045834Y-102648399D01*
X218303814Y-102510506D01*
X218529934Y-102324934D01*
X218715506Y-102098814D01*
X218853399Y-101840834D01*
X218938313Y-101560911D01*
X218966985Y-101269800D01*
X218938313Y-100978689D01*
X218853399Y-100698766D01*
X218715506Y-100440786D01*
X218529934Y-100214666D01*
X218303814Y-100029094D01*
X218239277Y-99994599D01*
X218356155Y-99924978D01*
X218572388Y-99730069D01*
X218746441Y-99496720D01*
X218871625Y-99233899D01*
X218916276Y-99086690D01*
X218794955Y-98856800D01*
X217601800Y-98856800D01*
X217601800Y-98876800D01*
X217347800Y-98876800D01*
X217347800Y-98856800D01*
X216154645Y-98856800D01*
X216033324Y-99086690D01*
X216077975Y-99233899D01*
X216203159Y-99496720D01*
X216377212Y-99730069D01*
X216593445Y-99924978D01*
X216710323Y-99994599D01*
X216645786Y-100029094D01*
X216419666Y-100214666D01*
X216234094Y-100440786D01*
X216096201Y-100698766D01*
X216011287Y-100978689D01*
X215982615Y-101269800D01*
X211683600Y-101269800D01*
X211683600Y-98284622D01*
X211687286Y-98247199D01*
X211681193Y-98185335D01*
X211672574Y-98097822D01*
X211629002Y-97954185D01*
X211558245Y-97821808D01*
X211463022Y-97705778D01*
X211433952Y-97681921D01*
X210369284Y-96617254D01*
X210352005Y-96596200D01*
X215050970Y-96596200D01*
X215156916Y-96702146D01*
X215180778Y-96731222D01*
X215296808Y-96826445D01*
X215429185Y-96897202D01*
X215572822Y-96940774D01*
X215684774Y-96951800D01*
X215684776Y-96951800D01*
X215722199Y-96955486D01*
X215759622Y-96951800D01*
X216198274Y-96951800D01*
X216234094Y-97018814D01*
X216419666Y-97244934D01*
X216645786Y-97430506D01*
X216710323Y-97465001D01*
X216593445Y-97534622D01*
X216377212Y-97729531D01*
X216203159Y-97962880D01*
X216077975Y-98225701D01*
X216033324Y-98372910D01*
X216154645Y-98602800D01*
X217347800Y-98602800D01*
X217347800Y-98582800D01*
X217601800Y-98582800D01*
X217601800Y-98602800D01*
X218794955Y-98602800D01*
X218916276Y-98372910D01*
X218871625Y-98225701D01*
X218746441Y-97962880D01*
X218572388Y-97729531D01*
X218356155Y-97534622D01*
X218239277Y-97465001D01*
X218303814Y-97430506D01*
X218529934Y-97244934D01*
X218715506Y-97018814D01*
X218853399Y-96760834D01*
X218938313Y-96480911D01*
X218966985Y-96189800D01*
X218938313Y-95898689D01*
X218853399Y-95618766D01*
X218715506Y-95360786D01*
X218529934Y-95134666D01*
X218500113Y-95110193D01*
X218568980Y-95089302D01*
X218679294Y-95030337D01*
X218775985Y-94950985D01*
X218855337Y-94854294D01*
X218914302Y-94743980D01*
X218950612Y-94624282D01*
X218962872Y-94499800D01*
X218962872Y-92799800D01*
X218950612Y-92675318D01*
X218914302Y-92555620D01*
X218855337Y-92445306D01*
X218775985Y-92348615D01*
X218679294Y-92269263D01*
X218568980Y-92210298D01*
X218449282Y-92173988D01*
X218324800Y-92161728D01*
X216624800Y-92161728D01*
X216500318Y-92173988D01*
X216380620Y-92210298D01*
X216270306Y-92269263D01*
X216173615Y-92348615D01*
X216094263Y-92445306D01*
X216035298Y-92555620D01*
X215998988Y-92675318D01*
X215986728Y-92799800D01*
X215986728Y-94499800D01*
X215998988Y-94624282D01*
X216035298Y-94743980D01*
X216094263Y-94854294D01*
X216173615Y-94950985D01*
X216270306Y-95030337D01*
X216380620Y-95089302D01*
X216449487Y-95110193D01*
X216419666Y-95134666D01*
X216234094Y-95360786D01*
X216198274Y-95427800D01*
X216037830Y-95427800D01*
X215931884Y-95321854D01*
X215908022Y-95292778D01*
X215791992Y-95197555D01*
X215659615Y-95126798D01*
X215515978Y-95083226D01*
X215404026Y-95072200D01*
X215404023Y-95072200D01*
X215366600Y-95068514D01*
X215329177Y-95072200D01*
X214265497Y-95072200D01*
X214329826Y-94916898D01*
X214369600Y-94716939D01*
X214369600Y-94513061D01*
X214329826Y-94313102D01*
X214257731Y-94139050D01*
X214336112Y-94043542D01*
X214417023Y-93892167D01*
X214466848Y-93727916D01*
X214483672Y-93557100D01*
X214483672Y-93082100D01*
X214466848Y-92911284D01*
X214417023Y-92747033D01*
X214336112Y-92595658D01*
X214227223Y-92462977D01*
X214094542Y-92354088D01*
X213943167Y-92273177D01*
X213778916Y-92223352D01*
X213608100Y-92206528D01*
X213033100Y-92206528D01*
X212862284Y-92223352D01*
X212698033Y-92273177D01*
X212546658Y-92354088D01*
X212522761Y-92373699D01*
X212450094Y-92314063D01*
X212339780Y-92255098D01*
X212220082Y-92218788D01*
X212095600Y-92206528D01*
X211856350Y-92209600D01*
X211697600Y-92368350D01*
X211697600Y-93192600D01*
X211717600Y-93192600D01*
X211717600Y-93446600D01*
X211697600Y-93446600D01*
X211697600Y-94270850D01*
X211856350Y-94429600D01*
X212095600Y-94432672D01*
X212220082Y-94420412D01*
X212324318Y-94388792D01*
X212299600Y-94513061D01*
X212299600Y-94716939D01*
X212339374Y-94916898D01*
X212403703Y-95072200D01*
X209987776Y-95072200D01*
X210062626Y-94891498D01*
X210102400Y-94691539D01*
X210102400Y-94487661D01*
X210062626Y-94287702D01*
X209984605Y-94099344D01*
X209871337Y-93929826D01*
X209736111Y-93794600D01*
X210407528Y-93794600D01*
X210419788Y-93919082D01*
X210456098Y-94038780D01*
X210515063Y-94149094D01*
X210594415Y-94245785D01*
X210691106Y-94325137D01*
X210801420Y-94384102D01*
X210921118Y-94420412D01*
X211045600Y-94432672D01*
X211284850Y-94429600D01*
X211443600Y-94270850D01*
X211443600Y-93446600D01*
X210569350Y-93446600D01*
X210410600Y-93605350D01*
X210407528Y-93794600D01*
X209736111Y-93794600D01*
X209727174Y-93785663D01*
X209557656Y-93672395D01*
X209369298Y-93594374D01*
X209169339Y-93554600D01*
X208965461Y-93554600D01*
X208765502Y-93594374D01*
X208723945Y-93611588D01*
X208722600Y-93605350D01*
X208563850Y-93446600D01*
X207239600Y-93446600D01*
X207239600Y-93466600D01*
X206985600Y-93466600D01*
X206985600Y-93446600D01*
X205661350Y-93446600D01*
X205502600Y-93605350D01*
X205499528Y-93619600D01*
X205511788Y-93744082D01*
X205548098Y-93863780D01*
X205596643Y-93954600D01*
X205548098Y-94045420D01*
X205511788Y-94165118D01*
X205499528Y-94289600D01*
X205499528Y-94889600D01*
X205511788Y-95014082D01*
X205548098Y-95133780D01*
X205596643Y-95224600D01*
X205548098Y-95315420D01*
X205511788Y-95435118D01*
X205499528Y-95559600D01*
X205499528Y-96159600D01*
X205511788Y-96284082D01*
X205548098Y-96403780D01*
X205596643Y-96494600D01*
X205548098Y-96585420D01*
X205511788Y-96705118D01*
X205499528Y-96829600D01*
X205499528Y-97429600D01*
X205511788Y-97554082D01*
X205548098Y-97673780D01*
X205596643Y-97764600D01*
X205548098Y-97855420D01*
X205511788Y-97975118D01*
X205499528Y-98099600D01*
X205499528Y-98699600D01*
X205511788Y-98824082D01*
X205548098Y-98943780D01*
X205596643Y-99034600D01*
X205548098Y-99125420D01*
X205511788Y-99245118D01*
X205499528Y-99369600D01*
X205499528Y-99969600D01*
X205511788Y-100094082D01*
X205548098Y-100213780D01*
X205596643Y-100304600D01*
X205548098Y-100395420D01*
X205511788Y-100515118D01*
X205499528Y-100639600D01*
X205499528Y-101239600D01*
X205511788Y-101364082D01*
X205548098Y-101483780D01*
X205596643Y-101574600D01*
X205548098Y-101665420D01*
X205511788Y-101785118D01*
X205499528Y-101909600D01*
X205499528Y-102509600D01*
X205511788Y-102634082D01*
X205548098Y-102753780D01*
X205596643Y-102844600D01*
X205548098Y-102935420D01*
X205511788Y-103055118D01*
X205499528Y-103179600D01*
X205499528Y-103779600D01*
X205511788Y-103904082D01*
X205548098Y-104023780D01*
X205596643Y-104114600D01*
X205548098Y-104205420D01*
X205511788Y-104325118D01*
X205499528Y-104449600D01*
X205499528Y-105049600D01*
X205511788Y-105174082D01*
X205548098Y-105293780D01*
X205607063Y-105404094D01*
X205674445Y-105486200D01*
X199150755Y-105486200D01*
X199218137Y-105404094D01*
X199277102Y-105293780D01*
X199313412Y-105174082D01*
X199325672Y-105049600D01*
X199325672Y-104449600D01*
X199313412Y-104325118D01*
X199277102Y-104205420D01*
X199228557Y-104114600D01*
X199277102Y-104023780D01*
X199313412Y-103904082D01*
X199325672Y-103779600D01*
X199325672Y-103179600D01*
X199313412Y-103055118D01*
X199277102Y-102935420D01*
X199228557Y-102844600D01*
X199277102Y-102753780D01*
X199313412Y-102634082D01*
X199325672Y-102509600D01*
X199325672Y-101909600D01*
X199313412Y-101785118D01*
X199277102Y-101665420D01*
X199228557Y-101574600D01*
X199277102Y-101483780D01*
X199313412Y-101364082D01*
X199325672Y-101239600D01*
X199325672Y-100639600D01*
X199313412Y-100515118D01*
X199277102Y-100395420D01*
X199228557Y-100304600D01*
X199277102Y-100213780D01*
X199313412Y-100094082D01*
X199325672Y-99969600D01*
X199325672Y-99369600D01*
X199313412Y-99245118D01*
X199277102Y-99125420D01*
X199228557Y-99034600D01*
X199277102Y-98943780D01*
X199313412Y-98824082D01*
X199325672Y-98699600D01*
X199325672Y-98099600D01*
X199313412Y-97975118D01*
X199277102Y-97855420D01*
X199228557Y-97764600D01*
X199277102Y-97673780D01*
X199313412Y-97554082D01*
X199325672Y-97429600D01*
X199325672Y-96829600D01*
X199313412Y-96705118D01*
X199277102Y-96585420D01*
X199228557Y-96494600D01*
X199277102Y-96403780D01*
X199313412Y-96284082D01*
X199325672Y-96159600D01*
X199325672Y-95559600D01*
X199313412Y-95435118D01*
X199277102Y-95315420D01*
X199228557Y-95224600D01*
X199277102Y-95133780D01*
X199313412Y-95014082D01*
X199325672Y-94889600D01*
X199325672Y-94289600D01*
X199313412Y-94165118D01*
X199277102Y-94045420D01*
X199228557Y-93954600D01*
X199277102Y-93863780D01*
X199313412Y-93744082D01*
X199325672Y-93619600D01*
X199325672Y-93019600D01*
X205499528Y-93019600D01*
X205502600Y-93033850D01*
X205661350Y-93192600D01*
X206985600Y-93192600D01*
X206985600Y-92543350D01*
X207239600Y-92543350D01*
X207239600Y-93192600D01*
X208563850Y-93192600D01*
X208722600Y-93033850D01*
X208725672Y-93019600D01*
X208713412Y-92895118D01*
X208698088Y-92844600D01*
X210407528Y-92844600D01*
X210410600Y-93033850D01*
X210569350Y-93192600D01*
X211443600Y-93192600D01*
X211443600Y-92368350D01*
X211284850Y-92209600D01*
X211045600Y-92206528D01*
X210921118Y-92218788D01*
X210801420Y-92255098D01*
X210691106Y-92314063D01*
X210594415Y-92393415D01*
X210515063Y-92490106D01*
X210456098Y-92600420D01*
X210419788Y-92720118D01*
X210407528Y-92844600D01*
X208698088Y-92844600D01*
X208677102Y-92775420D01*
X208618137Y-92665106D01*
X208538785Y-92568415D01*
X208442094Y-92489063D01*
X208331780Y-92430098D01*
X208212082Y-92393788D01*
X208087600Y-92381528D01*
X207398350Y-92384600D01*
X207239600Y-92543350D01*
X206985600Y-92543350D01*
X206826850Y-92384600D01*
X206137600Y-92381528D01*
X206013118Y-92393788D01*
X205893420Y-92430098D01*
X205783106Y-92489063D01*
X205686415Y-92568415D01*
X205607063Y-92665106D01*
X205548098Y-92775420D01*
X205511788Y-92895118D01*
X205499528Y-93019600D01*
X199325672Y-93019600D01*
X199313412Y-92895118D01*
X199277102Y-92775420D01*
X199218137Y-92665106D01*
X199138785Y-92568415D01*
X199042094Y-92489063D01*
X198931780Y-92430098D01*
X198812082Y-92393788D01*
X198687600Y-92381528D01*
X196737600Y-92381528D01*
X196613118Y-92393788D01*
X196493420Y-92430098D01*
X196447049Y-92454884D01*
X196292466Y-92351595D01*
X196104108Y-92273574D01*
X195904149Y-92233800D01*
X195700271Y-92233800D01*
X195500312Y-92273574D01*
X195478410Y-92282646D01*
X195478410Y-91788507D01*
X195506702Y-91800226D01*
X195706661Y-91840000D01*
X195910539Y-91840000D01*
X196110498Y-91800226D01*
X196298856Y-91722205D01*
X196408361Y-91649036D01*
X196493420Y-91694502D01*
X196613118Y-91730812D01*
X196737600Y-91743072D01*
X198687600Y-91743072D01*
X198812082Y-91730812D01*
X198931780Y-91694502D01*
X199042094Y-91635537D01*
X199138785Y-91556185D01*
X199218137Y-91459494D01*
X199277102Y-91349180D01*
X199313412Y-91229482D01*
X199325672Y-91105000D01*
X199325672Y-90505000D01*
X199313412Y-90380518D01*
X199277102Y-90260820D01*
X199228557Y-90170000D01*
X199277102Y-90079180D01*
X199313412Y-89959482D01*
X199325672Y-89835000D01*
X199325672Y-89235000D01*
X199313412Y-89110518D01*
X199277102Y-88990820D01*
X199228557Y-88900000D01*
X199277102Y-88809180D01*
X199313412Y-88689482D01*
X199325672Y-88565000D01*
X199325672Y-87965000D01*
X199313412Y-87840518D01*
X199277102Y-87720820D01*
X199228557Y-87630000D01*
X199277102Y-87539180D01*
X199313412Y-87419482D01*
X199325672Y-87295000D01*
X199325672Y-86695000D01*
X199313412Y-86570518D01*
X199277102Y-86450820D01*
X199228557Y-86360000D01*
X199277102Y-86269180D01*
X199313412Y-86149482D01*
X199325672Y-86025000D01*
X199325672Y-85425000D01*
X199313412Y-85300518D01*
X199277102Y-85180820D01*
X199228557Y-85090000D01*
X199277102Y-84999180D01*
X199313412Y-84879482D01*
X199325672Y-84755000D01*
X199325672Y-84155000D01*
X199313412Y-84030518D01*
X199277102Y-83910820D01*
X199228557Y-83820000D01*
X199277102Y-83729180D01*
X199313412Y-83609482D01*
X199325672Y-83485000D01*
X199325672Y-82885000D01*
X199313412Y-82760518D01*
X199277102Y-82640820D01*
X199228557Y-82550000D01*
X199277102Y-82459180D01*
X199313412Y-82339482D01*
X199325672Y-82215000D01*
X199325672Y-81615000D01*
X199313412Y-81490518D01*
X199277102Y-81370820D01*
X199228557Y-81280000D01*
X199277102Y-81189180D01*
X199313412Y-81069482D01*
X199325672Y-80945000D01*
X199325672Y-80345000D01*
X199313412Y-80220518D01*
X199277102Y-80100820D01*
X199228557Y-80010000D01*
X199277102Y-79919180D01*
X199313412Y-79799482D01*
X199325672Y-79675000D01*
X199325672Y-79075000D01*
X205499528Y-79075000D01*
X205502600Y-79089250D01*
X205661350Y-79248000D01*
X206985600Y-79248000D01*
X206985600Y-78598750D01*
X207239600Y-78598750D01*
X207239600Y-79248000D01*
X208563850Y-79248000D01*
X208722600Y-79089250D01*
X208725672Y-79075000D01*
X208713412Y-78950518D01*
X208677102Y-78830820D01*
X208618137Y-78720506D01*
X208538785Y-78623815D01*
X208442094Y-78544463D01*
X208331780Y-78485498D01*
X208212082Y-78449188D01*
X208087600Y-78436928D01*
X207398350Y-78440000D01*
X207239600Y-78598750D01*
X206985600Y-78598750D01*
X206826850Y-78440000D01*
X206137600Y-78436928D01*
X206013118Y-78449188D01*
X205893420Y-78485498D01*
X205783106Y-78544463D01*
X205686415Y-78623815D01*
X205607063Y-78720506D01*
X205548098Y-78830820D01*
X205511788Y-78950518D01*
X205499528Y-79075000D01*
X199325672Y-79075000D01*
X199313412Y-78950518D01*
X199277102Y-78830820D01*
X199218137Y-78720506D01*
X199138785Y-78623815D01*
X199042094Y-78544463D01*
X198931780Y-78485498D01*
X198812082Y-78449188D01*
X198687600Y-78436928D01*
X196737600Y-78436928D01*
X196613118Y-78449188D01*
X196493420Y-78485498D01*
X196436584Y-78515878D01*
X196349656Y-78457795D01*
X196161298Y-78379774D01*
X195961339Y-78340000D01*
X195757461Y-78340000D01*
X195563098Y-78378661D01*
X195550812Y-78338161D01*
X195480055Y-78205784D01*
X195384832Y-78089754D01*
X195355763Y-78065898D01*
X194679304Y-77389440D01*
X194655447Y-77360370D01*
X194626375Y-77336511D01*
X194539417Y-77265146D01*
X194407040Y-77194390D01*
X194263403Y-77150818D01*
X194114025Y-77136105D01*
X194076592Y-77139792D01*
X193521460Y-77139792D01*
X193541600Y-77038539D01*
X193541600Y-76834661D01*
X193505028Y-76650800D01*
X193573739Y-76650800D01*
X193773698Y-76611026D01*
X193962056Y-76533005D01*
X194131574Y-76419737D01*
X194170300Y-76381011D01*
X194209026Y-76419737D01*
X194378544Y-76533005D01*
X194566902Y-76611026D01*
X194766861Y-76650800D01*
X194970739Y-76650800D01*
X195170698Y-76611026D01*
X195359056Y-76533005D01*
X195528574Y-76419737D01*
X195672737Y-76275574D01*
X195786005Y-76106056D01*
X195864026Y-75917698D01*
X195903800Y-75717739D01*
X195903800Y-75513861D01*
X195864026Y-75313902D01*
X195786005Y-75125544D01*
X195672737Y-74956026D01*
X195528574Y-74811863D01*
X195359056Y-74698595D01*
X195170698Y-74620574D01*
X194970739Y-74580800D01*
X194911430Y-74580800D01*
X194653083Y-74322452D01*
X194629221Y-74293377D01*
X194513191Y-74198154D01*
X194380814Y-74127397D01*
X194237177Y-74083825D01*
X194125225Y-74072799D01*
X194125222Y-74072799D01*
X194087799Y-74069113D01*
X194050376Y-74072799D01*
X176100288Y-74072799D01*
X176062865Y-74069113D01*
X176025442Y-74072799D01*
X176025439Y-74072799D01*
X175913487Y-74083825D01*
X175769850Y-74127397D01*
X175708229Y-74160334D01*
X175637472Y-74198154D01*
X175603787Y-74225799D01*
X175521443Y-74293377D01*
X175497581Y-74322453D01*
X172461613Y-77358421D01*
X172432543Y-77382278D01*
X172408686Y-77411348D01*
X172408685Y-77411349D01*
X172337319Y-77498308D01*
X172266563Y-77630685D01*
X172222991Y-77774322D01*
X172208278Y-77923700D01*
X172211965Y-77961133D01*
X172211962Y-89689805D01*
X172208276Y-89727228D01*
X172211962Y-89764651D01*
X172211962Y-89764653D01*
X172222988Y-89876605D01*
X172266560Y-90020242D01*
X172292301Y-90068400D01*
X172337317Y-90152620D01*
X172337997Y-90153448D01*
X172432540Y-90268649D01*
X172461615Y-90292510D01*
X174015390Y-91846288D01*
X174015391Y-104889957D01*
X174011704Y-104927390D01*
X174026417Y-105076768D01*
X174069989Y-105220405D01*
X174140745Y-105352782D01*
X174212111Y-105439741D01*
X174235969Y-105468812D01*
X174265039Y-105492669D01*
X174948720Y-106176351D01*
X174972578Y-106205422D01*
X175001648Y-106229279D01*
X175088607Y-106300645D01*
X175159364Y-106338465D01*
X175220985Y-106371402D01*
X175364622Y-106414974D01*
X175476574Y-106426000D01*
X175476577Y-106426000D01*
X175514000Y-106429686D01*
X175551423Y-106426000D01*
X176075293Y-106426000D01*
X176177363Y-106578759D01*
X176377241Y-106778637D01*
X176609759Y-106934000D01*
X176377241Y-107089363D01*
X176177363Y-107289241D01*
X176020320Y-107524273D01*
X175912147Y-107785426D01*
X175857000Y-108062665D01*
X175857000Y-108345335D01*
X175912147Y-108622574D01*
X176020320Y-108883727D01*
X176177363Y-109118759D01*
X176377241Y-109318637D01*
X176609759Y-109474000D01*
X176377241Y-109629363D01*
X176177363Y-109829241D01*
X176020320Y-110064273D01*
X175912147Y-110325426D01*
X175857000Y-110602665D01*
X175857000Y-110885335D01*
X175912147Y-111162574D01*
X176020320Y-111423727D01*
X176177363Y-111658759D01*
X176377241Y-111858637D01*
X176611128Y-112014915D01*
X176550486Y-112047329D01*
X176478903Y-112291298D01*
X177292000Y-113104395D01*
X178105097Y-112291298D01*
X178033514Y-112047329D01*
X177969008Y-112016806D01*
X177971727Y-112015680D01*
X178206759Y-111858637D01*
X178406637Y-111658759D01*
X178563680Y-111423727D01*
X178671853Y-111162574D01*
X178727000Y-110885335D01*
X178727000Y-110602665D01*
X178671853Y-110325426D01*
X178563680Y-110064273D01*
X178406637Y-109829241D01*
X178206759Y-109629363D01*
X177974241Y-109474000D01*
X178206759Y-109318637D01*
X178406637Y-109118759D01*
X178472416Y-109020313D01*
X178474169Y-109020486D01*
X178511592Y-109016800D01*
X180583170Y-109016800D01*
X180619400Y-109053030D01*
X180619401Y-118170288D01*
X180577463Y-118212226D01*
X180464195Y-118381744D01*
X180386174Y-118570102D01*
X180346400Y-118770061D01*
X180346400Y-118891001D01*
X172286472Y-118891001D01*
X172286472Y-118460200D01*
X172274212Y-118335718D01*
X172237902Y-118216020D01*
X172178937Y-118105706D01*
X172099585Y-118009015D01*
X172002894Y-117929663D01*
X171892580Y-117870698D01*
X171772882Y-117834388D01*
X171648400Y-117822128D01*
X171090812Y-117822128D01*
X171099026Y-117802298D01*
X171138800Y-117602339D01*
X171138800Y-117398461D01*
X171099026Y-117198502D01*
X171021005Y-117010144D01*
X170907737Y-116840626D01*
X170763574Y-116696463D01*
X170594056Y-116583195D01*
X170405698Y-116505174D01*
X170205739Y-116465400D01*
X170001861Y-116465400D01*
X169801902Y-116505174D01*
X169613544Y-116583195D01*
X169458502Y-116686791D01*
X169417374Y-116645663D01*
X169247856Y-116532395D01*
X169059498Y-116454374D01*
X168859539Y-116414600D01*
X168655661Y-116414600D01*
X168455702Y-116454374D01*
X168267344Y-116532395D01*
X168097826Y-116645663D01*
X167953663Y-116789826D01*
X167840395Y-116959344D01*
X167762374Y-117147702D01*
X167722600Y-117347661D01*
X167722600Y-117551539D01*
X167762374Y-117751498D01*
X167791630Y-117822128D01*
X167238400Y-117822128D01*
X167113918Y-117834388D01*
X166994220Y-117870698D01*
X166883906Y-117929663D01*
X166787215Y-118009015D01*
X166707863Y-118105706D01*
X166648898Y-118216020D01*
X166612588Y-118335718D01*
X166600328Y-118460200D01*
X166600328Y-120010200D01*
X166612588Y-120134682D01*
X166648898Y-120254380D01*
X166707863Y-120364694D01*
X166787215Y-120461385D01*
X166883906Y-120540737D01*
X166994220Y-120599702D01*
X167113918Y-120636012D01*
X167238400Y-120648272D01*
X167271842Y-120648272D01*
X167684316Y-121060746D01*
X167708178Y-121089822D01*
X167781819Y-121150257D01*
X167824207Y-121185045D01*
X167894964Y-121222865D01*
X167956585Y-121255802D01*
X167970424Y-121260000D01*
X158775000Y-121260000D01*
X158775000Y-119214042D01*
X158970000Y-119214042D01*
X158970000Y-119545958D01*
X159034754Y-119871496D01*
X159161772Y-120178147D01*
X159346175Y-120454125D01*
X159580875Y-120688825D01*
X159856853Y-120873228D01*
X160163504Y-121000246D01*
X160489042Y-121065000D01*
X160820958Y-121065000D01*
X161146496Y-121000246D01*
X161453147Y-120873228D01*
X161729125Y-120688825D01*
X161963825Y-120454125D01*
X162148228Y-120178147D01*
X162275246Y-119871496D01*
X162340000Y-119545958D01*
X162340000Y-119214042D01*
X162275246Y-118888504D01*
X162148228Y-118581853D01*
X161963825Y-118305875D01*
X161729125Y-118071175D01*
X161453147Y-117886772D01*
X161146496Y-117759754D01*
X160820958Y-117695000D01*
X160489042Y-117695000D01*
X160163504Y-117759754D01*
X159856853Y-117886772D01*
X159580875Y-118071175D01*
X159346175Y-118305875D01*
X159161772Y-118581853D01*
X159034754Y-118888504D01*
X158970000Y-119214042D01*
X158775000Y-119214042D01*
X158775000Y-92735400D01*
X161387914Y-92735400D01*
X161391601Y-92772833D01*
X161391600Y-95263377D01*
X161387914Y-95300800D01*
X161391600Y-95338223D01*
X161391600Y-95338225D01*
X161402626Y-95450177D01*
X161446198Y-95593814D01*
X161464104Y-95627314D01*
X161516955Y-95726192D01*
X161548318Y-95764408D01*
X161612178Y-95842222D01*
X161641254Y-95866084D01*
X162058345Y-96283175D01*
X162036287Y-96355889D01*
X162007615Y-96647000D01*
X162036287Y-96938111D01*
X162121201Y-97218034D01*
X162259094Y-97476014D01*
X162444666Y-97702134D01*
X162474487Y-97726607D01*
X162405620Y-97747498D01*
X162295306Y-97806463D01*
X162198615Y-97885815D01*
X162119263Y-97982506D01*
X162060298Y-98092820D01*
X162023988Y-98212518D01*
X162011728Y-98337000D01*
X162011728Y-100037000D01*
X162023988Y-100161482D01*
X162060298Y-100281180D01*
X162119263Y-100391494D01*
X162198615Y-100488185D01*
X162295306Y-100567537D01*
X162405620Y-100626502D01*
X162525318Y-100662812D01*
X162649800Y-100675072D01*
X164349800Y-100675072D01*
X164474282Y-100662812D01*
X164593980Y-100626502D01*
X164704294Y-100567537D01*
X164800985Y-100488185D01*
X164880337Y-100391494D01*
X164939302Y-100281180D01*
X164975612Y-100161482D01*
X164987872Y-100037000D01*
X164987872Y-98337000D01*
X164975612Y-98212518D01*
X164939302Y-98092820D01*
X164880337Y-97982506D01*
X164800985Y-97885815D01*
X164704294Y-97806463D01*
X164593980Y-97747498D01*
X164525113Y-97726607D01*
X164554934Y-97702134D01*
X164740506Y-97476014D01*
X164749173Y-97459800D01*
X168060970Y-97459800D01*
X168097201Y-97496031D01*
X168097200Y-102736643D01*
X168075213Y-102748395D01*
X167940638Y-102858838D01*
X167868600Y-102946616D01*
X167796562Y-102858838D01*
X167661987Y-102748395D01*
X167508451Y-102666328D01*
X167341855Y-102615792D01*
X167168601Y-102598728D01*
X166518599Y-102598728D01*
X166345345Y-102615792D01*
X166178749Y-102666328D01*
X166025213Y-102748395D01*
X165890638Y-102858838D01*
X165780195Y-102993413D01*
X165698128Y-103146949D01*
X165689680Y-103174800D01*
X164776326Y-103174800D01*
X164740506Y-103107786D01*
X164554934Y-102881666D01*
X164328814Y-102696094D01*
X164070834Y-102558201D01*
X163790911Y-102473287D01*
X163572750Y-102451800D01*
X163426850Y-102451800D01*
X163208689Y-102473287D01*
X162928766Y-102558201D01*
X162670786Y-102696094D01*
X162444666Y-102881666D01*
X162259094Y-103107786D01*
X162121201Y-103365766D01*
X162036287Y-103645689D01*
X162007615Y-103936800D01*
X162036287Y-104227911D01*
X162121201Y-104507834D01*
X162259094Y-104765814D01*
X162444666Y-104991934D01*
X162670786Y-105177506D01*
X162725591Y-105206800D01*
X162670786Y-105236094D01*
X162444666Y-105421666D01*
X162259094Y-105647786D01*
X162121201Y-105905766D01*
X162036287Y-106185689D01*
X162007615Y-106476800D01*
X162036287Y-106767911D01*
X162121201Y-107047834D01*
X162259094Y-107305814D01*
X162444666Y-107531934D01*
X162474487Y-107556407D01*
X162405620Y-107577298D01*
X162295306Y-107636263D01*
X162198615Y-107715615D01*
X162119263Y-107812306D01*
X162060298Y-107922620D01*
X162023988Y-108042318D01*
X162011728Y-108166800D01*
X162011728Y-109866800D01*
X162023988Y-109991282D01*
X162060298Y-110110980D01*
X162119263Y-110221294D01*
X162198615Y-110317985D01*
X162295306Y-110397337D01*
X162405620Y-110456302D01*
X162525318Y-110492612D01*
X162649800Y-110504872D01*
X164349800Y-110504872D01*
X164474282Y-110492612D01*
X164593980Y-110456302D01*
X164704294Y-110397337D01*
X164800985Y-110317985D01*
X164880337Y-110221294D01*
X164939302Y-110110980D01*
X164975612Y-109991282D01*
X164987872Y-109866800D01*
X164987872Y-108166800D01*
X164975612Y-108042318D01*
X164939302Y-107922620D01*
X164880337Y-107812306D01*
X164800985Y-107715615D01*
X164704294Y-107636263D01*
X164593980Y-107577298D01*
X164525113Y-107556407D01*
X164554934Y-107531934D01*
X164740506Y-107305814D01*
X164776326Y-107238800D01*
X165681975Y-107238800D01*
X165698128Y-107292051D01*
X165780195Y-107445587D01*
X165890638Y-107580162D01*
X166025213Y-107690605D01*
X166081601Y-107720745D01*
X166081601Y-107728262D01*
X165970577Y-107819377D01*
X165861688Y-107952058D01*
X165780777Y-108103433D01*
X165730952Y-108267684D01*
X165714128Y-108438500D01*
X165714128Y-109013500D01*
X165730952Y-109184316D01*
X165780777Y-109348567D01*
X165861688Y-109499942D01*
X165944625Y-109601000D01*
X165861688Y-109702058D01*
X165780777Y-109853433D01*
X165730952Y-110017684D01*
X165714128Y-110188500D01*
X165714128Y-110500041D01*
X165336770Y-110877400D01*
X165277461Y-110877400D01*
X165077502Y-110917174D01*
X164889144Y-110995195D01*
X164719626Y-111108463D01*
X164575463Y-111252626D01*
X164462195Y-111422144D01*
X164384174Y-111610502D01*
X164344400Y-111810461D01*
X164344400Y-112014339D01*
X164384174Y-112214298D01*
X164462195Y-112402656D01*
X164575463Y-112572174D01*
X164719626Y-112716337D01*
X164889144Y-112829605D01*
X165077502Y-112907626D01*
X165277461Y-112947400D01*
X165481339Y-112947400D01*
X165681298Y-112907626D01*
X165869656Y-112829605D01*
X166039174Y-112716337D01*
X166183337Y-112572174D01*
X166296605Y-112402656D01*
X166374626Y-112214298D01*
X166414400Y-112014339D01*
X166414400Y-111955030D01*
X166730359Y-111639072D01*
X167064700Y-111639072D01*
X167235516Y-111622248D01*
X167399767Y-111572423D01*
X167551142Y-111491512D01*
X167683823Y-111382623D01*
X167792712Y-111249942D01*
X167873623Y-111098567D01*
X167923448Y-110934316D01*
X167940272Y-110763500D01*
X167940272Y-110188500D01*
X167923448Y-110017684D01*
X167873623Y-109853433D01*
X167792712Y-109702058D01*
X167709775Y-109601000D01*
X167792712Y-109499942D01*
X167873623Y-109348567D01*
X167923448Y-109184316D01*
X167940272Y-109013500D01*
X167940272Y-108438500D01*
X167923448Y-108267684D01*
X167873623Y-108103433D01*
X167792712Y-107952058D01*
X167683823Y-107819377D01*
X167605600Y-107755181D01*
X167605600Y-107720745D01*
X167661987Y-107690605D01*
X167796562Y-107580162D01*
X167868600Y-107492384D01*
X167940638Y-107580162D01*
X168046401Y-107666959D01*
X168046400Y-112459723D01*
X167962882Y-112434388D01*
X167838400Y-112422128D01*
X167238400Y-112422128D01*
X167113918Y-112434388D01*
X166994220Y-112470698D01*
X166883906Y-112529663D01*
X166787215Y-112609015D01*
X166707863Y-112705706D01*
X166648898Y-112816020D01*
X166612588Y-112935718D01*
X166600328Y-113060200D01*
X166600328Y-114610200D01*
X166612588Y-114734682D01*
X166648898Y-114854380D01*
X166707863Y-114964694D01*
X166787215Y-115061385D01*
X166883906Y-115140737D01*
X166994220Y-115199702D01*
X167113918Y-115236012D01*
X167238400Y-115248272D01*
X167838400Y-115248272D01*
X167962882Y-115236012D01*
X168082580Y-115199702D01*
X168173400Y-115151157D01*
X168264220Y-115199702D01*
X168383918Y-115236012D01*
X168508400Y-115248272D01*
X169108400Y-115248272D01*
X169232882Y-115236012D01*
X169352580Y-115199702D01*
X169443400Y-115151157D01*
X169534220Y-115199702D01*
X169653918Y-115236012D01*
X169778400Y-115248272D01*
X170378400Y-115248272D01*
X170502882Y-115236012D01*
X170622580Y-115199702D01*
X170713400Y-115151157D01*
X170804220Y-115199702D01*
X170923918Y-115236012D01*
X171048400Y-115248272D01*
X171648400Y-115248272D01*
X171772882Y-115236012D01*
X171892580Y-115199702D01*
X172002894Y-115140737D01*
X172099585Y-115061385D01*
X172178937Y-114964694D01*
X172237902Y-114854380D01*
X172274212Y-114734682D01*
X172286472Y-114610200D01*
X172286472Y-114276702D01*
X176478903Y-114276702D01*
X176550486Y-114520671D01*
X176805996Y-114641571D01*
X177080184Y-114710300D01*
X177362512Y-114724217D01*
X177642130Y-114682787D01*
X177908292Y-114587603D01*
X178033514Y-114520671D01*
X178105097Y-114276702D01*
X177292000Y-113463605D01*
X176478903Y-114276702D01*
X172286472Y-114276702D01*
X172286472Y-113354512D01*
X175851783Y-113354512D01*
X175893213Y-113634130D01*
X175988397Y-113900292D01*
X176055329Y-114025514D01*
X176299298Y-114097097D01*
X177112395Y-113284000D01*
X177471605Y-113284000D01*
X178284702Y-114097097D01*
X178528671Y-114025514D01*
X178649571Y-113770004D01*
X178718300Y-113495816D01*
X178732217Y-113213488D01*
X178690787Y-112933870D01*
X178595603Y-112667708D01*
X178528671Y-112542486D01*
X178284702Y-112470903D01*
X177471605Y-113284000D01*
X177112395Y-113284000D01*
X176299298Y-112470903D01*
X176055329Y-112542486D01*
X175934429Y-112797996D01*
X175865700Y-113072184D01*
X175851783Y-113354512D01*
X172286472Y-113354512D01*
X172286472Y-113060200D01*
X172274212Y-112935718D01*
X172237902Y-112816020D01*
X172178937Y-112705706D01*
X172099585Y-112609015D01*
X172002894Y-112529663D01*
X171892580Y-112470698D01*
X171772882Y-112434388D01*
X171648400Y-112422128D01*
X171048400Y-112422128D01*
X170923918Y-112434388D01*
X170840400Y-112459723D01*
X170840400Y-109053030D01*
X172013153Y-107880278D01*
X172042222Y-107856422D01*
X172137445Y-107740392D01*
X172208202Y-107608015D01*
X172251774Y-107464378D01*
X172262800Y-107352426D01*
X172262800Y-107352424D01*
X172266486Y-107315001D01*
X172262800Y-107277578D01*
X172262800Y-104558423D01*
X172266486Y-104521000D01*
X172262800Y-104483574D01*
X172251774Y-104371622D01*
X172208202Y-104227985D01*
X172163205Y-104143802D01*
X172137445Y-104095607D01*
X172097079Y-104046422D01*
X172042222Y-103979578D01*
X172013146Y-103955716D01*
X171532684Y-103475254D01*
X171508822Y-103446178D01*
X171392792Y-103350955D01*
X171260415Y-103280198D01*
X171116778Y-103236626D01*
X171004826Y-103225600D01*
X171004823Y-103225600D01*
X170967400Y-103221914D01*
X170929977Y-103225600D01*
X170062930Y-103225600D01*
X170039072Y-103146949D01*
X169957005Y-102993413D01*
X169846562Y-102858838D01*
X169711987Y-102748395D01*
X169621200Y-102699868D01*
X169621200Y-97217822D01*
X169624886Y-97180399D01*
X169619847Y-97129241D01*
X169610174Y-97031022D01*
X169566602Y-96887385D01*
X169495845Y-96755008D01*
X169400622Y-96638978D01*
X169371546Y-96615116D01*
X168941884Y-96185454D01*
X168918022Y-96156378D01*
X168801992Y-96061155D01*
X168669615Y-95990398D01*
X168525978Y-95946826D01*
X168414026Y-95935800D01*
X168414023Y-95935800D01*
X168376600Y-95932114D01*
X168339177Y-95935800D01*
X164803479Y-95935800D01*
X164740506Y-95817986D01*
X164554934Y-95591866D01*
X164328814Y-95406294D01*
X164274009Y-95377000D01*
X164328814Y-95347706D01*
X164554934Y-95162134D01*
X164740506Y-94936014D01*
X164878399Y-94678034D01*
X164963313Y-94398111D01*
X164991985Y-94107000D01*
X164963313Y-93815889D01*
X164878399Y-93535966D01*
X164740506Y-93277986D01*
X164554934Y-93051866D01*
X164328814Y-92866294D01*
X164274009Y-92837000D01*
X164328814Y-92807706D01*
X164554934Y-92622134D01*
X164740506Y-92396014D01*
X164878399Y-92138034D01*
X164963313Y-91858111D01*
X164991985Y-91567000D01*
X164963313Y-91275889D01*
X164878399Y-90995966D01*
X164740506Y-90737986D01*
X164554934Y-90511866D01*
X164328814Y-90326294D01*
X164070834Y-90188401D01*
X163790911Y-90103487D01*
X163572750Y-90082000D01*
X163426850Y-90082000D01*
X163208689Y-90103487D01*
X162928766Y-90188401D01*
X162670786Y-90326294D01*
X162444666Y-90511866D01*
X162259094Y-90737986D01*
X162121201Y-90995966D01*
X162036287Y-91275889D01*
X162007615Y-91567000D01*
X162028843Y-91782527D01*
X161641249Y-92170121D01*
X161612179Y-92193978D01*
X161588322Y-92223048D01*
X161588321Y-92223049D01*
X161516955Y-92310008D01*
X161446199Y-92442385D01*
X161402627Y-92586022D01*
X161387914Y-92735400D01*
X158775000Y-92735400D01*
X158775000Y-86424419D01*
X164711600Y-86424419D01*
X164711600Y-86805581D01*
X164785961Y-87179419D01*
X164931825Y-87531566D01*
X165143587Y-87848491D01*
X165413109Y-88118013D01*
X165730034Y-88329775D01*
X166082181Y-88475639D01*
X166456019Y-88550000D01*
X166837181Y-88550000D01*
X167211019Y-88475639D01*
X167563166Y-88329775D01*
X167880091Y-88118013D01*
X168149613Y-87848491D01*
X168361375Y-87531566D01*
X168507239Y-87179419D01*
X168581600Y-86805581D01*
X168581600Y-86424419D01*
X168507239Y-86050581D01*
X168361375Y-85698434D01*
X168149613Y-85381509D01*
X167880091Y-85111987D01*
X167563166Y-84900225D01*
X167211019Y-84754361D01*
X166837181Y-84680000D01*
X166456019Y-84680000D01*
X166082181Y-84754361D01*
X165730034Y-84900225D01*
X165413109Y-85111987D01*
X165143587Y-85381509D01*
X164931825Y-85698434D01*
X164785961Y-86050581D01*
X164711600Y-86424419D01*
X158775000Y-86424419D01*
X158775000Y-81724419D01*
X161711600Y-81724419D01*
X161711600Y-82105581D01*
X161785961Y-82479419D01*
X161931825Y-82831566D01*
X162143587Y-83148491D01*
X162413109Y-83418013D01*
X162730034Y-83629775D01*
X163082181Y-83775639D01*
X163456019Y-83850000D01*
X163837181Y-83850000D01*
X164211019Y-83775639D01*
X164563166Y-83629775D01*
X164880091Y-83418013D01*
X165149613Y-83148491D01*
X165361375Y-82831566D01*
X165507239Y-82479419D01*
X165581600Y-82105581D01*
X165581600Y-81724419D01*
X165507239Y-81350581D01*
X165361375Y-80998434D01*
X165149613Y-80681509D01*
X165083104Y-80615000D01*
X167708528Y-80615000D01*
X167708528Y-83215000D01*
X167720788Y-83339482D01*
X167757098Y-83459180D01*
X167816063Y-83569494D01*
X167895415Y-83666185D01*
X167992106Y-83745537D01*
X168102420Y-83804502D01*
X168222118Y-83840812D01*
X168346600Y-83853072D01*
X170946600Y-83853072D01*
X171071082Y-83840812D01*
X171190780Y-83804502D01*
X171301094Y-83745537D01*
X171397785Y-83666185D01*
X171477137Y-83569494D01*
X171536102Y-83459180D01*
X171572412Y-83339482D01*
X171584672Y-83215000D01*
X171584672Y-80615000D01*
X171572412Y-80490518D01*
X171536102Y-80370820D01*
X171477137Y-80260506D01*
X171397785Y-80163815D01*
X171301094Y-80084463D01*
X171190780Y-80025498D01*
X171071082Y-79989188D01*
X170946600Y-79976928D01*
X168346600Y-79976928D01*
X168222118Y-79989188D01*
X168102420Y-80025498D01*
X167992106Y-80084463D01*
X167895415Y-80163815D01*
X167816063Y-80260506D01*
X167757098Y-80370820D01*
X167720788Y-80490518D01*
X167708528Y-80615000D01*
X165083104Y-80615000D01*
X164880091Y-80411987D01*
X164563166Y-80200225D01*
X164211019Y-80054361D01*
X163837181Y-79980000D01*
X163456019Y-79980000D01*
X163082181Y-80054361D01*
X162730034Y-80200225D01*
X162413109Y-80411987D01*
X162143587Y-80681509D01*
X161931825Y-80998434D01*
X161785961Y-81350581D01*
X161711600Y-81724419D01*
X158775000Y-81724419D01*
X158775000Y-72719861D01*
X190379400Y-72719861D01*
X190379400Y-72923739D01*
X190419174Y-73123698D01*
X190497195Y-73312056D01*
X190610463Y-73481574D01*
X190754626Y-73625737D01*
X190924144Y-73739005D01*
X191112502Y-73817026D01*
X191312461Y-73856800D01*
X191516339Y-73856800D01*
X191716298Y-73817026D01*
X191904656Y-73739005D01*
X192074174Y-73625737D01*
X192116111Y-73583800D01*
X195539728Y-73583800D01*
X195539728Y-73671800D01*
X195551988Y-73796282D01*
X195588298Y-73915980D01*
X195647263Y-74026294D01*
X195726615Y-74122985D01*
X195823306Y-74202337D01*
X195933620Y-74261302D01*
X196053318Y-74297612D01*
X196177800Y-74309872D01*
X197877800Y-74309872D01*
X198002282Y-74297612D01*
X198121980Y-74261302D01*
X198232294Y-74202337D01*
X198328985Y-74122985D01*
X198408337Y-74026294D01*
X198467302Y-73915980D01*
X198488193Y-73847113D01*
X198512666Y-73876934D01*
X198738786Y-74062506D01*
X198996766Y-74200399D01*
X199276689Y-74285313D01*
X199494850Y-74306800D01*
X199640750Y-74306800D01*
X199858911Y-74285313D01*
X200138834Y-74200399D01*
X200396814Y-74062506D01*
X200622934Y-73876934D01*
X200808506Y-73650814D01*
X200837800Y-73596009D01*
X200867094Y-73650814D01*
X201052666Y-73876934D01*
X201278786Y-74062506D01*
X201536766Y-74200399D01*
X201816689Y-74285313D01*
X202034850Y-74306800D01*
X202180750Y-74306800D01*
X202398911Y-74285313D01*
X202678834Y-74200399D01*
X202936814Y-74062506D01*
X203162934Y-73876934D01*
X203348506Y-73650814D01*
X203486399Y-73392834D01*
X203504800Y-73332173D01*
X203504800Y-75451377D01*
X203501114Y-75488800D01*
X203504800Y-75526223D01*
X203504800Y-75526225D01*
X203515826Y-75638177D01*
X203559398Y-75781814D01*
X203567679Y-75797306D01*
X203630155Y-75914192D01*
X203669783Y-75962478D01*
X203725378Y-76030222D01*
X203754454Y-76054084D01*
X204641321Y-76940951D01*
X204665178Y-76970022D01*
X204694248Y-76993879D01*
X204781207Y-77065245D01*
X204845764Y-77099751D01*
X204913585Y-77136002D01*
X205057222Y-77179574D01*
X205169174Y-77190600D01*
X205169177Y-77190600D01*
X205206600Y-77194286D01*
X205244023Y-77190600D01*
X208172424Y-77190600D01*
X208097574Y-77371302D01*
X208057800Y-77571261D01*
X208057800Y-77775139D01*
X208097574Y-77975098D01*
X208175595Y-78163456D01*
X208288863Y-78332974D01*
X208433026Y-78477137D01*
X208602544Y-78590405D01*
X208790902Y-78668426D01*
X208990861Y-78708200D01*
X209194739Y-78708200D01*
X209394698Y-78668426D01*
X209583056Y-78590405D01*
X209698571Y-78513220D01*
X209662063Y-78557706D01*
X209603098Y-78668020D01*
X209566788Y-78787718D01*
X209554528Y-78912200D01*
X209557600Y-79151450D01*
X209716350Y-79310200D01*
X210540600Y-79310200D01*
X210540600Y-79290200D01*
X210794600Y-79290200D01*
X210794600Y-79310200D01*
X210814600Y-79310200D01*
X210814600Y-79564200D01*
X210794600Y-79564200D01*
X210794600Y-80438450D01*
X210953350Y-80597200D01*
X211142600Y-80600272D01*
X211267082Y-80588012D01*
X211311402Y-80574568D01*
X210732970Y-81153000D01*
X209972749Y-81153000D01*
X209984605Y-81135256D01*
X210062626Y-80946898D01*
X210102400Y-80746939D01*
X210102400Y-80591388D01*
X210192600Y-80600272D01*
X210381850Y-80597200D01*
X210540600Y-80438450D01*
X210540600Y-79564200D01*
X209716350Y-79564200D01*
X209557600Y-79722950D01*
X209557538Y-79727746D01*
X209369298Y-79649774D01*
X209169339Y-79610000D01*
X208965461Y-79610000D01*
X208765502Y-79649774D01*
X208723945Y-79666988D01*
X208722600Y-79660750D01*
X208563850Y-79502000D01*
X207239600Y-79502000D01*
X207239600Y-79522000D01*
X206985600Y-79522000D01*
X206985600Y-79502000D01*
X205661350Y-79502000D01*
X205502600Y-79660750D01*
X205499528Y-79675000D01*
X205511788Y-79799482D01*
X205548098Y-79919180D01*
X205596643Y-80010000D01*
X205548098Y-80100820D01*
X205511788Y-80220518D01*
X205499528Y-80345000D01*
X205499528Y-80945000D01*
X205511788Y-81069482D01*
X205548098Y-81189180D01*
X205596643Y-81280000D01*
X205548098Y-81370820D01*
X205511788Y-81490518D01*
X205499528Y-81615000D01*
X205499528Y-82215000D01*
X205511788Y-82339482D01*
X205548098Y-82459180D01*
X205596643Y-82550000D01*
X205548098Y-82640820D01*
X205511788Y-82760518D01*
X205499528Y-82885000D01*
X205499528Y-83485000D01*
X205511788Y-83609482D01*
X205548098Y-83729180D01*
X205596643Y-83820000D01*
X205548098Y-83910820D01*
X205511788Y-84030518D01*
X205499528Y-84155000D01*
X205499528Y-84755000D01*
X205511788Y-84879482D01*
X205548098Y-84999180D01*
X205596643Y-85090000D01*
X205548098Y-85180820D01*
X205511788Y-85300518D01*
X205499528Y-85425000D01*
X205499528Y-86025000D01*
X205511788Y-86149482D01*
X205548098Y-86269180D01*
X205596643Y-86360000D01*
X205548098Y-86450820D01*
X205511788Y-86570518D01*
X205499528Y-86695000D01*
X205499528Y-87295000D01*
X205511788Y-87419482D01*
X205548098Y-87539180D01*
X205596643Y-87630000D01*
X205548098Y-87720820D01*
X205511788Y-87840518D01*
X205499528Y-87965000D01*
X205499528Y-88565000D01*
X205511788Y-88689482D01*
X205548098Y-88809180D01*
X205596643Y-88900000D01*
X205548098Y-88990820D01*
X205511788Y-89110518D01*
X205499528Y-89235000D01*
X205499528Y-89835000D01*
X205511788Y-89959482D01*
X205548098Y-90079180D01*
X205596643Y-90170000D01*
X205548098Y-90260820D01*
X205511788Y-90380518D01*
X205499528Y-90505000D01*
X205499528Y-91105000D01*
X205511788Y-91229482D01*
X205548098Y-91349180D01*
X205607063Y-91459494D01*
X205686415Y-91556185D01*
X205783106Y-91635537D01*
X205893420Y-91694502D01*
X206013118Y-91730812D01*
X206137600Y-91743072D01*
X208087600Y-91743072D01*
X208212082Y-91730812D01*
X208331780Y-91694502D01*
X208442094Y-91635537D01*
X208494657Y-91592400D01*
X214541777Y-91592400D01*
X214579200Y-91596086D01*
X214616623Y-91592400D01*
X214616626Y-91592400D01*
X214728578Y-91581374D01*
X214872215Y-91537802D01*
X215004592Y-91467045D01*
X215120622Y-91371822D01*
X215144484Y-91342746D01*
X215929747Y-90557483D01*
X215958822Y-90533622D01*
X216054045Y-90417592D01*
X216111747Y-90309639D01*
X216208694Y-90491014D01*
X216394266Y-90717134D01*
X216620386Y-90902706D01*
X216878366Y-91040599D01*
X217158289Y-91125513D01*
X217376450Y-91147000D01*
X217522350Y-91147000D01*
X217740511Y-91125513D01*
X218020434Y-91040599D01*
X218278414Y-90902706D01*
X218504534Y-90717134D01*
X218690106Y-90491014D01*
X218827999Y-90233034D01*
X218912913Y-89953111D01*
X218941585Y-89662000D01*
X218912913Y-89370889D01*
X218827999Y-89090966D01*
X218690106Y-88832986D01*
X218504534Y-88606866D01*
X218278414Y-88421294D01*
X218213877Y-88386799D01*
X218330755Y-88317178D01*
X218546988Y-88122269D01*
X218721041Y-87888920D01*
X218846225Y-87626099D01*
X218890876Y-87478890D01*
X218769555Y-87249000D01*
X217576400Y-87249000D01*
X217576400Y-87269000D01*
X217322400Y-87269000D01*
X217322400Y-87249000D01*
X217302400Y-87249000D01*
X217302400Y-86995000D01*
X217322400Y-86995000D01*
X217322400Y-86975000D01*
X217576400Y-86975000D01*
X217576400Y-86995000D01*
X218769555Y-86995000D01*
X218890876Y-86765110D01*
X218846225Y-86617901D01*
X218721041Y-86355080D01*
X218546988Y-86121731D01*
X218330755Y-85926822D01*
X218213877Y-85857201D01*
X218278414Y-85822706D01*
X218504534Y-85637134D01*
X218690106Y-85411014D01*
X218827999Y-85153034D01*
X218912913Y-84873111D01*
X218941585Y-84582000D01*
X218912913Y-84290889D01*
X218827999Y-84010966D01*
X218690106Y-83752986D01*
X218504534Y-83526866D01*
X218474713Y-83502393D01*
X218543580Y-83481502D01*
X218653894Y-83422537D01*
X218750585Y-83343185D01*
X218829937Y-83246494D01*
X218888902Y-83136180D01*
X218925212Y-83016482D01*
X218937472Y-82892000D01*
X218937472Y-81192000D01*
X218925212Y-81067518D01*
X218888902Y-80947820D01*
X218829937Y-80837506D01*
X218750585Y-80740815D01*
X218653894Y-80661463D01*
X218543580Y-80602498D01*
X218423882Y-80566188D01*
X218299400Y-80553928D01*
X216738200Y-80553928D01*
X216738200Y-79178326D01*
X216929166Y-79280399D01*
X217209089Y-79365313D01*
X217427250Y-79386800D01*
X217573150Y-79386800D01*
X217791311Y-79365313D01*
X218071234Y-79280399D01*
X218329214Y-79142506D01*
X218555334Y-78956934D01*
X218740906Y-78730814D01*
X218878799Y-78472834D01*
X218963713Y-78192911D01*
X218992385Y-77901800D01*
X218963713Y-77610689D01*
X218878799Y-77330766D01*
X218740906Y-77072786D01*
X218555334Y-76846666D01*
X218329214Y-76661094D01*
X218264677Y-76626599D01*
X218381555Y-76556978D01*
X218597788Y-76362069D01*
X218771841Y-76128720D01*
X218897025Y-75865899D01*
X218941676Y-75718690D01*
X218820355Y-75488800D01*
X217627200Y-75488800D01*
X217627200Y-75508800D01*
X217373200Y-75508800D01*
X217373200Y-75488800D01*
X217353200Y-75488800D01*
X217353200Y-75234800D01*
X217373200Y-75234800D01*
X217373200Y-75214800D01*
X217627200Y-75214800D01*
X217627200Y-75234800D01*
X218820355Y-75234800D01*
X218941676Y-75004910D01*
X218897025Y-74857701D01*
X218771841Y-74594880D01*
X218597788Y-74361531D01*
X218381555Y-74166622D01*
X218264677Y-74097001D01*
X218329214Y-74062506D01*
X218555334Y-73876934D01*
X218740906Y-73650814D01*
X218878799Y-73392834D01*
X218963713Y-73112911D01*
X218992385Y-72821800D01*
X218963713Y-72530689D01*
X218878799Y-72250766D01*
X218740906Y-71992786D01*
X218555334Y-71766666D01*
X218525513Y-71742193D01*
X218594380Y-71721302D01*
X218704694Y-71662337D01*
X218801385Y-71582985D01*
X218880737Y-71486294D01*
X218939702Y-71375980D01*
X218976012Y-71256282D01*
X218988272Y-71131800D01*
X218988272Y-69431800D01*
X218976012Y-69307318D01*
X218939702Y-69187620D01*
X218880737Y-69077306D01*
X218801385Y-68980615D01*
X218704694Y-68901263D01*
X218594380Y-68842298D01*
X218474682Y-68805988D01*
X218350200Y-68793728D01*
X216650200Y-68793728D01*
X216525718Y-68805988D01*
X216406020Y-68842298D01*
X216295706Y-68901263D01*
X216199015Y-68980615D01*
X216119663Y-69077306D01*
X216060698Y-69187620D01*
X216024388Y-69307318D01*
X216012128Y-69431800D01*
X216012128Y-71131800D01*
X216024388Y-71256282D01*
X216060698Y-71375980D01*
X216119663Y-71486294D01*
X216199015Y-71582985D01*
X216295706Y-71662337D01*
X216406020Y-71721302D01*
X216474887Y-71742193D01*
X216445066Y-71766666D01*
X216259494Y-71992786D01*
X216121601Y-72250766D01*
X216036687Y-72530689D01*
X216008015Y-72821800D01*
X216036687Y-73112911D01*
X216070568Y-73224601D01*
X215463849Y-73831321D01*
X215434779Y-73855178D01*
X215410922Y-73884248D01*
X215410921Y-73884249D01*
X215339555Y-73971208D01*
X215268799Y-74103585D01*
X215225227Y-74247222D01*
X215210514Y-74396600D01*
X215214201Y-74434033D01*
X215214200Y-83573335D01*
X214397040Y-84390496D01*
X214367970Y-84414353D01*
X214344113Y-84443423D01*
X214344112Y-84443424D01*
X214272746Y-84530383D01*
X214201990Y-84662760D01*
X214158418Y-84806397D01*
X214143705Y-84955775D01*
X214147392Y-84993208D01*
X214147390Y-88584379D01*
X213958770Y-88773000D01*
X210013176Y-88773000D01*
X210088026Y-88592298D01*
X210127800Y-88392339D01*
X210127800Y-88188461D01*
X210088026Y-87988502D01*
X210010005Y-87800144D01*
X209913290Y-87655400D01*
X210010005Y-87510656D01*
X210088026Y-87322298D01*
X210127800Y-87122339D01*
X210127800Y-86918461D01*
X210088026Y-86718502D01*
X210010005Y-86530144D01*
X209904805Y-86372700D01*
X210010005Y-86215256D01*
X210088026Y-86026898D01*
X210127800Y-85826939D01*
X210127800Y-85623061D01*
X210088026Y-85423102D01*
X210010005Y-85234744D01*
X209997207Y-85215590D01*
X210094846Y-85205974D01*
X210238483Y-85162402D01*
X210370860Y-85091645D01*
X210486890Y-84996422D01*
X210510752Y-84967346D01*
X213770771Y-81707325D01*
X213799841Y-81683468D01*
X213835329Y-81640226D01*
X213895064Y-81567440D01*
X213965820Y-81435063D01*
X213967780Y-81428602D01*
X214009393Y-81291424D01*
X214020419Y-81179472D01*
X214020419Y-81179470D01*
X214024105Y-81142047D01*
X214020419Y-81104623D01*
X214020417Y-76603982D01*
X214024104Y-76566549D01*
X214009391Y-76417171D01*
X213965819Y-76273534D01*
X213895062Y-76141157D01*
X213823697Y-76054198D01*
X213823692Y-76054193D01*
X213799839Y-76025128D01*
X213770774Y-76001275D01*
X212669732Y-74900234D01*
X212645870Y-74871158D01*
X212529840Y-74775935D01*
X212397463Y-74705178D01*
X212253826Y-74661606D01*
X212141874Y-74650580D01*
X212141871Y-74650580D01*
X212104448Y-74646894D01*
X212067025Y-74650580D01*
X206044820Y-74650580D01*
X206044820Y-71257810D01*
X206208031Y-71094600D01*
X206788451Y-71094600D01*
X206810694Y-71136214D01*
X206996266Y-71362334D01*
X207026087Y-71386807D01*
X206957220Y-71407698D01*
X206846906Y-71466663D01*
X206750215Y-71546015D01*
X206670863Y-71642706D01*
X206611898Y-71753020D01*
X206575588Y-71872718D01*
X206563328Y-71997200D01*
X206563328Y-73697200D01*
X206575588Y-73821682D01*
X206611898Y-73941380D01*
X206670863Y-74051694D01*
X206750215Y-74148385D01*
X206846906Y-74227737D01*
X206957220Y-74286702D01*
X207076918Y-74323012D01*
X207201400Y-74335272D01*
X208901400Y-74335272D01*
X209025882Y-74323012D01*
X209145580Y-74286702D01*
X209255894Y-74227737D01*
X209352585Y-74148385D01*
X209431937Y-74051694D01*
X209490902Y-73941380D01*
X209511793Y-73872513D01*
X209536266Y-73902334D01*
X209762386Y-74087906D01*
X210020366Y-74225799D01*
X210300289Y-74310713D01*
X210518450Y-74332200D01*
X210664350Y-74332200D01*
X210882511Y-74310713D01*
X211162434Y-74225799D01*
X211420414Y-74087906D01*
X211646534Y-73902334D01*
X211832106Y-73676214D01*
X211861400Y-73621409D01*
X211890694Y-73676214D01*
X212076266Y-73902334D01*
X212302386Y-74087906D01*
X212560366Y-74225799D01*
X212840289Y-74310713D01*
X213058450Y-74332200D01*
X213204350Y-74332200D01*
X213422511Y-74310713D01*
X213702434Y-74225799D01*
X213960414Y-74087906D01*
X214186534Y-73902334D01*
X214372106Y-73676214D01*
X214509999Y-73418234D01*
X214594913Y-73138311D01*
X214623585Y-72847200D01*
X214594913Y-72556089D01*
X214509999Y-72276166D01*
X214372106Y-72018186D01*
X214186534Y-71792066D01*
X213960414Y-71606494D01*
X213905609Y-71577200D01*
X213960414Y-71547906D01*
X214186534Y-71362334D01*
X214372106Y-71136214D01*
X214509999Y-70878234D01*
X214594913Y-70598311D01*
X214623585Y-70307200D01*
X214594913Y-70016089D01*
X214509999Y-69736166D01*
X214372106Y-69478186D01*
X214186534Y-69252066D01*
X213960414Y-69066494D01*
X213702434Y-68928601D01*
X213422511Y-68843687D01*
X213347755Y-68836324D01*
X212325084Y-67813654D01*
X212301222Y-67784578D01*
X212185192Y-67689355D01*
X212052815Y-67618598D01*
X211909178Y-67575026D01*
X211797226Y-67564000D01*
X211797223Y-67564000D01*
X211759800Y-67560314D01*
X211722377Y-67564000D01*
X204659822Y-67564000D01*
X204622399Y-67560314D01*
X204584976Y-67564000D01*
X204584974Y-67564000D01*
X204473022Y-67575026D01*
X204329385Y-67618598D01*
X204197008Y-67689355D01*
X204080978Y-67784578D01*
X204057116Y-67813654D01*
X203754449Y-68116321D01*
X203725379Y-68140178D01*
X203701522Y-68169248D01*
X203701521Y-68169249D01*
X203630155Y-68256208D01*
X203559399Y-68388585D01*
X203515827Y-68532222D01*
X203501114Y-68681600D01*
X203504801Y-68719033D01*
X203504801Y-69771429D01*
X203486399Y-69710766D01*
X203348506Y-69452786D01*
X203162934Y-69226666D01*
X202936814Y-69041094D01*
X202678834Y-68903201D01*
X202398911Y-68818287D01*
X202180750Y-68796800D01*
X202034850Y-68796800D01*
X201816689Y-68818287D01*
X201536766Y-68903201D01*
X201278786Y-69041094D01*
X201052666Y-69226666D01*
X200867094Y-69452786D01*
X200837800Y-69507591D01*
X200808506Y-69452786D01*
X200622934Y-69226666D01*
X200396814Y-69041094D01*
X200138834Y-68903201D01*
X199858911Y-68818287D01*
X199640750Y-68796800D01*
X199494850Y-68796800D01*
X199276689Y-68818287D01*
X198996766Y-68903201D01*
X198738786Y-69041094D01*
X198512666Y-69226666D01*
X198327094Y-69452786D01*
X198297800Y-69507591D01*
X198268506Y-69452786D01*
X198082934Y-69226666D01*
X197856814Y-69041094D01*
X197598834Y-68903201D01*
X197318911Y-68818287D01*
X197100750Y-68796800D01*
X196954850Y-68796800D01*
X196736689Y-68818287D01*
X196456766Y-68903201D01*
X196198786Y-69041094D01*
X195972666Y-69226666D01*
X195787094Y-69452786D01*
X195649201Y-69710766D01*
X195564287Y-69990689D01*
X195535615Y-70281800D01*
X195564287Y-70572911D01*
X195649201Y-70852834D01*
X195787094Y-71110814D01*
X195972666Y-71336934D01*
X196002487Y-71361407D01*
X195933620Y-71382298D01*
X195823306Y-71441263D01*
X195726615Y-71520615D01*
X195647263Y-71617306D01*
X195588298Y-71727620D01*
X195551988Y-71847318D01*
X195539728Y-71971800D01*
X195539728Y-72059800D01*
X192116111Y-72059800D01*
X192074174Y-72017863D01*
X191904656Y-71904595D01*
X191716298Y-71826574D01*
X191516339Y-71786800D01*
X191312461Y-71786800D01*
X191112502Y-71826574D01*
X190924144Y-71904595D01*
X190754626Y-72017863D01*
X190610463Y-72162026D01*
X190497195Y-72331544D01*
X190419174Y-72519902D01*
X190379400Y-72719861D01*
X158775000Y-72719861D01*
X158775000Y-69123204D01*
X165658800Y-69123204D01*
X165658800Y-69408396D01*
X165714438Y-69688108D01*
X165823577Y-69951590D01*
X165982021Y-70188719D01*
X166183681Y-70390379D01*
X166420810Y-70548823D01*
X166684292Y-70657962D01*
X166964004Y-70713600D01*
X167249196Y-70713600D01*
X167528908Y-70657962D01*
X167792390Y-70548823D01*
X168029519Y-70390379D01*
X168231179Y-70188719D01*
X168376600Y-69971080D01*
X168522021Y-70188719D01*
X168723681Y-70390379D01*
X168960810Y-70548823D01*
X169224292Y-70657962D01*
X169504004Y-70713600D01*
X169789196Y-70713600D01*
X170068908Y-70657962D01*
X170332390Y-70548823D01*
X170569519Y-70390379D01*
X170771179Y-70188719D01*
X170929623Y-69951590D01*
X171038762Y-69688108D01*
X171094400Y-69408396D01*
X171094400Y-69123204D01*
X180898800Y-69123204D01*
X180898800Y-69408396D01*
X180954438Y-69688108D01*
X181063577Y-69951590D01*
X181222021Y-70188719D01*
X181423681Y-70390379D01*
X181660810Y-70548823D01*
X181924292Y-70657962D01*
X182204004Y-70713600D01*
X182489196Y-70713600D01*
X182768908Y-70657962D01*
X183032390Y-70548823D01*
X183269519Y-70390379D01*
X183471179Y-70188719D01*
X183616600Y-69971080D01*
X183762021Y-70188719D01*
X183963681Y-70390379D01*
X184200810Y-70548823D01*
X184464292Y-70657962D01*
X184744004Y-70713600D01*
X185029196Y-70713600D01*
X185308908Y-70657962D01*
X185572390Y-70548823D01*
X185809519Y-70390379D01*
X185932256Y-70267642D01*
X186604364Y-70267642D01*
X186677497Y-70512917D01*
X186935191Y-70635097D01*
X187211770Y-70704656D01*
X187496605Y-70718920D01*
X187778750Y-70677341D01*
X188047361Y-70581519D01*
X188175703Y-70512917D01*
X188248836Y-70267642D01*
X187426600Y-69445405D01*
X186604364Y-70267642D01*
X185932256Y-70267642D01*
X186011179Y-70188719D01*
X186156299Y-69971530D01*
X186179483Y-70014903D01*
X186424758Y-70088036D01*
X187246995Y-69265800D01*
X187606205Y-69265800D01*
X188428442Y-70088036D01*
X188673717Y-70014903D01*
X188795897Y-69757209D01*
X188865456Y-69480630D01*
X188879720Y-69195795D01*
X188838141Y-68913650D01*
X188742319Y-68645039D01*
X188673717Y-68516697D01*
X188428442Y-68443564D01*
X187606205Y-69265800D01*
X187246995Y-69265800D01*
X186424758Y-68443564D01*
X186179483Y-68516697D01*
X186157832Y-68562363D01*
X186011179Y-68342881D01*
X185932256Y-68263958D01*
X186604364Y-68263958D01*
X187426600Y-69086195D01*
X188248836Y-68263958D01*
X188175703Y-68018683D01*
X187918009Y-67896503D01*
X187641430Y-67826944D01*
X187356595Y-67812680D01*
X187074450Y-67854259D01*
X186805839Y-67950081D01*
X186677497Y-68018683D01*
X186604364Y-68263958D01*
X185932256Y-68263958D01*
X185809519Y-68141221D01*
X185572390Y-67982777D01*
X185308908Y-67873638D01*
X185029196Y-67818000D01*
X184744004Y-67818000D01*
X184464292Y-67873638D01*
X184200810Y-67982777D01*
X183963681Y-68141221D01*
X183762021Y-68342881D01*
X183616600Y-68560520D01*
X183471179Y-68342881D01*
X183269519Y-68141221D01*
X183032390Y-67982777D01*
X182768908Y-67873638D01*
X182489196Y-67818000D01*
X182204004Y-67818000D01*
X181924292Y-67873638D01*
X181660810Y-67982777D01*
X181423681Y-68141221D01*
X181222021Y-68342881D01*
X181063577Y-68580010D01*
X180954438Y-68843492D01*
X180898800Y-69123204D01*
X171094400Y-69123204D01*
X171038762Y-68843492D01*
X170929623Y-68580010D01*
X170771179Y-68342881D01*
X170569519Y-68141221D01*
X170332390Y-67982777D01*
X170068908Y-67873638D01*
X169789196Y-67818000D01*
X169504004Y-67818000D01*
X169224292Y-67873638D01*
X168960810Y-67982777D01*
X168723681Y-68141221D01*
X168522021Y-68342881D01*
X168376600Y-68560520D01*
X168231179Y-68342881D01*
X168029519Y-68141221D01*
X167792390Y-67982777D01*
X167528908Y-67873638D01*
X167249196Y-67818000D01*
X166964004Y-67818000D01*
X166684292Y-67873638D01*
X166420810Y-67982777D01*
X166183681Y-68141221D01*
X165982021Y-68342881D01*
X165823577Y-68580010D01*
X165714438Y-68843492D01*
X165658800Y-69123204D01*
X158775000Y-69123204D01*
X158775000Y-64604042D01*
X158970000Y-64604042D01*
X158970000Y-64935958D01*
X159034754Y-65261496D01*
X159161772Y-65568147D01*
X159346175Y-65844125D01*
X159580875Y-66078825D01*
X159856853Y-66263228D01*
X160163504Y-66390246D01*
X160489042Y-66455000D01*
X160820958Y-66455000D01*
X161146496Y-66390246D01*
X161453147Y-66263228D01*
X161729125Y-66078825D01*
X161963825Y-65844125D01*
X162148228Y-65568147D01*
X162275246Y-65261496D01*
X162340000Y-64935958D01*
X162340000Y-64604042D01*
X216755000Y-64604042D01*
X216755000Y-64935958D01*
X216819754Y-65261496D01*
X216946772Y-65568147D01*
X217131175Y-65844125D01*
X217365875Y-66078825D01*
X217641853Y-66263228D01*
X217948504Y-66390246D01*
X218274042Y-66455000D01*
X218605958Y-66455000D01*
X218931496Y-66390246D01*
X219238147Y-66263228D01*
X219514125Y-66078825D01*
X219748825Y-65844125D01*
X219933228Y-65568147D01*
X220060246Y-65261496D01*
X220125000Y-64935958D01*
X220125000Y-64604042D01*
X220060246Y-64278504D01*
X219933228Y-63971853D01*
X219748825Y-63695875D01*
X219514125Y-63461175D01*
X219238147Y-63276772D01*
X218931496Y-63149754D01*
X218605958Y-63085000D01*
X218274042Y-63085000D01*
X217948504Y-63149754D01*
X217641853Y-63276772D01*
X217365875Y-63461175D01*
X217131175Y-63695875D01*
X216946772Y-63971853D01*
X216819754Y-64278504D01*
X216755000Y-64604042D01*
X162340000Y-64604042D01*
X162275246Y-64278504D01*
X162148228Y-63971853D01*
X161963825Y-63695875D01*
X161729125Y-63461175D01*
X161453147Y-63276772D01*
X161146496Y-63149754D01*
X160820958Y-63085000D01*
X160489042Y-63085000D01*
X160163504Y-63149754D01*
X159856853Y-63276772D01*
X159580875Y-63461175D01*
X159346175Y-63695875D01*
X159161772Y-63971853D01*
X159034754Y-64278504D01*
X158970000Y-64604042D01*
X158775000Y-64604042D01*
X158775000Y-62890000D01*
X220320000Y-62890000D01*
X220320001Y-121260000D01*
M02*
