G04 #@! TF.GenerationSoftware,KiCad,Pcbnew,5.1.2*
G04 #@! TF.CreationDate,2019-05-12T19:07:36-07:00*
G04 #@! TF.ProjectId,dashboard_shield,64617368-626f-4617-9264-5f736869656c,rev?*
G04 #@! TF.SameCoordinates,Original*
G04 #@! TF.FileFunction,Soldermask,Top*
G04 #@! TF.FilePolarity,Negative*
%FSLAX46Y46*%
G04 Gerber Fmt 4.6, Leading zero omitted, Abs format (unit mm)*
G04 Created by KiCad (PCBNEW 5.1.2) date 2019-05-12 19:07:36*
%MOMM*%
%LPD*%
G04 APERTURE LIST*
%ADD10C,0.050000*%
%ADD11C,0.100000*%
G04 APERTURE END LIST*
D10*
X158115000Y-121920000D02*
X158115000Y-62230000D01*
X220980000Y-121920000D02*
X158115000Y-121920000D01*
X220980000Y-62230000D02*
X220980000Y-121920000D01*
X158115000Y-62230000D02*
X220980000Y-62230000D01*
D11*
G36*
X218654794Y-118300155D02*
G01*
X218761150Y-118321311D01*
X218861334Y-118362809D01*
X218961520Y-118404307D01*
X219141844Y-118524795D01*
X219295205Y-118678156D01*
X219415693Y-118858480D01*
X219498689Y-119058851D01*
X219541000Y-119271560D01*
X219541000Y-119488440D01*
X219498689Y-119701149D01*
X219415693Y-119901520D01*
X219295205Y-120081844D01*
X219141844Y-120235205D01*
X218961520Y-120355693D01*
X218761150Y-120438689D01*
X218654795Y-120459844D01*
X218548440Y-120481000D01*
X218331560Y-120481000D01*
X218225205Y-120459844D01*
X218118850Y-120438689D01*
X217918480Y-120355693D01*
X217738156Y-120235205D01*
X217584795Y-120081844D01*
X217464307Y-119901520D01*
X217381311Y-119701149D01*
X217339000Y-119488440D01*
X217339000Y-119271560D01*
X217381311Y-119058851D01*
X217464307Y-118858480D01*
X217584795Y-118678156D01*
X217738156Y-118524795D01*
X217918480Y-118404307D01*
X218018666Y-118362809D01*
X218118850Y-118321311D01*
X218225206Y-118300155D01*
X218331560Y-118279000D01*
X218548440Y-118279000D01*
X218654794Y-118300155D01*
X218654794Y-118300155D01*
G37*
G36*
X160869794Y-118300155D02*
G01*
X160976150Y-118321311D01*
X161076334Y-118362809D01*
X161176520Y-118404307D01*
X161356844Y-118524795D01*
X161510205Y-118678156D01*
X161630693Y-118858480D01*
X161713689Y-119058851D01*
X161756000Y-119271560D01*
X161756000Y-119488440D01*
X161713689Y-119701149D01*
X161630693Y-119901520D01*
X161510205Y-120081844D01*
X161356844Y-120235205D01*
X161176520Y-120355693D01*
X160976150Y-120438689D01*
X160869795Y-120459844D01*
X160763440Y-120481000D01*
X160546560Y-120481000D01*
X160440205Y-120459844D01*
X160333850Y-120438689D01*
X160133480Y-120355693D01*
X159953156Y-120235205D01*
X159799795Y-120081844D01*
X159679307Y-119901520D01*
X159596311Y-119701149D01*
X159554000Y-119488440D01*
X159554000Y-119271560D01*
X159596311Y-119058851D01*
X159679307Y-118858480D01*
X159799795Y-118678156D01*
X159953156Y-118524795D01*
X160133480Y-118404307D01*
X160233666Y-118362809D01*
X160333850Y-118321311D01*
X160440206Y-118300155D01*
X160546560Y-118279000D01*
X160763440Y-118279000D01*
X160869794Y-118300155D01*
X160869794Y-118300155D01*
G37*
G36*
X169159400Y-120061200D02*
G01*
X168457400Y-120061200D01*
X168457400Y-118409200D01*
X169159400Y-118409200D01*
X169159400Y-120061200D01*
X169159400Y-120061200D01*
G37*
G36*
X167889400Y-120061200D02*
G01*
X167187400Y-120061200D01*
X167187400Y-118409200D01*
X167889400Y-118409200D01*
X167889400Y-120061200D01*
X167889400Y-120061200D01*
G37*
G36*
X170429400Y-120061200D02*
G01*
X169727400Y-120061200D01*
X169727400Y-118409200D01*
X170429400Y-118409200D01*
X170429400Y-120061200D01*
X170429400Y-120061200D01*
G37*
G36*
X171699400Y-120061200D02*
G01*
X170997400Y-120061200D01*
X170997400Y-118409200D01*
X171699400Y-118409200D01*
X171699400Y-120061200D01*
X171699400Y-120061200D01*
G37*
G36*
X171699400Y-114661200D02*
G01*
X170997400Y-114661200D01*
X170997400Y-113009200D01*
X171699400Y-113009200D01*
X171699400Y-114661200D01*
X171699400Y-114661200D01*
G37*
G36*
X167889400Y-114661200D02*
G01*
X167187400Y-114661200D01*
X167187400Y-113009200D01*
X167889400Y-113009200D01*
X167889400Y-114661200D01*
X167889400Y-114661200D01*
G37*
G36*
X169159400Y-114661200D02*
G01*
X168457400Y-114661200D01*
X168457400Y-113009200D01*
X169159400Y-113009200D01*
X169159400Y-114661200D01*
X169159400Y-114661200D01*
G37*
G36*
X170429400Y-114661200D02*
G01*
X169727400Y-114661200D01*
X169727400Y-113009200D01*
X170429400Y-113009200D01*
X170429400Y-114661200D01*
X170429400Y-114661200D01*
G37*
G36*
X193383000Y-114135000D02*
G01*
X191681000Y-114135000D01*
X191681000Y-112433000D01*
X193383000Y-112433000D01*
X193383000Y-114135000D01*
X193383000Y-114135000D01*
G37*
G36*
X177540228Y-112465703D02*
G01*
X177695100Y-112529853D01*
X177834481Y-112622985D01*
X177953015Y-112741519D01*
X178046147Y-112880900D01*
X178110297Y-113035772D01*
X178143000Y-113200184D01*
X178143000Y-113367816D01*
X178110297Y-113532228D01*
X178046147Y-113687100D01*
X177953015Y-113826481D01*
X177834481Y-113945015D01*
X177695100Y-114038147D01*
X177540228Y-114102297D01*
X177375816Y-114135000D01*
X177208184Y-114135000D01*
X177043772Y-114102297D01*
X176888900Y-114038147D01*
X176749519Y-113945015D01*
X176630985Y-113826481D01*
X176537853Y-113687100D01*
X176473703Y-113532228D01*
X176441000Y-113367816D01*
X176441000Y-113200184D01*
X176473703Y-113035772D01*
X176537853Y-112880900D01*
X176630985Y-112741519D01*
X176749519Y-112622985D01*
X176888900Y-112529853D01*
X177043772Y-112465703D01*
X177208184Y-112433000D01*
X177375816Y-112433000D01*
X177540228Y-112465703D01*
X177540228Y-112465703D01*
G37*
G36*
X217559843Y-111906919D02*
G01*
X217626027Y-111913437D01*
X217795866Y-111964957D01*
X217952391Y-112048622D01*
X217988129Y-112077952D01*
X218089586Y-112161214D01*
X218160487Y-112247609D01*
X218202178Y-112298409D01*
X218285843Y-112454934D01*
X218337363Y-112624773D01*
X218354759Y-112801400D01*
X218337363Y-112978027D01*
X218285843Y-113147866D01*
X218202178Y-113304391D01*
X218172848Y-113340129D01*
X218089586Y-113441586D01*
X217988129Y-113524848D01*
X217952391Y-113554178D01*
X217795866Y-113637843D01*
X217626027Y-113689363D01*
X217559843Y-113695881D01*
X217493660Y-113702400D01*
X217405140Y-113702400D01*
X217338957Y-113695881D01*
X217272773Y-113689363D01*
X217102934Y-113637843D01*
X216946409Y-113554178D01*
X216910671Y-113524848D01*
X216809214Y-113441586D01*
X216725952Y-113340129D01*
X216696622Y-113304391D01*
X216612957Y-113147866D01*
X216561437Y-112978027D01*
X216544041Y-112801400D01*
X216561437Y-112624773D01*
X216612957Y-112454934D01*
X216696622Y-112298409D01*
X216738313Y-112247609D01*
X216809214Y-112161214D01*
X216910671Y-112077952D01*
X216946409Y-112048622D01*
X217102934Y-111964957D01*
X217272773Y-111913437D01*
X217338957Y-111906919D01*
X217405140Y-111900400D01*
X217493660Y-111900400D01*
X217559843Y-111906919D01*
X217559843Y-111906919D01*
G37*
G36*
X202878642Y-111856118D02*
G01*
X202944827Y-111862637D01*
X203114666Y-111914157D01*
X203271191Y-111997822D01*
X203306929Y-112027152D01*
X203408386Y-112110414D01*
X203491648Y-112211871D01*
X203520978Y-112247609D01*
X203604643Y-112404134D01*
X203656163Y-112573973D01*
X203673559Y-112750600D01*
X203656163Y-112927227D01*
X203604643Y-113097066D01*
X203520978Y-113253591D01*
X203491648Y-113289329D01*
X203408386Y-113390786D01*
X203306929Y-113474048D01*
X203271191Y-113503378D01*
X203114666Y-113587043D01*
X202944827Y-113638563D01*
X202878642Y-113645082D01*
X202812460Y-113651600D01*
X202723940Y-113651600D01*
X202657758Y-113645082D01*
X202591573Y-113638563D01*
X202421734Y-113587043D01*
X202265209Y-113503378D01*
X202229471Y-113474048D01*
X202128014Y-113390786D01*
X202044752Y-113289329D01*
X202015422Y-113253591D01*
X201931757Y-113097066D01*
X201880237Y-112927227D01*
X201862841Y-112750600D01*
X201880237Y-112573973D01*
X201931757Y-112404134D01*
X202015422Y-112247609D01*
X202044752Y-112211871D01*
X202128014Y-112110414D01*
X202229471Y-112027152D01*
X202265209Y-111997822D01*
X202421734Y-111914157D01*
X202591573Y-111862637D01*
X202657758Y-111856118D01*
X202723940Y-111849600D01*
X202812460Y-111849600D01*
X202878642Y-111856118D01*
X202878642Y-111856118D01*
G37*
G36*
X200338642Y-111856118D02*
G01*
X200404827Y-111862637D01*
X200574666Y-111914157D01*
X200731191Y-111997822D01*
X200766929Y-112027152D01*
X200868386Y-112110414D01*
X200951648Y-112211871D01*
X200980978Y-112247609D01*
X201064643Y-112404134D01*
X201116163Y-112573973D01*
X201133559Y-112750600D01*
X201116163Y-112927227D01*
X201064643Y-113097066D01*
X200980978Y-113253591D01*
X200951648Y-113289329D01*
X200868386Y-113390786D01*
X200766929Y-113474048D01*
X200731191Y-113503378D01*
X200574666Y-113587043D01*
X200404827Y-113638563D01*
X200338642Y-113645082D01*
X200272460Y-113651600D01*
X200183940Y-113651600D01*
X200117758Y-113645082D01*
X200051573Y-113638563D01*
X199881734Y-113587043D01*
X199725209Y-113503378D01*
X199689471Y-113474048D01*
X199588014Y-113390786D01*
X199504752Y-113289329D01*
X199475422Y-113253591D01*
X199391757Y-113097066D01*
X199340237Y-112927227D01*
X199322841Y-112750600D01*
X199340237Y-112573973D01*
X199391757Y-112404134D01*
X199475422Y-112247609D01*
X199504752Y-112211871D01*
X199588014Y-112110414D01*
X199689471Y-112027152D01*
X199725209Y-111997822D01*
X199881734Y-111914157D01*
X200051573Y-111862637D01*
X200117758Y-111856118D01*
X200183940Y-111849600D01*
X200272460Y-111849600D01*
X200338642Y-111856118D01*
X200338642Y-111856118D01*
G37*
G36*
X207758600Y-113651600D02*
G01*
X205956600Y-113651600D01*
X205956600Y-111849600D01*
X207758600Y-111849600D01*
X207758600Y-113651600D01*
X207758600Y-113651600D01*
G37*
G36*
X209508042Y-111856118D02*
G01*
X209574227Y-111862637D01*
X209744066Y-111914157D01*
X209900591Y-111997822D01*
X209936329Y-112027152D01*
X210037786Y-112110414D01*
X210121048Y-112211871D01*
X210150378Y-112247609D01*
X210234043Y-112404134D01*
X210285563Y-112573973D01*
X210302959Y-112750600D01*
X210285563Y-112927227D01*
X210234043Y-113097066D01*
X210150378Y-113253591D01*
X210121048Y-113289329D01*
X210037786Y-113390786D01*
X209936329Y-113474048D01*
X209900591Y-113503378D01*
X209744066Y-113587043D01*
X209574227Y-113638563D01*
X209508042Y-113645082D01*
X209441860Y-113651600D01*
X209353340Y-113651600D01*
X209287158Y-113645082D01*
X209220973Y-113638563D01*
X209051134Y-113587043D01*
X208894609Y-113503378D01*
X208858871Y-113474048D01*
X208757414Y-113390786D01*
X208674152Y-113289329D01*
X208644822Y-113253591D01*
X208561157Y-113097066D01*
X208509637Y-112927227D01*
X208492241Y-112750600D01*
X208509637Y-112573973D01*
X208561157Y-112404134D01*
X208644822Y-112247609D01*
X208674152Y-112211871D01*
X208757414Y-112110414D01*
X208858871Y-112027152D01*
X208894609Y-111997822D01*
X209051134Y-111914157D01*
X209220973Y-111862637D01*
X209287158Y-111856118D01*
X209353340Y-111849600D01*
X209441860Y-111849600D01*
X209508042Y-111856118D01*
X209508042Y-111856118D01*
G37*
G36*
X212048042Y-111856118D02*
G01*
X212114227Y-111862637D01*
X212284066Y-111914157D01*
X212440591Y-111997822D01*
X212476329Y-112027152D01*
X212577786Y-112110414D01*
X212661048Y-112211871D01*
X212690378Y-112247609D01*
X212774043Y-112404134D01*
X212825563Y-112573973D01*
X212842959Y-112750600D01*
X212825563Y-112927227D01*
X212774043Y-113097066D01*
X212690378Y-113253591D01*
X212661048Y-113289329D01*
X212577786Y-113390786D01*
X212476329Y-113474048D01*
X212440591Y-113503378D01*
X212284066Y-113587043D01*
X212114227Y-113638563D01*
X212048042Y-113645082D01*
X211981860Y-113651600D01*
X211893340Y-113651600D01*
X211827158Y-113645082D01*
X211760973Y-113638563D01*
X211591134Y-113587043D01*
X211434609Y-113503378D01*
X211398871Y-113474048D01*
X211297414Y-113390786D01*
X211214152Y-113289329D01*
X211184822Y-113253591D01*
X211101157Y-113097066D01*
X211049637Y-112927227D01*
X211032241Y-112750600D01*
X211049637Y-112573973D01*
X211101157Y-112404134D01*
X211184822Y-112247609D01*
X211214152Y-112211871D01*
X211297414Y-112110414D01*
X211398871Y-112027152D01*
X211434609Y-111997822D01*
X211591134Y-111914157D01*
X211760973Y-111862637D01*
X211827158Y-111856118D01*
X211893340Y-111849600D01*
X211981860Y-111849600D01*
X212048042Y-111856118D01*
X212048042Y-111856118D01*
G37*
G36*
X198589200Y-113651600D02*
G01*
X196787200Y-113651600D01*
X196787200Y-111849600D01*
X198589200Y-111849600D01*
X198589200Y-113651600D01*
X198589200Y-113651600D01*
G37*
G36*
X192780228Y-109925703D02*
G01*
X192935100Y-109989853D01*
X193074481Y-110082985D01*
X193193015Y-110201519D01*
X193286147Y-110340900D01*
X193350297Y-110495772D01*
X193383000Y-110660184D01*
X193383000Y-110827816D01*
X193350297Y-110992228D01*
X193286147Y-111147100D01*
X193193015Y-111286481D01*
X193074481Y-111405015D01*
X192935100Y-111498147D01*
X192780228Y-111562297D01*
X192615816Y-111595000D01*
X192448184Y-111595000D01*
X192283772Y-111562297D01*
X192128900Y-111498147D01*
X191989519Y-111405015D01*
X191870985Y-111286481D01*
X191777853Y-111147100D01*
X191713703Y-110992228D01*
X191681000Y-110827816D01*
X191681000Y-110660184D01*
X191713703Y-110495772D01*
X191777853Y-110340900D01*
X191870985Y-110201519D01*
X191989519Y-110082985D01*
X192128900Y-109989853D01*
X192283772Y-109925703D01*
X192448184Y-109893000D01*
X192615816Y-109893000D01*
X192780228Y-109925703D01*
X192780228Y-109925703D01*
G37*
G36*
X177540228Y-109925703D02*
G01*
X177695100Y-109989853D01*
X177834481Y-110082985D01*
X177953015Y-110201519D01*
X178046147Y-110340900D01*
X178110297Y-110495772D01*
X178143000Y-110660184D01*
X178143000Y-110827816D01*
X178110297Y-110992228D01*
X178046147Y-111147100D01*
X177953015Y-111286481D01*
X177834481Y-111405015D01*
X177695100Y-111498147D01*
X177540228Y-111562297D01*
X177375816Y-111595000D01*
X177208184Y-111595000D01*
X177043772Y-111562297D01*
X176888900Y-111498147D01*
X176749519Y-111405015D01*
X176630985Y-111286481D01*
X176537853Y-111147100D01*
X176473703Y-110992228D01*
X176441000Y-110827816D01*
X176441000Y-110660184D01*
X176473703Y-110495772D01*
X176537853Y-110340900D01*
X176630985Y-110201519D01*
X176749519Y-110082985D01*
X176888900Y-109989853D01*
X177043772Y-109925703D01*
X177208184Y-109893000D01*
X177375816Y-109893000D01*
X177540228Y-109925703D01*
X177540228Y-109925703D01*
G37*
G36*
X217559842Y-109366918D02*
G01*
X217626027Y-109373437D01*
X217795866Y-109424957D01*
X217952391Y-109508622D01*
X217988129Y-109537952D01*
X218089586Y-109621214D01*
X218160487Y-109707609D01*
X218202178Y-109758409D01*
X218202179Y-109758411D01*
X218280562Y-109905053D01*
X218285843Y-109914934D01*
X218337363Y-110084773D01*
X218354759Y-110261400D01*
X218337363Y-110438027D01*
X218285843Y-110607866D01*
X218202178Y-110764391D01*
X218181982Y-110789000D01*
X218089586Y-110901586D01*
X218000167Y-110974969D01*
X217952391Y-111014178D01*
X217795866Y-111097843D01*
X217626027Y-111149363D01*
X217559843Y-111155881D01*
X217493660Y-111162400D01*
X217405140Y-111162400D01*
X217338957Y-111155881D01*
X217272773Y-111149363D01*
X217102934Y-111097843D01*
X216946409Y-111014178D01*
X216898633Y-110974969D01*
X216809214Y-110901586D01*
X216716818Y-110789000D01*
X216696622Y-110764391D01*
X216612957Y-110607866D01*
X216561437Y-110438027D01*
X216544041Y-110261400D01*
X216561437Y-110084773D01*
X216612957Y-109914934D01*
X216618239Y-109905053D01*
X216696621Y-109758411D01*
X216696622Y-109758409D01*
X216738313Y-109707609D01*
X216809214Y-109621214D01*
X216910671Y-109537952D01*
X216946409Y-109508622D01*
X217102934Y-109424957D01*
X217272773Y-109373437D01*
X217338958Y-109366918D01*
X217405140Y-109360400D01*
X217493660Y-109360400D01*
X217559842Y-109366918D01*
X217559842Y-109366918D01*
G37*
G36*
X206968043Y-109316119D02*
G01*
X207034227Y-109322637D01*
X207204066Y-109374157D01*
X207360591Y-109457822D01*
X207396329Y-109487152D01*
X207497786Y-109570414D01*
X207581048Y-109671871D01*
X207610378Y-109707609D01*
X207694043Y-109864134D01*
X207745563Y-110033973D01*
X207762959Y-110210600D01*
X207745563Y-110387227D01*
X207694043Y-110557066D01*
X207610378Y-110713591D01*
X207581048Y-110749329D01*
X207497786Y-110850786D01*
X207403705Y-110927995D01*
X207360591Y-110963378D01*
X207204066Y-111047043D01*
X207034227Y-111098563D01*
X206968042Y-111105082D01*
X206901860Y-111111600D01*
X206813340Y-111111600D01*
X206747158Y-111105082D01*
X206680973Y-111098563D01*
X206511134Y-111047043D01*
X206354609Y-110963378D01*
X206311495Y-110927995D01*
X206217414Y-110850786D01*
X206134152Y-110749329D01*
X206104822Y-110713591D01*
X206021157Y-110557066D01*
X205969637Y-110387227D01*
X205952241Y-110210600D01*
X205969637Y-110033973D01*
X206021157Y-109864134D01*
X206104822Y-109707609D01*
X206134152Y-109671871D01*
X206217414Y-109570414D01*
X206318871Y-109487152D01*
X206354609Y-109457822D01*
X206511134Y-109374157D01*
X206680973Y-109322637D01*
X206747157Y-109316119D01*
X206813340Y-109309600D01*
X206901860Y-109309600D01*
X206968043Y-109316119D01*
X206968043Y-109316119D01*
G37*
G36*
X212048043Y-109316119D02*
G01*
X212114227Y-109322637D01*
X212284066Y-109374157D01*
X212440591Y-109457822D01*
X212476329Y-109487152D01*
X212577786Y-109570414D01*
X212661048Y-109671871D01*
X212690378Y-109707609D01*
X212774043Y-109864134D01*
X212825563Y-110033973D01*
X212842959Y-110210600D01*
X212825563Y-110387227D01*
X212774043Y-110557066D01*
X212690378Y-110713591D01*
X212661048Y-110749329D01*
X212577786Y-110850786D01*
X212483705Y-110927995D01*
X212440591Y-110963378D01*
X212284066Y-111047043D01*
X212114227Y-111098563D01*
X212048042Y-111105082D01*
X211981860Y-111111600D01*
X211893340Y-111111600D01*
X211827158Y-111105082D01*
X211760973Y-111098563D01*
X211591134Y-111047043D01*
X211434609Y-110963378D01*
X211391495Y-110927995D01*
X211297414Y-110850786D01*
X211214152Y-110749329D01*
X211184822Y-110713591D01*
X211101157Y-110557066D01*
X211049637Y-110387227D01*
X211032241Y-110210600D01*
X211049637Y-110033973D01*
X211101157Y-109864134D01*
X211184822Y-109707609D01*
X211214152Y-109671871D01*
X211297414Y-109570414D01*
X211398871Y-109487152D01*
X211434609Y-109457822D01*
X211591134Y-109374157D01*
X211760973Y-109322637D01*
X211827157Y-109316119D01*
X211893340Y-109309600D01*
X211981860Y-109309600D01*
X212048043Y-109316119D01*
X212048043Y-109316119D01*
G37*
G36*
X197798643Y-109316119D02*
G01*
X197864827Y-109322637D01*
X198034666Y-109374157D01*
X198191191Y-109457822D01*
X198226929Y-109487152D01*
X198328386Y-109570414D01*
X198411648Y-109671871D01*
X198440978Y-109707609D01*
X198524643Y-109864134D01*
X198576163Y-110033973D01*
X198593559Y-110210600D01*
X198576163Y-110387227D01*
X198524643Y-110557066D01*
X198440978Y-110713591D01*
X198411648Y-110749329D01*
X198328386Y-110850786D01*
X198234305Y-110927995D01*
X198191191Y-110963378D01*
X198034666Y-111047043D01*
X197864827Y-111098563D01*
X197798642Y-111105082D01*
X197732460Y-111111600D01*
X197643940Y-111111600D01*
X197577758Y-111105082D01*
X197511573Y-111098563D01*
X197341734Y-111047043D01*
X197185209Y-110963378D01*
X197142095Y-110927995D01*
X197048014Y-110850786D01*
X196964752Y-110749329D01*
X196935422Y-110713591D01*
X196851757Y-110557066D01*
X196800237Y-110387227D01*
X196782841Y-110210600D01*
X196800237Y-110033973D01*
X196851757Y-109864134D01*
X196935422Y-109707609D01*
X196964752Y-109671871D01*
X197048014Y-109570414D01*
X197149471Y-109487152D01*
X197185209Y-109457822D01*
X197341734Y-109374157D01*
X197511573Y-109322637D01*
X197577757Y-109316119D01*
X197643940Y-109309600D01*
X197732460Y-109309600D01*
X197798643Y-109316119D01*
X197798643Y-109316119D01*
G37*
G36*
X209508043Y-109316119D02*
G01*
X209574227Y-109322637D01*
X209744066Y-109374157D01*
X209900591Y-109457822D01*
X209936329Y-109487152D01*
X210037786Y-109570414D01*
X210121048Y-109671871D01*
X210150378Y-109707609D01*
X210234043Y-109864134D01*
X210285563Y-110033973D01*
X210302959Y-110210600D01*
X210285563Y-110387227D01*
X210234043Y-110557066D01*
X210150378Y-110713591D01*
X210121048Y-110749329D01*
X210037786Y-110850786D01*
X209943705Y-110927995D01*
X209900591Y-110963378D01*
X209744066Y-111047043D01*
X209574227Y-111098563D01*
X209508042Y-111105082D01*
X209441860Y-111111600D01*
X209353340Y-111111600D01*
X209287158Y-111105082D01*
X209220973Y-111098563D01*
X209051134Y-111047043D01*
X208894609Y-110963378D01*
X208851495Y-110927995D01*
X208757414Y-110850786D01*
X208674152Y-110749329D01*
X208644822Y-110713591D01*
X208561157Y-110557066D01*
X208509637Y-110387227D01*
X208492241Y-110210600D01*
X208509637Y-110033973D01*
X208561157Y-109864134D01*
X208644822Y-109707609D01*
X208674152Y-109671871D01*
X208757414Y-109570414D01*
X208858871Y-109487152D01*
X208894609Y-109457822D01*
X209051134Y-109374157D01*
X209220973Y-109322637D01*
X209287157Y-109316119D01*
X209353340Y-109309600D01*
X209441860Y-109309600D01*
X209508043Y-109316119D01*
X209508043Y-109316119D01*
G37*
G36*
X200338643Y-109316119D02*
G01*
X200404827Y-109322637D01*
X200574666Y-109374157D01*
X200731191Y-109457822D01*
X200766929Y-109487152D01*
X200868386Y-109570414D01*
X200951648Y-109671871D01*
X200980978Y-109707609D01*
X201064643Y-109864134D01*
X201116163Y-110033973D01*
X201133559Y-110210600D01*
X201116163Y-110387227D01*
X201064643Y-110557066D01*
X200980978Y-110713591D01*
X200951648Y-110749329D01*
X200868386Y-110850786D01*
X200774305Y-110927995D01*
X200731191Y-110963378D01*
X200574666Y-111047043D01*
X200404827Y-111098563D01*
X200338642Y-111105082D01*
X200272460Y-111111600D01*
X200183940Y-111111600D01*
X200117758Y-111105082D01*
X200051573Y-111098563D01*
X199881734Y-111047043D01*
X199725209Y-110963378D01*
X199682095Y-110927995D01*
X199588014Y-110850786D01*
X199504752Y-110749329D01*
X199475422Y-110713591D01*
X199391757Y-110557066D01*
X199340237Y-110387227D01*
X199322841Y-110210600D01*
X199340237Y-110033973D01*
X199391757Y-109864134D01*
X199475422Y-109707609D01*
X199504752Y-109671871D01*
X199588014Y-109570414D01*
X199689471Y-109487152D01*
X199725209Y-109457822D01*
X199881734Y-109374157D01*
X200051573Y-109322637D01*
X200117757Y-109316119D01*
X200183940Y-109309600D01*
X200272460Y-109309600D01*
X200338643Y-109316119D01*
X200338643Y-109316119D01*
G37*
G36*
X202878643Y-109316119D02*
G01*
X202944827Y-109322637D01*
X203114666Y-109374157D01*
X203271191Y-109457822D01*
X203306929Y-109487152D01*
X203408386Y-109570414D01*
X203491648Y-109671871D01*
X203520978Y-109707609D01*
X203604643Y-109864134D01*
X203656163Y-110033973D01*
X203673559Y-110210600D01*
X203656163Y-110387227D01*
X203604643Y-110557066D01*
X203520978Y-110713591D01*
X203491648Y-110749329D01*
X203408386Y-110850786D01*
X203314305Y-110927995D01*
X203271191Y-110963378D01*
X203114666Y-111047043D01*
X202944827Y-111098563D01*
X202878642Y-111105082D01*
X202812460Y-111111600D01*
X202723940Y-111111600D01*
X202657758Y-111105082D01*
X202591573Y-111098563D01*
X202421734Y-111047043D01*
X202265209Y-110963378D01*
X202222095Y-110927995D01*
X202128014Y-110850786D01*
X202044752Y-110749329D01*
X202015422Y-110713591D01*
X201931757Y-110557066D01*
X201880237Y-110387227D01*
X201862841Y-110210600D01*
X201880237Y-110033973D01*
X201931757Y-109864134D01*
X202015422Y-109707609D01*
X202044752Y-109671871D01*
X202128014Y-109570414D01*
X202229471Y-109487152D01*
X202265209Y-109457822D01*
X202421734Y-109374157D01*
X202591573Y-109322637D01*
X202657757Y-109316119D01*
X202723940Y-109309600D01*
X202812460Y-109309600D01*
X202878643Y-109316119D01*
X202878643Y-109316119D01*
G37*
G36*
X167191699Y-109904445D02*
G01*
X167229195Y-109915820D01*
X167263754Y-109934292D01*
X167294047Y-109959153D01*
X167318908Y-109989446D01*
X167337380Y-110024005D01*
X167348755Y-110061501D01*
X167353200Y-110106638D01*
X167353200Y-110845362D01*
X167348755Y-110890499D01*
X167337380Y-110927995D01*
X167318908Y-110962554D01*
X167294047Y-110992847D01*
X167263754Y-111017708D01*
X167229195Y-111036180D01*
X167191699Y-111047555D01*
X167146562Y-111052000D01*
X166507838Y-111052000D01*
X166462701Y-111047555D01*
X166425205Y-111036180D01*
X166390646Y-111017708D01*
X166360353Y-110992847D01*
X166335492Y-110962554D01*
X166317020Y-110927995D01*
X166305645Y-110890499D01*
X166301200Y-110845362D01*
X166301200Y-110106638D01*
X166305645Y-110061501D01*
X166317020Y-110024005D01*
X166335492Y-109989446D01*
X166360353Y-109959153D01*
X166390646Y-109934292D01*
X166425205Y-109915820D01*
X166462701Y-109904445D01*
X166507838Y-109900000D01*
X167146562Y-109900000D01*
X167191699Y-109904445D01*
X167191699Y-109904445D01*
G37*
G36*
X164400800Y-109917800D02*
G01*
X162598800Y-109917800D01*
X162598800Y-108115800D01*
X164400800Y-108115800D01*
X164400800Y-109917800D01*
X164400800Y-109917800D01*
G37*
G36*
X167191699Y-108154445D02*
G01*
X167229195Y-108165820D01*
X167263754Y-108184292D01*
X167294047Y-108209153D01*
X167318908Y-108239446D01*
X167337380Y-108274005D01*
X167348755Y-108311501D01*
X167353200Y-108356638D01*
X167353200Y-109095362D01*
X167348755Y-109140499D01*
X167337380Y-109177995D01*
X167318908Y-109212554D01*
X167294047Y-109242847D01*
X167263754Y-109267708D01*
X167229195Y-109286180D01*
X167191699Y-109297555D01*
X167146562Y-109302000D01*
X166507838Y-109302000D01*
X166462701Y-109297555D01*
X166425205Y-109286180D01*
X166390646Y-109267708D01*
X166360353Y-109242847D01*
X166335492Y-109212554D01*
X166317020Y-109177995D01*
X166305645Y-109140499D01*
X166301200Y-109095362D01*
X166301200Y-108356638D01*
X166305645Y-108311501D01*
X166317020Y-108274005D01*
X166335492Y-108239446D01*
X166360353Y-108209153D01*
X166390646Y-108184292D01*
X166425205Y-108165820D01*
X166462701Y-108154445D01*
X166507838Y-108150000D01*
X167146562Y-108150000D01*
X167191699Y-108154445D01*
X167191699Y-108154445D01*
G37*
G36*
X192780228Y-107385703D02*
G01*
X192935100Y-107449853D01*
X193074481Y-107542985D01*
X193193015Y-107661519D01*
X193286147Y-107800900D01*
X193350297Y-107955772D01*
X193383000Y-108120184D01*
X193383000Y-108287816D01*
X193350297Y-108452228D01*
X193286147Y-108607100D01*
X193193015Y-108746481D01*
X193074481Y-108865015D01*
X192935100Y-108958147D01*
X192780228Y-109022297D01*
X192615816Y-109055000D01*
X192448184Y-109055000D01*
X192283772Y-109022297D01*
X192128900Y-108958147D01*
X191989519Y-108865015D01*
X191870985Y-108746481D01*
X191777853Y-108607100D01*
X191713703Y-108452228D01*
X191681000Y-108287816D01*
X191681000Y-108120184D01*
X191713703Y-107955772D01*
X191777853Y-107800900D01*
X191870985Y-107661519D01*
X191989519Y-107542985D01*
X192128900Y-107449853D01*
X192283772Y-107385703D01*
X192448184Y-107353000D01*
X192615816Y-107353000D01*
X192780228Y-107385703D01*
X192780228Y-107385703D01*
G37*
G36*
X177540228Y-107385703D02*
G01*
X177695100Y-107449853D01*
X177834481Y-107542985D01*
X177953015Y-107661519D01*
X178046147Y-107800900D01*
X178110297Y-107955772D01*
X178143000Y-108120184D01*
X178143000Y-108287816D01*
X178110297Y-108452228D01*
X178046147Y-108607100D01*
X177953015Y-108746481D01*
X177834481Y-108865015D01*
X177695100Y-108958147D01*
X177540228Y-109022297D01*
X177375816Y-109055000D01*
X177208184Y-109055000D01*
X177043772Y-109022297D01*
X176888900Y-108958147D01*
X176749519Y-108865015D01*
X176630985Y-108746481D01*
X176537853Y-108607100D01*
X176473703Y-108452228D01*
X176441000Y-108287816D01*
X176441000Y-108120184D01*
X176473703Y-107955772D01*
X176537853Y-107800900D01*
X176630985Y-107661519D01*
X176749519Y-107542985D01*
X176888900Y-107449853D01*
X177043772Y-107385703D01*
X177208184Y-107353000D01*
X177375816Y-107353000D01*
X177540228Y-107385703D01*
X177540228Y-107385703D01*
G37*
G36*
X217559842Y-106826918D02*
G01*
X217626027Y-106833437D01*
X217795866Y-106884957D01*
X217952391Y-106968622D01*
X217966000Y-106979791D01*
X218089586Y-107081214D01*
X218165307Y-107173482D01*
X218202178Y-107218409D01*
X218209700Y-107232482D01*
X218280407Y-107364763D01*
X218285843Y-107374934D01*
X218337363Y-107544773D01*
X218354759Y-107721400D01*
X218337363Y-107898027D01*
X218285843Y-108067866D01*
X218202178Y-108224391D01*
X218172848Y-108260129D01*
X218089586Y-108361586D01*
X217988129Y-108444848D01*
X217952391Y-108474178D01*
X217795866Y-108557843D01*
X217626027Y-108609363D01*
X217559843Y-108615881D01*
X217493660Y-108622400D01*
X217405140Y-108622400D01*
X217338957Y-108615881D01*
X217272773Y-108609363D01*
X217102934Y-108557843D01*
X216946409Y-108474178D01*
X216910671Y-108444848D01*
X216809214Y-108361586D01*
X216725952Y-108260129D01*
X216696622Y-108224391D01*
X216612957Y-108067866D01*
X216561437Y-107898027D01*
X216544041Y-107721400D01*
X216561437Y-107544773D01*
X216612957Y-107374934D01*
X216618394Y-107364763D01*
X216689100Y-107232482D01*
X216696622Y-107218409D01*
X216733493Y-107173482D01*
X216809214Y-107081214D01*
X216932800Y-106979791D01*
X216946409Y-106968622D01*
X217102934Y-106884957D01*
X217272773Y-106833437D01*
X217338958Y-106826918D01*
X217405140Y-106820400D01*
X217493660Y-106820400D01*
X217559842Y-106826918D01*
X217559842Y-106826918D01*
G37*
G36*
X163610242Y-105582318D02*
G01*
X163676427Y-105588837D01*
X163846266Y-105640357D01*
X164002791Y-105724022D01*
X164031783Y-105747815D01*
X164139986Y-105836614D01*
X164223248Y-105938071D01*
X164252578Y-105973809D01*
X164336243Y-106130334D01*
X164387763Y-106300173D01*
X164405159Y-106476800D01*
X164387763Y-106653427D01*
X164337112Y-106820400D01*
X164336242Y-106823268D01*
X164303268Y-106884957D01*
X164252578Y-106979791D01*
X164223248Y-107015529D01*
X164139986Y-107116986D01*
X164071144Y-107173482D01*
X164002791Y-107229578D01*
X163846266Y-107313243D01*
X163676427Y-107364763D01*
X163610242Y-107371282D01*
X163544060Y-107377800D01*
X163455540Y-107377800D01*
X163389358Y-107371282D01*
X163323173Y-107364763D01*
X163153334Y-107313243D01*
X162996809Y-107229578D01*
X162928456Y-107173482D01*
X162859614Y-107116986D01*
X162776352Y-107015529D01*
X162747022Y-106979791D01*
X162696332Y-106884957D01*
X162663358Y-106823268D01*
X162662488Y-106820400D01*
X162611837Y-106653427D01*
X162594441Y-106476800D01*
X162611837Y-106300173D01*
X162663357Y-106130334D01*
X162747022Y-105973809D01*
X162776352Y-105938071D01*
X162859614Y-105836614D01*
X162967817Y-105747815D01*
X162996809Y-105724022D01*
X163153334Y-105640357D01*
X163323173Y-105588837D01*
X163389358Y-105582318D01*
X163455540Y-105575800D01*
X163544060Y-105575800D01*
X163610242Y-105582318D01*
X163610242Y-105582318D01*
G37*
G36*
X169357274Y-105755665D02*
G01*
X169394967Y-105767099D01*
X169429703Y-105785666D01*
X169460148Y-105810652D01*
X169485134Y-105841097D01*
X169503701Y-105875833D01*
X169515135Y-105913526D01*
X169519600Y-105958861D01*
X169519600Y-107045539D01*
X169515135Y-107090874D01*
X169503701Y-107128567D01*
X169485134Y-107163303D01*
X169460148Y-107193748D01*
X169429703Y-107218734D01*
X169394967Y-107237301D01*
X169357274Y-107248735D01*
X169311939Y-107253200D01*
X168475261Y-107253200D01*
X168429926Y-107248735D01*
X168392233Y-107237301D01*
X168357497Y-107218734D01*
X168327052Y-107193748D01*
X168302066Y-107163303D01*
X168283499Y-107128567D01*
X168272065Y-107090874D01*
X168267600Y-107045539D01*
X168267600Y-105958861D01*
X168272065Y-105913526D01*
X168283499Y-105875833D01*
X168302066Y-105841097D01*
X168327052Y-105810652D01*
X168357497Y-105785666D01*
X168392233Y-105767099D01*
X168429926Y-105755665D01*
X168475261Y-105751200D01*
X169311939Y-105751200D01*
X169357274Y-105755665D01*
X169357274Y-105755665D01*
G37*
G36*
X167307274Y-105755665D02*
G01*
X167344967Y-105767099D01*
X167379703Y-105785666D01*
X167410148Y-105810652D01*
X167435134Y-105841097D01*
X167453701Y-105875833D01*
X167465135Y-105913526D01*
X167469600Y-105958861D01*
X167469600Y-107045539D01*
X167465135Y-107090874D01*
X167453701Y-107128567D01*
X167435134Y-107163303D01*
X167410148Y-107193748D01*
X167379703Y-107218734D01*
X167344967Y-107237301D01*
X167307274Y-107248735D01*
X167261939Y-107253200D01*
X166425261Y-107253200D01*
X166379926Y-107248735D01*
X166342233Y-107237301D01*
X166307497Y-107218734D01*
X166277052Y-107193748D01*
X166252066Y-107163303D01*
X166233499Y-107128567D01*
X166222065Y-107090874D01*
X166217600Y-107045539D01*
X166217600Y-105958861D01*
X166222065Y-105913526D01*
X166233499Y-105875833D01*
X166252066Y-105841097D01*
X166277052Y-105810652D01*
X166307497Y-105785666D01*
X166342233Y-105767099D01*
X166379926Y-105755665D01*
X166425261Y-105751200D01*
X167261939Y-105751200D01*
X167307274Y-105755665D01*
X167307274Y-105755665D01*
G37*
G36*
X192780228Y-104845703D02*
G01*
X192935100Y-104909853D01*
X193074481Y-105002985D01*
X193193015Y-105121519D01*
X193286147Y-105260900D01*
X193350297Y-105415772D01*
X193383000Y-105580184D01*
X193383000Y-105747816D01*
X193350297Y-105912228D01*
X193286147Y-106067100D01*
X193193015Y-106206481D01*
X193074481Y-106325015D01*
X192935100Y-106418147D01*
X192780228Y-106482297D01*
X192615816Y-106515000D01*
X192448184Y-106515000D01*
X192283772Y-106482297D01*
X192128900Y-106418147D01*
X191989519Y-106325015D01*
X191870985Y-106206481D01*
X191777853Y-106067100D01*
X191713703Y-105912228D01*
X191681000Y-105747816D01*
X191681000Y-105580184D01*
X191713703Y-105415772D01*
X191777853Y-105260900D01*
X191870985Y-105121519D01*
X191989519Y-105002985D01*
X192128900Y-104909853D01*
X192283772Y-104845703D01*
X192448184Y-104813000D01*
X192615816Y-104813000D01*
X192780228Y-104845703D01*
X192780228Y-104845703D01*
G37*
G36*
X177540228Y-104845703D02*
G01*
X177695100Y-104909853D01*
X177834481Y-105002985D01*
X177953015Y-105121519D01*
X178046147Y-105260900D01*
X178110297Y-105415772D01*
X178143000Y-105580184D01*
X178143000Y-105747816D01*
X178110297Y-105912228D01*
X178046147Y-106067100D01*
X177953015Y-106206481D01*
X177834481Y-106325015D01*
X177695100Y-106418147D01*
X177540228Y-106482297D01*
X177375816Y-106515000D01*
X177208184Y-106515000D01*
X177043772Y-106482297D01*
X176888900Y-106418147D01*
X176749519Y-106325015D01*
X176630985Y-106206481D01*
X176537853Y-106067100D01*
X176473703Y-105912228D01*
X176441000Y-105747816D01*
X176441000Y-105580184D01*
X176473703Y-105415772D01*
X176537853Y-105260900D01*
X176630985Y-105121519D01*
X176749519Y-105002985D01*
X176888900Y-104909853D01*
X177043772Y-104845703D01*
X177208184Y-104813000D01*
X177375816Y-104813000D01*
X177540228Y-104845703D01*
X177540228Y-104845703D01*
G37*
G36*
X218350400Y-106082400D02*
G01*
X216548400Y-106082400D01*
X216548400Y-104280400D01*
X218350400Y-104280400D01*
X218350400Y-106082400D01*
X218350400Y-106082400D01*
G37*
G36*
X198738600Y-105100600D02*
G01*
X196686600Y-105100600D01*
X196686600Y-104398600D01*
X198738600Y-104398600D01*
X198738600Y-105100600D01*
X198738600Y-105100600D01*
G37*
G36*
X208138600Y-105100600D02*
G01*
X206086600Y-105100600D01*
X206086600Y-104398600D01*
X208138600Y-104398600D01*
X208138600Y-105100600D01*
X208138600Y-105100600D01*
G37*
G36*
X163610243Y-103042319D02*
G01*
X163676427Y-103048837D01*
X163846266Y-103100357D01*
X164002791Y-103184022D01*
X164011330Y-103191030D01*
X164139986Y-103296614D01*
X164219465Y-103393461D01*
X164252578Y-103433809D01*
X164336243Y-103590334D01*
X164387763Y-103760173D01*
X164405159Y-103936800D01*
X164387763Y-104113427D01*
X164336243Y-104283266D01*
X164252578Y-104439791D01*
X164228832Y-104468725D01*
X164139986Y-104576986D01*
X164060849Y-104641931D01*
X164002791Y-104689578D01*
X163846266Y-104773243D01*
X163676427Y-104824763D01*
X163610243Y-104831281D01*
X163544060Y-104837800D01*
X163455540Y-104837800D01*
X163389357Y-104831281D01*
X163323173Y-104824763D01*
X163153334Y-104773243D01*
X162996809Y-104689578D01*
X162938751Y-104641931D01*
X162859614Y-104576986D01*
X162770768Y-104468725D01*
X162747022Y-104439791D01*
X162663357Y-104283266D01*
X162611837Y-104113427D01*
X162594441Y-103936800D01*
X162611837Y-103760173D01*
X162663357Y-103590334D01*
X162747022Y-103433809D01*
X162780135Y-103393461D01*
X162859614Y-103296614D01*
X162988270Y-103191030D01*
X162996809Y-103184022D01*
X163153334Y-103100357D01*
X163323173Y-103048837D01*
X163389357Y-103042319D01*
X163455540Y-103035800D01*
X163544060Y-103035800D01*
X163610243Y-103042319D01*
X163610243Y-103042319D01*
G37*
G36*
X169357274Y-103190265D02*
G01*
X169394967Y-103201699D01*
X169429703Y-103220266D01*
X169460148Y-103245252D01*
X169485134Y-103275697D01*
X169503701Y-103310433D01*
X169515135Y-103348126D01*
X169519600Y-103393461D01*
X169519600Y-104480139D01*
X169515135Y-104525474D01*
X169503701Y-104563167D01*
X169485134Y-104597903D01*
X169460148Y-104628348D01*
X169429703Y-104653334D01*
X169394967Y-104671901D01*
X169357274Y-104683335D01*
X169311939Y-104687800D01*
X168475261Y-104687800D01*
X168429926Y-104683335D01*
X168392233Y-104671901D01*
X168357497Y-104653334D01*
X168327052Y-104628348D01*
X168302066Y-104597903D01*
X168283499Y-104563167D01*
X168272065Y-104525474D01*
X168267600Y-104480139D01*
X168267600Y-103393461D01*
X168272065Y-103348126D01*
X168283499Y-103310433D01*
X168302066Y-103275697D01*
X168327052Y-103245252D01*
X168357497Y-103220266D01*
X168392233Y-103201699D01*
X168429926Y-103190265D01*
X168475261Y-103185800D01*
X169311939Y-103185800D01*
X169357274Y-103190265D01*
X169357274Y-103190265D01*
G37*
G36*
X167307274Y-103190265D02*
G01*
X167344967Y-103201699D01*
X167379703Y-103220266D01*
X167410148Y-103245252D01*
X167435134Y-103275697D01*
X167453701Y-103310433D01*
X167465135Y-103348126D01*
X167469600Y-103393461D01*
X167469600Y-104480139D01*
X167465135Y-104525474D01*
X167453701Y-104563167D01*
X167435134Y-104597903D01*
X167410148Y-104628348D01*
X167379703Y-104653334D01*
X167344967Y-104671901D01*
X167307274Y-104683335D01*
X167261939Y-104687800D01*
X166425261Y-104687800D01*
X166379926Y-104683335D01*
X166342233Y-104671901D01*
X166307497Y-104653334D01*
X166277052Y-104628348D01*
X166252066Y-104597903D01*
X166233499Y-104563167D01*
X166222065Y-104525474D01*
X166217600Y-104480139D01*
X166217600Y-103393461D01*
X166222065Y-103348126D01*
X166233499Y-103310433D01*
X166252066Y-103275697D01*
X166277052Y-103245252D01*
X166307497Y-103220266D01*
X166342233Y-103201699D01*
X166379926Y-103190265D01*
X166425261Y-103185800D01*
X167261939Y-103185800D01*
X167307274Y-103190265D01*
X167307274Y-103190265D01*
G37*
G36*
X192780228Y-102305703D02*
G01*
X192935100Y-102369853D01*
X193074481Y-102462985D01*
X193193015Y-102581519D01*
X193286147Y-102720900D01*
X193350297Y-102875772D01*
X193383000Y-103040184D01*
X193383000Y-103207816D01*
X193350297Y-103372228D01*
X193286147Y-103527100D01*
X193193015Y-103666481D01*
X193074481Y-103785015D01*
X192935100Y-103878147D01*
X192780228Y-103942297D01*
X192615816Y-103975000D01*
X192448184Y-103975000D01*
X192283772Y-103942297D01*
X192128900Y-103878147D01*
X191989519Y-103785015D01*
X191870985Y-103666481D01*
X191777853Y-103527100D01*
X191713703Y-103372228D01*
X191681000Y-103207816D01*
X191681000Y-103040184D01*
X191713703Y-102875772D01*
X191777853Y-102720900D01*
X191870985Y-102581519D01*
X191989519Y-102462985D01*
X192128900Y-102369853D01*
X192283772Y-102305703D01*
X192448184Y-102273000D01*
X192615816Y-102273000D01*
X192780228Y-102305703D01*
X192780228Y-102305703D01*
G37*
G36*
X177540228Y-102305703D02*
G01*
X177695100Y-102369853D01*
X177834481Y-102462985D01*
X177953015Y-102581519D01*
X178046147Y-102720900D01*
X178110297Y-102875772D01*
X178143000Y-103040184D01*
X178143000Y-103207816D01*
X178110297Y-103372228D01*
X178046147Y-103527100D01*
X177953015Y-103666481D01*
X177834481Y-103785015D01*
X177695100Y-103878147D01*
X177540228Y-103942297D01*
X177375816Y-103975000D01*
X177208184Y-103975000D01*
X177043772Y-103942297D01*
X176888900Y-103878147D01*
X176749519Y-103785015D01*
X176630985Y-103666481D01*
X176537853Y-103527100D01*
X176473703Y-103372228D01*
X176441000Y-103207816D01*
X176441000Y-103040184D01*
X176473703Y-102875772D01*
X176537853Y-102720900D01*
X176630985Y-102581519D01*
X176749519Y-102462985D01*
X176888900Y-102369853D01*
X177043772Y-102305703D01*
X177208184Y-102273000D01*
X177375816Y-102273000D01*
X177540228Y-102305703D01*
X177540228Y-102305703D01*
G37*
G36*
X208138600Y-103830600D02*
G01*
X206086600Y-103830600D01*
X206086600Y-103128600D01*
X208138600Y-103128600D01*
X208138600Y-103830600D01*
X208138600Y-103830600D01*
G37*
G36*
X198738600Y-103830600D02*
G01*
X196686600Y-103830600D01*
X196686600Y-103128600D01*
X198738600Y-103128600D01*
X198738600Y-103830600D01*
X198738600Y-103830600D01*
G37*
G36*
X198738600Y-102560600D02*
G01*
X196686600Y-102560600D01*
X196686600Y-101858600D01*
X198738600Y-101858600D01*
X198738600Y-102560600D01*
X198738600Y-102560600D01*
G37*
G36*
X208138600Y-102560600D02*
G01*
X206086600Y-102560600D01*
X206086600Y-101858600D01*
X208138600Y-101858600D01*
X208138600Y-102560600D01*
X208138600Y-102560600D01*
G37*
G36*
X217585243Y-100375319D02*
G01*
X217651427Y-100381837D01*
X217821266Y-100433357D01*
X217977791Y-100517022D01*
X218013529Y-100546352D01*
X218114986Y-100629614D01*
X218198248Y-100731071D01*
X218227578Y-100766809D01*
X218311243Y-100923334D01*
X218362763Y-101093173D01*
X218380159Y-101269800D01*
X218362763Y-101446427D01*
X218311243Y-101616266D01*
X218227578Y-101772791D01*
X218198248Y-101808529D01*
X218114986Y-101909986D01*
X218013529Y-101993248D01*
X217977791Y-102022578D01*
X217821266Y-102106243D01*
X217651427Y-102157763D01*
X217585243Y-102164281D01*
X217519060Y-102170800D01*
X217430540Y-102170800D01*
X217364357Y-102164281D01*
X217298173Y-102157763D01*
X217128334Y-102106243D01*
X216971809Y-102022578D01*
X216936071Y-101993248D01*
X216834614Y-101909986D01*
X216751352Y-101808529D01*
X216722022Y-101772791D01*
X216638357Y-101616266D01*
X216586837Y-101446427D01*
X216569441Y-101269800D01*
X216586837Y-101093173D01*
X216638357Y-100923334D01*
X216722022Y-100766809D01*
X216751352Y-100731071D01*
X216834614Y-100629614D01*
X216936071Y-100546352D01*
X216971809Y-100517022D01*
X217128334Y-100433357D01*
X217298173Y-100381837D01*
X217364357Y-100375319D01*
X217430540Y-100368800D01*
X217519060Y-100368800D01*
X217585243Y-100375319D01*
X217585243Y-100375319D01*
G37*
G36*
X192780228Y-99765703D02*
G01*
X192935100Y-99829853D01*
X193074481Y-99922985D01*
X193193015Y-100041519D01*
X193286147Y-100180900D01*
X193350297Y-100335772D01*
X193383000Y-100500184D01*
X193383000Y-100667816D01*
X193350297Y-100832228D01*
X193286147Y-100987100D01*
X193193015Y-101126481D01*
X193074481Y-101245015D01*
X192935100Y-101338147D01*
X192780228Y-101402297D01*
X192615816Y-101435000D01*
X192448184Y-101435000D01*
X192283772Y-101402297D01*
X192128900Y-101338147D01*
X191989519Y-101245015D01*
X191870985Y-101126481D01*
X191777853Y-100987100D01*
X191713703Y-100832228D01*
X191681000Y-100667816D01*
X191681000Y-100500184D01*
X191713703Y-100335772D01*
X191777853Y-100180900D01*
X191870985Y-100041519D01*
X191989519Y-99922985D01*
X192128900Y-99829853D01*
X192283772Y-99765703D01*
X192448184Y-99733000D01*
X192615816Y-99733000D01*
X192780228Y-99765703D01*
X192780228Y-99765703D01*
G37*
G36*
X177540228Y-99765703D02*
G01*
X177695100Y-99829853D01*
X177834481Y-99922985D01*
X177953015Y-100041519D01*
X178046147Y-100180900D01*
X178110297Y-100335772D01*
X178143000Y-100500184D01*
X178143000Y-100667816D01*
X178110297Y-100832228D01*
X178046147Y-100987100D01*
X177953015Y-101126481D01*
X177834481Y-101245015D01*
X177695100Y-101338147D01*
X177540228Y-101402297D01*
X177375816Y-101435000D01*
X177208184Y-101435000D01*
X177043772Y-101402297D01*
X176888900Y-101338147D01*
X176749519Y-101245015D01*
X176630985Y-101126481D01*
X176537853Y-100987100D01*
X176473703Y-100832228D01*
X176441000Y-100667816D01*
X176441000Y-100500184D01*
X176473703Y-100335772D01*
X176537853Y-100180900D01*
X176630985Y-100041519D01*
X176749519Y-99922985D01*
X176888900Y-99829853D01*
X177043772Y-99765703D01*
X177208184Y-99733000D01*
X177375816Y-99733000D01*
X177540228Y-99765703D01*
X177540228Y-99765703D01*
G37*
G36*
X208138600Y-101290600D02*
G01*
X206086600Y-101290600D01*
X206086600Y-100588600D01*
X208138600Y-100588600D01*
X208138600Y-101290600D01*
X208138600Y-101290600D01*
G37*
G36*
X198738600Y-101290600D02*
G01*
X196686600Y-101290600D01*
X196686600Y-100588600D01*
X198738600Y-100588600D01*
X198738600Y-101290600D01*
X198738600Y-101290600D01*
G37*
G36*
X164400800Y-100088000D02*
G01*
X162598800Y-100088000D01*
X162598800Y-98286000D01*
X164400800Y-98286000D01*
X164400800Y-100088000D01*
X164400800Y-100088000D01*
G37*
G36*
X208138600Y-100020600D02*
G01*
X206086600Y-100020600D01*
X206086600Y-99318600D01*
X208138600Y-99318600D01*
X208138600Y-100020600D01*
X208138600Y-100020600D01*
G37*
G36*
X198738600Y-100020600D02*
G01*
X196686600Y-100020600D01*
X196686600Y-99318600D01*
X198738600Y-99318600D01*
X198738600Y-100020600D01*
X198738600Y-100020600D01*
G37*
G36*
X217585242Y-97835318D02*
G01*
X217651427Y-97841837D01*
X217821266Y-97893357D01*
X217977791Y-97977022D01*
X218013529Y-98006352D01*
X218114986Y-98089614D01*
X218198248Y-98191071D01*
X218227578Y-98226809D01*
X218311243Y-98383334D01*
X218362763Y-98553173D01*
X218380159Y-98729800D01*
X218362763Y-98906427D01*
X218311243Y-99076266D01*
X218227578Y-99232791D01*
X218198248Y-99268529D01*
X218114986Y-99369986D01*
X218013529Y-99453248D01*
X217977791Y-99482578D01*
X217821266Y-99566243D01*
X217651427Y-99617763D01*
X217585243Y-99624281D01*
X217519060Y-99630800D01*
X217430540Y-99630800D01*
X217364358Y-99624282D01*
X217298173Y-99617763D01*
X217128334Y-99566243D01*
X216971809Y-99482578D01*
X216936071Y-99453248D01*
X216834614Y-99369986D01*
X216751352Y-99268529D01*
X216722022Y-99232791D01*
X216638357Y-99076266D01*
X216586837Y-98906427D01*
X216569441Y-98729800D01*
X216586837Y-98553173D01*
X216638357Y-98383334D01*
X216722022Y-98226809D01*
X216751352Y-98191071D01*
X216834614Y-98089614D01*
X216936071Y-98006352D01*
X216971809Y-97977022D01*
X217128334Y-97893357D01*
X217298173Y-97841837D01*
X217364358Y-97835318D01*
X217430540Y-97828800D01*
X217519060Y-97828800D01*
X217585242Y-97835318D01*
X217585242Y-97835318D01*
G37*
G36*
X177540228Y-97225703D02*
G01*
X177695100Y-97289853D01*
X177834481Y-97382985D01*
X177953015Y-97501519D01*
X178046147Y-97640900D01*
X178110297Y-97795772D01*
X178143000Y-97960184D01*
X178143000Y-98127816D01*
X178110297Y-98292228D01*
X178046147Y-98447100D01*
X177953015Y-98586481D01*
X177834481Y-98705015D01*
X177695100Y-98798147D01*
X177540228Y-98862297D01*
X177375816Y-98895000D01*
X177208184Y-98895000D01*
X177043772Y-98862297D01*
X176888900Y-98798147D01*
X176749519Y-98705015D01*
X176630985Y-98586481D01*
X176537853Y-98447100D01*
X176473703Y-98292228D01*
X176441000Y-98127816D01*
X176441000Y-97960184D01*
X176473703Y-97795772D01*
X176537853Y-97640900D01*
X176630985Y-97501519D01*
X176749519Y-97382985D01*
X176888900Y-97289853D01*
X177043772Y-97225703D01*
X177208184Y-97193000D01*
X177375816Y-97193000D01*
X177540228Y-97225703D01*
X177540228Y-97225703D01*
G37*
G36*
X192780228Y-97225703D02*
G01*
X192935100Y-97289853D01*
X193074481Y-97382985D01*
X193193015Y-97501519D01*
X193286147Y-97640900D01*
X193350297Y-97795772D01*
X193383000Y-97960184D01*
X193383000Y-98127816D01*
X193350297Y-98292228D01*
X193286147Y-98447100D01*
X193193015Y-98586481D01*
X193074481Y-98705015D01*
X192935100Y-98798147D01*
X192780228Y-98862297D01*
X192615816Y-98895000D01*
X192448184Y-98895000D01*
X192283772Y-98862297D01*
X192128900Y-98798147D01*
X191989519Y-98705015D01*
X191870985Y-98586481D01*
X191777853Y-98447100D01*
X191713703Y-98292228D01*
X191681000Y-98127816D01*
X191681000Y-97960184D01*
X191713703Y-97795772D01*
X191777853Y-97640900D01*
X191870985Y-97501519D01*
X191989519Y-97382985D01*
X192128900Y-97289853D01*
X192283772Y-97225703D01*
X192448184Y-97193000D01*
X192615816Y-97193000D01*
X192780228Y-97225703D01*
X192780228Y-97225703D01*
G37*
G36*
X198738600Y-98750600D02*
G01*
X196686600Y-98750600D01*
X196686600Y-98048600D01*
X198738600Y-98048600D01*
X198738600Y-98750600D01*
X198738600Y-98750600D01*
G37*
G36*
X208138600Y-98750600D02*
G01*
X206086600Y-98750600D01*
X206086600Y-98048600D01*
X208138600Y-98048600D01*
X208138600Y-98750600D01*
X208138600Y-98750600D01*
G37*
G36*
X163607293Y-95752228D02*
G01*
X163676427Y-95759037D01*
X163846266Y-95810557D01*
X164002791Y-95894222D01*
X164038529Y-95923552D01*
X164139986Y-96006814D01*
X164223248Y-96108271D01*
X164252578Y-96144009D01*
X164336243Y-96300534D01*
X164387763Y-96470373D01*
X164405159Y-96647000D01*
X164387763Y-96823627D01*
X164336243Y-96993466D01*
X164252578Y-97149991D01*
X164223248Y-97185729D01*
X164139986Y-97287186D01*
X164038529Y-97370448D01*
X164002791Y-97399778D01*
X163846266Y-97483443D01*
X163676427Y-97534963D01*
X163610242Y-97541482D01*
X163544060Y-97548000D01*
X163455540Y-97548000D01*
X163389358Y-97541482D01*
X163323173Y-97534963D01*
X163153334Y-97483443D01*
X162996809Y-97399778D01*
X162961071Y-97370448D01*
X162859614Y-97287186D01*
X162776352Y-97185729D01*
X162747022Y-97149991D01*
X162663357Y-96993466D01*
X162611837Y-96823627D01*
X162594441Y-96647000D01*
X162611837Y-96470373D01*
X162663357Y-96300534D01*
X162747022Y-96144009D01*
X162776352Y-96108271D01*
X162859614Y-96006814D01*
X162961071Y-95923552D01*
X162996809Y-95894222D01*
X163153334Y-95810557D01*
X163323173Y-95759037D01*
X163392307Y-95752228D01*
X163455540Y-95746000D01*
X163544060Y-95746000D01*
X163607293Y-95752228D01*
X163607293Y-95752228D01*
G37*
G36*
X208138600Y-97480600D02*
G01*
X206086600Y-97480600D01*
X206086600Y-96778600D01*
X208138600Y-96778600D01*
X208138600Y-97480600D01*
X208138600Y-97480600D01*
G37*
G36*
X198738600Y-97480600D02*
G01*
X196686600Y-97480600D01*
X196686600Y-96778600D01*
X198738600Y-96778600D01*
X198738600Y-97480600D01*
X198738600Y-97480600D01*
G37*
G36*
X217585242Y-95295318D02*
G01*
X217651427Y-95301837D01*
X217821266Y-95353357D01*
X217977791Y-95437022D01*
X218013529Y-95466352D01*
X218114986Y-95549614D01*
X218198248Y-95651071D01*
X218227578Y-95686809D01*
X218311243Y-95843334D01*
X218362763Y-96013173D01*
X218380159Y-96189800D01*
X218362763Y-96366427D01*
X218311243Y-96536266D01*
X218227578Y-96692791D01*
X218198248Y-96728529D01*
X218114986Y-96829986D01*
X218013529Y-96913248D01*
X217977791Y-96942578D01*
X217821266Y-97026243D01*
X217651427Y-97077763D01*
X217585242Y-97084282D01*
X217519060Y-97090800D01*
X217430540Y-97090800D01*
X217364358Y-97084282D01*
X217298173Y-97077763D01*
X217128334Y-97026243D01*
X216971809Y-96942578D01*
X216936071Y-96913248D01*
X216834614Y-96829986D01*
X216751352Y-96728529D01*
X216722022Y-96692791D01*
X216638357Y-96536266D01*
X216586837Y-96366427D01*
X216569441Y-96189800D01*
X216586837Y-96013173D01*
X216638357Y-95843334D01*
X216722022Y-95686809D01*
X216751352Y-95651071D01*
X216834614Y-95549614D01*
X216936071Y-95466352D01*
X216971809Y-95437022D01*
X217128334Y-95353357D01*
X217298173Y-95301837D01*
X217364358Y-95295318D01*
X217430540Y-95288800D01*
X217519060Y-95288800D01*
X217585242Y-95295318D01*
X217585242Y-95295318D01*
G37*
G36*
X192780228Y-94685703D02*
G01*
X192935100Y-94749853D01*
X193074481Y-94842985D01*
X193193015Y-94961519D01*
X193286147Y-95100900D01*
X193350297Y-95255772D01*
X193383000Y-95420184D01*
X193383000Y-95587816D01*
X193350297Y-95752228D01*
X193286147Y-95907100D01*
X193193015Y-96046481D01*
X193074481Y-96165015D01*
X192935100Y-96258147D01*
X192780228Y-96322297D01*
X192615816Y-96355000D01*
X192448184Y-96355000D01*
X192283772Y-96322297D01*
X192128900Y-96258147D01*
X191989519Y-96165015D01*
X191870985Y-96046481D01*
X191777853Y-95907100D01*
X191713703Y-95752228D01*
X191681000Y-95587816D01*
X191681000Y-95420184D01*
X191713703Y-95255772D01*
X191777853Y-95100900D01*
X191870985Y-94961519D01*
X191989519Y-94842985D01*
X192128900Y-94749853D01*
X192283772Y-94685703D01*
X192448184Y-94653000D01*
X192615816Y-94653000D01*
X192780228Y-94685703D01*
X192780228Y-94685703D01*
G37*
G36*
X177540228Y-94685703D02*
G01*
X177695100Y-94749853D01*
X177834481Y-94842985D01*
X177953015Y-94961519D01*
X178046147Y-95100900D01*
X178110297Y-95255772D01*
X178143000Y-95420184D01*
X178143000Y-95587816D01*
X178110297Y-95752228D01*
X178046147Y-95907100D01*
X177953015Y-96046481D01*
X177834481Y-96165015D01*
X177695100Y-96258147D01*
X177540228Y-96322297D01*
X177375816Y-96355000D01*
X177208184Y-96355000D01*
X177043772Y-96322297D01*
X176888900Y-96258147D01*
X176749519Y-96165015D01*
X176630985Y-96046481D01*
X176537853Y-95907100D01*
X176473703Y-95752228D01*
X176441000Y-95587816D01*
X176441000Y-95420184D01*
X176473703Y-95255772D01*
X176537853Y-95100900D01*
X176630985Y-94961519D01*
X176749519Y-94842985D01*
X176888900Y-94749853D01*
X177043772Y-94685703D01*
X177208184Y-94653000D01*
X177375816Y-94653000D01*
X177540228Y-94685703D01*
X177540228Y-94685703D01*
G37*
G36*
X208138600Y-96210600D02*
G01*
X206086600Y-96210600D01*
X206086600Y-95508600D01*
X208138600Y-95508600D01*
X208138600Y-96210600D01*
X208138600Y-96210600D01*
G37*
G36*
X198738600Y-96210600D02*
G01*
X196686600Y-96210600D01*
X196686600Y-95508600D01*
X198738600Y-95508600D01*
X198738600Y-96210600D01*
X198738600Y-96210600D01*
G37*
G36*
X163607293Y-93212228D02*
G01*
X163676427Y-93219037D01*
X163846266Y-93270557D01*
X164002791Y-93354222D01*
X164038529Y-93383552D01*
X164139986Y-93466814D01*
X164223248Y-93568271D01*
X164252578Y-93604009D01*
X164336243Y-93760534D01*
X164387763Y-93930373D01*
X164405159Y-94107000D01*
X164387763Y-94283627D01*
X164336243Y-94453466D01*
X164252578Y-94609991D01*
X164223248Y-94645729D01*
X164139986Y-94747186D01*
X164038529Y-94830448D01*
X164002791Y-94859778D01*
X163846266Y-94943443D01*
X163676427Y-94994963D01*
X163610243Y-95001481D01*
X163544060Y-95008000D01*
X163455540Y-95008000D01*
X163389358Y-95001482D01*
X163323173Y-94994963D01*
X163153334Y-94943443D01*
X162996809Y-94859778D01*
X162961071Y-94830448D01*
X162859614Y-94747186D01*
X162776352Y-94645729D01*
X162747022Y-94609991D01*
X162663357Y-94453466D01*
X162611837Y-94283627D01*
X162594441Y-94107000D01*
X162611837Y-93930373D01*
X162663357Y-93760534D01*
X162747022Y-93604009D01*
X162776352Y-93568271D01*
X162859614Y-93466814D01*
X162961071Y-93383552D01*
X162996809Y-93354222D01*
X163153334Y-93270557D01*
X163323173Y-93219037D01*
X163392307Y-93212228D01*
X163455540Y-93206000D01*
X163544060Y-93206000D01*
X163607293Y-93212228D01*
X163607293Y-93212228D01*
G37*
G36*
X198738600Y-94940600D02*
G01*
X196686600Y-94940600D01*
X196686600Y-94238600D01*
X198738600Y-94238600D01*
X198738600Y-94940600D01*
X198738600Y-94940600D01*
G37*
G36*
X208138600Y-94940600D02*
G01*
X206086600Y-94940600D01*
X206086600Y-94238600D01*
X208138600Y-94238600D01*
X208138600Y-94940600D01*
X208138600Y-94940600D01*
G37*
G36*
X218375800Y-94550800D02*
G01*
X216573800Y-94550800D01*
X216573800Y-92748800D01*
X218375800Y-92748800D01*
X218375800Y-94550800D01*
X218375800Y-94550800D01*
G37*
G36*
X213735099Y-92798045D02*
G01*
X213772595Y-92809420D01*
X213807154Y-92827892D01*
X213837447Y-92852753D01*
X213862308Y-92883046D01*
X213880780Y-92917605D01*
X213892155Y-92955101D01*
X213896600Y-93000238D01*
X213896600Y-93638962D01*
X213892155Y-93684099D01*
X213880780Y-93721595D01*
X213862308Y-93756154D01*
X213837447Y-93786447D01*
X213807154Y-93811308D01*
X213772595Y-93829780D01*
X213735099Y-93841155D01*
X213689962Y-93845600D01*
X212951238Y-93845600D01*
X212906101Y-93841155D01*
X212868605Y-93829780D01*
X212834046Y-93811308D01*
X212803753Y-93786447D01*
X212778892Y-93756154D01*
X212760420Y-93721595D01*
X212749045Y-93684099D01*
X212744600Y-93638962D01*
X212744600Y-93000238D01*
X212749045Y-92955101D01*
X212760420Y-92917605D01*
X212778892Y-92883046D01*
X212803753Y-92852753D01*
X212834046Y-92827892D01*
X212868605Y-92809420D01*
X212906101Y-92798045D01*
X212951238Y-92793600D01*
X213689962Y-92793600D01*
X213735099Y-92798045D01*
X213735099Y-92798045D01*
G37*
G36*
X211985099Y-92798045D02*
G01*
X212022595Y-92809420D01*
X212057154Y-92827892D01*
X212087447Y-92852753D01*
X212112308Y-92883046D01*
X212130780Y-92917605D01*
X212142155Y-92955101D01*
X212146600Y-93000238D01*
X212146600Y-93638962D01*
X212142155Y-93684099D01*
X212130780Y-93721595D01*
X212112308Y-93756154D01*
X212087447Y-93786447D01*
X212057154Y-93811308D01*
X212022595Y-93829780D01*
X211985099Y-93841155D01*
X211939962Y-93845600D01*
X211201238Y-93845600D01*
X211156101Y-93841155D01*
X211118605Y-93829780D01*
X211084046Y-93811308D01*
X211053753Y-93786447D01*
X211028892Y-93756154D01*
X211010420Y-93721595D01*
X210999045Y-93684099D01*
X210994600Y-93638962D01*
X210994600Y-93000238D01*
X210999045Y-92955101D01*
X211010420Y-92917605D01*
X211028892Y-92883046D01*
X211053753Y-92852753D01*
X211084046Y-92827892D01*
X211118605Y-92809420D01*
X211156101Y-92798045D01*
X211201238Y-92793600D01*
X211939962Y-92793600D01*
X211985099Y-92798045D01*
X211985099Y-92798045D01*
G37*
G36*
X192780228Y-92145703D02*
G01*
X192935100Y-92209853D01*
X193074481Y-92302985D01*
X193193015Y-92421519D01*
X193286147Y-92560900D01*
X193350297Y-92715772D01*
X193383000Y-92880184D01*
X193383000Y-93047816D01*
X193350297Y-93212228D01*
X193286147Y-93367100D01*
X193193015Y-93506481D01*
X193074481Y-93625015D01*
X192935100Y-93718147D01*
X192780228Y-93782297D01*
X192615816Y-93815000D01*
X192448184Y-93815000D01*
X192283772Y-93782297D01*
X192128900Y-93718147D01*
X191989519Y-93625015D01*
X191870985Y-93506481D01*
X191777853Y-93367100D01*
X191713703Y-93212228D01*
X191681000Y-93047816D01*
X191681000Y-92880184D01*
X191713703Y-92715772D01*
X191777853Y-92560900D01*
X191870985Y-92421519D01*
X191989519Y-92302985D01*
X192128900Y-92209853D01*
X192283772Y-92145703D01*
X192448184Y-92113000D01*
X192615816Y-92113000D01*
X192780228Y-92145703D01*
X192780228Y-92145703D01*
G37*
G36*
X177540228Y-92145703D02*
G01*
X177695100Y-92209853D01*
X177834481Y-92302985D01*
X177953015Y-92421519D01*
X178046147Y-92560900D01*
X178110297Y-92715772D01*
X178143000Y-92880184D01*
X178143000Y-93047816D01*
X178110297Y-93212228D01*
X178046147Y-93367100D01*
X177953015Y-93506481D01*
X177834481Y-93625015D01*
X177695100Y-93718147D01*
X177540228Y-93782297D01*
X177375816Y-93815000D01*
X177208184Y-93815000D01*
X177043772Y-93782297D01*
X176888900Y-93718147D01*
X176749519Y-93625015D01*
X176630985Y-93506481D01*
X176537853Y-93367100D01*
X176473703Y-93212228D01*
X176441000Y-93047816D01*
X176441000Y-92880184D01*
X176473703Y-92715772D01*
X176537853Y-92560900D01*
X176630985Y-92421519D01*
X176749519Y-92302985D01*
X176888900Y-92209853D01*
X177043772Y-92145703D01*
X177208184Y-92113000D01*
X177375816Y-92113000D01*
X177540228Y-92145703D01*
X177540228Y-92145703D01*
G37*
G36*
X208138600Y-93670600D02*
G01*
X206086600Y-93670600D01*
X206086600Y-92968600D01*
X208138600Y-92968600D01*
X208138600Y-93670600D01*
X208138600Y-93670600D01*
G37*
G36*
X198738600Y-93670600D02*
G01*
X196686600Y-93670600D01*
X196686600Y-92968600D01*
X198738600Y-92968600D01*
X198738600Y-93670600D01*
X198738600Y-93670600D01*
G37*
G36*
X163607293Y-90672228D02*
G01*
X163676427Y-90679037D01*
X163846266Y-90730557D01*
X164002791Y-90814222D01*
X164038529Y-90843552D01*
X164139986Y-90926814D01*
X164223248Y-91028271D01*
X164252578Y-91064009D01*
X164336243Y-91220534D01*
X164387763Y-91390373D01*
X164405159Y-91567000D01*
X164387763Y-91743627D01*
X164336243Y-91913466D01*
X164252578Y-92069991D01*
X164223248Y-92105729D01*
X164139986Y-92207186D01*
X164038529Y-92290448D01*
X164002791Y-92319778D01*
X163846266Y-92403443D01*
X163676427Y-92454963D01*
X163610242Y-92461482D01*
X163544060Y-92468000D01*
X163455540Y-92468000D01*
X163389357Y-92461481D01*
X163323173Y-92454963D01*
X163153334Y-92403443D01*
X162996809Y-92319778D01*
X162961071Y-92290448D01*
X162859614Y-92207186D01*
X162776352Y-92105729D01*
X162747022Y-92069991D01*
X162663357Y-91913466D01*
X162611837Y-91743627D01*
X162594441Y-91567000D01*
X162611837Y-91390373D01*
X162663357Y-91220534D01*
X162747022Y-91064009D01*
X162776352Y-91028271D01*
X162859614Y-90926814D01*
X162961071Y-90843552D01*
X162996809Y-90814222D01*
X163153334Y-90730557D01*
X163323173Y-90679037D01*
X163392307Y-90672228D01*
X163455540Y-90666000D01*
X163544060Y-90666000D01*
X163607293Y-90672228D01*
X163607293Y-90672228D01*
G37*
G36*
X192780228Y-89605703D02*
G01*
X192935100Y-89669853D01*
X193074481Y-89762985D01*
X193193015Y-89881519D01*
X193286147Y-90020900D01*
X193350297Y-90175772D01*
X193383000Y-90340184D01*
X193383000Y-90507816D01*
X193350297Y-90672228D01*
X193286147Y-90827100D01*
X193193015Y-90966481D01*
X193074481Y-91085015D01*
X192935100Y-91178147D01*
X192780228Y-91242297D01*
X192615816Y-91275000D01*
X192448184Y-91275000D01*
X192283772Y-91242297D01*
X192128900Y-91178147D01*
X191989519Y-91085015D01*
X191870985Y-90966481D01*
X191777853Y-90827100D01*
X191713703Y-90672228D01*
X191681000Y-90507816D01*
X191681000Y-90340184D01*
X191713703Y-90175772D01*
X191777853Y-90020900D01*
X191870985Y-89881519D01*
X191989519Y-89762985D01*
X192128900Y-89669853D01*
X192283772Y-89605703D01*
X192448184Y-89573000D01*
X192615816Y-89573000D01*
X192780228Y-89605703D01*
X192780228Y-89605703D01*
G37*
G36*
X177540228Y-89605703D02*
G01*
X177695100Y-89669853D01*
X177834481Y-89762985D01*
X177953015Y-89881519D01*
X178046147Y-90020900D01*
X178110297Y-90175772D01*
X178143000Y-90340184D01*
X178143000Y-90507816D01*
X178110297Y-90672228D01*
X178046147Y-90827100D01*
X177953015Y-90966481D01*
X177834481Y-91085015D01*
X177695100Y-91178147D01*
X177540228Y-91242297D01*
X177375816Y-91275000D01*
X177208184Y-91275000D01*
X177043772Y-91242297D01*
X176888900Y-91178147D01*
X176749519Y-91085015D01*
X176630985Y-90966481D01*
X176537853Y-90827100D01*
X176473703Y-90672228D01*
X176441000Y-90507816D01*
X176441000Y-90340184D01*
X176473703Y-90175772D01*
X176537853Y-90020900D01*
X176630985Y-89881519D01*
X176749519Y-89762985D01*
X176888900Y-89669853D01*
X177043772Y-89605703D01*
X177208184Y-89573000D01*
X177375816Y-89573000D01*
X177540228Y-89605703D01*
X177540228Y-89605703D01*
G37*
G36*
X208138600Y-91156000D02*
G01*
X206086600Y-91156000D01*
X206086600Y-90454000D01*
X208138600Y-90454000D01*
X208138600Y-91156000D01*
X208138600Y-91156000D01*
G37*
G36*
X198738600Y-91156000D02*
G01*
X196686600Y-91156000D01*
X196686600Y-90454000D01*
X198738600Y-90454000D01*
X198738600Y-91156000D01*
X198738600Y-91156000D01*
G37*
G36*
X217559842Y-88767518D02*
G01*
X217626027Y-88774037D01*
X217795866Y-88825557D01*
X217952391Y-88909222D01*
X217988129Y-88938552D01*
X218089586Y-89021814D01*
X218172848Y-89123271D01*
X218202178Y-89159009D01*
X218285843Y-89315534D01*
X218337363Y-89485373D01*
X218354759Y-89662000D01*
X218337363Y-89838627D01*
X218285843Y-90008466D01*
X218202178Y-90164991D01*
X218193331Y-90175771D01*
X218089586Y-90302186D01*
X217988129Y-90385448D01*
X217952391Y-90414778D01*
X217795866Y-90498443D01*
X217626027Y-90549963D01*
X217559842Y-90556482D01*
X217493660Y-90563000D01*
X217405140Y-90563000D01*
X217338958Y-90556482D01*
X217272773Y-90549963D01*
X217102934Y-90498443D01*
X216946409Y-90414778D01*
X216910671Y-90385448D01*
X216809214Y-90302186D01*
X216705469Y-90175771D01*
X216696622Y-90164991D01*
X216612957Y-90008466D01*
X216561437Y-89838627D01*
X216544041Y-89662000D01*
X216561437Y-89485373D01*
X216612957Y-89315534D01*
X216696622Y-89159009D01*
X216725952Y-89123271D01*
X216809214Y-89021814D01*
X216910671Y-88938552D01*
X216946409Y-88909222D01*
X217102934Y-88825557D01*
X217272773Y-88774037D01*
X217338958Y-88767518D01*
X217405140Y-88761000D01*
X217493660Y-88761000D01*
X217559842Y-88767518D01*
X217559842Y-88767518D01*
G37*
G36*
X208138600Y-89886000D02*
G01*
X206086600Y-89886000D01*
X206086600Y-89184000D01*
X208138600Y-89184000D01*
X208138600Y-89886000D01*
X208138600Y-89886000D01*
G37*
G36*
X198738600Y-89886000D02*
G01*
X196686600Y-89886000D01*
X196686600Y-89184000D01*
X198738600Y-89184000D01*
X198738600Y-89886000D01*
X198738600Y-89886000D01*
G37*
G36*
X177540228Y-87065703D02*
G01*
X177695100Y-87129853D01*
X177834481Y-87222985D01*
X177953015Y-87341519D01*
X178046147Y-87480900D01*
X178110297Y-87635772D01*
X178143000Y-87800184D01*
X178143000Y-87967816D01*
X178110297Y-88132228D01*
X178046147Y-88287100D01*
X177953015Y-88426481D01*
X177834481Y-88545015D01*
X177695100Y-88638147D01*
X177540228Y-88702297D01*
X177375816Y-88735000D01*
X177208184Y-88735000D01*
X177043772Y-88702297D01*
X176888900Y-88638147D01*
X176749519Y-88545015D01*
X176630985Y-88426481D01*
X176537853Y-88287100D01*
X176473703Y-88132228D01*
X176441000Y-87967816D01*
X176441000Y-87800184D01*
X176473703Y-87635772D01*
X176537853Y-87480900D01*
X176630985Y-87341519D01*
X176749519Y-87222985D01*
X176888900Y-87129853D01*
X177043772Y-87065703D01*
X177208184Y-87033000D01*
X177375816Y-87033000D01*
X177540228Y-87065703D01*
X177540228Y-87065703D01*
G37*
G36*
X192780228Y-87065703D02*
G01*
X192935100Y-87129853D01*
X193074481Y-87222985D01*
X193193015Y-87341519D01*
X193286147Y-87480900D01*
X193350297Y-87635772D01*
X193383000Y-87800184D01*
X193383000Y-87967816D01*
X193350297Y-88132228D01*
X193286147Y-88287100D01*
X193193015Y-88426481D01*
X193074481Y-88545015D01*
X192935100Y-88638147D01*
X192780228Y-88702297D01*
X192615816Y-88735000D01*
X192448184Y-88735000D01*
X192283772Y-88702297D01*
X192128900Y-88638147D01*
X191989519Y-88545015D01*
X191870985Y-88426481D01*
X191777853Y-88287100D01*
X191713703Y-88132228D01*
X191681000Y-87967816D01*
X191681000Y-87800184D01*
X191713703Y-87635772D01*
X191777853Y-87480900D01*
X191870985Y-87341519D01*
X191989519Y-87222985D01*
X192128900Y-87129853D01*
X192283772Y-87065703D01*
X192448184Y-87033000D01*
X192615816Y-87033000D01*
X192780228Y-87065703D01*
X192780228Y-87065703D01*
G37*
G36*
X198738600Y-88616000D02*
G01*
X196686600Y-88616000D01*
X196686600Y-87914000D01*
X198738600Y-87914000D01*
X198738600Y-88616000D01*
X198738600Y-88616000D01*
G37*
G36*
X208138600Y-88616000D02*
G01*
X206086600Y-88616000D01*
X206086600Y-87914000D01*
X208138600Y-87914000D01*
X208138600Y-88616000D01*
X208138600Y-88616000D01*
G37*
G36*
X217559843Y-86227519D02*
G01*
X217626027Y-86234037D01*
X217795866Y-86285557D01*
X217952391Y-86369222D01*
X217988129Y-86398552D01*
X218089586Y-86481814D01*
X218172848Y-86583271D01*
X218202178Y-86619009D01*
X218285843Y-86775534D01*
X218337363Y-86945373D01*
X218354759Y-87122000D01*
X218337363Y-87298627D01*
X218285843Y-87468466D01*
X218202178Y-87624991D01*
X218193331Y-87635771D01*
X218089586Y-87762186D01*
X217988129Y-87845448D01*
X217952391Y-87874778D01*
X217795866Y-87958443D01*
X217626027Y-88009963D01*
X217559843Y-88016481D01*
X217493660Y-88023000D01*
X217405140Y-88023000D01*
X217338957Y-88016481D01*
X217272773Y-88009963D01*
X217102934Y-87958443D01*
X216946409Y-87874778D01*
X216910671Y-87845448D01*
X216809214Y-87762186D01*
X216705469Y-87635771D01*
X216696622Y-87624991D01*
X216612957Y-87468466D01*
X216561437Y-87298627D01*
X216544041Y-87122000D01*
X216561437Y-86945373D01*
X216612957Y-86775534D01*
X216696622Y-86619009D01*
X216725952Y-86583271D01*
X216809214Y-86481814D01*
X216910671Y-86398552D01*
X216946409Y-86369222D01*
X217102934Y-86285557D01*
X217272773Y-86234037D01*
X217338957Y-86227519D01*
X217405140Y-86221000D01*
X217493660Y-86221000D01*
X217559843Y-86227519D01*
X217559843Y-86227519D01*
G37*
G36*
X167040672Y-85315918D02*
G01*
X167286539Y-85417759D01*
X167301590Y-85427816D01*
X167507811Y-85565609D01*
X167695991Y-85753789D01*
X167843842Y-85975063D01*
X167945682Y-86220928D01*
X167997600Y-86481937D01*
X167997600Y-86748063D01*
X167958352Y-86945375D01*
X167945682Y-87009072D01*
X167843841Y-87254939D01*
X167769413Y-87366328D01*
X167701165Y-87468468D01*
X167695990Y-87476212D01*
X167507812Y-87664390D01*
X167286539Y-87812241D01*
X167286538Y-87812242D01*
X167286537Y-87812242D01*
X167040672Y-87914082D01*
X166779663Y-87966000D01*
X166513537Y-87966000D01*
X166252528Y-87914082D01*
X166006663Y-87812242D01*
X166006662Y-87812242D01*
X166006661Y-87812241D01*
X165785388Y-87664390D01*
X165597210Y-87476212D01*
X165592036Y-87468468D01*
X165523787Y-87366328D01*
X165449359Y-87254939D01*
X165347518Y-87009072D01*
X165334848Y-86945375D01*
X165295600Y-86748063D01*
X165295600Y-86481937D01*
X165347518Y-86220928D01*
X165449358Y-85975063D01*
X165597209Y-85753789D01*
X165785389Y-85565609D01*
X165991610Y-85427816D01*
X166006661Y-85417759D01*
X166252528Y-85315918D01*
X166513537Y-85264000D01*
X166779663Y-85264000D01*
X167040672Y-85315918D01*
X167040672Y-85315918D01*
G37*
G36*
X198738600Y-87346000D02*
G01*
X196686600Y-87346000D01*
X196686600Y-86644000D01*
X198738600Y-86644000D01*
X198738600Y-87346000D01*
X198738600Y-87346000D01*
G37*
G36*
X208138600Y-87346000D02*
G01*
X206086600Y-87346000D01*
X206086600Y-86644000D01*
X208138600Y-86644000D01*
X208138600Y-87346000D01*
X208138600Y-87346000D01*
G37*
G36*
X177540228Y-84525703D02*
G01*
X177695100Y-84589853D01*
X177834481Y-84682985D01*
X177953015Y-84801519D01*
X178046147Y-84940900D01*
X178110297Y-85095772D01*
X178143000Y-85260184D01*
X178143000Y-85427816D01*
X178110297Y-85592228D01*
X178046147Y-85747100D01*
X177953015Y-85886481D01*
X177834481Y-86005015D01*
X177695100Y-86098147D01*
X177540228Y-86162297D01*
X177375816Y-86195000D01*
X177208184Y-86195000D01*
X177043772Y-86162297D01*
X176888900Y-86098147D01*
X176749519Y-86005015D01*
X176630985Y-85886481D01*
X176537853Y-85747100D01*
X176473703Y-85592228D01*
X176441000Y-85427816D01*
X176441000Y-85260184D01*
X176473703Y-85095772D01*
X176537853Y-84940900D01*
X176630985Y-84801519D01*
X176749519Y-84682985D01*
X176888900Y-84589853D01*
X177043772Y-84525703D01*
X177208184Y-84493000D01*
X177375816Y-84493000D01*
X177540228Y-84525703D01*
X177540228Y-84525703D01*
G37*
G36*
X192780228Y-84525703D02*
G01*
X192935100Y-84589853D01*
X193074481Y-84682985D01*
X193193015Y-84801519D01*
X193286147Y-84940900D01*
X193350297Y-85095772D01*
X193383000Y-85260184D01*
X193383000Y-85427816D01*
X193350297Y-85592228D01*
X193286147Y-85747100D01*
X193193015Y-85886481D01*
X193074481Y-86005015D01*
X192935100Y-86098147D01*
X192780228Y-86162297D01*
X192615816Y-86195000D01*
X192448184Y-86195000D01*
X192283772Y-86162297D01*
X192128900Y-86098147D01*
X191989519Y-86005015D01*
X191870985Y-85886481D01*
X191777853Y-85747100D01*
X191713703Y-85592228D01*
X191681000Y-85427816D01*
X191681000Y-85260184D01*
X191713703Y-85095772D01*
X191777853Y-84940900D01*
X191870985Y-84801519D01*
X191989519Y-84682985D01*
X192128900Y-84589853D01*
X192283772Y-84525703D01*
X192448184Y-84493000D01*
X192615816Y-84493000D01*
X192780228Y-84525703D01*
X192780228Y-84525703D01*
G37*
G36*
X208138600Y-86076000D02*
G01*
X206086600Y-86076000D01*
X206086600Y-85374000D01*
X208138600Y-85374000D01*
X208138600Y-86076000D01*
X208138600Y-86076000D01*
G37*
G36*
X198738600Y-86076000D02*
G01*
X196686600Y-86076000D01*
X196686600Y-85374000D01*
X198738600Y-85374000D01*
X198738600Y-86076000D01*
X198738600Y-86076000D01*
G37*
G36*
X217559843Y-83687519D02*
G01*
X217626027Y-83694037D01*
X217795866Y-83745557D01*
X217952391Y-83829222D01*
X217988129Y-83858552D01*
X218089586Y-83941814D01*
X218172848Y-84043271D01*
X218202178Y-84079009D01*
X218285843Y-84235534D01*
X218337363Y-84405373D01*
X218354759Y-84582000D01*
X218337363Y-84758627D01*
X218285843Y-84928466D01*
X218202178Y-85084991D01*
X218193331Y-85095771D01*
X218089586Y-85222186D01*
X217988129Y-85305448D01*
X217952391Y-85334778D01*
X217795866Y-85418443D01*
X217626027Y-85469963D01*
X217559842Y-85476482D01*
X217493660Y-85483000D01*
X217405140Y-85483000D01*
X217338958Y-85476482D01*
X217272773Y-85469963D01*
X217102934Y-85418443D01*
X216946409Y-85334778D01*
X216910671Y-85305448D01*
X216809214Y-85222186D01*
X216705469Y-85095771D01*
X216696622Y-85084991D01*
X216612957Y-84928466D01*
X216561437Y-84758627D01*
X216544041Y-84582000D01*
X216561437Y-84405373D01*
X216612957Y-84235534D01*
X216696622Y-84079009D01*
X216725952Y-84043271D01*
X216809214Y-83941814D01*
X216910671Y-83858552D01*
X216946409Y-83829222D01*
X217102934Y-83745557D01*
X217272773Y-83694037D01*
X217338957Y-83687519D01*
X217405140Y-83681000D01*
X217493660Y-83681000D01*
X217559843Y-83687519D01*
X217559843Y-83687519D01*
G37*
G36*
X198738600Y-84806000D02*
G01*
X196686600Y-84806000D01*
X196686600Y-84104000D01*
X198738600Y-84104000D01*
X198738600Y-84806000D01*
X198738600Y-84806000D01*
G37*
G36*
X208138600Y-84806000D02*
G01*
X206086600Y-84806000D01*
X206086600Y-84104000D01*
X208138600Y-84104000D01*
X208138600Y-84806000D01*
X208138600Y-84806000D01*
G37*
G36*
X177540228Y-81985703D02*
G01*
X177695100Y-82049853D01*
X177834481Y-82142985D01*
X177953015Y-82261519D01*
X178046147Y-82400900D01*
X178110297Y-82555772D01*
X178143000Y-82720184D01*
X178143000Y-82887816D01*
X178110297Y-83052228D01*
X178046147Y-83207100D01*
X177953015Y-83346481D01*
X177834481Y-83465015D01*
X177695100Y-83558147D01*
X177540228Y-83622297D01*
X177375816Y-83655000D01*
X177208184Y-83655000D01*
X177043772Y-83622297D01*
X176888900Y-83558147D01*
X176749519Y-83465015D01*
X176630985Y-83346481D01*
X176537853Y-83207100D01*
X176473703Y-83052228D01*
X176441000Y-82887816D01*
X176441000Y-82720184D01*
X176473703Y-82555772D01*
X176537853Y-82400900D01*
X176630985Y-82261519D01*
X176749519Y-82142985D01*
X176888900Y-82049853D01*
X177043772Y-81985703D01*
X177208184Y-81953000D01*
X177375816Y-81953000D01*
X177540228Y-81985703D01*
X177540228Y-81985703D01*
G37*
G36*
X192780228Y-81985703D02*
G01*
X192935100Y-82049853D01*
X193074481Y-82142985D01*
X193193015Y-82261519D01*
X193286147Y-82400900D01*
X193350297Y-82555772D01*
X193383000Y-82720184D01*
X193383000Y-82887816D01*
X193350297Y-83052228D01*
X193286147Y-83207100D01*
X193193015Y-83346481D01*
X193074481Y-83465015D01*
X192935100Y-83558147D01*
X192780228Y-83622297D01*
X192615816Y-83655000D01*
X192448184Y-83655000D01*
X192283772Y-83622297D01*
X192128900Y-83558147D01*
X191989519Y-83465015D01*
X191870985Y-83346481D01*
X191777853Y-83207100D01*
X191713703Y-83052228D01*
X191681000Y-82887816D01*
X191681000Y-82720184D01*
X191713703Y-82555772D01*
X191777853Y-82400900D01*
X191870985Y-82261519D01*
X191989519Y-82142985D01*
X192128900Y-82049853D01*
X192283772Y-81985703D01*
X192448184Y-81953000D01*
X192615816Y-81953000D01*
X192780228Y-81985703D01*
X192780228Y-81985703D01*
G37*
G36*
X198738600Y-83536000D02*
G01*
X196686600Y-83536000D01*
X196686600Y-82834000D01*
X198738600Y-82834000D01*
X198738600Y-83536000D01*
X198738600Y-83536000D01*
G37*
G36*
X208138600Y-83536000D02*
G01*
X206086600Y-83536000D01*
X206086600Y-82834000D01*
X208138600Y-82834000D01*
X208138600Y-83536000D01*
X208138600Y-83536000D01*
G37*
G36*
X170997600Y-83266000D02*
G01*
X168295600Y-83266000D01*
X168295600Y-80564000D01*
X170997600Y-80564000D01*
X170997600Y-83266000D01*
X170997600Y-83266000D01*
G37*
G36*
X164040672Y-80615918D02*
G01*
X164286539Y-80717759D01*
X164507812Y-80865610D01*
X164695990Y-81053788D01*
X164843841Y-81275061D01*
X164945682Y-81520928D01*
X164997600Y-81781938D01*
X164997600Y-82048062D01*
X164945682Y-82309072D01*
X164843841Y-82554939D01*
X164695990Y-82776212D01*
X164507812Y-82964390D01*
X164286539Y-83112241D01*
X164286538Y-83112242D01*
X164286537Y-83112242D01*
X164040672Y-83214082D01*
X163779663Y-83266000D01*
X163513537Y-83266000D01*
X163252528Y-83214082D01*
X163006663Y-83112242D01*
X163006662Y-83112242D01*
X163006661Y-83112241D01*
X162785388Y-82964390D01*
X162597210Y-82776212D01*
X162449359Y-82554939D01*
X162347518Y-82309072D01*
X162295600Y-82048062D01*
X162295600Y-81781938D01*
X162347518Y-81520928D01*
X162449359Y-81275061D01*
X162597210Y-81053788D01*
X162785388Y-80865610D01*
X163006661Y-80717759D01*
X163252528Y-80615918D01*
X163513537Y-80564000D01*
X163779663Y-80564000D01*
X164040672Y-80615918D01*
X164040672Y-80615918D01*
G37*
G36*
X218350400Y-82943000D02*
G01*
X216548400Y-82943000D01*
X216548400Y-81141000D01*
X218350400Y-81141000D01*
X218350400Y-82943000D01*
X218350400Y-82943000D01*
G37*
G36*
X208138600Y-82266000D02*
G01*
X206086600Y-82266000D01*
X206086600Y-81564000D01*
X208138600Y-81564000D01*
X208138600Y-82266000D01*
X208138600Y-82266000D01*
G37*
G36*
X198738600Y-82266000D02*
G01*
X196686600Y-82266000D01*
X196686600Y-81564000D01*
X198738600Y-81564000D01*
X198738600Y-82266000D01*
X198738600Y-82266000D01*
G37*
G36*
X192780228Y-79445703D02*
G01*
X192935100Y-79509853D01*
X193074481Y-79602985D01*
X193193015Y-79721519D01*
X193286147Y-79860900D01*
X193350297Y-80015772D01*
X193383000Y-80180184D01*
X193383000Y-80347816D01*
X193350297Y-80512228D01*
X193286147Y-80667100D01*
X193193015Y-80806481D01*
X193074481Y-80925015D01*
X192935100Y-81018147D01*
X192780228Y-81082297D01*
X192615816Y-81115000D01*
X192448184Y-81115000D01*
X192283772Y-81082297D01*
X192128900Y-81018147D01*
X191989519Y-80925015D01*
X191870985Y-80806481D01*
X191777853Y-80667100D01*
X191713703Y-80512228D01*
X191681000Y-80347816D01*
X191681000Y-80180184D01*
X191713703Y-80015772D01*
X191777853Y-79860900D01*
X191870985Y-79721519D01*
X191989519Y-79602985D01*
X192128900Y-79509853D01*
X192283772Y-79445703D01*
X192448184Y-79413000D01*
X192615816Y-79413000D01*
X192780228Y-79445703D01*
X192780228Y-79445703D01*
G37*
G36*
X177540228Y-79445703D02*
G01*
X177695100Y-79509853D01*
X177834481Y-79602985D01*
X177953015Y-79721519D01*
X178046147Y-79860900D01*
X178110297Y-80015772D01*
X178143000Y-80180184D01*
X178143000Y-80347816D01*
X178110297Y-80512228D01*
X178046147Y-80667100D01*
X177953015Y-80806481D01*
X177834481Y-80925015D01*
X177695100Y-81018147D01*
X177540228Y-81082297D01*
X177375816Y-81115000D01*
X177208184Y-81115000D01*
X177043772Y-81082297D01*
X176888900Y-81018147D01*
X176749519Y-80925015D01*
X176630985Y-80806481D01*
X176537853Y-80667100D01*
X176473703Y-80512228D01*
X176441000Y-80347816D01*
X176441000Y-80180184D01*
X176473703Y-80015772D01*
X176537853Y-79860900D01*
X176630985Y-79721519D01*
X176749519Y-79602985D01*
X176888900Y-79509853D01*
X177043772Y-79445703D01*
X177208184Y-79413000D01*
X177375816Y-79413000D01*
X177540228Y-79445703D01*
X177540228Y-79445703D01*
G37*
G36*
X198738600Y-80996000D02*
G01*
X196686600Y-80996000D01*
X196686600Y-80294000D01*
X198738600Y-80294000D01*
X198738600Y-80996000D01*
X198738600Y-80996000D01*
G37*
G36*
X208138600Y-80996000D02*
G01*
X206086600Y-80996000D01*
X206086600Y-80294000D01*
X208138600Y-80294000D01*
X208138600Y-80996000D01*
X208138600Y-80996000D01*
G37*
G36*
X211032099Y-78865645D02*
G01*
X211069595Y-78877020D01*
X211104154Y-78895492D01*
X211134447Y-78920353D01*
X211159308Y-78950646D01*
X211177780Y-78985205D01*
X211189155Y-79022701D01*
X211193600Y-79067838D01*
X211193600Y-79806562D01*
X211189155Y-79851699D01*
X211177780Y-79889195D01*
X211159308Y-79923754D01*
X211134447Y-79954047D01*
X211104154Y-79978908D01*
X211069595Y-79997380D01*
X211032099Y-80008755D01*
X210986962Y-80013200D01*
X210348238Y-80013200D01*
X210303101Y-80008755D01*
X210265605Y-79997380D01*
X210231046Y-79978908D01*
X210200753Y-79954047D01*
X210175892Y-79923754D01*
X210157420Y-79889195D01*
X210146045Y-79851699D01*
X210141600Y-79806562D01*
X210141600Y-79067838D01*
X210146045Y-79022701D01*
X210157420Y-78985205D01*
X210175892Y-78950646D01*
X210200753Y-78920353D01*
X210231046Y-78895492D01*
X210265605Y-78877020D01*
X210303101Y-78865645D01*
X210348238Y-78861200D01*
X210986962Y-78861200D01*
X211032099Y-78865645D01*
X211032099Y-78865645D01*
G37*
G36*
X208138600Y-79726000D02*
G01*
X206086600Y-79726000D01*
X206086600Y-79024000D01*
X208138600Y-79024000D01*
X208138600Y-79726000D01*
X208138600Y-79726000D01*
G37*
G36*
X198738600Y-79726000D02*
G01*
X196686600Y-79726000D01*
X196686600Y-79024000D01*
X198738600Y-79024000D01*
X198738600Y-79726000D01*
X198738600Y-79726000D01*
G37*
G36*
X217610642Y-77007318D02*
G01*
X217676827Y-77013837D01*
X217846666Y-77065357D01*
X218003191Y-77149022D01*
X218011112Y-77155523D01*
X218140386Y-77261614D01*
X218223648Y-77363071D01*
X218252978Y-77398809D01*
X218336643Y-77555334D01*
X218388163Y-77725173D01*
X218405559Y-77901800D01*
X218388163Y-78078427D01*
X218336643Y-78248266D01*
X218336642Y-78248268D01*
X218328661Y-78263200D01*
X218252978Y-78404791D01*
X218223648Y-78440529D01*
X218140386Y-78541986D01*
X218038929Y-78625248D01*
X218003191Y-78654578D01*
X217846666Y-78738243D01*
X217676827Y-78789763D01*
X217610643Y-78796281D01*
X217544460Y-78802800D01*
X217455940Y-78802800D01*
X217389757Y-78796281D01*
X217323573Y-78789763D01*
X217153734Y-78738243D01*
X216997209Y-78654578D01*
X216961471Y-78625248D01*
X216860014Y-78541986D01*
X216776752Y-78440529D01*
X216747422Y-78404791D01*
X216671739Y-78263200D01*
X216663758Y-78248268D01*
X216663757Y-78248266D01*
X216612237Y-78078427D01*
X216594841Y-77901800D01*
X216612237Y-77725173D01*
X216663757Y-77555334D01*
X216747422Y-77398809D01*
X216776752Y-77363071D01*
X216860014Y-77261614D01*
X216989288Y-77155523D01*
X216997209Y-77149022D01*
X217153734Y-77065357D01*
X217323573Y-77013837D01*
X217389758Y-77007318D01*
X217455940Y-77000800D01*
X217544460Y-77000800D01*
X217610642Y-77007318D01*
X217610642Y-77007318D01*
G37*
G36*
X211032099Y-77115645D02*
G01*
X211069595Y-77127020D01*
X211104154Y-77145492D01*
X211134447Y-77170353D01*
X211159308Y-77200646D01*
X211177780Y-77235205D01*
X211189155Y-77272701D01*
X211193600Y-77317838D01*
X211193600Y-78056562D01*
X211189155Y-78101699D01*
X211177780Y-78139195D01*
X211159308Y-78173754D01*
X211134447Y-78204047D01*
X211104154Y-78228908D01*
X211069595Y-78247380D01*
X211032099Y-78258755D01*
X210986962Y-78263200D01*
X210348238Y-78263200D01*
X210303101Y-78258755D01*
X210265605Y-78247380D01*
X210231046Y-78228908D01*
X210200753Y-78204047D01*
X210175892Y-78173754D01*
X210157420Y-78139195D01*
X210146045Y-78101699D01*
X210141600Y-78056562D01*
X210141600Y-77317838D01*
X210146045Y-77272701D01*
X210157420Y-77235205D01*
X210175892Y-77200646D01*
X210200753Y-77170353D01*
X210231046Y-77145492D01*
X210265605Y-77127020D01*
X210303101Y-77115645D01*
X210348238Y-77111200D01*
X210986962Y-77111200D01*
X211032099Y-77115645D01*
X211032099Y-77115645D01*
G37*
G36*
X217610643Y-74467319D02*
G01*
X217676827Y-74473837D01*
X217846666Y-74525357D01*
X218003191Y-74609022D01*
X218038929Y-74638352D01*
X218140386Y-74721614D01*
X218223648Y-74823071D01*
X218252978Y-74858809D01*
X218336643Y-75015334D01*
X218388163Y-75185173D01*
X218405559Y-75361800D01*
X218388163Y-75538427D01*
X218336643Y-75708266D01*
X218252978Y-75864791D01*
X218223648Y-75900529D01*
X218140386Y-76001986D01*
X218038929Y-76085248D01*
X218003191Y-76114578D01*
X217846666Y-76198243D01*
X217676827Y-76249763D01*
X217610643Y-76256281D01*
X217544460Y-76262800D01*
X217455940Y-76262800D01*
X217389757Y-76256281D01*
X217323573Y-76249763D01*
X217153734Y-76198243D01*
X216997209Y-76114578D01*
X216961471Y-76085248D01*
X216860014Y-76001986D01*
X216776752Y-75900529D01*
X216747422Y-75864791D01*
X216663757Y-75708266D01*
X216612237Y-75538427D01*
X216594841Y-75361800D01*
X216612237Y-75185173D01*
X216663757Y-75015334D01*
X216747422Y-74858809D01*
X216776752Y-74823071D01*
X216860014Y-74721614D01*
X216961471Y-74638352D01*
X216997209Y-74609022D01*
X217153734Y-74525357D01*
X217323573Y-74473837D01*
X217389757Y-74467319D01*
X217455940Y-74460800D01*
X217544460Y-74460800D01*
X217610643Y-74467319D01*
X217610643Y-74467319D01*
G37*
G36*
X208952400Y-73748200D02*
G01*
X207150400Y-73748200D01*
X207150400Y-71946200D01*
X208952400Y-71946200D01*
X208952400Y-73748200D01*
X208952400Y-73748200D01*
G37*
G36*
X210701843Y-71952719D02*
G01*
X210768027Y-71959237D01*
X210937866Y-72010757D01*
X211094391Y-72094422D01*
X211130129Y-72123752D01*
X211231586Y-72207014D01*
X211314848Y-72308471D01*
X211344178Y-72344209D01*
X211427843Y-72500734D01*
X211479363Y-72670573D01*
X211496759Y-72847200D01*
X211479363Y-73023827D01*
X211427843Y-73193666D01*
X211344178Y-73350191D01*
X211314848Y-73385929D01*
X211231586Y-73487386D01*
X211130129Y-73570648D01*
X211094391Y-73599978D01*
X210937866Y-73683643D01*
X210768027Y-73735163D01*
X210701842Y-73741682D01*
X210635660Y-73748200D01*
X210547140Y-73748200D01*
X210480958Y-73741682D01*
X210414773Y-73735163D01*
X210244934Y-73683643D01*
X210088409Y-73599978D01*
X210052671Y-73570648D01*
X209951214Y-73487386D01*
X209867952Y-73385929D01*
X209838622Y-73350191D01*
X209754957Y-73193666D01*
X209703437Y-73023827D01*
X209686041Y-72847200D01*
X209703437Y-72670573D01*
X209754957Y-72500734D01*
X209838622Y-72344209D01*
X209867952Y-72308471D01*
X209951214Y-72207014D01*
X210052671Y-72123752D01*
X210088409Y-72094422D01*
X210244934Y-72010757D01*
X210414773Y-71959237D01*
X210480957Y-71952719D01*
X210547140Y-71946200D01*
X210635660Y-71946200D01*
X210701843Y-71952719D01*
X210701843Y-71952719D01*
G37*
G36*
X213241843Y-71952719D02*
G01*
X213308027Y-71959237D01*
X213477866Y-72010757D01*
X213634391Y-72094422D01*
X213670129Y-72123752D01*
X213771586Y-72207014D01*
X213854848Y-72308471D01*
X213884178Y-72344209D01*
X213967843Y-72500734D01*
X214019363Y-72670573D01*
X214036759Y-72847200D01*
X214019363Y-73023827D01*
X213967843Y-73193666D01*
X213884178Y-73350191D01*
X213854848Y-73385929D01*
X213771586Y-73487386D01*
X213670129Y-73570648D01*
X213634391Y-73599978D01*
X213477866Y-73683643D01*
X213308027Y-73735163D01*
X213241842Y-73741682D01*
X213175660Y-73748200D01*
X213087140Y-73748200D01*
X213020958Y-73741682D01*
X212954773Y-73735163D01*
X212784934Y-73683643D01*
X212628409Y-73599978D01*
X212592671Y-73570648D01*
X212491214Y-73487386D01*
X212407952Y-73385929D01*
X212378622Y-73350191D01*
X212294957Y-73193666D01*
X212243437Y-73023827D01*
X212226041Y-72847200D01*
X212243437Y-72670573D01*
X212294957Y-72500734D01*
X212378622Y-72344209D01*
X212407952Y-72308471D01*
X212491214Y-72207014D01*
X212592671Y-72123752D01*
X212628409Y-72094422D01*
X212784934Y-72010757D01*
X212954773Y-71959237D01*
X213020957Y-71952719D01*
X213087140Y-71946200D01*
X213175660Y-71946200D01*
X213241843Y-71952719D01*
X213241843Y-71952719D01*
G37*
G36*
X197928800Y-73722800D02*
G01*
X196126800Y-73722800D01*
X196126800Y-71920800D01*
X197928800Y-71920800D01*
X197928800Y-73722800D01*
X197928800Y-73722800D01*
G37*
G36*
X217610643Y-71927319D02*
G01*
X217676827Y-71933837D01*
X217846666Y-71985357D01*
X218003191Y-72069022D01*
X218034141Y-72094422D01*
X218140386Y-72181614D01*
X218223648Y-72283071D01*
X218252978Y-72318809D01*
X218336643Y-72475334D01*
X218388163Y-72645173D01*
X218405559Y-72821800D01*
X218388163Y-72998427D01*
X218336643Y-73168266D01*
X218252978Y-73324791D01*
X218223648Y-73360529D01*
X218140386Y-73461986D01*
X218038929Y-73545248D01*
X218003191Y-73574578D01*
X217846666Y-73658243D01*
X217676827Y-73709763D01*
X217610642Y-73716282D01*
X217544460Y-73722800D01*
X217455940Y-73722800D01*
X217389758Y-73716282D01*
X217323573Y-73709763D01*
X217153734Y-73658243D01*
X216997209Y-73574578D01*
X216961471Y-73545248D01*
X216860014Y-73461986D01*
X216776752Y-73360529D01*
X216747422Y-73324791D01*
X216663757Y-73168266D01*
X216612237Y-72998427D01*
X216594841Y-72821800D01*
X216612237Y-72645173D01*
X216663757Y-72475334D01*
X216747422Y-72318809D01*
X216776752Y-72283071D01*
X216860014Y-72181614D01*
X216966259Y-72094422D01*
X216997209Y-72069022D01*
X217153734Y-71985357D01*
X217323573Y-71933837D01*
X217389757Y-71927319D01*
X217455940Y-71920800D01*
X217544460Y-71920800D01*
X217610643Y-71927319D01*
X217610643Y-71927319D01*
G37*
G36*
X199678243Y-71927319D02*
G01*
X199744427Y-71933837D01*
X199914266Y-71985357D01*
X200070791Y-72069022D01*
X200101741Y-72094422D01*
X200207986Y-72181614D01*
X200291248Y-72283071D01*
X200320578Y-72318809D01*
X200404243Y-72475334D01*
X200455763Y-72645173D01*
X200473159Y-72821800D01*
X200455763Y-72998427D01*
X200404243Y-73168266D01*
X200320578Y-73324791D01*
X200291248Y-73360529D01*
X200207986Y-73461986D01*
X200106529Y-73545248D01*
X200070791Y-73574578D01*
X199914266Y-73658243D01*
X199744427Y-73709763D01*
X199678242Y-73716282D01*
X199612060Y-73722800D01*
X199523540Y-73722800D01*
X199457358Y-73716282D01*
X199391173Y-73709763D01*
X199221334Y-73658243D01*
X199064809Y-73574578D01*
X199029071Y-73545248D01*
X198927614Y-73461986D01*
X198844352Y-73360529D01*
X198815022Y-73324791D01*
X198731357Y-73168266D01*
X198679837Y-72998427D01*
X198662441Y-72821800D01*
X198679837Y-72645173D01*
X198731357Y-72475334D01*
X198815022Y-72318809D01*
X198844352Y-72283071D01*
X198927614Y-72181614D01*
X199033859Y-72094422D01*
X199064809Y-72069022D01*
X199221334Y-71985357D01*
X199391173Y-71933837D01*
X199457357Y-71927319D01*
X199523540Y-71920800D01*
X199612060Y-71920800D01*
X199678243Y-71927319D01*
X199678243Y-71927319D01*
G37*
G36*
X202218243Y-71927319D02*
G01*
X202284427Y-71933837D01*
X202454266Y-71985357D01*
X202610791Y-72069022D01*
X202641741Y-72094422D01*
X202747986Y-72181614D01*
X202831248Y-72283071D01*
X202860578Y-72318809D01*
X202944243Y-72475334D01*
X202995763Y-72645173D01*
X203013159Y-72821800D01*
X202995763Y-72998427D01*
X202944243Y-73168266D01*
X202860578Y-73324791D01*
X202831248Y-73360529D01*
X202747986Y-73461986D01*
X202646529Y-73545248D01*
X202610791Y-73574578D01*
X202454266Y-73658243D01*
X202284427Y-73709763D01*
X202218242Y-73716282D01*
X202152060Y-73722800D01*
X202063540Y-73722800D01*
X201997358Y-73716282D01*
X201931173Y-73709763D01*
X201761334Y-73658243D01*
X201604809Y-73574578D01*
X201569071Y-73545248D01*
X201467614Y-73461986D01*
X201384352Y-73360529D01*
X201355022Y-73324791D01*
X201271357Y-73168266D01*
X201219837Y-72998427D01*
X201202441Y-72821800D01*
X201219837Y-72645173D01*
X201271357Y-72475334D01*
X201355022Y-72318809D01*
X201384352Y-72283071D01*
X201467614Y-72181614D01*
X201573859Y-72094422D01*
X201604809Y-72069022D01*
X201761334Y-71985357D01*
X201931173Y-71933837D01*
X201997357Y-71927319D01*
X202063540Y-71920800D01*
X202152060Y-71920800D01*
X202218243Y-71927319D01*
X202218243Y-71927319D01*
G37*
G36*
X208161842Y-69412718D02*
G01*
X208228027Y-69419237D01*
X208397866Y-69470757D01*
X208554391Y-69554422D01*
X208590129Y-69583752D01*
X208691586Y-69667014D01*
X208774848Y-69768471D01*
X208804178Y-69804209D01*
X208804179Y-69804211D01*
X208875028Y-69936758D01*
X208887843Y-69960734D01*
X208939363Y-70130573D01*
X208956759Y-70307200D01*
X208939363Y-70483827D01*
X208887843Y-70653666D01*
X208804178Y-70810191D01*
X208774848Y-70845929D01*
X208691586Y-70947386D01*
X208590129Y-71030648D01*
X208554391Y-71059978D01*
X208397866Y-71143643D01*
X208228027Y-71195163D01*
X208161843Y-71201681D01*
X208095660Y-71208200D01*
X208007140Y-71208200D01*
X207940957Y-71201681D01*
X207874773Y-71195163D01*
X207704934Y-71143643D01*
X207548409Y-71059978D01*
X207512671Y-71030648D01*
X207411214Y-70947386D01*
X207327952Y-70845929D01*
X207298622Y-70810191D01*
X207214957Y-70653666D01*
X207163437Y-70483827D01*
X207146041Y-70307200D01*
X207163437Y-70130573D01*
X207214957Y-69960734D01*
X207227773Y-69936758D01*
X207298621Y-69804211D01*
X207298622Y-69804209D01*
X207327952Y-69768471D01*
X207411214Y-69667014D01*
X207512671Y-69583752D01*
X207548409Y-69554422D01*
X207704934Y-69470757D01*
X207874773Y-69419237D01*
X207940958Y-69412718D01*
X208007140Y-69406200D01*
X208095660Y-69406200D01*
X208161842Y-69412718D01*
X208161842Y-69412718D01*
G37*
G36*
X210701842Y-69412718D02*
G01*
X210768027Y-69419237D01*
X210937866Y-69470757D01*
X211094391Y-69554422D01*
X211130129Y-69583752D01*
X211231586Y-69667014D01*
X211314848Y-69768471D01*
X211344178Y-69804209D01*
X211344179Y-69804211D01*
X211415028Y-69936758D01*
X211427843Y-69960734D01*
X211479363Y-70130573D01*
X211496759Y-70307200D01*
X211479363Y-70483827D01*
X211427843Y-70653666D01*
X211344178Y-70810191D01*
X211314848Y-70845929D01*
X211231586Y-70947386D01*
X211130129Y-71030648D01*
X211094391Y-71059978D01*
X210937866Y-71143643D01*
X210768027Y-71195163D01*
X210701843Y-71201681D01*
X210635660Y-71208200D01*
X210547140Y-71208200D01*
X210480957Y-71201681D01*
X210414773Y-71195163D01*
X210244934Y-71143643D01*
X210088409Y-71059978D01*
X210052671Y-71030648D01*
X209951214Y-70947386D01*
X209867952Y-70845929D01*
X209838622Y-70810191D01*
X209754957Y-70653666D01*
X209703437Y-70483827D01*
X209686041Y-70307200D01*
X209703437Y-70130573D01*
X209754957Y-69960734D01*
X209767773Y-69936758D01*
X209838621Y-69804211D01*
X209838622Y-69804209D01*
X209867952Y-69768471D01*
X209951214Y-69667014D01*
X210052671Y-69583752D01*
X210088409Y-69554422D01*
X210244934Y-69470757D01*
X210414773Y-69419237D01*
X210480958Y-69412718D01*
X210547140Y-69406200D01*
X210635660Y-69406200D01*
X210701842Y-69412718D01*
X210701842Y-69412718D01*
G37*
G36*
X213241842Y-69412718D02*
G01*
X213308027Y-69419237D01*
X213477866Y-69470757D01*
X213634391Y-69554422D01*
X213670129Y-69583752D01*
X213771586Y-69667014D01*
X213854848Y-69768471D01*
X213884178Y-69804209D01*
X213884179Y-69804211D01*
X213955028Y-69936758D01*
X213967843Y-69960734D01*
X214019363Y-70130573D01*
X214036759Y-70307200D01*
X214019363Y-70483827D01*
X213967843Y-70653666D01*
X213884178Y-70810191D01*
X213854848Y-70845929D01*
X213771586Y-70947386D01*
X213670129Y-71030648D01*
X213634391Y-71059978D01*
X213477866Y-71143643D01*
X213308027Y-71195163D01*
X213241843Y-71201681D01*
X213175660Y-71208200D01*
X213087140Y-71208200D01*
X213020957Y-71201681D01*
X212954773Y-71195163D01*
X212784934Y-71143643D01*
X212628409Y-71059978D01*
X212592671Y-71030648D01*
X212491214Y-70947386D01*
X212407952Y-70845929D01*
X212378622Y-70810191D01*
X212294957Y-70653666D01*
X212243437Y-70483827D01*
X212226041Y-70307200D01*
X212243437Y-70130573D01*
X212294957Y-69960734D01*
X212307773Y-69936758D01*
X212378621Y-69804211D01*
X212378622Y-69804209D01*
X212407952Y-69768471D01*
X212491214Y-69667014D01*
X212592671Y-69583752D01*
X212628409Y-69554422D01*
X212784934Y-69470757D01*
X212954773Y-69419237D01*
X213020958Y-69412718D01*
X213087140Y-69406200D01*
X213175660Y-69406200D01*
X213241842Y-69412718D01*
X213241842Y-69412718D01*
G37*
G36*
X218401200Y-71182800D02*
G01*
X216599200Y-71182800D01*
X216599200Y-69380800D01*
X218401200Y-69380800D01*
X218401200Y-71182800D01*
X218401200Y-71182800D01*
G37*
G36*
X197138242Y-69387318D02*
G01*
X197204427Y-69393837D01*
X197374266Y-69445357D01*
X197530791Y-69529022D01*
X197561741Y-69554422D01*
X197667986Y-69641614D01*
X197751248Y-69743071D01*
X197780578Y-69778809D01*
X197864243Y-69935334D01*
X197915763Y-70105173D01*
X197933159Y-70281800D01*
X197915763Y-70458427D01*
X197864243Y-70628266D01*
X197780578Y-70784791D01*
X197751248Y-70820529D01*
X197667986Y-70921986D01*
X197566529Y-71005248D01*
X197530791Y-71034578D01*
X197374266Y-71118243D01*
X197204427Y-71169763D01*
X197138243Y-71176281D01*
X197072060Y-71182800D01*
X196983540Y-71182800D01*
X196917357Y-71176281D01*
X196851173Y-71169763D01*
X196681334Y-71118243D01*
X196524809Y-71034578D01*
X196489071Y-71005248D01*
X196387614Y-70921986D01*
X196304352Y-70820529D01*
X196275022Y-70784791D01*
X196191357Y-70628266D01*
X196139837Y-70458427D01*
X196122441Y-70281800D01*
X196139837Y-70105173D01*
X196191357Y-69935334D01*
X196275022Y-69778809D01*
X196304352Y-69743071D01*
X196387614Y-69641614D01*
X196493859Y-69554422D01*
X196524809Y-69529022D01*
X196681334Y-69445357D01*
X196851173Y-69393837D01*
X196917358Y-69387318D01*
X196983540Y-69380800D01*
X197072060Y-69380800D01*
X197138242Y-69387318D01*
X197138242Y-69387318D01*
G37*
G36*
X199678242Y-69387318D02*
G01*
X199744427Y-69393837D01*
X199914266Y-69445357D01*
X200070791Y-69529022D01*
X200101741Y-69554422D01*
X200207986Y-69641614D01*
X200291248Y-69743071D01*
X200320578Y-69778809D01*
X200404243Y-69935334D01*
X200455763Y-70105173D01*
X200473159Y-70281800D01*
X200455763Y-70458427D01*
X200404243Y-70628266D01*
X200320578Y-70784791D01*
X200291248Y-70820529D01*
X200207986Y-70921986D01*
X200106529Y-71005248D01*
X200070791Y-71034578D01*
X199914266Y-71118243D01*
X199744427Y-71169763D01*
X199678243Y-71176281D01*
X199612060Y-71182800D01*
X199523540Y-71182800D01*
X199457357Y-71176281D01*
X199391173Y-71169763D01*
X199221334Y-71118243D01*
X199064809Y-71034578D01*
X199029071Y-71005248D01*
X198927614Y-70921986D01*
X198844352Y-70820529D01*
X198815022Y-70784791D01*
X198731357Y-70628266D01*
X198679837Y-70458427D01*
X198662441Y-70281800D01*
X198679837Y-70105173D01*
X198731357Y-69935334D01*
X198815022Y-69778809D01*
X198844352Y-69743071D01*
X198927614Y-69641614D01*
X199033859Y-69554422D01*
X199064809Y-69529022D01*
X199221334Y-69445357D01*
X199391173Y-69393837D01*
X199457358Y-69387318D01*
X199523540Y-69380800D01*
X199612060Y-69380800D01*
X199678242Y-69387318D01*
X199678242Y-69387318D01*
G37*
G36*
X202218242Y-69387318D02*
G01*
X202284427Y-69393837D01*
X202454266Y-69445357D01*
X202610791Y-69529022D01*
X202641741Y-69554422D01*
X202747986Y-69641614D01*
X202831248Y-69743071D01*
X202860578Y-69778809D01*
X202944243Y-69935334D01*
X202995763Y-70105173D01*
X203013159Y-70281800D01*
X202995763Y-70458427D01*
X202944243Y-70628266D01*
X202860578Y-70784791D01*
X202831248Y-70820529D01*
X202747986Y-70921986D01*
X202646529Y-71005248D01*
X202610791Y-71034578D01*
X202454266Y-71118243D01*
X202284427Y-71169763D01*
X202218243Y-71176281D01*
X202152060Y-71182800D01*
X202063540Y-71182800D01*
X201997357Y-71176281D01*
X201931173Y-71169763D01*
X201761334Y-71118243D01*
X201604809Y-71034578D01*
X201569071Y-71005248D01*
X201467614Y-70921986D01*
X201384352Y-70820529D01*
X201355022Y-70784791D01*
X201271357Y-70628266D01*
X201219837Y-70458427D01*
X201202441Y-70281800D01*
X201219837Y-70105173D01*
X201271357Y-69935334D01*
X201355022Y-69778809D01*
X201384352Y-69743071D01*
X201467614Y-69641614D01*
X201573859Y-69554422D01*
X201604809Y-69529022D01*
X201761334Y-69445357D01*
X201931173Y-69393837D01*
X201997358Y-69387318D01*
X202063540Y-69380800D01*
X202152060Y-69380800D01*
X202218242Y-69387318D01*
X202218242Y-69387318D01*
G37*
G36*
X185055119Y-68418598D02*
G01*
X185138561Y-68435195D01*
X185295763Y-68500310D01*
X185437241Y-68594842D01*
X185557558Y-68715159D01*
X185652090Y-68856637D01*
X185717205Y-69013839D01*
X185717205Y-69013840D01*
X185750400Y-69180722D01*
X185750400Y-69350878D01*
X185733803Y-69434319D01*
X185717205Y-69517761D01*
X185652090Y-69674963D01*
X185557558Y-69816441D01*
X185437241Y-69936758D01*
X185295763Y-70031290D01*
X185138561Y-70096405D01*
X185055119Y-70113002D01*
X184971678Y-70129600D01*
X184801522Y-70129600D01*
X184718081Y-70113002D01*
X184634639Y-70096405D01*
X184477437Y-70031290D01*
X184335959Y-69936758D01*
X184215642Y-69816441D01*
X184121110Y-69674963D01*
X184055995Y-69517761D01*
X184039397Y-69434319D01*
X184022800Y-69350878D01*
X184022800Y-69180722D01*
X184055995Y-69013840D01*
X184055995Y-69013839D01*
X184121110Y-68856637D01*
X184215642Y-68715159D01*
X184335959Y-68594842D01*
X184477437Y-68500310D01*
X184634639Y-68435195D01*
X184718081Y-68418598D01*
X184801522Y-68402000D01*
X184971678Y-68402000D01*
X185055119Y-68418598D01*
X185055119Y-68418598D01*
G37*
G36*
X182515119Y-68418598D02*
G01*
X182598561Y-68435195D01*
X182755763Y-68500310D01*
X182897241Y-68594842D01*
X183017558Y-68715159D01*
X183112090Y-68856637D01*
X183177205Y-69013839D01*
X183177205Y-69013840D01*
X183210400Y-69180722D01*
X183210400Y-69350878D01*
X183193803Y-69434319D01*
X183177205Y-69517761D01*
X183112090Y-69674963D01*
X183017558Y-69816441D01*
X182897241Y-69936758D01*
X182755763Y-70031290D01*
X182598561Y-70096405D01*
X182515119Y-70113002D01*
X182431678Y-70129600D01*
X182261522Y-70129600D01*
X182178081Y-70113002D01*
X182094639Y-70096405D01*
X181937437Y-70031290D01*
X181795959Y-69936758D01*
X181675642Y-69816441D01*
X181581110Y-69674963D01*
X181515995Y-69517761D01*
X181499397Y-69434319D01*
X181482800Y-69350878D01*
X181482800Y-69180722D01*
X181515995Y-69013840D01*
X181515995Y-69013839D01*
X181581110Y-68856637D01*
X181675642Y-68715159D01*
X181795959Y-68594842D01*
X181937437Y-68500310D01*
X182094639Y-68435195D01*
X182178081Y-68418598D01*
X182261522Y-68402000D01*
X182431678Y-68402000D01*
X182515119Y-68418598D01*
X182515119Y-68418598D01*
G37*
G36*
X169815119Y-68418598D02*
G01*
X169898561Y-68435195D01*
X170055763Y-68500310D01*
X170197241Y-68594842D01*
X170317558Y-68715159D01*
X170412090Y-68856637D01*
X170477205Y-69013839D01*
X170477205Y-69013840D01*
X170510400Y-69180722D01*
X170510400Y-69350878D01*
X170493803Y-69434319D01*
X170477205Y-69517761D01*
X170412090Y-69674963D01*
X170317558Y-69816441D01*
X170197241Y-69936758D01*
X170055763Y-70031290D01*
X169898561Y-70096405D01*
X169815119Y-70113002D01*
X169731678Y-70129600D01*
X169561522Y-70129600D01*
X169478081Y-70113002D01*
X169394639Y-70096405D01*
X169237437Y-70031290D01*
X169095959Y-69936758D01*
X168975642Y-69816441D01*
X168881110Y-69674963D01*
X168815995Y-69517761D01*
X168799397Y-69434319D01*
X168782800Y-69350878D01*
X168782800Y-69180722D01*
X168815995Y-69013840D01*
X168815995Y-69013839D01*
X168881110Y-68856637D01*
X168975642Y-68715159D01*
X169095959Y-68594842D01*
X169237437Y-68500310D01*
X169394639Y-68435195D01*
X169478081Y-68418598D01*
X169561522Y-68402000D01*
X169731678Y-68402000D01*
X169815119Y-68418598D01*
X169815119Y-68418598D01*
G37*
G36*
X167275119Y-68418598D02*
G01*
X167358561Y-68435195D01*
X167515763Y-68500310D01*
X167657241Y-68594842D01*
X167777558Y-68715159D01*
X167872090Y-68856637D01*
X167937205Y-69013839D01*
X167937205Y-69013840D01*
X167970400Y-69180722D01*
X167970400Y-69350878D01*
X167953803Y-69434319D01*
X167937205Y-69517761D01*
X167872090Y-69674963D01*
X167777558Y-69816441D01*
X167657241Y-69936758D01*
X167515763Y-70031290D01*
X167358561Y-70096405D01*
X167275119Y-70113002D01*
X167191678Y-70129600D01*
X167021522Y-70129600D01*
X166938081Y-70113002D01*
X166854639Y-70096405D01*
X166697437Y-70031290D01*
X166555959Y-69936758D01*
X166435642Y-69816441D01*
X166341110Y-69674963D01*
X166275995Y-69517761D01*
X166259397Y-69434319D01*
X166242800Y-69350878D01*
X166242800Y-69180722D01*
X166275995Y-69013840D01*
X166275995Y-69013839D01*
X166341110Y-68856637D01*
X166435642Y-68715159D01*
X166555959Y-68594842D01*
X166697437Y-68500310D01*
X166854639Y-68435195D01*
X166938081Y-68418598D01*
X167021522Y-68402000D01*
X167191678Y-68402000D01*
X167275119Y-68418598D01*
X167275119Y-68418598D01*
G37*
G36*
X187595119Y-68418598D02*
G01*
X187678561Y-68435195D01*
X187835763Y-68500310D01*
X187977241Y-68594842D01*
X188097558Y-68715159D01*
X188192090Y-68856637D01*
X188257205Y-69013839D01*
X188257205Y-69013840D01*
X188290400Y-69180722D01*
X188290400Y-69350878D01*
X188273803Y-69434319D01*
X188257205Y-69517761D01*
X188192090Y-69674963D01*
X188097558Y-69816441D01*
X187977241Y-69936758D01*
X187835763Y-70031290D01*
X187678561Y-70096405D01*
X187595119Y-70113002D01*
X187511678Y-70129600D01*
X187341522Y-70129600D01*
X187258081Y-70113002D01*
X187174639Y-70096405D01*
X187017437Y-70031290D01*
X186875959Y-69936758D01*
X186755642Y-69816441D01*
X186661110Y-69674963D01*
X186595995Y-69517761D01*
X186579397Y-69434319D01*
X186562800Y-69350878D01*
X186562800Y-69180722D01*
X186595995Y-69013840D01*
X186595995Y-69013839D01*
X186661110Y-68856637D01*
X186755642Y-68715159D01*
X186875959Y-68594842D01*
X187017437Y-68500310D01*
X187174639Y-68435195D01*
X187258081Y-68418598D01*
X187341522Y-68402000D01*
X187511678Y-68402000D01*
X187595119Y-68418598D01*
X187595119Y-68418598D01*
G37*
G36*
X160869794Y-63690155D02*
G01*
X160976150Y-63711311D01*
X161076334Y-63752809D01*
X161176520Y-63794307D01*
X161356844Y-63914795D01*
X161510205Y-64068156D01*
X161630693Y-64248480D01*
X161713689Y-64448851D01*
X161756000Y-64661560D01*
X161756000Y-64878440D01*
X161713689Y-65091149D01*
X161630693Y-65291520D01*
X161510205Y-65471844D01*
X161356844Y-65625205D01*
X161176520Y-65745693D01*
X160976150Y-65828689D01*
X160869795Y-65849844D01*
X160763440Y-65871000D01*
X160546560Y-65871000D01*
X160440205Y-65849844D01*
X160333850Y-65828689D01*
X160133480Y-65745693D01*
X159953156Y-65625205D01*
X159799795Y-65471844D01*
X159679307Y-65291520D01*
X159596311Y-65091149D01*
X159554000Y-64878440D01*
X159554000Y-64661560D01*
X159596311Y-64448851D01*
X159679307Y-64248480D01*
X159799795Y-64068156D01*
X159953156Y-63914795D01*
X160133480Y-63794307D01*
X160233666Y-63752809D01*
X160333850Y-63711311D01*
X160440206Y-63690155D01*
X160546560Y-63669000D01*
X160763440Y-63669000D01*
X160869794Y-63690155D01*
X160869794Y-63690155D01*
G37*
G36*
X218654794Y-63690155D02*
G01*
X218761150Y-63711311D01*
X218861334Y-63752809D01*
X218961520Y-63794307D01*
X219141844Y-63914795D01*
X219295205Y-64068156D01*
X219415693Y-64248480D01*
X219498689Y-64448851D01*
X219541000Y-64661560D01*
X219541000Y-64878440D01*
X219498689Y-65091149D01*
X219415693Y-65291520D01*
X219295205Y-65471844D01*
X219141844Y-65625205D01*
X218961520Y-65745693D01*
X218761150Y-65828689D01*
X218654795Y-65849844D01*
X218548440Y-65871000D01*
X218331560Y-65871000D01*
X218225205Y-65849844D01*
X218118850Y-65828689D01*
X217918480Y-65745693D01*
X217738156Y-65625205D01*
X217584795Y-65471844D01*
X217464307Y-65291520D01*
X217381311Y-65091149D01*
X217339000Y-64878440D01*
X217339000Y-64661560D01*
X217381311Y-64448851D01*
X217464307Y-64248480D01*
X217584795Y-64068156D01*
X217738156Y-63914795D01*
X217918480Y-63794307D01*
X218018666Y-63752809D01*
X218118850Y-63711311D01*
X218225206Y-63690155D01*
X218331560Y-63669000D01*
X218548440Y-63669000D01*
X218654794Y-63690155D01*
X218654794Y-63690155D01*
G37*
M02*
